<svg width="48" height="48" viewBox="0 0 48 48" fill="none" xmlns="http://www.w3.org/2000/svg">
<path d="M38.046 33.9535C37.1093 33.0563 36.1976 32.1332 35.312 31.1855C34.568 30.4295 34.12 29.8795 34.12 29.8795L28.52 27.2055C30.762 24.6628 31.9993 21.3895 32 17.9995C32 10.2815 25.72 3.99951 18 3.99951C10.28 3.99951 4 10.2815 4 17.9995C4 25.7175 10.28 31.9995 18 31.9995C21.526 31.9995 24.74 30.6795 27.206 28.5215L29.88 34.1215C29.88 34.1215 30.43 34.5695 31.186 35.3135C31.96 36.0395 32.978 37.0215 33.954 38.0475L36.67 40.8315L37.878 42.1235L42.12 37.8815L40.828 36.6735C40.07 35.9295 39.058 34.9415 38.046 33.9535ZM18 27.9995C12.486 27.9995 8 23.5135 8 17.9995C8 12.4855 12.486 7.99951 18 7.99951C23.514 7.99951 28 12.4855 28 17.9995C28 23.5135 23.514 27.9995 18 27.9995Z" fill="white"/>
</svg>
