<svg width="140" height="206" viewBox="0 0 140 206" fill="none" xmlns="http://www.w3.org/2000/svg">
<path d="M114.691 177.216L113.352 192.612L107.327 193.951L105.988 189.934C105.988 189.934 108.331 178.889 108.331 176.881L114.691 177.216Z" fill="#A0616A"/>
<path d="M97.9556 166.506C97.9556 166.506 100.633 173.2 101.637 173.869C102.641 174.539 98.625 183.241 98.625 183.241L92.6004 182.237C92.6004 182.237 94.6086 175.208 92.9351 171.192L97.9556 166.506Z" fill="#A0616A"/>
<path d="M99.7964 170.355C99.7964 170.355 102.307 171.192 103.311 174.874C104.315 178.556 104.315 178.89 104.315 178.89L102.641 182.572H101.637C101.637 182.572 99.9638 188.262 100.298 190.27C100.633 192.278 97.9556 199.977 93.2698 199.642C88.5839 199.307 89.5881 193.617 89.5881 193.617L91.9309 181.903C91.9309 181.903 91.931 178.89 92.6004 178.89C93.2698 178.89 98.625 179.894 98.625 179.894V180.899C98.625 180.899 102.474 175.711 99.7964 170.355Z" fill="#2F2E41"/>
<path d="M108.331 190.939V188.931C108.331 188.931 115.36 189.935 115.36 190.939V193.282C115.36 193.282 121.385 206.001 114.691 206.001C107.997 206.001 106.658 203.323 106.658 203.323V199.641C106.658 199.641 103.311 197.968 103.311 196.964C103.311 195.96 106.577 187.09 106.577 187.09C106.577 187.09 106.658 192.278 108.331 190.939Z" fill="#2F2E41"/>
<path d="M116.364 25.2607C122.279 25.2607 127.075 20.4655 127.075 14.5503C127.075 8.63507 122.279 3.83984 116.364 3.83984C110.449 3.83984 105.654 8.63507 105.654 14.5503C105.654 20.4655 110.449 25.2607 116.364 25.2607Z" fill="#A0616A"/>
<path d="M120.548 22.7513C120.548 22.7513 119.209 29.1106 119.209 29.78C119.209 30.4494 112.85 33.4617 112.85 33.4617L107.16 32.4576L105.152 26.433C105.152 26.433 108.499 21.4125 108.499 19.4043L120.548 22.7513Z" fill="#A0616A"/>
<path d="M119.652 27.1636C119.652 27.1636 116.197 32.7924 111.176 31.1189C109.78 30.6951 108.553 29.8411 107.671 28.6788C106.79 27.5164 106.297 26.1052 106.265 24.6465L89.7554 30.4495L92.7677 54.8826L90.0901 83.3322L92.0983 87.0139H121.552C121.552 87.0139 122.556 81.9934 122.891 81.9934C123.225 81.9934 123.895 80.9893 123.56 80.6546C123.225 80.3199 122.556 79.9852 122.891 78.9811C123.225 77.977 123.56 66.9319 123.56 66.9319L133.601 37.8129L119.652 27.1636Z" fill="#A5AFED"/>
<path d="M132.43 90.8639L126.405 98.8967C126.405 98.8967 125.401 90.5292 124.062 90.1945L127.409 87.8516L132.43 90.8639Z" fill="#A0616A"/>
<path d="M65.4896 84.5039C65.4896 84.5039 56.4527 90.1938 57.4568 93.8755C58.4609 97.5572 68.8366 87.5162 68.8366 87.1815C68.8366 86.8468 65.4896 84.5039 65.4896 84.5039Z" fill="#A0616A"/>
<path d="M121.719 84.5041H122.389L123.393 89.1899C123.393 89.1899 128.748 93.8757 126.07 101.239L120.715 136.383L120.046 177.216L114.021 178.89L107.327 177.551L105.654 122.995C105.654 122.995 103.311 117.974 104.315 116.301C105.319 114.627 103.98 114.962 103.98 114.962L96.9515 134.375C96.9515 134.375 99.2944 140.734 96.9515 142.742C96.9515 142.742 97.2862 143.746 96.9515 144.081C96.6168 144.416 94.9433 145.754 95.6127 146.424C96.2821 147.093 96.6168 146.424 96.6168 147.428C96.6168 148.432 99.9638 156.8 98.625 167.51L94.2739 174.204L90.2575 171.861L82.8941 151.11C82.8941 151.11 84.5676 148.097 82.8941 147.428C81.2206 146.758 80.8859 146.089 81.5553 145.085C82.2247 144.081 82.2247 140.734 81.2206 139.06C80.2165 137.387 81.2206 134.709 81.2206 134.709L84.9023 100.904C84.9023 100.904 83.2288 91.8675 88.9187 87.1817L89.9228 83.5C89.9228 83.5 98.2903 89.5246 121.719 84.5041Z" fill="#2F2E41"/>
<path d="M125.652 5.92227C125.652 5.92227 122.252 -1.44553 115.734 0.254736C109.216 1.955 105.532 4.50539 105.249 7.05578C104.966 9.60617 105.391 13.4318 105.391 13.4318C105.391 13.4318 106.099 8.18929 110.633 9.3228C115.167 10.4563 122.252 9.60617 122.252 9.60617L123.385 19.8077C123.385 19.8077 124.66 17.9658 126.077 19.0993C127.494 20.2328 130.186 8.18929 125.652 5.92227Z" fill="#2F2E41"/>
<path d="M128.581 37.8125H133.601C133.601 37.8125 137.952 41.4942 137.618 48.5229L139.961 68.2703C139.961 68.2703 139.961 77.9766 135.944 85.0053L131.593 93.3729C131.593 93.3729 129.92 88.687 124.899 89.3565L127.577 82.3277V80.6542C127.577 80.6542 128.581 79.3154 128.581 78.9807C128.581 78.646 127.242 78.646 128.246 77.9766C129.25 77.3072 130.254 70.6132 130.254 70.6132C130.254 70.6132 129.92 69.2744 129.585 68.9397C129.25 68.605 129.92 67.6009 129.92 67.6009L129.25 66.5968L124.899 50.1964L128.581 37.8125Z" fill="#A5AFED"/>
<path d="M95.4453 29.4453L89.7554 30.4494C89.7554 30.4494 86.4084 33.7964 85.0696 37.8128L82.392 49.8621L78.0409 58.5643C78.0409 58.5643 73.0204 63.5848 69.3387 74.9646L63.9835 85.0057L69.6734 88.3527C69.6734 88.3527 85.4043 69.9441 87.4125 63.5848L96.1147 46.8498L95.4453 29.4453Z" fill="#A5AFED"/>
<g filter="url(#filter0_d_1105_232)">
<path d="M7.27245 146H65.7419C66.307 145.997 66.8618 145.847 67.3523 145.566C67.8427 145.284 68.2521 144.88 68.5407 144.393C68.8293 143.906 68.9873 143.352 68.9993 142.785C69.0112 142.219 68.8768 141.659 68.6091 141.16L39.3887 86.7262C39.1086 86.2044 38.6929 85.7684 38.1855 85.4644C37.6782 85.1605 37.0982 85 36.5072 85C35.9161 85 35.3362 85.1605 34.8288 85.4644C34.3214 85.7684 33.9057 86.2044 33.6256 86.7262L4.39092 141.16C4.1226 141.66 3.98819 142.221 4.00081 142.789C4.01344 143.357 4.17267 143.911 4.46296 144.399C4.75325 144.887 5.16468 145.29 5.65709 145.571C6.1495 145.852 6.70606 145.999 7.27245 146V146ZM40.2274 136.053H32.787V128.597H40.2274V136.053ZM40.2274 123.624H32.787V108.707H40.2274V123.624Z" fill="#EF5DA8"/>
</g>
<defs>
<filter id="filter0_d_1105_232" x="0" y="81" width="73" height="69" filterUnits="userSpaceOnUse" color-interpolation-filters="sRGB">
<feFlood flood-opacity="0" result="BackgroundImageFix"/>
<feColorMatrix in="SourceAlpha" type="matrix" values="0 0 0 0 0 0 0 0 0 0 0 0 0 0 0 0 0 0 127 0" result="hardAlpha"/>
<feOffset/>
<feGaussianBlur stdDeviation="2"/>
<feComposite in2="hardAlpha" operator="out"/>
<feColorMatrix type="matrix" values="0 0 0 0 0 0 0 0 0 0 0 0 0 0 0 0 0 0 0.25 0"/>
<feBlend mode="normal" in2="BackgroundImageFix" result="effect1_dropShadow_1105_232"/>
<feBlend mode="normal" in="SourceGraphic" in2="effect1_dropShadow_1105_232" result="shape"/>
</filter>
</defs>
</svg>
