<svg width="1920" height="59" viewBox="0 0 1920 59" fill="none" xmlns="http://www.w3.org/2000/svg">
<path d="M0 9.62478L35.6 12.9268C71.0667 16.1053 142.667 22.8944 213.333 17.8643C284.4 13.0193 356 -3.64485 426.667 1.38526C497.733 6.23022 569.333 32.7695 640 39.25C711.067 45.7305 782.667 32.7695 853.333 24.4374C924.4 16.1053 996 13.0193 1066.67 12.9268C1137.73 13.0193 1209.33 16.1053 1280 24.4374C1351.07 32.7695 1422.67 45.7305 1493.33 40.8856C1564.4 35.8554 1636 13.0193 1706.67 6.3228C1777.73 -0.250295 1849.33 9.62478 1884 14.5623L1920 19.4999V59.0001H1884.4C1848.93 59.0001 1777.33 59.0001 1706.67 59.0001C1635.6 59.0001 1564 59.0001 1493.33 59.0001C1422.27 59.0001 1350.67 59.0001 1280 59.0001C1208.93 59.0001 1137.33 59.0001 1066.67 59.0001C995.6 59.0001 924 59.0001 853.333 59.0001C782.267 59.0001 710.667 59.0001 640 59.0001C568.933 59.0001 497.333 59.0001 426.667 59.0001C355.6 59.0001 284 59.0001 213.333 59.0001C142.267 59.0001 70.6667 59.0001 36 59.0001H0V9.62478Z" fill="#A5AFED"/>
</svg>
