<svg width="1920" height="180" viewBox="0 0 1920 180" fill="none" xmlns="http://www.w3.org/2000/svg">
<path d="M0 43.4668L18.8 68.7998C37.6 94.4045 74.6667 144.663 113.333 166.6C150.533 188.13 188 181.338 225.333 163.001C263.467 144.663 301.333 116.138 338.667 90.5332C376.533 65.2002 414.667 43.4668 452 47.0664C489.467 50.9377 526.667 79.4628 565.333 101.4C602.4 122.93 640 137.871 677.333 130.4C715.333 122.93 753.333 94.4045 790.667 79.6665C828.267 65.2002 865.333 65.2002 904 72.4673C941.2 79.4628 978.667 94.4045 1016 101.4C1054.13 108.667 1092 108.667 1129.33 105.067C1167.07 101.196 1205.33 94.4045 1242.67 79.6665C1280 65.2002 1317.33 43.4668 1354.67 54.3335C1392.93 65.2002 1430.67 108.667 1468 134C1505.87 159.605 1544 166.396 1581.33 148.534C1618.8 130.4 1656 86.9336 1694.67 68.7998C1731.73 50.9377 1769.33 57.7294 1806.67 72.4673C1844.67 86.9336 1882.67 108.667 1901.33 119.534L1920 130.4V0H1901.2C1882.4 0 1845.33 0 1806.67 0C1769.47 0 1732 0 1694.67 0C1656.53 0 1618.67 0 1581.33 0C1543.47 0 1505.33 0 1468 0C1430.53 0 1393.33 0 1354.67 0C1317.6 0 1280 0 1242.67 0C1204.67 0 1166.67 0 1129.33 0C1091.73 0 1054.67 0 1016 0C978.8 0 941.333 0 904 0C865.867 0 828 0 790.667 0C752.933 0 714.667 0 677.333 0C640 0 602.667 0 565.333 0C527.067 0 489.333 0 452 0C414.133 0 376 0 338.667 0C301.2 0 264 0 225.333 0C188.267 0 150.667 0 113.333 0C75.3333 0 37.3333 0 18.6667 0H0V43.4668Z" fill="#A5AFED"/>
</svg>
