<svg width="788" height="902" viewBox="0 0 788 902" fill="none" xmlns="http://www.w3.org/2000/svg">
<path opacity="0.1" d="M0 362.162V510.294H176.916V362.162H0ZM0 514.877V642.095C1.01207 642.363 2.00781 642.631 3.01172 642.856C4.35842 643.198 5.71328 643.509 7.09263 643.776L7.90881 643.926C8.44749 644.044 8.99434 644.141 9.54118 644.226C10.9042 644.483 12.2672 644.676 13.6221 644.847C14.2587 644.933 14.9198 644.997 15.5646 645.072L17.1398 645.222C17.9968 645.308 18.8457 645.372 19.6945 645.415C20.2169 645.415 20.7392 645.469 21.2697 645.49C21.8002 645.511 22.0859 645.49 22.5103 645.49H24.0529C24.7548 645.49 25.4567 645.49 26.1505 645.49H27.0483C27.7502 645.49 28.4521 645.49 29.1459 645.404H29.1867C29.6764 645.404 30.158 645.404 30.6477 645.329C30.7863 645.34 30.9253 645.34 31.0639 645.329C31.472 645.329 31.8801 645.329 32.2719 645.265C32.3642 645.255 32.457 645.255 32.5494 645.265C33.4553 645.19 34.3694 645.094 35.2917 644.987C36.214 644.88 37.0873 644.751 38.0096 644.623L39.8624 644.323C47.4332 642.932 54.9199 640.842 62.2666 638.069C78.778 632.029 94.9139 623.58 111.417 617.401C132.736 609.423 156.307 605.493 176.908 615.206V514.877H0ZM176.916 197.228V0.0180511C157.549 -0.26152 138.234 2.70739 119.44 8.85265C74.6399 23.6198 34.4103 55.6493 0 96.5561V197.217H8.90456V201.79H0V357.578H176.916V201.79H45.3308V197.206L176.916 197.228ZM404.206 130.609C393.123 130.095 382.104 125.501 372.13 118.38C353.081 104.791 337.851 83.7808 320.841 66.0687C285.501 29.1562 241.672 6.87156 196.708 1.34592V197.228H449.243L449.872 196.36L404.206 130.609ZM427.215 125.255L451.61 160.39V116.014C443.399 117.374 436.25 120.533 427.215 125.212V125.255ZM451.61 673.686V514.877H399.587C399.456 514.202 399.309 513.517 399.146 512.832C399.301 513.517 399.44 514.202 399.579 514.877H196.708V629.716C198.634 631.59 200.536 633.571 202.421 635.563C204.456 637.748 206.478 639.957 208.486 642.192L210.51 644.387C211.481 645.458 212.469 646.529 213.448 647.546C215.412 649.623 217.39 651.68 219.382 653.714C220.378 654.742 221.379 655.752 222.385 656.745C238.327 672.73 255.142 687.158 272.695 699.911C276.629 702.792 280.604 705.565 284.603 708.274C287.264 710.073 289.943 711.837 292.642 713.564C296.691 716.156 300.772 718.655 304.885 721.06C342.81 743.396 382.913 758.72 424.048 766.594C433.178 768.357 442.349 769.749 451.561 770.77V673.664H452.377L451.61 673.686ZM196.708 201.79V357.578H451.61V201.79H196.708ZM196.708 362.14V510.294H451.61V362.162L196.708 362.14ZM471.395 115.799V165.38L502.524 120.543C492.207 118.309 481.831 116.728 471.395 115.799ZM471.395 362.162V510.294H719.31V362.162H471.395ZM718.437 685.433L719.31 514.877H471.395V772.494C487.363 773.365 503.356 773.111 519.304 771.734H519.582C527.2 771.091 534.782 770.177 542.329 768.992H542.5C582.775 762.841 622.154 749.04 659.402 728.021L718.437 685.433ZM767.138 386.492C766.197 383.636 765.231 380.78 764.241 377.925C762.396 372.57 760.454 367.366 758.446 362.172H739.102V510.294H788C787.959 468.337 779.863 425.503 767.138 386.492ZM739.102 514.877V661.585C752.871 644.269 764.518 624.448 772.892 601.788C782.972 574.492 787.584 544.958 787.967 514.866L739.102 514.877ZM739.102 318.995V357.546H756.634C751.32 344.294 745.467 331.425 739.102 318.995ZM570.969 144.873C569.679 144.22 568.382 143.567 567.084 142.946C553.401 136.311 539.417 130.796 525.214 126.433L477.565 195.032L476.634 196.35L477.247 197.217H646.833C623.213 175.892 597.746 158.321 570.969 144.873ZM651.812 201.79H474.871L471.395 205.955V357.578H501.879H719.31V284.117C699.649 252.923 676.957 225.244 651.812 201.79Z" fill="#A5AFED"/>
<path d="M285.396 610.864H184.145V724.082H285.396V610.864Z" fill="#CCCCCC"/>
<path d="M236.105 862.366L234.366 886.146C234.287 887.223 234.439 888.303 234.813 889.316C235.186 890.329 235.771 891.25 236.53 892.018C237.288 892.786 238.202 893.383 239.21 893.769C240.218 894.154 241.297 894.32 242.374 894.255L254.588 893.515C255.154 893.481 255.706 893.322 256.204 893.051C256.701 892.779 257.133 892.401 257.468 891.944C257.804 891.487 258.034 890.961 258.143 890.405C258.252 889.848 258.238 889.275 258.1 888.725L251.32 861.605L236.105 862.366Z" fill="#E6E6E6"/>
<path d="M338.273 876.428C352.648 879.791 362.917 884.571 369.663 891.04C372.066 893.326 375.209 894.674 378.522 894.837C382.753 895.06 386.212 894.585 388.812 893.424H388.812C389.478 893.13 390.053 892.664 390.478 892.073C390.903 891.482 391.162 890.788 391.228 890.064C391.307 889.327 391.187 888.583 390.882 887.909C390.576 887.235 390.096 886.654 389.49 886.228L355.396 861.97L340.914 867.763L337.536 871.141C337.17 871.507 336.894 871.953 336.73 872.443C336.566 872.934 336.517 873.456 336.589 873.968C336.66 874.48 336.849 874.969 337.141 875.396C337.434 875.823 337.821 876.176 338.273 876.428H338.273Z" fill="#E6E6E6"/>
<path d="M294.033 488.161L196.58 487.258C196.825 473.064 200.128 459.126 207.347 446.653C212.088 438.461 211.985 429.546 210.843 422.036C209.079 410.445 213.18 398.586 222.291 391.208C229.253 385.56 238.041 382.652 246.998 383.033L248.891 383.112C255.055 383.368 261.055 385.169 266.342 388.348C271.628 391.528 276.032 395.985 279.147 401.31C282.313 406.994 283.59 413.538 282.793 419.996C282.176 426.072 283.654 432.21 287.111 438.407C293.075 452.014 294.367 469.425 294.033 488.161Z" fill="#2F2E41"/>
<path d="M359.235 863.235L340.109 868.224L246.972 665.32L252.793 863.235H233.667C213.23 770.121 176.331 662.659 192.92 628.731L291.877 622.91L359.235 863.235Z" fill="#A5AFED"/>
<path d="M246.14 454.1C260.377 454.1 271.919 442.559 271.919 428.322C271.919 414.084 260.377 402.543 246.14 402.543C231.903 402.543 220.361 414.084 220.361 428.322C220.361 442.559 231.903 454.1 246.14 454.1Z" fill="#FFB9B9"/>
<path d="M268.593 475.721L226.183 473.227C230.339 463.687 231.999 454.501 230.34 445.785H261.94C261.869 452.477 265.199 464.054 268.593 475.721Z" fill="#FFB9B9"/>
<path d="M295.203 630.394L202.067 637.047L211.63 471.979L227.846 467.406L246.14 471.563L264.435 462.416L276.077 466.574L295.203 630.394Z" fill="#A5AFED"/>
<path d="M217.866 749.309L154.251 734.757C173.167 672.028 207.246 528.525 196.246 477.385L229.508 462.416L217.866 749.309Z" fill="#E6E6E6"/>
<path d="M187.098 568.026L162.982 553.058L183.549 492.823C185.843 486.607 190.236 481.389 195.97 478.069L202.898 474.058L198.74 534.763L187.098 568.026Z" fill="#E6E6E6"/>
<path d="M350.504 735.588C330.425 747.205 280.236 753.68 258.199 745.567C256.577 688.891 253.397 528.577 263.604 460.753L300.193 475.721L296.867 520.626C279.374 559.04 330.169 692.836 350.504 735.588Z" fill="#E6E6E6"/>
<path d="M347.593 560.542L325.14 553.058L295.203 518.963L300.193 475.721L350.087 545.574L347.593 560.542Z" fill="#E6E6E6"/>
<path d="M277.226 592.91C277.594 594.522 278.585 595.922 279.984 596.804C281.382 597.687 283.074 597.978 284.687 597.615L303.746 593.299L300.991 581.133L281.932 585.449C280.319 585.814 278.917 586.806 278.034 588.205C277.152 589.604 276.861 591.296 277.226 592.91Z" fill="#FFB9B9"/>
<path d="M268.593 421.669C254.274 415.781 240.132 415.355 226.182 420.837L220.361 400.048H273.582L268.593 421.669Z" fill="#2F2E41"/>
<path d="M294.371 578.837L305.182 598.794C323.365 593.723 339.123 577.735 354.244 558.879L350.087 545.574L324.308 552.226L294.371 578.837Z" fill="#E6E6E6"/>
<path d="M286.472 537.674H283.145C283.145 490.628 273.459 457.843 264.019 457.843L263.188 454.516C271.653 454.516 277.05 468.161 280.087 479.608C284.204 495.127 286.472 515.748 286.472 537.674Z" fill="#3F3D56"/>
<path d="M209.967 526.032H206.641C206.641 482.945 216.394 456.179 230.756 456.179L229.925 459.506C219.991 459.506 209.967 480.076 209.967 526.032Z" fill="#3F3D56"/>
<path d="M284.809 546.821C289.402 546.821 293.125 543.098 293.125 538.505C293.125 533.913 289.402 530.189 284.809 530.189C280.216 530.189 276.493 533.913 276.493 538.505C276.493 543.098 280.216 546.821 284.809 546.821Z" fill="#3F3D56"/>
<path d="M196.661 545.989H193.335C193.335 534.068 200.05 524.368 208.303 524.368V527.695C201.884 527.695 196.661 535.902 196.661 545.989Z" fill="#3F3D56"/>
<path d="M223.272 545.989H219.946C219.946 535.902 214.723 527.695 208.304 527.695V524.368C216.557 524.368 223.272 534.068 223.272 545.989Z" fill="#3F3D56"/>
<path d="M221.61 550.147C223.447 550.147 224.936 548.658 224.936 546.821C224.936 544.984 223.447 543.495 221.61 543.495C219.772 543.495 218.283 544.984 218.283 546.821C218.283 548.658 219.772 550.147 221.61 550.147Z" fill="#3F3D56"/>
<path d="M194.999 550.147C196.836 550.147 198.325 548.658 198.325 546.821C198.325 544.984 196.836 543.495 194.999 543.495C193.162 543.495 191.673 544.984 191.673 546.821C191.673 548.658 193.162 550.147 194.999 550.147Z" fill="#3F3D56"/>
<path d="M153.42 516.234L174.174 519.94L221.609 587.388L196.409 581.458L153.42 516.234Z" fill="#A5AFED"/>
<path d="M149.739 515.408C149.422 515.413 149.113 515.502 148.843 515.667C148.574 515.833 148.353 516.067 148.205 516.347C148.057 516.626 147.987 516.94 148.002 517.256C148.017 517.572 148.117 517.878 148.29 518.143L192.63 585.418C192.878 585.794 193.26 586.061 193.698 586.164L214.329 591.017C214.676 591.099 215.041 591.073 215.374 590.943C215.706 590.813 215.992 590.585 216.192 590.289C216.392 589.993 216.498 589.643 216.494 589.286C216.491 588.929 216.379 588.581 216.174 588.288L167.491 519.068C167.359 518.879 167.191 518.718 166.997 518.595C166.802 518.471 166.586 518.387 166.359 518.347L150.071 515.438C149.961 515.418 149.85 515.408 149.739 515.408Z" fill="#3F3D56"/>
<path d="M177.398 563.509L178.631 575.922L198.077 573.991C199.723 573.828 201.237 573.017 202.285 571.738C203.333 570.458 203.831 568.815 203.667 567.169C203.504 565.523 202.693 564.009 201.414 562.961C200.135 561.912 198.491 561.415 196.845 561.579L177.398 563.509Z" fill="#FFB9B9"/>
<path d="M160.488 562.071C160.517 566.304 162.216 570.353 165.218 573.338C168.219 576.323 172.278 578 176.51 578.005H179.708L182.036 558.606L162.761 551.667L160.488 562.071Z" fill="#E6E6E6"/>
<path d="M561.895 566.694C561.895 566.694 558.606 566.235 558.606 561.451C558.606 556.668 556.252 547.711 556.252 547.711C556.252 547.711 554.215 532.126 551.402 529.655C548.589 527.185 544.975 512.676 544.975 512.676C544.975 512.676 544.357 504.805 543.097 503.11C541.836 501.416 540.133 497.267 537.621 491.348C535.108 485.43 524.657 481.373 524.657 481.373C524.657 481.373 505.716 470.388 500.349 466.806C499.858 466.51 499.399 466.163 498.98 465.771C498.045 464.553 493.971 464.528 493.971 464.528C493.545 461.831 493.136 458.743 493.003 455.946C493.003 455.646 493.003 455.345 493.003 455.045C498.988 451.507 503.496 445.929 505.699 439.335C505.8 439.017 505.883 438.692 505.975 438.366C506.341 438.253 506.679 438.064 506.967 437.811C507.255 437.557 507.486 437.246 507.644 436.897C508.12 435.82 508.137 434.568 508.738 433.558C509.439 432.373 510.775 431.738 511.826 430.853C514.481 428.591 515.166 424.793 515.04 421.346C514.957 418.541 514.506 415.719 514.681 412.94C514.681 412.706 514.681 412.472 514.731 412.238C514.782 411.829 514.84 411.404 514.915 411.003C515.324 408.933 516.217 406.979 516.718 404.926C517.219 402.872 517.269 400.56 516.1 398.79C514.389 396.194 510.825 395.677 507.694 395.451C504.147 395.151 501.016 395.535 498.704 392.588C497.643 391.049 496.448 389.608 495.131 388.281C494.664 387.847 490.123 385.067 490.123 384.892C485.68 382.826 480.639 382.437 475.932 383.798C473.57 384.483 471.357 385.601 468.962 386.161C463.82 387.379 457.893 386.06 453.519 389.007C451.081 390.677 449.62 393.339 448.251 395.919C447.138 398.045 446.009 400.173 444.862 402.305C443.009 405.802 441.139 409.358 440.363 413.232C440.2 414.078 440.097 414.934 440.054 415.794C440.054 416.103 440.054 416.412 440.054 416.721C440.054 416.855 440.054 416.988 440.054 417.122C440.054 417.406 440.054 417.689 440.104 417.956C440.154 418.224 440.104 418.299 440.163 418.474C440.221 418.649 440.238 419.042 440.288 419.309C440.338 419.576 440.438 420.052 440.538 420.411C440.538 420.569 440.638 420.72 440.688 420.878C440.738 421.037 440.872 421.437 440.981 421.713C441.089 421.988 441.097 422.005 441.164 422.147C441.289 422.439 441.44 422.723 441.59 422.982C441.657 423.09 441.707 423.199 441.774 423.307C442.003 423.698 442.259 424.072 442.542 424.426C444.32 426.655 446.957 428.074 448.902 430.161C448.902 430.244 448.902 430.328 448.902 430.411C448.902 430.636 448.902 430.862 448.902 431.096C449.021 435.75 450.276 440.305 452.557 444.364C454.839 448.423 458.077 451.864 461.991 454.385C461.991 454.703 462.033 455.028 462.05 455.354C462.213 457.829 462.182 460.313 461.958 462.783C461.617 462.384 461.192 462.065 460.712 461.852C460.233 461.638 459.711 461.534 459.187 461.548C458.828 461.53 458.469 461.561 458.118 461.639L458.043 461.581V461.656C456.207 462.107 453.944 464.018 451.782 469.453C451.782 469.453 445.204 476.865 440.196 476.556C435.187 476.248 422.507 484.278 422.507 484.278C422.507 484.278 410.136 492.3 407.482 500.481C405.998 505.121 404.216 509.66 402.148 514.071L386.813 545.558L384 570.6C384 570.6 385.561 581.711 385.252 583.414C384.943 585.117 391.671 600.393 391.671 600.393C391.671 600.393 413.901 639.443 422.983 641.446L423.634 640.995C424.025 641.192 424.436 641.344 424.861 641.446L426.731 640.136C426.847 641.603 426.797 643.079 426.581 644.535C425.337 648.4 427.057 673.559 429.244 678.493C431.431 683.426 430.655 748.12 430.655 748.12L430.346 753.821C430.346 753.821 430.346 754.005 430.421 754.322L430.346 755.674L430.571 755.791C430.805 757.605 430.729 759.446 430.346 761.234C429.561 763.738 429.244 770.809 429.244 770.809C429.244 770.809 422.983 810.777 425.955 818.807C428.927 826.838 431.439 835.636 431.439 835.636C431.439 835.636 434.57 845.653 431.59 847.323C428.609 848.992 420.17 851.956 421.89 856.121C423.476 859.978 429.494 870.312 430.388 871.823L430.312 872.658L429.085 885.955C429.284 887.711 429.76 889.424 430.496 891.031C431.84 893.935 434.444 896.932 439.42 896.607C440.254 896.548 441.214 896.456 442.158 896.331C451.248 895.104 462.434 891.047 462.434 891.047C461.854 890.68 461.324 890.239 460.856 889.737C460.409 889.304 460.055 888.785 459.816 888.211C459.576 887.636 459.456 887.02 459.462 886.398C459.596 883.968 455.063 872.44 453.928 869.594L453.669 868.96C453.669 868.96 464.003 858.149 462.284 848.583C462.284 848.583 450.847 841.905 454.612 838.232C458.377 834.559 465.105 824.041 465.105 824.041C465.105 824.041 465.414 784.682 465.105 778.814C464.783 774.732 464.977 770.626 465.681 766.593C465.806 765.992 465.957 765.399 466.115 764.807C471.326 765.593 476.589 765.992 481.859 766C483.784 766 485.732 765.962 487.702 765.884C487.702 766.44 487.727 767.041 487.777 767.687C488.211 777.437 489.021 794.541 489.68 800.893C490.615 809.992 495.782 834.542 495.782 834.542C495.782 834.542 485.924 840.862 497.502 856.463C497.502 856.463 497.502 862.106 496.734 862.933C495.914 865.61 495.253 868.333 494.756 871.088C494.272 874.018 494.071 876.998 494.856 878.534C496.734 882.224 508.003 881.923 508.003 881.923C508.094 881.902 508.186 881.888 508.279 881.882C510.406 881.657 512.556 881.858 514.605 882.475C516.653 883.091 518.558 884.11 520.207 885.471C524.49 888.91 540.734 887.408 549.541 886.306C552.988 885.863 555.292 885.471 555.292 885.471C555.403 885.081 555.443 884.673 555.409 884.269C555.317 882.107 553.623 877.366 542.137 873.133C542.137 873.133 531.335 865.871 531.485 859.543H531.243H529.999C530.784 859.518 531.335 859.518 531.335 859.518C531.335 859.518 527.103 844.084 528.831 842.823C530.558 841.563 525.383 824.459 525.383 824.459C525.383 824.459 522.42 795.743 522.253 793.74C522.264 792.013 522.528 790.297 523.037 788.647L522.253 772.896C522.253 772.896 522.102 767.662 522.253 765.959C522.236 764.481 522.119 763.005 521.902 761.543C521.827 760.959 521.752 760.349 521.668 759.748C525.717 758.721 528.346 757.778 528.346 757.778L527.879 702.976C531.318 696.298 531.952 681.64 531.936 671.255C531.936 664.577 531.635 659.636 531.635 659.636L536.335 651.964C536.335 651.964 537.42 642.782 535.701 640.77C534.941 639.86 535.283 638.917 535.909 638.141C536.239 637.871 536.587 637.625 536.953 637.406C536.912 637.348 536.875 637.286 536.844 637.222C537.172 636.948 537.521 636.7 537.888 636.479C537.888 636.479 536.218 633.892 537.712 632.798C539.115 633.75 540.367 634.509 541.319 635.052C541.252 635.661 541.185 636.012 541.185 636.012L541.586 635.177C542.504 635.695 543.063 636.012 543.063 636.012C543.063 636.012 550.426 621.345 550.267 619.192C550.108 617.038 555.276 607.922 555.276 607.922C555.276 607.922 555.902 603.131 558.723 601.127C561.545 599.124 560.91 584.608 560.91 584.608C560.91 584.608 561.695 577.045 563.573 573.964C565.451 570.884 561.895 566.694 561.895 566.694ZM421.021 560.258L421.163 563.755C420.329 562.411 419.728 561.451 419.728 561.451L421.021 560.258Z" fill="url(#paint0_linear)"/>
<path d="M466.909 762.954C466.35 764.337 465.925 765.771 465.64 767.236C464.944 771.248 464.75 775.33 465.064 779.39C465.373 785.233 465.064 824.392 465.064 824.392C465.064 824.392 458.461 834.835 454.771 838.516C451.082 842.197 462.284 848.808 462.284 848.808C463.954 858.333 453.836 869.085 453.836 869.085C443.552 856.647 431.114 872.148 431.114 872.148C431.114 872.148 424.353 860.462 422.666 856.288C420.98 852.114 429.269 849.234 432.183 847.531C435.096 845.828 432.032 835.845 432.032 835.845C432.032 835.845 429.578 827.088 426.657 819.099C423.735 811.111 429.879 771.351 429.879 771.351C429.879 771.351 430.196 764.281 430.956 761.818C431.335 760.041 431.411 758.212 431.181 756.409C431.131 755.8 431.073 755.299 431.031 754.948C430.989 754.598 430.956 754.447 430.956 754.447L431.072 754.247L435.246 746.467C435.246 746.467 468.912 758.054 466.909 762.954Z" fill="#A5AFED"/>
<path d="M530.182 859.711C530.182 859.711 522.669 859.552 518.662 863.05C514.656 866.547 495.289 863.818 496.124 863.05C496.959 862.282 496.884 856.605 496.884 856.605C485.523 841.087 495.214 834.793 495.214 834.793C495.214 834.793 490.147 810.376 489.229 801.319C488.586 795 487.793 777.946 487.367 768.288C487.184 764.114 487.075 761.234 487.075 761.234L496.274 759.406L497.468 759.172L519.856 754.673C519.856 754.673 520.474 758.847 520.891 762.261C521.102 763.718 521.217 765.188 521.234 766.66C521.092 768.33 521.234 773.564 521.234 773.564L522.001 789.224C521.506 790.867 521.247 792.574 521.234 794.291C521.392 796.294 524.305 824.851 524.305 824.851C524.305 824.851 529.372 841.897 527.644 843.124C525.917 844.351 530.182 859.711 530.182 859.711Z" fill="#A5AFED"/>
<path opacity="0.1" d="M477.734 471.49H453.993V495.23H477.734V471.49Z" fill="#A5AFED"/>
<path opacity="0.1" d="M477.734 530.048H453.993V553.788H477.734V530.048Z" fill="#A5AFED"/>
<path opacity="0.1" d="M477.734 588.598H453.993V612.338H477.734V588.598Z" fill="#A5AFED"/>
<path opacity="0.1" d="M477.734 647.156H453.993V670.897H477.734V647.156Z" fill="#A5AFED"/>
<path opacity="0.1" d="M477.734 705.714H453.993V729.455H477.734V705.714Z" fill="#A5AFED"/>
<path opacity="0.1" d="M453.993 779.574V764.264H477.725V777.395L453.993 779.574Z" fill="#A5AFED"/>
<path opacity="0.1" d="M488.245 898.276C533.167 898.276 569.584 892.427 569.584 885.212C569.584 877.997 533.167 872.148 488.245 872.148C443.323 872.148 406.906 877.997 406.906 885.212C406.906 892.427 443.323 898.276 488.245 898.276Z" fill="#494961"/>
<path d="M543.497 629.668L541.694 637.348C541.694 637.348 527.252 629.96 524.656 620.611C522.06 611.261 529.005 607.697 529.005 607.697L542.47 613.39L543.497 629.668Z" fill="white"/>
<path opacity="0.1" d="M543.497 629.668L541.694 637.348C541.694 637.348 527.252 629.96 524.656 620.611C522.06 611.261 529.005 607.697 529.005 607.697L542.47 613.39L543.497 629.668Z" fill="black"/>
<path d="M462.45 891.039C462.45 891.039 449.094 895.947 439.912 896.565C435.037 896.891 432.474 893.902 431.155 891.022C430.439 889.434 429.971 887.745 429.77 886.014L430.98 872.783L431.614 865.746L451.123 860.67L453.886 869.127L454.144 869.761C455.246 872.591 459.704 884.06 459.57 886.456C459.56 887.076 459.675 887.691 459.909 888.265C460.142 888.839 460.49 889.36 460.931 889.795C461.383 890.272 461.893 890.69 462.45 891.039Z" fill="white"/>
<path d="M553.639 884.311C553.673 884.715 553.634 885.123 553.522 885.513C553.522 885.513 524.956 890.271 519.113 885.513C517.471 884.123 515.556 883.091 513.492 882.483C511.428 881.875 509.26 881.704 507.126 881.982C507.126 881.982 496.074 882.282 494.229 878.643C493.461 877.115 493.661 874.152 494.137 871.238C494.623 868.498 495.27 865.789 496.074 863.125L496.516 862.774L499.146 860.662L529.932 859.752H530.165C530.015 866.046 540.608 873.267 540.608 873.267C551.886 877.441 553.547 882.157 553.639 884.311Z" fill="white"/>
<path opacity="0.1" d="M553.647 884.311C553.677 884.716 553.634 885.123 553.522 885.513C553.522 885.513 524.957 890.271 519.122 885.513C517.478 884.122 515.562 883.089 513.497 882.481C511.431 881.873 509.261 881.703 507.126 881.982C507.126 881.982 496.066 882.282 494.221 878.643C493.461 877.115 493.653 874.152 494.129 871.23C498.386 871.656 505.106 872.716 507.744 875.254C511.734 879.093 518.496 882.933 522.636 883.242C525.908 883.443 545.367 884.06 553.647 884.311Z" fill="black"/>
<path opacity="0.1" d="M462.449 891.039C462.449 891.039 449.093 895.947 439.911 896.565C435.036 896.891 432.473 893.902 431.154 891.022C434.56 892.166 439.277 893.359 441.756 892.266C444.694 890.955 455.112 890.121 460.955 889.762C461.396 890.25 461.898 890.68 462.449 891.039Z" fill="black"/>
<path d="M482.266 495.455C471.248 491.173 457.074 477.024 460.613 470.413C461.395 468.743 461.862 466.943 461.99 465.104C462.218 462.606 462.251 460.094 462.09 457.591C461.842 453.489 461.349 449.405 460.613 445.362C460.613 445.362 495.013 446.138 493.01 451.205C492.426 452.699 492.325 455.279 492.492 458.159C492.659 461.038 493.068 464.319 493.502 467.082C494.095 470.864 494.704 473.76 494.704 473.76C494.704 473.76 492.592 476.707 491.365 476.865C490.138 477.024 498.077 501.591 482.266 495.455Z" fill="#CF6F80"/>
<path opacity="0.1" d="M454.111 869.719L453.852 870.003C443.568 857.565 431.13 873.075 431.13 873.075L430.946 872.741L431.581 865.704L451.089 860.629L453.852 869.085L454.111 869.719Z" fill="black"/>
<path opacity="0.1" d="M530.182 860.629C530.182 860.629 522.669 860.478 518.662 864.018C514.655 867.557 495.289 864.777 496.124 864.018C496.367 863.632 496.516 863.195 496.558 862.741L499.187 860.629L529.973 859.719C530.09 860.303 530.182 860.629 530.182 860.629Z" fill="black"/>
<path opacity="0.1" d="M493.01 451.23C492.426 452.724 492.326 455.304 492.493 458.184C487.885 460.958 482.588 462.377 477.21 462.277C471.832 462.176 466.592 460.561 462.091 457.616C461.842 453.514 461.349 449.43 460.613 445.387C460.613 445.387 495.014 446.163 493.01 451.23Z" fill="black"/>
<path d="M506.291 432.799C506.382 440.372 503.46 447.672 498.169 453.092C492.877 458.511 485.65 461.607 478.076 461.698C470.502 461.789 463.203 458.867 457.783 453.576C452.363 448.284 449.268 441.057 449.177 433.483C449.177 433.249 449.177 433.032 449.177 432.799C449.177 425.223 452.186 417.957 457.543 412.6C462.9 407.243 470.166 404.233 477.742 404.233C485.318 404.233 492.584 407.243 497.941 412.6C503.298 417.957 506.308 425.223 506.308 432.799H506.291Z" fill="#CF6F80"/>
<path opacity="0.1" d="M482.266 495.455C471.248 491.173 457.074 477.024 460.613 470.413C461.395 468.743 461.862 466.943 461.99 465.104L477.074 477.508L486.407 485.163L493.502 467.107C494.095 470.889 494.704 473.785 494.704 473.785C494.704 473.785 492.592 476.732 491.365 476.89C490.138 477.049 498.077 501.591 482.266 495.455Z" fill="black"/>
<path d="M521.275 550.274L508.679 761.885L492.251 762.962L449.703 640.261L456.682 494.587L458.159 463.81L477.075 479.345L486.407 486.999L493.712 468.409L507.293 480.246L521.275 550.274Z" fill="#A5AFED"/>
<path opacity="0.1" d="M466.907 762.954C466.349 764.337 465.924 765.771 465.638 767.236C453.673 765.394 442.052 761.767 431.163 756.476L430.938 756.359L431.013 755.015V754.314L435.186 746.534C435.186 746.534 468.911 758.054 466.907 762.954Z" fill="black"/>
<path opacity="0.1" d="M496.549 767.269C493.493 767.792 490.411 768.146 487.317 768.33C487.133 764.156 487.024 761.276 487.024 761.276L496.274 759.406L496.549 767.269Z" fill="black"/>
<path opacity="0.1" d="M520.924 762.261C514.989 763.805 505.815 765.541 497.618 764.456L497.501 759.172L519.889 754.673C519.889 754.673 520.482 758.813 520.924 762.261Z" fill="black"/>
<path opacity="0.1" d="M497.468 765.425C463.243 771.268 431.898 754.514 431.898 754.514L432.198 748.838C432.198 748.838 432.974 684.486 430.821 679.553C428.667 674.62 426.989 649.635 428.208 645.821C429.427 642.006 423.759 584.407 423.759 584.407L422.84 561.034L389.208 547.369L404.234 516.041C406.263 511.649 408.008 507.132 409.459 502.518C412.072 494.379 424.201 486.39 424.201 486.39C424.201 486.39 436.639 478.41 441.556 478.71C446.472 479.011 452.917 471.648 452.917 471.648C457.675 459.519 461.982 464.97 461.982 464.97C461.982 465.555 461.982 464.97 461.749 466.765C460.079 480.079 488.745 522.151 489.154 522.902L491.917 589.399L494.68 673.551L497.468 765.425Z" fill="black"/>
<path d="M496.549 765.425C462.324 771.268 430.971 754.514 430.971 754.514L431.28 748.838C431.28 748.838 432.048 684.486 429.894 679.553C427.74 674.62 426.062 649.61 427.29 645.762C428.517 641.914 422.815 584.374 422.815 584.374L421.889 561.001L388.265 547.336L403.29 516.007C405.315 511.617 407.06 507.103 408.516 502.493C411.129 494.379 423.299 486.382 423.299 486.382C423.299 486.382 435.737 478.401 440.646 478.702C445.554 479.002 452.032 471.648 452.032 471.648C456.798 459.519 462.049 464.97 462.049 464.97C462.049 465.555 461.548 465.805 461.815 466.765C465.488 479.679 487.893 522.151 488.302 522.902L491.065 589.399L493.77 673.593L496.549 765.425Z" fill="white"/>
<path opacity="0.1" d="M487.326 524.78C483.644 523.245 464.144 500.982 464.144 500.982V495.915C463.435 494.245 459.211 495.263 455.797 496.432L457.266 465.655L458.936 467.04C462.583 479.946 486.925 524.038 487.326 524.78Z" fill="black"/>
<path d="M488.252 522.944C484.562 521.4 465.062 499.145 465.062 499.145V494.07C464.353 492.4 460.137 493.419 456.715 494.587L458.159 463.843L459.829 465.22C463.51 478.109 487.843 522.193 488.252 522.944Z" fill="white"/>
<path opacity="0.1" d="M431.898 633.967C432.357 633.967 455.697 631.513 455.697 631.513C455.697 631.513 469.829 659.31 468.903 666.063C467.976 672.817 466.298 678.81 460.613 677.75C454.929 676.69 430.02 678.585 430.02 678.585L431.898 633.967Z" fill="black"/>
<path d="M430.971 632.122C431.438 632.122 454.778 629.668 454.778 629.668C454.778 629.668 468.902 657.507 467.984 664.185C467.066 670.863 465.371 676.932 459.695 675.872C454.019 674.812 429.093 676.707 429.093 676.707L430.971 632.122Z" fill="white"/>
<path d="M448.559 619.108C448.559 619.108 469.979 630.628 470.438 634.134C470.897 637.64 459.536 632.598 457.082 631.98C455.466 631.596 453.822 631.339 452.165 631.212L435.796 631.655L448.559 619.108Z" fill="#CF6F80"/>
<path opacity="0.1" d="M481.341 526.216C482.585 526.216 483.595 525.207 483.595 523.963C483.595 522.718 482.585 521.709 481.341 521.709C480.096 521.709 479.087 522.718 479.087 523.963C479.087 525.207 480.096 526.216 481.341 526.216Z" fill="black"/>
<path d="M481.341 525.298C482.585 525.298 483.595 524.289 483.595 523.044C483.595 521.799 482.585 520.79 481.341 520.79C480.096 520.79 479.087 521.799 479.087 523.044C479.087 524.289 480.096 525.298 481.341 525.298Z" fill="#3F3D56"/>
<path opacity="0.1" d="M485.488 623.783C486.733 623.783 487.742 622.774 487.742 621.529C487.742 620.284 486.733 619.275 485.488 619.275C484.243 619.275 483.234 620.284 483.234 621.529C483.234 622.774 484.243 623.783 485.488 623.783Z" fill="black"/>
<path d="M485.488 622.856C486.733 622.856 487.742 621.847 487.742 620.602C487.742 619.358 486.733 618.349 485.488 618.349C484.243 618.349 483.234 619.358 483.234 620.602C483.234 621.847 484.243 622.856 485.488 622.856Z" fill="#3F3D56"/>
<path opacity="0.1" d="M483.594 575C484.838 575 485.848 573.99 485.848 572.746C485.848 571.501 484.838 570.492 483.594 570.492C482.349 570.492 481.34 571.501 481.34 572.746C481.34 573.99 482.349 575 483.594 575Z" fill="black"/>
<path d="M483.594 574.081C484.838 574.081 485.848 573.072 485.848 571.827C485.848 570.583 484.838 569.574 483.594 569.574C482.349 569.574 481.34 570.583 481.34 571.827C481.34 573.072 482.349 574.081 483.594 574.081Z" fill="#3F3D56"/>
<path d="M535.55 630.745C535.55 630.745 537.086 633.049 535.55 634.084C534.014 635.119 535.701 637.773 535.701 637.773C535.701 637.773 531.869 640.01 533.555 642.039C535.241 644.067 534.173 653.175 534.173 653.175L529.565 660.846C529.565 660.846 529.841 665.763 529.857 672.407C529.857 682.775 529.248 697.35 525.875 703.995L526.326 758.513C526.326 758.513 510.19 764.414 496.684 762.611L494.681 675.129C494.681 675.129 497.602 625.519 498.679 616.003C499.309 611.062 499.566 606.081 499.447 601.102C499.447 601.102 498.988 586.21 497.444 579.307C497.444 579.307 495.774 549.356 495.607 541.067C495.532 537.102 495.741 525.532 495.974 514.53C496.233 502.501 496.525 491.156 496.525 491.156L493.479 467.04C493.479 467.04 496.525 466.74 497.444 467.959C497.855 468.343 498.302 468.687 498.779 468.985C504.047 472.541 522.628 483.477 522.628 483.477C522.628 483.477 532.912 487.567 535.375 493.427C537.838 499.287 539.549 503.444 540.743 505.114C541.936 506.783 542.587 514.63 542.587 514.63C542.587 514.63 546.127 529.071 548.89 531.517C551.653 533.963 553.639 549.489 553.639 549.489L529.223 568.689C529.223 568.689 527.077 600.627 526.618 601.862C526.159 603.098 535.55 630.745 535.55 630.745Z" fill="white"/>
<path d="M536.477 630.745C536.477 630.745 538.004 633.049 536.477 634.084C534.949 635.119 536.618 637.773 536.618 637.773C536.618 637.773 532.787 640.01 534.473 642.039C536.159 644.067 535.091 653.175 535.091 653.175L530.5 660.846C530.5 660.846 530.775 665.763 530.8 672.407C530.8 682.775 530.191 697.35 526.818 703.995L527.278 758.513C527.278 758.513 511.142 764.414 497.635 762.611L495.64 675.129C495.64 675.129 498.554 625.519 499.639 616.003C500.27 611.063 500.524 606.081 500.398 601.102C500.398 601.102 499.939 586.21 498.403 579.307C498.403 579.307 496.734 549.356 496.558 541.067C496.483 537.102 496.692 525.532 496.926 514.53C497.185 502.501 497.477 491.156 497.477 491.156L493.453 466.715C493.453 466.715 497.477 466.715 498.403 467.959C498.811 468.347 499.258 468.691 499.739 468.985C504.998 472.541 523.58 483.477 523.58 483.477C523.58 483.477 533.839 487.567 536.343 493.427C538.847 499.287 540.517 503.444 541.71 505.114C542.904 506.783 543.555 514.63 543.555 514.63C543.555 514.63 547.095 529.071 549.858 531.517C552.621 533.963 554.616 549.489 554.616 549.489L530.199 568.689C530.199 568.689 528.054 600.627 527.586 601.862C527.119 603.098 536.477 630.745 536.477 630.745Z" fill="white"/>
<path opacity="0.1" d="M507.234 498.244L509.446 504.671L497.835 516.358C498.094 504.329 498.386 492.985 498.386 492.985L494.362 468.551C494.362 468.551 498.386 468.551 499.312 469.795C499.72 470.184 500.168 470.528 500.648 470.822L510.515 499.279L507.234 498.244Z" fill="black"/>
<path d="M506.291 496.399L508.503 502.818L496.9 514.505C497.15 502.476 497.451 491.131 497.451 491.131L493.419 466.69C493.419 466.69 497.451 466.69 498.369 467.933C498.778 468.32 499.226 468.664 499.705 468.96L509.63 497.442L506.291 496.399Z" fill="white"/>
<path opacity="0.1" d="M506.291 432.799C506.294 435.806 505.821 438.796 504.888 441.655C504.731 441.682 504.571 441.676 504.416 441.639C504.261 441.601 504.115 441.533 503.987 441.438C503.762 433.925 500.072 426.863 495.522 420.862C494.243 419.051 492.695 417.447 490.931 416.103C489.146 414.764 486.926 414.136 484.704 414.342C482.2 414.684 479.988 416.387 477.458 416.604C474.119 416.88 471.131 414.567 467.817 414.459C466.469 414.47 465.14 414.769 463.917 415.337C462.695 415.904 461.608 416.726 460.73 417.748C458.987 419.803 457.693 422.2 456.932 424.785C455.619 428.707 454.904 432.804 454.811 436.939C454.77 439.276 454.544 442.206 452.374 443.058C452.538 441.34 452.343 439.607 451.801 437.969C451.26 436.33 450.383 434.823 449.227 433.542L449.177 433.483C449.177 433.249 449.177 433.032 449.177 432.799C449.177 425.223 452.186 417.957 457.543 412.6C462.9 407.243 470.166 404.233 477.742 404.233C485.318 404.233 492.584 407.243 497.941 412.6C503.298 417.957 506.308 425.223 506.308 432.799H506.291Z" fill="black"/>
<path d="M489.596 387.446C485.259 385.406 480.325 385.02 475.723 386.361C473.41 387.045 471.232 388.156 468.886 388.715C463.877 389.925 458.034 388.615 453.735 391.545C451.348 393.214 449.912 395.852 448.576 398.423L445.237 404.776C443.418 408.257 441.581 411.796 440.821 415.628C440.062 419.459 440.521 423.75 442.95 426.838C444.711 429.075 447.333 430.486 449.252 432.598C450.406 433.886 451.28 435.398 451.821 437.04C452.361 438.682 452.555 440.419 452.391 442.139C454.562 441.305 454.779 438.358 454.829 436.021C454.922 431.886 455.637 427.789 456.949 423.867C457.711 421.282 459.004 418.885 460.747 416.83C461.625 415.807 462.712 414.983 463.934 414.415C465.156 413.846 466.486 413.545 467.834 413.532C471.173 413.649 474.17 415.961 477.476 415.678C479.98 415.469 482.2 413.766 484.721 413.424C486.944 413.213 489.165 413.842 490.949 415.185C492.713 416.524 494.26 418.129 495.531 419.943C500.089 425.953 503.787 432.982 504.004 440.52C504.948 441.205 506.308 440.303 506.776 439.234C507.243 438.166 507.26 436.914 507.853 435.895C508.537 434.718 509.848 434.084 510.874 433.199C513.479 430.954 514.13 427.172 514.03 423.741C513.93 420.311 513.262 416.83 513.913 413.457C514.305 411.395 515.19 409.45 515.674 407.405C516.158 405.36 516.217 403.064 515.073 401.303C513.404 398.724 509.889 398.206 506.826 397.964C503.345 397.664 500.231 398.048 498.011 395.118C496.966 393.59 495.793 392.155 494.505 390.827C494.046 390.384 489.596 387.63 489.596 387.446Z" fill="#512E4E"/>
<path opacity="0.1" d="M398.841 563.48L390.126 547.361L387.363 572.236C387.363 572.236 388.899 583.289 388.59 584.983C388.281 586.678 394.884 601.87 394.884 601.87C394.884 601.87 416.697 640.728 425.604 642.723L455.655 621.22L447.675 611.086C447.675 611.086 444.911 610.009 444.219 611.086C444.219 611.086 429.393 585.593 427.866 583.756C426.338 581.92 426.63 578.222 426.63 578.222C426.63 578.222 424.326 575.767 425.094 573.464C425.862 571.16 420.687 563.179 420.687 563.179L425.445 558.73L398.841 563.48Z" fill="black"/>
<path d="M390.586 545.516L388.282 547.361L385.519 572.237C385.519 572.237 387.054 583.289 386.746 584.983C386.437 586.678 393.048 601.87 393.048 601.87C393.048 601.87 414.852 640.728 423.759 642.723L453.86 621.22L445.872 611.086C445.872 611.086 443.108 610.009 442.416 611.086C442.416 611.086 427.599 585.593 426.063 583.756C424.527 581.92 424.836 578.222 424.836 578.222C424.836 578.222 422.532 575.768 423.3 573.464C424.068 571.16 418.842 563.179 418.842 563.179L423.6 558.73L390.586 545.516Z" fill="white"/>
<path opacity="0.1" d="M533.554 642.999C535.224 645.027 534.172 654.143 534.172 654.143L529.564 661.764C529.564 661.764 529.84 666.689 529.856 673.334L522.11 675.755C521.409 675.973 520.665 676.021 519.942 675.894C519.219 675.767 518.536 675.469 517.951 675.025C517.366 674.58 516.896 674.003 516.58 673.34C516.264 672.677 516.11 671.948 516.133 671.214L517.477 628.14L535.55 635.044C534.014 636.112 535.7 638.733 535.7 638.733C535.7 638.733 531.868 640.97 533.554 642.999Z" fill="black"/>
<path d="M534.473 642.081C536.143 644.101 535.091 653.216 535.091 653.216L530.5 660.846C530.5 660.846 530.775 665.763 530.8 672.407L522.912 674.87C522.227 675.085 521.5 675.132 520.793 675.009C520.086 674.886 519.419 674.595 518.847 674.161C518.275 673.728 517.815 673.163 517.505 672.515C517.196 671.867 517.046 671.155 517.069 670.437L518.413 627.214L536.477 634.134C534.932 635.202 536.619 637.823 536.619 637.823C536.619 637.823 532.787 640.052 534.473 642.081Z" fill="white"/>
<path d="M540.466 621.529C540.466 621.529 539.239 629.367 536.167 629.827C533.095 630.286 531.718 642.507 528.654 642.081C525.591 641.655 527.619 630.711 527.728 628.591C527.836 626.471 524.389 617.689 526.96 615.694C529.531 613.699 537.711 615.694 537.711 615.694L540.466 621.529Z" fill="#CF6F80"/>
<path opacity="0.1" d="M546.96 561.176L552.745 549.489C552.745 549.489 555.057 558.396 555.057 563.154C555.057 567.912 558.279 568.38 558.279 568.38C558.279 568.38 561.81 572.554 559.949 575.601C558.087 578.647 557.344 586.194 557.344 586.194C557.344 586.194 557.954 600.627 555.191 602.622C552.428 604.617 551.81 609.383 551.81 609.383C551.81 609.383 546.743 618.44 546.902 620.594C547.06 622.748 539.839 637.331 539.839 637.331C539.839 637.331 543.37 619.208 522.794 611.378C522.794 611.378 522.635 605.234 524.171 603.548C525.707 601.862 528.103 601.044 526.6 592.563C525.098 584.082 526.166 573.856 526.166 571.811C526.166 569.766 530.774 557.019 530.774 557.019L546.96 561.176Z" fill="black"/>
<path d="M549.532 547.82L554.591 549.489C554.591 549.489 556.903 558.396 556.903 563.154C556.903 567.912 560.125 568.38 560.125 568.38C560.125 568.38 563.656 572.554 561.795 575.601C559.933 578.647 559.182 586.194 559.182 586.194C559.182 586.194 559.8 600.627 557.037 602.622C554.273 604.617 553.697 609.383 553.697 609.383C553.697 609.383 548.63 618.44 548.789 620.594C548.948 622.748 541.719 637.331 541.719 637.331C541.719 637.331 545.25 619.208 524.673 611.378C524.673 611.378 524.523 605.234 526.059 603.548C527.595 601.862 529.99 601.044 528.488 592.563C526.985 584.082 528.054 573.856 528.054 571.811C528.054 569.766 532.662 557.019 532.662 557.019L549.532 547.82Z" fill="white"/>
<path opacity="0.1" d="M437.773 850.729C437.773 850.729 445.837 845.662 451.13 849.343C456.422 853.024 437.773 850.729 437.773 850.729Z" fill="black"/>
<path opacity="0.1" d="M500.447 835.06C500.447 835.06 507.584 834.142 513.578 840.594C519.572 847.047 500.447 835.06 500.447 835.06Z" fill="black"/>
<g opacity="0.1">
<path opacity="0.1" d="M510.875 431.363C509.848 432.256 508.529 432.882 507.844 434.059C507.26 435.069 507.243 436.321 506.776 437.398C506.309 438.475 504.948 439.368 503.996 438.683C503.779 431.171 500.081 424.117 495.532 418.107C494.26 416.295 492.714 414.693 490.949 413.357C489.164 412.011 486.94 411.38 484.713 411.587C482.209 411.929 480.005 413.632 477.476 413.849C474.137 414.125 471.14 411.813 467.826 411.704C466.48 411.714 465.151 412.013 463.93 412.58C462.709 413.148 461.624 413.97 460.747 414.993C459.005 417.048 457.711 419.445 456.949 422.03C455.638 425.952 454.923 430.049 454.829 434.184C454.779 436.513 454.562 439.418 452.408 440.286C452.458 440.906 452.458 441.528 452.408 442.148C454.587 441.313 454.804 438.366 454.854 436.029C454.948 431.894 455.663 427.797 456.974 423.875C457.736 421.29 459.03 418.893 460.772 416.838C461.649 415.815 462.734 414.992 463.955 414.424C465.176 413.855 466.504 413.554 467.851 413.54C471.19 413.657 474.195 415.97 477.501 415.686C480.005 415.477 482.226 413.774 484.738 413.432C486.964 413.222 489.187 413.85 490.974 415.193C492.739 416.532 494.285 418.138 495.557 419.951C500.106 425.962 503.804 432.99 504.021 440.528C504.973 441.213 506.334 440.311 506.801 439.243C507.268 438.174 507.285 436.922 507.87 435.904C508.554 434.727 509.873 434.092 510.9 433.207C513.504 430.962 514.155 427.18 514.055 423.75C514.055 423.641 514.055 423.541 514.055 423.432C513.888 426.421 513.095 429.451 510.875 431.363Z" fill="black"/>
<path opacity="0.1" d="M449.244 430.778C447.332 428.666 444.711 427.247 442.95 425.01C441.462 423.035 440.614 420.652 440.521 418.182C440.259 421.271 441.121 424.351 442.95 426.855C444.711 429.092 447.332 430.503 449.244 432.615C451.09 434.679 452.2 437.298 452.399 440.061C452.525 438.381 452.31 436.693 451.768 435.098C451.226 433.503 450.367 432.034 449.244 430.778Z" fill="black"/>
<path opacity="0.1" d="M515.674 405.569C515.182 407.614 514.305 409.559 513.905 411.621C513.664 413.015 513.577 414.431 513.646 415.844C513.673 415.046 513.76 414.251 513.905 413.465C514.305 411.404 515.182 409.459 515.674 407.413C515.957 406.285 516.05 405.117 515.95 403.958C515.896 404.5 515.804 405.039 515.674 405.569Z" fill="black"/>
</g>
<rect opacity="0.6" x="148" y="894" width="492" height="8" rx="4" fill="#494961"/>
<path d="M599.331 245.908C587.594 234.339 571.92 227.954 556.203 223.869C538.411 219.245 520.012 216.522 501.836 213.908C482.893 211.185 463.875 209.084 444.782 207.606C425.715 206.136 406.613 205.295 387.476 205.082C370.425 204.891 353.259 204.885 336.29 206.777C320.308 208.559 304.364 212.134 289.955 219.475C277.129 225.869 266.353 235.732 258.852 247.944C251.956 259.31 247.856 272.936 249.282 286.297C249.951 292.877 251.999 299.241 255.294 304.975C259.156 311.312 264.078 316.938 269.845 321.608C281.75 331.661 295.985 339.01 306.227 350.958C308.931 354.089 311.294 357.499 313.274 361.13C314.761 363.885 316.434 366.255 319.2 367.862C321.669 369.271 324.501 369.918 327.337 369.72C330.173 369.522 332.887 368.489 335.137 366.751C338.327 364.247 340.618 360.387 343.087 357.21L351.696 346.131C352.319 345.138 353.04 344.21 353.848 343.362C354.429 342.882 353.471 343.304 353.661 343.185C353.766 343.119 353.949 343.156 354.063 343.109C354.637 342.945 355.224 342.835 355.819 342.783C362.105 341.627 368.404 340.546 374.717 339.54C398.027 335.779 421.488 332.676 445.047 331.004C457.19 330.034 469.378 329.744 481.553 330.133C497.297 330.777 512.823 333.904 528.509 335.252C545.398 336.704 563.137 336.504 579.051 329.992C591.788 324.779 603.614 316.01 610.511 303.899C613.783 298.171 615.722 291.778 616.183 285.197C617.025 270.27 609.766 256.194 599.331 245.908Z" fill="#494961"/>
<path d="M378.09 217.316C375.087 217.316 372.086 217.332 369.086 217.364C340.282 217.669 310.514 219.998 287.924 234.845C267.873 248.024 253.82 277.379 265.713 298.431C271.174 308.097 281.068 315.134 291.544 322.583C295.649 325.503 299.896 328.523 303.965 331.775C312.854 338.878 321.225 348.412 326.041 359.131L347.192 331.912L351.188 331.147C355.033 330.411 445.9 313.18 494.294 318.774C498.744 319.289 503.243 319.881 507.594 320.453C527.253 323.04 545.822 325.481 563.649 321.876C582.26 318.11 602.695 303.737 603.911 284.516C604.744 271.357 596.183 256.922 582.103 247.74C567.865 238.457 550.108 234.624 533.14 231.493C481.994 222.069 430.097 217.324 378.09 217.316Z" fill="white"/>
<path d="M338.808 280.456H329.496L327.896 285H324.088L332.056 262.728H336.28L344.248 285H340.408L338.808 280.456ZM337.784 277.48L334.168 267.144L330.52 277.48H337.784ZM364.865 267.368L354.049 293.288H350.273L353.857 284.712L346.913 267.368H350.977L355.937 280.808L361.089 267.368H364.865ZM376.546 285.288C374.882 285.288 373.378 284.915 372.034 284.168C370.69 283.4 369.634 282.333 368.866 280.968C368.098 279.581 367.714 277.981 367.714 276.168C367.714 274.376 368.108 272.787 368.898 271.4C369.687 270.013 370.764 268.947 372.13 268.2C373.495 267.453 375.02 267.08 376.706 267.08C378.391 267.08 379.916 267.453 381.282 268.2C382.647 268.947 383.724 270.013 384.514 271.4C385.303 272.787 385.698 274.376 385.698 276.168C385.698 277.96 385.292 279.549 384.482 280.936C383.671 282.323 382.562 283.4 381.154 284.168C379.767 284.915 378.231 285.288 376.546 285.288ZM376.546 282.12C377.484 282.12 378.359 281.896 379.17 281.448C380.002 281 380.674 280.328 381.186 279.432C381.698 278.536 381.954 277.448 381.954 276.168C381.954 274.888 381.708 273.811 381.218 272.936C380.727 272.04 380.076 271.368 379.266 270.92C378.455 270.472 377.58 270.248 376.642 270.248C375.703 270.248 374.828 270.472 374.018 270.92C373.228 271.368 372.599 272.04 372.13 272.936C371.66 273.811 371.426 274.888 371.426 276.168C371.426 278.067 371.906 279.539 372.866 280.584C373.847 281.608 375.074 282.12 376.546 282.12ZM419.344 262.76L410.992 285H406.768L398.384 262.76H402.288L408.88 281.256L415.504 262.76H419.344ZM422.459 276.104C422.459 274.333 422.822 272.765 423.547 271.4C424.294 270.035 425.296 268.979 426.555 268.232C427.835 267.464 429.243 267.08 430.779 267.08C432.166 267.08 433.371 267.357 434.395 267.912C435.44 268.445 436.272 269.117 436.891 269.928V267.368H440.571V285H436.891V282.376C436.272 283.208 435.43 283.901 434.363 284.456C433.296 285.011 432.08 285.288 430.715 285.288C429.2 285.288 427.814 284.904 426.555 284.136C425.296 283.347 424.294 282.259 423.547 280.872C422.822 279.464 422.459 277.875 422.459 276.104ZM436.891 276.168C436.891 274.952 436.635 273.896 436.123 273C435.632 272.104 434.982 271.421 434.171 270.952C433.36 270.483 432.486 270.248 431.547 270.248C430.608 270.248 429.734 270.483 428.923 270.952C428.112 271.4 427.451 272.072 426.939 272.968C426.448 273.843 426.203 274.888 426.203 276.104C426.203 277.32 426.448 278.387 426.939 279.304C427.451 280.221 428.112 280.925 428.923 281.416C429.755 281.885 430.63 282.12 431.547 282.12C432.486 282.12 433.36 281.885 434.171 281.416C434.982 280.947 435.632 280.264 436.123 279.368C436.635 278.451 436.891 277.384 436.891 276.168ZM453.619 276.2L461.747 285H456.819L450.291 277.416V285H446.643V261.32H450.291V275.08L456.691 267.368H461.747L453.619 276.2ZM472.041 285.288C470.655 285.288 469.407 285.043 468.297 284.552C467.209 284.04 466.345 283.357 465.705 282.504C465.065 281.629 464.724 280.659 464.681 279.592H468.457C468.521 280.339 468.873 280.968 469.513 281.48C470.175 281.971 470.996 282.216 471.977 282.216C473.001 282.216 473.791 282.024 474.345 281.64C474.921 281.235 475.209 280.723 475.209 280.104C475.209 279.443 474.889 278.952 474.249 278.632C473.631 278.312 472.639 277.96 471.273 277.576C469.951 277.213 468.873 276.861 468.041 276.52C467.209 276.179 466.484 275.656 465.865 274.952C465.268 274.248 464.969 273.32 464.969 272.168C464.969 271.229 465.247 270.376 465.801 269.608C466.356 268.819 467.145 268.2 468.169 267.752C469.215 267.304 470.409 267.08 471.753 267.08C473.759 267.08 475.369 267.592 476.585 268.616C477.823 269.619 478.484 270.995 478.569 272.744H474.921C474.857 271.955 474.537 271.325 473.961 270.856C473.385 270.387 472.607 270.152 471.625 270.152C470.665 270.152 469.929 270.333 469.417 270.696C468.905 271.059 468.649 271.539 468.649 272.136C468.649 272.605 468.82 273 469.161 273.32C469.503 273.64 469.919 273.896 470.409 274.088C470.9 274.259 471.625 274.483 472.585 274.76C473.865 275.101 474.911 275.453 475.721 275.816C476.553 276.157 477.268 276.669 477.865 277.352C478.463 278.035 478.772 278.941 478.793 280.072C478.793 281.075 478.516 281.971 477.961 282.76C477.407 283.549 476.617 284.168 475.593 284.616C474.591 285.064 473.407 285.288 472.041 285.288ZM485.871 265.032C485.21 265.032 484.655 264.808 484.207 264.36C483.759 263.912 483.535 263.357 483.535 262.696C483.535 262.035 483.759 261.48 484.207 261.032C484.655 260.584 485.21 260.36 485.871 260.36C486.511 260.36 487.055 260.584 487.503 261.032C487.951 261.48 488.175 262.035 488.175 262.696C488.175 263.357 487.951 263.912 487.503 264.36C487.055 264.808 486.511 265.032 485.871 265.032ZM487.663 267.368V285H484.015V267.368H487.663ZM502.629 267.08C504.015 267.08 505.253 267.368 506.341 267.944C507.45 268.52 508.314 269.373 508.933 270.504C509.551 271.635 509.861 273 509.861 274.6V285H506.245V275.144C506.245 273.565 505.85 272.36 505.061 271.528C504.271 270.675 503.194 270.248 501.829 270.248C500.463 270.248 499.375 270.675 498.565 271.528C497.775 272.36 497.381 273.565 497.381 275.144V285H493.733V267.368H497.381V269.384C497.978 268.659 498.735 268.093 499.653 267.688C500.591 267.283 501.583 267.08 502.629 267.08ZM520.37 262.76L519.954 278.28H516.914L516.498 262.76H520.37ZM518.546 285.224C517.884 285.224 517.33 285 516.882 284.552C516.434 284.104 516.21 283.549 516.21 282.888C516.21 282.227 516.434 281.672 516.882 281.224C517.33 280.776 517.884 280.552 518.546 280.552C519.186 280.552 519.73 280.776 520.178 281.224C520.626 281.672 520.85 282.227 520.85 282.888C520.85 283.549 520.626 284.104 520.178 284.552C519.73 285 519.186 285.224 518.546 285.224Z" fill="#494961"/>
<defs>
<linearGradient id="paint0_linear" x1="158591" y1="452075" x2="158591" y2="136018" gradientUnits="userSpaceOnUse">
<stop stop-color="#808080" stop-opacity="0.25"/>
<stop offset="0.54" stop-color="#808080" stop-opacity="0.12"/>
<stop offset="1" stop-color="#808080" stop-opacity="0.1"/>
</linearGradient>
</defs>
</svg>
