<svg width="837" height="696" viewBox="0 0 837 696" fill="none" xmlns="http://www.w3.org/2000/svg">
<path d="M752.178 105.79L676.008 106.533C672.427 88.8894 660.398 42.5949 671.231 29.9676C671.725 25.215 674.031 20.8362 677.669 17.7427C681.307 14.6491 685.996 13.0793 690.762 13.3599C702.567 -5.1393 722.232 -2.36177 735.523 9.19176C748.899 13.8119 753.942 22.0198 752.178 33.1583C762.084 41.838 763.911 52.3982 759.465 64.4189L752.178 105.79Z" fill="#2F2E41"/>
<path d="M744.845 152.761L689.89 145.144L678.899 129.064C694.04 119.011 699.397 104.969 692.427 85.9017L730.472 85.0554C728.69 102.036 734.299 115.183 749.918 123.14L744.845 152.761Z" fill="#FFB9B9"/>
<path d="M676.898 648.946L674.796 677.702C674.701 679.004 674.885 680.311 675.336 681.536C675.787 682.76 676.494 683.874 677.41 684.803C678.326 685.731 679.43 686.453 680.648 686.92C681.865 687.386 683.169 687.587 684.47 687.508L699.225 686.613C699.909 686.572 700.575 686.38 701.177 686.051C701.778 685.723 702.3 685.266 702.704 684.713C703.109 684.16 703.388 683.525 703.52 682.852C703.652 682.179 703.634 681.485 703.468 680.82L695.277 648.026L676.898 648.946Z" fill="#E6E6E6"/>
<path d="M724.668 648.026L716.477 680.82C716.311 681.485 716.293 682.179 716.425 682.852C716.557 683.525 716.836 684.16 717.24 684.713C717.645 685.266 718.167 685.723 718.768 686.051C719.37 686.38 720.036 686.572 720.72 686.613L735.475 687.508C736.776 687.587 738.08 687.386 739.297 686.92C740.515 686.453 741.619 685.731 742.535 684.803C743.451 683.874 744.158 682.76 744.609 681.536C745.06 680.311 745.244 679.004 745.149 677.702L743.047 648.946L724.668 648.026Z" fill="#E6E6E6"/>
<path d="M744 652.938L724.087 650.938L704.264 438.819L696.771 650.254L677.208 649.553L644.235 356.725H770.208L744 652.938Z" fill="white"/>
<path d="M713.563 99.443C734.575 99.443 751.609 82.392 751.609 61.3585C751.609 40.325 734.575 23.2739 713.563 23.2739C692.551 23.2739 675.518 40.325 675.518 61.3585C675.518 82.392 692.551 99.443 713.563 99.443Z" fill="#FFB9B9"/>
<path d="M788.809 363.496L634.936 365.188C657.771 278.167 671.431 197.331 647.617 141.759L685.663 123.14C704.008 142.294 724.438 140.319 746.536 121.447L782.891 130.757C776.664 203.631 779.455 281.68 788.809 363.496Z" fill="white"/>
<path d="M592.662 273.785L688.199 311.87L709.559 318.159C710.514 318.44 711.517 318.525 712.506 318.409C713.495 318.292 714.45 317.977 715.314 317.482C716.179 316.987 716.934 316.322 717.535 315.527C718.136 314.732 718.57 313.824 718.812 312.857C719.235 311.161 719.045 309.37 718.275 307.801C717.505 306.232 716.205 304.987 714.605 304.286L692.426 297.482L625.635 258.552L639.585 221.737L610.417 206.08L592.662 273.785Z" fill="#FFB9B9"/>
<path d="M593.508 204.387C611.685 211.485 626.142 223.6 637.472 239.932L672.981 188.307L647.617 141.759L593.508 204.387Z" fill="white"/>
<path d="M756.443 55.186C741.001 51.2033 725.819 50.6565 711.061 55.7082C701.66 60.266 690.37 59.8461 677.815 56.0907V18.0938L745.598 19.9031L756.443 55.186Z" fill="#2F2E41"/>
<path d="M687.882 229.412C684.895 229.415 682.031 230.605 679.918 232.72C677.806 234.834 676.618 237.701 676.614 240.692L681.062 333.893C681.065 336.883 682.254 339.75 684.366 341.865C686.479 343.979 689.343 345.169 692.33 345.172H743.182C746.17 345.169 749.034 343.979 751.146 341.865C753.259 339.75 754.447 336.883 754.45 333.893L758.898 240.692C758.895 237.701 757.706 234.834 755.594 232.72C753.481 230.605 750.617 229.415 747.63 229.412H687.882Z" fill="#3F3D56"/>
<path d="M832.163 266.745L748.89 299.937L742.607 302.441C742.407 302.519 742.207 302.586 741.996 302.653L720.947 308.852C718.256 309.643 714.531 306.014 712.351 303.51C711.272 302.303 710.661 300.749 710.628 299.129C710.596 297.51 711.144 295.932 712.173 294.683C712.464 294.347 712.784 294.038 713.13 293.759C713.941 293.127 714.896 292.706 715.91 292.535L736.936 288.394C737.691 288.246 738.416 287.975 739.083 287.593L748.89 281.871L799.806 252.197C801.222 251.373 802.3 250.073 802.847 248.527C803.395 246.982 803.377 245.293 802.797 243.76L793.078 218.103C792.482 216.533 792.478 214.8 793.065 213.227C793.652 211.654 794.791 210.349 796.27 209.555L812.371 200.917C813.291 200.423 814.311 200.144 815.354 200.101C816.397 200.059 817.437 200.254 818.394 200.672C819.351 201.09 820.201 201.72 820.879 202.514C821.558 203.309 822.048 204.247 822.311 205.258L836.288 258.552C836.718 260.187 836.536 261.922 835.776 263.431C835.016 264.94 833.731 266.119 832.163 266.745Z" fill="#FFB9B9"/>
<path d="M837 195.077C818.823 202.176 804.366 214.291 793.036 230.623L757.527 178.997L782.891 130.757L837 195.077Z" fill="white"/>
<path d="M738.883 95.2557C722.239 102.186 704.787 101.904 686.621 95.2557C691.907 86.2242 684.006 79.1507 679.95 70.0336L747.778 68.0159C742.591 75.9361 734.937 85.2937 738.883 95.2557Z" fill="white"/>
<path d="M747.06 69.523L746.272 68.736L747.384 67.6229L754.027 59.8625L754.872 60.5861L748.201 68.3776L747.06 69.523Z" fill="white"/>
<path d="M675.302 64.8056L674.59 65.6611L681.262 71.2265L681.974 70.371L675.302 64.8056Z" fill="white"/>
<path d="M748.977 76.0666L737.299 94.4307L738.237 95.0285L749.915 76.6645L748.977 76.0666Z" fill="white"/>
<path d="M676.527 76.0654L675.589 76.6631L687.264 95.0289L688.203 94.4311L676.527 76.0654Z" fill="white"/>
<path d="M751.114 280.297V300.462L744.101 303.258C743.878 303.344 743.655 303.419 743.419 303.494L719.923 310.414C716.919 311.296 712.761 307.246 710.329 304.45C709.124 303.103 708.442 301.368 708.405 299.561C708.369 297.753 708.981 295.992 710.13 294.598C710.455 294.223 710.812 293.878 711.197 293.566C712.103 292.861 713.169 292.391 714.3 292.2L737.771 287.578C738.613 287.412 739.422 287.11 740.167 286.683L751.114 280.297Z" fill="white"/>
<path d="M761.277 208.37H757.259C757.259 151.48 745.558 111.834 734.154 111.834L733.15 107.812C743.376 107.812 749.896 124.312 753.565 138.155C758.538 156.921 761.277 181.857 761.277 208.37Z" fill="#3F3D56"/>
<path d="M668.858 194.292H664.84C664.84 142.19 676.622 109.823 693.972 109.823L692.967 113.846C680.967 113.846 668.858 138.72 668.858 194.292Z" fill="#3F3D56"/>
<path d="M759.268 219.432C764.816 219.432 769.313 214.93 769.313 209.376C769.313 203.822 764.816 199.32 759.268 199.32C753.72 199.32 749.222 203.822 749.222 209.376C749.222 214.93 753.72 219.432 759.268 219.432Z" fill="#3F3D56"/>
<path d="M652.785 218.426H648.767C648.767 204.01 656.879 192.281 666.849 192.281V196.303C659.094 196.303 652.785 206.228 652.785 218.426Z" fill="#3F3D56"/>
<path d="M684.931 218.426H680.912C680.912 206.228 674.604 196.303 666.849 196.303V192.281C676.819 192.281 684.931 204.01 684.931 218.426Z" fill="#3F3D56"/>
<path d="M682.922 223.454C685.141 223.454 686.94 221.653 686.94 219.432C686.94 217.21 685.141 215.409 682.922 215.409C680.702 215.409 678.903 217.21 678.903 219.432C678.903 221.653 680.702 223.454 682.922 223.454Z" fill="#3F3D56"/>
<path d="M650.776 223.454C652.995 223.454 654.794 221.653 654.794 219.432C654.794 217.21 652.995 215.409 650.776 215.409C648.556 215.409 646.757 217.21 646.757 219.432C646.757 221.653 648.556 223.454 650.776 223.454Z" fill="#3F3D56"/>
<path d="M166.533 84.2571L95.9627 96.22C94.2194 96.5177 92.4277 96.1576 90.9344 95.2091C89.4411 94.2607 88.3523 92.7915 87.8788 91.0858C82.7802 72.6649 72.1203 48.6343 82.4699 36.571C82.9972 31.496 85.4595 26.8201 89.3442 23.5167C93.2288 20.2133 98.2366 18.5369 103.325 18.8365C115.932 -0.917648 136.93 2.04832 151.123 14.3857C165.406 19.3192 170.791 28.0839 168.908 39.9781C175.079 45.3848 178.314 51.4747 178.996 58.159C179.319 61.8786 178.846 65.6246 177.609 69.1468C176.371 72.6691 174.398 75.8867 171.82 78.5848L166.533 84.2571Z" fill="#2F2E41"/>
<path d="M155.561 139.872L100.853 136.651C106.215 124.333 108.356 112.471 106.217 101.215H146.979C146.887 109.857 151.183 124.806 155.561 139.872Z" fill="#9F616A"/>
<path d="M89.7079 645.907L87.464 676.614C87.3624 678.004 87.5589 679.399 88.0403 680.707C88.5217 682.015 89.2769 683.204 90.2552 684.196C91.2335 685.188 92.4122 685.958 93.7125 686.456C95.0127 686.955 96.4044 687.169 97.794 687.084L113.551 686.129C114.281 686.085 114.992 685.88 115.634 685.529C116.276 685.179 116.833 684.691 117.266 684.1C117.698 683.51 117.995 682.831 118.136 682.113C118.277 681.394 118.258 680.654 118.081 679.943L109.335 644.924L89.7079 645.907Z" fill="#E6E6E6"/>
<path d="M140.718 644.924L131.972 679.943C131.795 680.654 131.776 681.394 131.917 682.113C132.057 682.831 132.355 683.51 132.787 684.1C133.22 684.691 133.777 685.179 134.419 685.529C135.061 685.88 135.772 686.085 136.502 686.129L152.259 687.084C153.648 687.169 155.04 686.955 156.34 686.456C157.64 685.958 158.819 685.188 159.797 684.196C160.776 683.204 161.531 682.015 162.012 680.707C162.494 679.399 162.69 678.004 162.589 676.614L160.345 645.907L140.718 644.924Z" fill="#E6E6E6"/>
<path d="M161.362 650.17L140.099 648.034L118.93 421.523L110.929 647.304L90.0393 646.554L54.8296 333.861H189.349L161.362 650.17Z" fill="white"/>
<path d="M127.674 114.251C150.111 114.251 168.3 96.0427 168.3 73.5823C168.3 51.1218 150.111 32.9141 127.674 32.9141C105.236 32.9141 87.0469 51.1218 87.0469 73.5823C87.0469 96.0427 105.236 114.251 127.674 114.251Z" fill="#9F616A"/>
<path d="M173.462 54.1546C156.973 51.28 140.761 50.8853 125.002 54.5314C114.963 57.8211 102.907 57.518 89.5 54.8075V27.3826L161.881 28.6885L173.462 54.1546Z" fill="#2F2E41"/>
<path d="M154.711 106.213C136.938 113.614 118.302 113.313 98.904 106.213C104.548 96.569 96.1112 89.0157 91.7798 79.2801L164.21 77.1255C158.671 85.583 150.498 95.5754 154.711 106.213Z" fill="white"/>
<path d="M86.7928 73.7265L86.0806 74.582L93.2045 80.5246L93.9167 79.669L86.7928 73.7265Z" fill="white"/>
<path d="M165.522 85.742L153.052 105.352L153.99 105.95L166.46 86.3398L165.522 85.742Z" fill="white"/>
<path d="M88.0916 85.7412L87.1533 86.3389L99.6208 105.951L100.559 105.353L88.0916 85.7412Z" fill="white"/>
<path d="M50.4357 259.064L19.3271 239.736L45.8572 161.955C48.8162 153.929 54.4837 147.19 61.88 142.904L70.8171 137.725L71.5942 216.191L50.4357 259.064Z" fill="white"/>
<path d="M184.9 296.84L180.298 257.379C180.052 236.55 183.592 216.413 192.033 197.857L196.324 139.872L149.124 120.544C148.98 121.507 148.857 122.469 148.719 123.431L126.598 134.503L105.024 129.595L105.143 122.691L62.2352 142.02C76.4249 208.056 68.6855 276.633 44.2842 357.633L100.812 373.106L101.282 345.935L151.66 342.333C152.179 351.148 152.596 359.807 152.838 368.273C181.265 378.75 182.242 378.576 208.142 363.576C197.828 341.868 189.661 319.278 184.9 296.84Z" fill="white"/>
<path d="M257.468 249.399L228.505 239.736L182.177 185.748L196.323 139.873L260.686 230.072L257.468 249.399Z" fill="white"/>
<path d="M166.698 291.196C167.172 293.278 168.452 295.086 170.256 296.226C172.06 297.365 174.242 297.741 176.322 297.272L200.908 291.699L197.355 275.99L172.769 281.562C170.688 282.034 168.879 283.314 167.741 285.121C166.602 286.927 166.228 289.113 166.698 291.196V291.196Z" fill="#E6E6E6"/>
<path d="M188.815 273.024L202.761 298.795C226.216 292.246 246.544 271.601 266.05 247.252L260.687 230.072L227.433 238.662L188.815 273.024Z" fill="white"/>
<path d="M6.99072 192.185L33.7619 196.97L94.9532 284.065L62.4455 276.408L6.99072 192.185Z" fill="#E6E6E6"/>
<path d="M2.24274 191.119C1.83479 191.125 1.43597 191.241 1.08802 191.454C0.740064 191.667 0.45574 191.97 0.264785 192.331C0.0738308 192.692 -0.0167377 193.098 0.00254502 193.506C0.0218277 193.914 0.150264 194.309 0.374409 194.65L57.572 281.522C57.8912 282.007 58.3842 282.352 58.9496 282.485L85.562 288.753C86.0107 288.858 86.4808 288.825 86.9102 288.657C87.3395 288.489 87.7077 288.194 87.9659 287.812C88.2241 287.43 88.36 286.978 88.3558 286.517C88.3515 286.055 88.2072 285.606 87.942 285.229L25.1425 195.845C24.9722 195.601 24.7556 195.393 24.5052 195.234C24.2547 195.074 23.9752 194.965 23.6827 194.914L2.67171 191.158C2.53012 191.132 2.38659 191.119 2.24274 191.119Z" fill="#3F3D56"/>
<path d="M37.9229 253.231L39.5125 269.26L64.5976 266.767C66.7209 266.556 68.6735 265.509 70.0259 263.857C71.3784 262.205 72.0198 260.083 71.809 257.957C71.5983 255.832 70.5527 253.877 68.9023 252.523C67.2518 251.17 65.1317 250.528 63.0084 250.739L37.9229 253.231Z" fill="#E6E6E6"/>
<path d="M16.1099 251.375C16.1463 256.84 18.3391 262.069 22.2105 265.923C26.0818 269.777 31.3179 271.943 36.7778 271.95H40.9026L43.9055 246.9L19.042 237.939L16.1099 251.375Z" fill="white"/>
<path d="M162.228 79.8966L161.442 79.1097L162.629 77.9209L169.725 69.6318L170.569 70.3553L163.444 78.6756L162.228 79.8966Z" fill="white"/>
<path d="M304.113 684.661H537.621V401.142C537.621 386.129 522.849 373.915 504.692 373.915H337.043C318.885 373.915 304.113 386.129 304.113 401.142V684.661Z" fill="#E6E6E6"/>
<path d="M321.904 672.937H519.83V432.621C519.83 419.895 507.309 409.543 491.919 409.543H349.816C334.425 409.543 321.904 419.895 321.904 432.621V672.937Z" fill="white"/>
<path d="M302.467 351.851C296.696 351.851 292 355.733 292 360.505V385.487C292 390.259 296.696 394.141 302.467 394.141H539.504C545.275 394.141 549.971 390.259 549.971 385.487V360.505C549.971 355.733 545.275 351.851 539.504 351.851H302.467Z" fill="#3F3D56"/>
<path d="M351.016 642.122C348.306 642.13 345.71 643.211 343.794 645.129C341.877 647.047 340.797 649.646 340.79 652.358C340.797 655.071 341.877 657.67 343.793 659.588C345.71 661.506 348.306 662.587 351.016 662.595H370.157V642.122H351.016Z" fill="#3F3D56"/>
<path d="M387.725 642.122H369.108V662.595H387.725C390.435 662.587 393.031 661.506 394.948 659.588C396.864 657.67 397.944 655.071 397.951 652.358C397.944 649.646 396.864 647.047 394.948 645.129C393.031 643.211 390.435 642.13 387.725 642.122Z" fill="white"/>
<path opacity="0.2" d="M394.398 644.629C396.011 646.48 396.9 648.853 396.903 651.309C396.895 654.021 395.815 656.62 393.899 658.538C391.983 660.456 389.386 661.537 386.676 661.545H369.108V662.595H387.725C390.435 662.587 393.031 661.506 394.948 659.588C396.864 657.67 397.944 655.071 397.951 652.359C397.949 650.89 397.63 649.44 397.017 648.106C396.404 646.772 395.511 645.586 394.398 644.629Z" fill="black"/>
<path d="M437.392 487.932C435.527 485.963 432.961 484.814 430.252 484.733C427.543 484.653 424.913 485.65 422.936 487.504C420.97 489.371 419.821 491.94 419.741 494.652C419.661 497.363 420.656 499.996 422.509 501.975L435.639 515.918L450.521 501.874L437.392 487.932Z" fill="#3F3D56"/>
<path d="M462.573 514.671L449.803 501.11L434.92 515.154L447.69 528.714C449.555 530.683 452.122 531.832 454.83 531.912C457.539 531.992 460.169 530.996 462.146 529.142C464.112 527.275 465.261 524.706 465.341 521.994C465.421 519.283 464.426 516.65 462.573 514.671Z" fill="white"/>
<path opacity="0.2" d="M465.328 521.251C465.088 523.696 463.974 525.971 462.19 527.657C460.213 529.512 457.582 530.508 454.874 530.428C452.165 530.348 449.599 529.198 447.734 527.23L435.684 514.433L434.92 515.153L447.69 528.714C449.555 530.682 452.122 531.832 454.83 531.912C457.539 531.992 460.169 530.996 462.146 529.141C463.212 528.132 464.048 526.905 464.597 525.544C465.146 524.182 465.395 522.718 465.328 521.251Z" fill="black"/>
<path d="M382.907 520.211C381.043 518.243 378.476 517.093 375.767 517.013C373.059 516.933 370.428 517.929 368.451 519.784C366.485 521.65 365.336 524.22 365.256 526.931C365.176 529.642 366.172 532.275 368.025 534.254L381.154 548.197L396.037 534.154L382.907 520.211Z" fill="#3F3D56"/>
<path d="M408.087 546.95L395.317 533.39L380.435 547.433L393.204 560.994C395.069 562.962 397.636 564.112 400.344 564.192C403.053 564.272 405.683 563.276 407.66 561.421C409.627 559.554 410.775 556.985 410.855 554.274C410.935 551.562 409.94 548.93 408.087 546.95Z" fill="white"/>
<path opacity="0.2" d="M410.842 553.53C410.602 555.975 409.488 558.25 407.704 559.937C405.727 561.791 403.097 562.788 400.388 562.707C397.68 562.627 395.113 561.478 393.248 559.509L381.198 546.713L380.435 547.433L393.204 560.993C395.069 562.962 397.636 564.112 400.344 564.192C403.053 564.272 405.683 563.276 407.66 561.421C408.726 560.412 409.562 559.185 410.111 557.823C410.66 556.461 410.909 554.997 410.842 553.53Z" fill="black"/>
<path d="M437.392 550.264C435.527 548.296 432.961 547.146 430.252 547.066C427.543 546.986 424.913 547.982 422.936 549.837C420.97 551.703 419.821 554.272 419.741 556.984C419.661 559.695 420.656 562.328 422.509 564.307L435.639 578.25L450.521 564.207L437.392 550.264Z" fill="#3F3D56"/>
<path d="M462.573 577.003L449.803 563.443L434.92 577.486L447.69 591.047C449.555 593.015 452.122 594.165 454.83 594.245C457.539 594.325 460.169 593.329 462.146 591.474C464.112 589.607 465.261 587.038 465.341 584.327C465.421 581.615 464.426 578.983 462.573 577.003Z" fill="white"/>
<path opacity="0.2" d="M465.328 583.583C465.088 586.028 463.974 588.303 462.19 589.989C460.213 591.844 457.582 592.84 454.874 592.76C452.165 592.68 449.599 591.531 447.734 589.562L435.684 576.766L434.92 577.486L447.69 591.046C449.555 593.015 452.122 594.164 454.83 594.245C457.539 594.325 460.169 593.328 462.146 591.474C463.212 590.465 464.048 589.238 464.597 587.876C465.146 586.514 465.395 585.05 465.328 583.583Z" fill="black"/>
<path d="M470.631 614.229C472.574 612.339 473.692 609.756 473.739 607.044C473.786 604.332 472.759 601.711 470.882 599.755C468.994 597.809 466.413 596.691 463.704 596.644C460.995 596.597 458.377 597.625 456.422 599.503L442.654 612.815L456.863 627.541L470.631 614.229Z" fill="#3F3D56"/>
<path d="M444.227 639.758L457.617 626.811L443.409 612.085L430.018 625.032C428.075 626.922 426.957 629.506 426.91 632.218C426.863 634.93 427.89 637.55 429.767 639.507C431.655 641.452 434.236 642.571 436.945 642.618C439.654 642.665 442.272 641.637 444.227 639.758Z" fill="white"/>
<path opacity="0.2" d="M437.687 642.595C435.243 642.385 432.956 641.298 431.25 639.533C429.373 637.576 428.346 634.955 428.393 632.243C428.44 629.531 429.558 626.948 431.501 625.058L444.137 612.841L443.409 612.085L430.018 625.032C428.075 626.922 426.957 629.506 426.91 632.218C426.863 634.93 427.89 637.55 429.767 639.507C430.788 640.561 432.024 641.383 433.391 641.916C434.757 642.449 436.223 642.681 437.687 642.595Z" fill="black"/>
<path d="M397.243 581.95C399.187 580.06 400.304 577.477 400.351 574.765C400.398 572.052 399.371 569.432 397.494 567.475C395.606 565.53 393.026 564.411 390.316 564.364C387.607 564.317 384.989 565.345 383.035 567.224L369.267 580.535L383.475 595.261L397.243 581.95Z" fill="#3F3D56"/>
<path d="M370.839 607.479L384.229 594.532L370.021 579.806L356.63 592.753C354.686 594.643 353.569 597.226 353.522 599.938C353.475 602.65 354.502 605.271 356.379 607.227C358.267 609.173 360.848 610.291 363.557 610.339C366.266 610.386 368.884 609.358 370.839 607.479Z" fill="white"/>
<path opacity="0.2" d="M364.299 610.316C361.854 610.106 359.568 609.018 357.862 607.253C355.985 605.297 354.958 602.676 355.005 599.964C355.052 597.252 356.17 594.669 358.113 592.779L370.749 580.561L370.021 579.806L356.63 592.753C354.686 594.643 353.569 597.226 353.522 599.938C353.475 602.65 354.502 605.271 356.379 607.227C357.4 608.282 358.636 609.104 360.002 609.637C361.369 610.17 362.835 610.401 364.299 610.316Z" fill="black"/>
<path d="M501.766 542.992C503.709 541.102 504.827 538.519 504.874 535.807C504.921 533.095 503.894 530.474 502.017 528.518C500.129 526.572 497.548 525.454 494.839 525.407C492.129 525.359 489.512 526.388 487.557 528.266L473.789 541.578L487.998 556.304L501.766 542.992Z" fill="#3F3D56"/>
<path d="M475.361 568.521L488.752 555.574L474.543 540.848L461.152 553.795C459.209 555.685 458.092 558.269 458.045 560.981C457.997 563.693 459.025 566.313 460.901 568.27C462.79 570.215 465.37 571.334 468.079 571.381C470.789 571.428 473.407 570.4 475.361 568.521Z" fill="white"/>
<path opacity="0.2" d="M468.822 571.358C466.377 571.148 464.091 570.06 462.384 568.295C460.508 566.339 459.481 563.718 459.528 561.006C459.575 558.294 460.692 555.711 462.635 553.821L475.272 541.604L474.543 540.848L461.152 553.795C459.209 555.685 458.092 558.268 458.045 560.981C457.997 563.693 459.025 566.313 460.901 568.27C461.922 569.324 463.158 570.146 464.525 570.679C465.892 571.212 467.357 571.444 468.822 571.358Z" fill="black"/>
<path d="M478.534 623.727C476.67 621.759 474.103 620.609 471.395 620.529C468.686 620.449 466.056 621.445 464.079 623.3C462.112 625.166 460.964 627.736 460.884 630.447C460.804 633.158 461.799 635.791 463.652 637.77L476.782 651.713L491.664 637.67L478.534 623.727Z" fill="#3F3D56"/>
<path d="M503.714 650.466L490.944 636.906L476.062 650.949L488.832 664.51C490.696 666.478 493.263 667.628 495.972 667.708C498.68 667.788 501.31 666.792 503.288 664.937C505.254 663.071 506.403 660.501 506.483 657.79C506.562 655.079 505.567 652.446 503.714 650.466Z" fill="white"/>
<path opacity="0.2" d="M506.469 657.047C506.23 659.491 505.115 661.766 503.331 663.453C501.354 665.307 498.724 666.304 496.016 666.224C493.307 666.144 490.74 664.994 488.876 663.025L476.825 650.229L476.062 650.949L488.832 664.51C490.696 666.478 493.263 667.628 495.972 667.708C498.68 667.788 501.31 666.792 503.288 664.937C504.353 663.928 505.189 662.701 505.738 661.339C506.287 659.977 506.537 658.513 506.469 657.047Z" fill="black"/>
<path d="M406.258 622.614C404.394 620.646 401.827 619.496 399.118 619.416C396.41 619.336 393.78 620.332 391.802 622.187C389.836 624.053 388.687 626.623 388.607 629.334C388.528 632.045 389.523 634.678 391.376 636.657L404.505 650.6L419.388 636.557L406.258 622.614Z" fill="#3F3D56"/>
<path d="M431.438 649.353L418.668 635.793L403.786 649.836L416.556 663.397C418.42 665.365 420.987 666.515 423.695 666.595C426.404 666.675 429.034 665.679 431.011 663.824C432.978 661.958 434.126 659.388 434.206 656.677C434.286 653.965 433.291 651.333 431.438 649.353Z" fill="white"/>
<path opacity="0.2" d="M434.193 655.934C433.953 658.378 432.839 660.653 431.055 662.34C429.078 664.194 426.448 665.191 423.739 665.11C421.031 665.03 418.464 663.881 416.599 661.912L404.549 649.116L403.786 649.836L416.556 663.397C418.42 665.365 420.987 666.515 423.695 666.595C426.404 666.675 429.034 665.679 431.011 663.824C432.077 662.815 432.913 661.588 433.462 660.226C434.011 658.864 434.26 657.4 434.193 655.934Z" fill="black"/>
<path d="M426.602 585.89C426.603 589.293 425.429 592.592 423.279 595.229C421.129 597.865 418.135 599.677 414.804 600.358C412.857 600.751 410.851 600.751 408.905 600.358C405.574 599.676 402.58 597.864 400.431 595.228C398.281 592.592 397.106 589.293 397.106 585.89C397.106 582.487 398.281 579.188 400.431 576.552C402.58 573.915 405.574 572.103 408.905 571.422C410.851 571.029 412.857 571.029 414.804 571.422C418.135 572.103 421.129 573.915 423.279 576.551C425.429 579.188 426.603 582.487 426.602 585.89Z" fill="white"/>
<path opacity="0.2" d="M414.804 571.422V600.358C412.858 600.751 410.852 600.751 408.905 600.358V571.422C410.852 571.029 412.858 571.029 414.804 571.422Z" fill="black"/>
<path d="M433.274 526.897C433.275 530.3 432.101 533.599 429.951 536.235C427.801 538.872 424.807 540.684 421.476 541.364C419.529 541.758 417.523 541.758 415.577 541.364C412.246 540.683 409.252 538.871 407.102 536.235C404.953 533.598 403.778 530.3 403.778 526.897C403.778 523.494 404.953 520.195 407.102 517.559C409.252 514.922 412.246 513.11 415.577 512.429C417.523 512.035 419.529 512.035 421.476 512.429C424.807 513.11 427.801 514.922 429.951 517.558C432.101 520.194 433.275 523.493 433.274 526.897Z" fill="white"/>
<path opacity="0.2" d="M421.475 512.429V541.364C419.529 541.758 417.523 541.758 415.576 541.364V512.429C417.523 512.035 419.529 512.035 421.475 512.429Z" fill="black"/>
<path d="M433.274 611.49C433.275 614.894 432.101 618.193 429.951 620.829C427.801 623.466 424.807 625.277 421.476 625.958C419.529 626.352 417.523 626.352 415.577 625.958C412.246 625.277 409.252 623.465 407.102 620.828C404.953 618.192 403.778 614.894 403.778 611.49C403.778 608.087 404.953 604.789 407.102 602.152C409.252 599.516 412.246 597.704 415.577 597.023C417.523 596.629 419.529 596.629 421.476 597.023C424.807 597.703 427.801 599.515 429.951 602.152C432.101 604.788 433.275 608.087 433.274 611.49Z" fill="white"/>
<path opacity="0.2" d="M421.475 597.023V625.958C419.529 626.352 417.523 626.352 415.576 625.958V597.023C417.523 596.629 419.529 596.629 421.475 597.023Z" fill="black"/>
<path d="M469.968 652.675C469.969 656.078 468.795 659.377 466.645 662.013C464.495 664.65 461.501 666.462 458.17 667.142C456.223 667.536 454.218 667.536 452.271 667.142C448.94 666.461 445.947 664.649 443.797 662.013C441.647 659.376 440.473 656.078 440.473 652.675C440.473 649.271 441.647 645.973 443.797 643.336C445.947 640.7 448.94 638.888 452.271 638.207C454.218 637.813 456.223 637.813 458.17 638.207C461.501 638.888 464.495 640.699 466.645 643.336C468.795 645.972 469.969 649.271 469.968 652.675Z" fill="white"/>
<path opacity="0.2" d="M458.17 638.207V667.142C456.223 667.536 454.218 667.536 452.271 667.142V638.207C454.218 637.813 456.223 637.813 458.17 638.207Z" fill="black"/>
<path d="M502.383 576.901C504.831 579.262 506.39 582.398 506.794 585.777C507.198 589.156 506.424 592.571 504.601 595.445C503.534 597.121 502.142 598.566 500.508 599.696C497.706 601.624 494.325 602.524 490.937 602.244C487.549 601.964 484.362 600.521 481.914 598.16C479.466 595.798 477.908 592.662 477.504 589.283C477.1 585.904 477.874 582.489 479.695 579.616C480.763 577.94 482.155 576.494 483.789 575.364C486.591 573.436 489.972 572.535 493.36 572.815C496.748 573.095 499.936 574.539 502.383 576.901Z" fill="white"/>
<path opacity="0.2" d="M483.789 575.364L504.601 595.444C503.534 597.121 502.142 598.566 500.508 599.696L479.695 579.616C480.763 577.939 482.155 576.494 483.789 575.364Z" fill="black"/>
<path d="M506.831 609.18C509.279 611.542 510.837 614.677 511.242 618.056C511.646 621.435 510.871 624.851 509.049 627.724C507.981 629.4 506.59 630.846 504.955 631.976C502.154 633.903 498.773 634.803 495.385 634.523C491.997 634.243 488.809 632.801 486.362 630.439C483.914 628.077 482.356 624.942 481.952 621.563C481.548 618.184 482.322 614.769 484.143 611.895C485.211 610.219 486.603 608.773 488.237 607.643C491.038 605.715 494.419 604.814 497.808 605.095C501.196 605.375 504.384 606.818 506.831 609.18Z" fill="white"/>
<path opacity="0.2" d="M488.237 607.643L509.05 627.724C507.982 629.4 506.59 630.846 504.956 631.975L484.144 611.895C485.211 610.219 486.603 608.773 488.237 607.643Z" fill="black"/>
<path d="M374.51 616.972C376.958 619.333 378.516 622.469 378.92 625.848C379.325 629.227 378.55 632.642 376.728 635.515C375.66 637.192 374.268 638.637 372.634 639.767C369.833 641.695 366.452 642.595 363.064 642.315C359.676 642.035 356.488 640.592 354.04 638.23C351.593 635.869 350.035 632.733 349.631 629.354C349.226 625.975 350 622.56 351.822 619.687C352.89 618.01 354.282 616.565 355.916 615.435C358.717 613.506 362.098 612.606 365.486 612.886C368.875 613.166 372.062 614.609 374.51 616.972Z" fill="white"/>
<path opacity="0.2" d="M355.916 615.435L376.728 635.515C375.66 637.191 374.268 638.637 372.634 639.767L351.822 619.687C352.89 618.01 354.282 616.565 355.916 615.435Z" fill="black"/>
<path opacity="0.2" d="M326.908 351.851H321.348V393.034H326.908V351.851Z" fill="black"/>
<path opacity="0.2" d="M359.154 351.851H353.595V393.034H359.154V351.851Z" fill="black"/>
<path opacity="0.2" d="M391.4 351.851H385.841V393.034H391.4V351.851Z" fill="black"/>
<path opacity="0.2" d="M423.647 351.851H418.087V393.034H423.647V351.851Z" fill="black"/>
<path opacity="0.2" d="M455.894 351.851H450.334V393.034H455.894V351.851Z" fill="black"/>
<path opacity="0.2" d="M488.14 351.851H482.58V393.034H488.14V351.851Z" fill="black"/>
<path opacity="0.2" d="M520.386 351.851H514.826V393.034H520.386V351.851Z" fill="black"/>
<rect opacity="0.8" x="27.1045" y="688" width="787.526" height="8" rx="4" fill="white"/>
<rect x="394" y="187" width="58" height="110" fill="white"/>
<rect x="365" y="204" width="58" height="110" fill="white"/>
<rect x="428" y="212" width="58" height="101" fill="white"/>
<path d="M493.381 196.095H470.524V165.619C470.524 161.048 467.476 158 462.905 158H379.095C374.524 158 371.476 161.048 371.476 165.619V196.095H348.619C344.048 196.095 341 199.143 341 203.714V310.381C341 314.952 344.048 318 348.619 318H493.381C497.952 318 501 314.952 501 310.381V203.714C501 199.143 497.952 196.095 493.381 196.095ZM386.714 287.524H379.095C374.524 287.524 371.476 284.476 371.476 279.905C371.476 275.333 374.524 272.286 379.095 272.286H386.714C391.286 272.286 394.333 275.333 394.333 279.905C394.333 284.476 391.286 287.524 386.714 287.524ZM386.714 257.048H379.095C374.524 257.048 371.476 254 371.476 249.429C371.476 244.857 374.524 241.81 379.095 241.81H386.714C391.286 241.81 394.333 244.857 394.333 249.429C394.333 254 391.286 257.048 386.714 257.048ZM424.81 287.524H417.19C412.619 287.524 409.571 284.476 409.571 279.905C409.571 275.333 412.619 272.286 417.19 272.286H424.81C429.381 272.286 432.429 275.333 432.429 279.905C432.429 284.476 429.381 287.524 424.81 287.524ZM424.81 257.048H417.19C412.619 257.048 409.571 254 409.571 249.429C409.571 244.857 412.619 241.81 417.19 241.81H424.81C429.381 241.81 432.429 244.857 432.429 249.429C432.429 254 429.381 257.048 424.81 257.048ZM432.429 215.143H428.619V218.952C428.619 223.524 425.571 226.571 421 226.571C416.429 226.571 413.381 223.524 413.381 218.952V215.143H409.571C405 215.143 401.952 212.095 401.952 207.524C401.952 202.952 405 199.905 409.571 199.905H413.381V196.095C413.381 191.524 416.429 188.476 421 188.476C425.571 188.476 428.619 191.524 428.619 196.095V199.905H432.429C437 199.905 440.048 202.952 440.048 207.524C440.048 212.095 437 215.143 432.429 215.143ZM462.905 287.524H455.286C450.714 287.524 447.667 284.476 447.667 279.905C447.667 275.333 450.714 272.286 455.286 272.286H462.905C467.476 272.286 470.524 275.333 470.524 279.905C470.524 284.476 467.476 287.524 462.905 287.524ZM462.905 257.048H455.286C450.714 257.048 447.667 254 447.667 249.429C447.667 244.857 450.714 241.81 455.286 241.81H462.905C467.476 241.81 470.524 244.857 470.524 249.429C470.524 254 467.476 257.048 462.905 257.048Z" fill="#494961"/>
</svg>
