<svg width="492" height="697" viewBox="0 0 492 697" fill="none" xmlns="http://www.w3.org/2000/svg">
<path d="M137.396 405.864H36.1445V519.082H137.396V405.864Z" fill="#CCCCCC"/>
<path d="M88.1054 657.366L86.3659 681.146C86.2871 682.223 86.4395 683.303 86.8127 684.316C87.1858 685.329 87.7713 686.25 88.5296 687.018C89.288 687.786 90.2018 688.383 91.2098 688.769C92.2178 689.154 93.2966 689.32 94.3739 689.255L106.588 688.515C107.154 688.481 107.706 688.322 108.204 688.051C108.701 687.779 109.133 687.401 109.468 686.944C109.804 686.487 110.034 685.961 110.143 685.405C110.252 684.848 110.238 684.275 110.1 683.725L103.32 656.605L88.1054 657.366Z" fill="#E6E6E6"/>
<path d="M190.273 671.428C204.648 674.791 214.917 679.571 221.663 686.04C224.066 688.326 227.209 689.674 230.522 689.837C234.753 690.06 238.212 689.585 240.812 688.424H240.812C241.478 688.13 242.053 687.664 242.478 687.073C242.903 686.482 243.162 685.788 243.228 685.064C243.307 684.327 243.187 683.583 242.882 682.909C242.576 682.235 242.096 681.654 241.49 681.228L207.396 656.97L192.914 662.763L189.536 666.141C189.17 666.507 188.894 666.953 188.73 667.443C188.566 667.934 188.517 668.456 188.589 668.968C188.66 669.48 188.849 669.969 189.141 670.396C189.434 670.823 189.821 671.176 190.273 671.428H190.273Z" fill="#E6E6E6"/>
<path d="M146.033 283.161L48.5801 282.258C48.8251 268.064 52.1276 254.126 59.3465 241.653C64.0876 233.461 63.9852 224.546 62.8426 217.036C61.0794 205.445 65.1796 193.586 74.2905 186.208C81.2532 180.56 90.0409 177.652 98.9984 178.033L100.891 178.112C107.055 178.368 113.055 180.169 118.342 183.348C123.628 186.528 128.032 190.985 131.147 196.31C134.313 201.994 135.59 208.538 134.793 214.996C134.176 221.072 135.654 227.21 139.111 233.407C145.075 247.014 146.367 264.425 146.033 283.161Z" fill="#2F2E41"/>
<path d="M211.235 658.235L192.109 663.224L98.9724 460.32L104.793 658.235H85.6672C65.2296 565.121 28.3307 457.659 44.9201 423.731L143.877 417.91L211.235 658.235Z" fill="#A5AFED"/>
<path d="M98.1401 249.1C112.377 249.1 123.919 237.559 123.919 223.322C123.919 209.084 112.377 197.543 98.1401 197.543C83.9029 197.543 72.3613 209.084 72.3613 223.322C72.3613 237.559 83.9029 249.1 98.1401 249.1Z" fill="#FFB9B9"/>
<path d="M120.593 270.721L78.1826 268.227C82.3389 258.687 83.9992 249.501 82.3405 240.785H113.94C113.869 247.477 117.199 259.054 120.593 270.721Z" fill="#FFB9B9"/>
<path d="M147.203 425.394L54.0674 432.047L63.6301 266.979L79.846 262.406L98.1403 266.563L116.435 257.416L128.077 261.574L147.203 425.394Z" fill="#A5AFED"/>
<path d="M69.8664 544.309L6.25098 529.757C25.1672 467.028 59.2456 323.525 48.2455 272.385L81.5085 257.416L69.8664 544.309Z" fill="#E6E6E6"/>
<path d="M39.0981 363.026L14.9824 348.058L35.5488 287.823C37.8426 281.607 42.2362 276.389 47.9698 273.069L54.898 269.058L50.7401 329.763L39.0981 363.026Z" fill="#E6E6E6"/>
<path d="M202.504 530.588C182.425 542.205 132.236 548.68 110.199 540.567C108.577 483.891 105.397 323.577 115.604 255.753L152.193 270.721L148.867 315.626C131.374 354.04 182.169 487.836 202.504 530.588Z" fill="#E6E6E6"/>
<path d="M199.593 355.542L177.14 348.058L147.203 313.963L152.193 270.721L202.087 340.574L199.593 355.542Z" fill="#E6E6E6"/>
<path d="M129.226 387.91C129.594 389.522 130.585 390.922 131.984 391.804C133.382 392.687 135.074 392.978 136.687 392.615L155.746 388.299L152.991 376.133L133.932 380.449C132.319 380.814 130.917 381.806 130.034 383.205C129.152 384.604 128.861 386.296 129.226 387.91V387.91Z" fill="#FFB9B9"/>
<path d="M120.593 216.669C106.274 210.781 92.1325 210.355 78.1823 215.837L72.3613 195.048H125.582L120.593 216.669Z" fill="#2F2E41"/>
<path d="M146.371 373.837L157.182 393.794C175.365 388.723 191.123 372.735 206.244 353.879L202.087 340.574L176.308 347.226L146.371 373.837Z" fill="#E6E6E6"/>
<path d="M138.472 332.674H135.145C135.145 285.628 125.459 252.843 116.019 252.843L115.188 249.516C123.653 249.516 129.05 263.161 132.087 274.608C136.204 290.127 138.472 310.748 138.472 332.674Z" fill="#3F3D56"/>
<path d="M61.967 321.032H58.6406C58.6406 277.945 68.3942 251.179 82.7563 251.179L81.9247 254.506C71.9905 254.506 61.967 275.076 61.967 321.032Z" fill="#3F3D56"/>
<path d="M136.809 341.821C141.402 341.821 145.125 338.098 145.125 333.505C145.125 328.913 141.402 325.189 136.809 325.189C132.216 325.189 128.493 328.913 128.493 333.505C128.493 338.098 132.216 341.821 136.809 341.821Z" fill="#3F3D56"/>
<path d="M48.6613 340.989H45.335C45.335 329.068 52.0497 319.368 60.3033 319.368V322.695C53.8838 322.695 48.6613 330.902 48.6613 340.989Z" fill="#3F3D56"/>
<path d="M75.272 340.989H71.9457C71.9457 330.902 66.7232 322.695 60.3037 322.695V319.368C68.5573 319.368 75.272 329.068 75.272 340.989Z" fill="#3F3D56"/>
<path d="M73.6095 345.147C75.4466 345.147 76.9358 343.658 76.9358 341.821C76.9358 339.984 75.4466 338.495 73.6095 338.495C71.7724 338.495 70.2832 339.984 70.2832 341.821C70.2832 343.658 71.7724 345.147 73.6095 345.147Z" fill="#3F3D56"/>
<path d="M46.9991 345.147C48.8362 345.147 50.3254 343.658 50.3254 341.821C50.3254 339.984 48.8362 338.495 46.9991 338.495C45.1621 338.495 43.6729 339.984 43.6729 341.821C43.6729 343.658 45.1621 345.147 46.9991 345.147Z" fill="#3F3D56"/>
<path d="M5.41992 311.234L26.1737 314.94L73.6091 382.388L48.4086 376.458L5.41992 311.234Z" fill="#A5AFED"/>
<path d="M1.73861 310.408C1.42236 310.413 1.11319 310.502 0.84345 310.667C0.57371 310.833 0.353322 311.067 0.205291 311.347C0.0572603 311.626 -0.0129762 311.94 0.00197246 312.256C0.0169211 312.572 0.116504 312.878 0.290265 313.143L44.6304 380.418C44.8779 380.794 45.2601 381.061 45.6984 381.164L66.3285 386.017C66.6764 386.099 67.0408 386.073 67.3737 385.943C67.7065 385.813 67.9919 385.585 68.1921 385.289C68.3922 384.993 68.4976 384.643 68.4943 384.286C68.491 383.929 68.3791 383.581 68.1736 383.288L19.4908 314.068C19.3587 313.879 19.1908 313.718 18.9967 313.595C18.8025 313.471 18.5858 313.387 18.3591 313.347L2.07117 310.438C1.96141 310.418 1.85012 310.408 1.73861 310.408V310.408Z" fill="#3F3D56"/>
<path d="M29.3984 358.509L30.6308 370.922L50.0769 368.991C51.723 368.828 53.2367 368.017 54.2851 366.738C55.3335 365.458 55.8307 363.815 55.6673 362.169C55.504 360.523 54.6934 359.009 53.414 357.961C52.1346 356.912 50.491 356.415 48.845 356.579L29.3984 358.509Z" fill="#FFB9B9"/>
<path d="M12.4883 357.071C12.5165 361.304 14.2164 365.353 17.2175 368.338C20.2186 371.323 24.2777 373 28.5103 373.005H31.7079L34.0357 353.606L14.7613 346.667L12.4883 357.071Z" fill="#E6E6E6"/>
<path d="M413.895 361.694C413.895 361.694 410.606 361.235 410.606 356.451C410.606 351.668 408.252 342.711 408.252 342.711C408.252 342.711 406.215 327.126 403.402 324.655C400.589 322.185 396.975 307.676 396.975 307.676C396.975 307.676 396.357 299.805 395.097 298.11C393.836 296.416 392.133 292.267 389.621 286.348C387.108 280.43 376.657 276.373 376.657 276.373C376.657 276.373 357.716 265.388 352.349 261.806C351.858 261.51 351.399 261.163 350.98 260.771C350.045 259.553 345.971 259.528 345.971 259.528C345.545 256.831 345.136 253.743 345.003 250.946C345.003 250.646 345.003 250.345 345.003 250.045C350.988 246.507 355.496 240.929 357.699 234.335C357.8 234.017 357.883 233.692 357.975 233.366C358.341 233.253 358.679 233.064 358.967 232.811C359.255 232.557 359.486 232.246 359.644 231.897C360.12 230.82 360.137 229.568 360.738 228.558C361.439 227.373 362.775 226.738 363.826 225.853C366.481 223.591 367.166 219.793 367.04 216.346C366.957 213.541 366.506 210.719 366.681 207.94C366.681 207.706 366.681 207.472 366.731 207.238C366.782 206.829 366.84 206.404 366.915 206.003C367.324 203.933 368.217 201.979 368.718 199.926C369.219 197.872 369.269 195.56 368.1 193.79C366.389 191.194 362.825 190.677 359.694 190.451C356.147 190.151 353.016 190.535 350.704 187.588C349.643 186.049 348.448 184.608 347.131 183.281C346.664 182.847 342.123 180.067 342.123 179.892C337.68 177.826 332.639 177.437 327.932 178.798C325.57 179.483 323.357 180.601 320.962 181.161C315.82 182.379 309.893 181.06 305.519 184.007C303.081 185.677 301.62 188.339 300.251 190.919C299.138 193.045 298.009 195.173 296.862 197.305C295.009 200.802 293.139 204.358 292.363 208.232C292.2 209.078 292.097 209.934 292.054 210.794V210.794C292.054 211.103 292.054 211.412 292.054 211.721C292.054 211.855 292.054 211.988 292.054 212.122C292.054 212.406 292.054 212.689 292.104 212.956C292.154 213.224 292.104 213.299 292.163 213.474C292.221 213.649 292.238 214.042 292.288 214.309C292.338 214.576 292.438 215.052 292.538 215.411C292.538 215.569 292.638 215.72 292.688 215.878C292.738 216.037 292.872 216.437 292.981 216.713C293.089 216.988 293.097 217.005 293.164 217.147C293.289 217.439 293.44 217.723 293.59 217.982C293.657 218.09 293.707 218.199 293.774 218.307C294.003 218.698 294.259 219.072 294.542 219.426C296.32 221.655 298.957 223.074 300.902 225.161C300.902 225.244 300.902 225.328 300.902 225.411C300.902 225.636 300.902 225.862 300.902 226.096C301.021 230.75 302.276 235.305 304.557 239.364C306.839 243.423 310.077 246.864 313.991 249.385C313.991 249.703 314.033 250.028 314.05 250.354C314.213 252.829 314.182 255.313 313.958 257.783C313.617 257.384 313.192 257.065 312.712 256.852C312.233 256.638 311.711 256.534 311.187 256.548C310.828 256.53 310.469 256.561 310.118 256.639L310.043 256.581V256.656C308.207 257.107 305.944 259.018 303.782 264.453C303.782 264.453 297.204 271.865 292.196 271.556C287.187 271.248 274.507 279.278 274.507 279.278C274.507 279.278 262.136 287.3 259.482 295.481C257.998 300.121 256.216 304.66 254.148 309.071L238.813 340.558L236 365.6C236 365.6 237.561 376.711 237.252 378.414C236.943 380.117 243.671 395.393 243.671 395.393C243.671 395.393 265.901 434.443 274.983 436.446L275.634 435.995C276.025 436.192 276.436 436.344 276.861 436.446L278.731 435.136C278.847 436.603 278.797 438.079 278.581 439.535C277.337 443.4 279.057 468.559 281.244 473.493C283.431 478.426 282.655 543.12 282.655 543.12L282.346 548.821C282.346 548.821 282.346 549.005 282.421 549.322L282.346 550.675L282.571 550.791C282.805 552.605 282.729 554.446 282.346 556.234C281.561 558.738 281.244 565.809 281.244 565.809C281.244 565.809 274.983 605.777 277.955 613.807C280.927 621.838 283.439 630.636 283.439 630.636C283.439 630.636 286.57 640.653 283.59 642.323C280.609 643.992 272.17 646.956 273.89 651.121C275.476 654.978 281.494 665.312 282.388 666.823L282.312 667.657L281.085 680.955C281.284 682.711 281.76 684.424 282.496 686.031C283.84 688.935 286.444 691.932 291.42 691.607C292.254 691.548 293.214 691.456 294.158 691.331C303.248 690.104 314.434 686.047 314.434 686.047C313.854 685.68 313.324 685.239 312.856 684.737V684.737C312.409 684.304 312.055 683.785 311.816 683.211C311.576 682.636 311.456 682.02 311.462 681.398C311.596 678.968 307.063 667.44 305.928 664.594L305.669 663.96C305.669 663.96 316.003 653.149 314.284 643.583C314.284 643.583 302.847 636.905 306.612 633.232C310.377 629.559 317.105 619.041 317.105 619.041C317.105 619.041 317.414 579.682 317.105 573.814C316.783 569.732 316.977 565.626 317.681 561.593C317.806 560.992 317.957 560.399 318.115 559.807C323.326 560.593 328.589 560.992 333.859 561C335.784 561 337.732 560.962 339.702 560.884C339.702 561.44 339.727 562.041 339.777 562.687C340.211 572.437 341.021 589.541 341.68 595.893C342.615 604.992 347.782 629.542 347.782 629.542C347.782 629.542 337.924 635.862 349.502 651.463C349.502 651.463 349.502 657.106 348.734 657.933C347.914 660.61 347.253 663.333 346.756 666.088C346.272 669.018 346.071 671.998 346.856 673.534C348.734 677.224 360.003 676.923 360.003 676.923C360.094 676.902 360.186 676.888 360.279 676.882C362.406 676.657 364.556 676.858 366.605 677.475C368.653 678.091 370.558 679.11 372.207 680.471C376.49 683.91 392.734 682.408 401.541 681.306C404.988 680.863 407.292 680.471 407.292 680.471C407.403 680.081 407.443 679.673 407.409 679.269V679.269C407.317 677.107 405.623 672.366 394.137 668.133C394.137 668.133 383.335 660.871 383.485 654.543H383.243H381.999C382.784 654.518 383.335 654.518 383.335 654.518C383.335 654.518 379.103 639.084 380.831 637.823C382.558 636.563 377.383 619.459 377.383 619.459C377.383 619.459 374.42 590.743 374.253 588.739C374.264 587.013 374.528 585.297 375.037 583.647L374.253 567.896C374.253 567.896 374.102 562.662 374.253 560.959C374.236 559.481 374.119 558.005 373.902 556.543C373.827 555.959 373.752 555.349 373.668 554.748C377.717 553.721 380.346 552.778 380.346 552.778L379.879 497.976C383.318 491.298 383.952 476.64 383.936 466.255C383.936 459.577 383.635 454.636 383.635 454.636L388.335 446.964C388.335 446.964 389.42 437.782 387.701 435.77C386.941 434.86 387.283 433.917 387.909 433.141C388.239 432.871 388.587 432.625 388.953 432.406C388.912 432.348 388.875 432.286 388.844 432.222C389.172 431.948 389.521 431.7 389.888 431.479C389.888 431.479 388.218 428.892 389.712 427.798C391.115 428.75 392.367 429.509 393.319 430.052C393.252 430.661 393.185 431.012 393.185 431.012L393.586 430.177C394.504 430.695 395.063 431.012 395.063 431.012C395.063 431.012 402.426 416.345 402.267 414.192C402.108 412.038 407.276 402.922 407.276 402.922C407.276 402.922 407.902 398.131 410.723 396.127C413.545 394.124 412.91 379.608 412.91 379.608C412.91 379.608 413.695 372.045 415.573 368.964C417.451 365.884 413.895 361.694 413.895 361.694ZM273.021 355.258L273.163 358.755C272.329 357.411 271.728 356.451 271.728 356.451L273.021 355.258Z" fill="url(#paint0_linear)"/>
<path d="M318.909 557.954C318.35 559.337 317.925 560.771 317.64 562.236C316.944 566.248 316.75 570.33 317.064 574.39C317.373 580.233 317.064 619.392 317.064 619.392C317.064 619.392 310.461 629.835 306.771 633.516C303.082 637.197 314.284 643.808 314.284 643.808C315.954 653.333 305.836 664.085 305.836 664.085C295.552 651.647 283.114 667.148 283.114 667.148C283.114 667.148 276.353 655.462 274.666 651.288C272.98 647.114 281.269 644.234 284.183 642.531C287.096 640.828 284.032 630.845 284.032 630.845C284.032 630.845 281.578 622.088 278.657 614.099C275.735 606.111 281.879 566.351 281.879 566.351C281.879 566.351 282.196 559.281 282.956 556.818C283.335 555.041 283.411 553.212 283.181 551.409C283.131 550.8 283.073 550.299 283.031 549.948C282.989 549.598 282.956 549.447 282.956 549.447L283.072 549.247L287.246 541.467C287.246 541.467 320.912 553.054 318.909 557.954Z" fill="#A5AFED"/>
<path d="M382.182 654.711C382.182 654.711 374.669 654.552 370.662 658.05C366.656 661.547 347.289 658.818 348.124 658.05C348.959 657.282 348.884 651.605 348.884 651.605C337.523 636.087 347.214 629.793 347.214 629.793C347.214 629.793 342.147 605.376 341.229 596.319C340.586 590 339.793 572.946 339.367 563.288C339.184 559.114 339.075 556.234 339.075 556.234L348.274 554.406L349.468 554.172L371.856 549.673C371.856 549.673 372.474 553.847 372.891 557.261C373.102 558.718 373.217 560.188 373.234 561.66C373.092 563.33 373.234 568.564 373.234 568.564L374.001 584.224C373.506 585.867 373.247 587.574 373.234 589.291C373.392 591.294 376.305 619.851 376.305 619.851C376.305 619.851 381.372 636.897 379.644 638.124C377.917 639.351 382.182 654.711 382.182 654.711Z" fill="#A5AFED"/>
<path opacity="0.1" d="M329.734 266.49H305.993V290.23H329.734V266.49Z" fill="#A5AFED"/>
<path opacity="0.1" d="M329.734 325.048H305.993V348.788H329.734V325.048Z" fill="#A5AFED"/>
<path opacity="0.1" d="M329.734 383.598H305.993V407.338H329.734V383.598Z" fill="#A5AFED"/>
<path opacity="0.1" d="M329.734 442.156H305.993V465.897H329.734V442.156Z" fill="#A5AFED"/>
<path opacity="0.1" d="M329.734 500.714H305.993V524.455H329.734V500.714Z" fill="#A5AFED"/>
<path opacity="0.1" d="M305.993 574.574V559.264H329.725V572.395L305.993 574.574Z" fill="#A5AFED"/>
<path opacity="0.1" d="M340.245 693.276C385.167 693.276 421.584 687.427 421.584 680.212C421.584 672.997 385.167 667.148 340.245 667.148C295.323 667.148 258.906 672.997 258.906 680.212C258.906 687.427 295.323 693.276 340.245 693.276Z" fill="#494961"/>
<path d="M395.497 424.668L393.694 432.348C393.694 432.348 379.252 424.96 376.656 415.611C374.06 406.261 381.005 402.697 381.005 402.697L394.47 408.39L395.497 424.668Z" fill="white"/>
<path opacity="0.1" d="M395.497 424.668L393.694 432.348C393.694 432.348 379.252 424.96 376.656 415.611C374.06 406.261 381.005 402.697 381.005 402.697L394.47 408.39L395.497 424.668Z" fill="black"/>
<path d="M314.45 686.039C314.45 686.039 301.094 690.947 291.912 691.565C287.037 691.891 284.474 688.902 283.155 686.022C282.439 684.434 281.971 682.745 281.77 681.014L282.98 667.783L283.614 660.746L303.123 655.67L305.886 664.127L306.144 664.761C307.246 667.591 311.704 679.06 311.57 681.456C311.56 682.076 311.675 682.691 311.909 683.265C312.142 683.839 312.49 684.36 312.931 684.795C313.383 685.272 313.893 685.69 314.45 686.039V686.039Z" fill="white"/>
<path d="M405.639 679.311C405.673 679.715 405.634 680.122 405.522 680.513C405.522 680.513 376.956 685.271 371.113 680.513C369.471 679.123 367.556 678.091 365.492 677.483C363.428 676.875 361.26 676.704 359.126 676.982C359.126 676.982 348.074 677.282 346.229 673.643C345.461 672.115 345.661 669.152 346.137 666.238C346.623 663.498 347.27 660.789 348.074 658.124L348.516 657.774L351.146 655.662L381.932 654.752H382.165C382.015 661.046 392.608 668.267 392.608 668.267C403.886 672.441 405.547 677.157 405.639 679.311Z" fill="white"/>
<path opacity="0.1" d="M405.647 679.311C405.677 679.716 405.634 680.123 405.522 680.513C405.522 680.513 376.957 685.271 371.122 680.513C369.478 679.122 367.562 678.089 365.497 677.481C363.431 676.873 361.261 676.703 359.126 676.982C359.126 676.982 348.066 677.282 346.221 673.643C345.461 672.115 345.653 669.152 346.129 666.23C350.386 666.656 357.106 667.716 359.744 670.254C363.734 674.093 370.496 677.933 374.636 678.242C377.908 678.443 397.367 679.06 405.647 679.311Z" fill="black"/>
<path opacity="0.1" d="M314.449 686.039C314.449 686.039 301.093 690.947 291.911 691.565C287.036 691.891 284.473 688.902 283.154 686.022C286.56 687.166 291.277 688.359 293.756 687.266C296.694 685.955 307.112 685.121 312.955 684.762C313.396 685.25 313.898 685.68 314.449 686.039V686.039Z" fill="black"/>
<path d="M334.266 290.455C323.248 286.173 309.074 272.024 312.613 265.413C313.395 263.743 313.862 261.943 313.99 260.104C314.218 257.606 314.251 255.094 314.09 252.591C313.842 248.489 313.349 244.405 312.613 240.362C312.613 240.362 347.013 241.138 345.01 246.205C344.426 247.699 344.325 250.279 344.492 253.158C344.659 256.038 345.068 259.319 345.502 262.082C346.095 265.864 346.704 268.76 346.704 268.76C346.704 268.76 344.592 271.707 343.365 271.865C342.138 272.024 350.077 296.591 334.266 290.455Z" fill="#CF6F80"/>
<path opacity="0.1" d="M306.111 664.719L305.852 665.003C295.568 652.565 283.13 668.075 283.13 668.075L282.946 667.741L283.581 660.704L303.089 655.629L305.852 664.085L306.111 664.719Z" fill="black"/>
<path opacity="0.1" d="M382.182 655.629C382.182 655.629 374.669 655.478 370.662 659.018C366.655 662.557 347.289 659.777 348.124 659.018C348.367 658.632 348.516 658.195 348.558 657.741L351.187 655.629L381.973 654.719C382.09 655.303 382.182 655.629 382.182 655.629Z" fill="black"/>
<path opacity="0.1" d="M345.01 246.23C344.426 247.724 344.326 250.304 344.493 253.184C339.885 255.958 334.588 257.377 329.21 257.277C323.832 257.176 318.592 255.561 314.091 252.616C313.842 248.514 313.349 244.43 312.613 240.387C312.613 240.387 347.014 241.163 345.01 246.23Z" fill="black"/>
<path d="M358.291 227.799C358.382 235.372 355.46 242.672 350.169 248.092C344.877 253.511 337.65 256.607 330.076 256.698C322.502 256.789 315.203 253.867 309.783 248.576C304.363 243.284 301.268 236.057 301.177 228.483C301.177 228.249 301.177 228.032 301.177 227.799C301.177 220.223 304.186 212.957 309.543 207.6C314.9 202.243 322.166 199.233 329.742 199.233C337.318 199.233 344.584 202.243 349.941 207.6C355.298 212.957 358.308 220.223 358.308 227.799H358.291Z" fill="#CF6F80"/>
<path opacity="0.1" d="M334.266 290.455C323.248 286.173 309.074 272.024 312.613 265.413C313.395 263.743 313.862 261.943 313.99 260.104L329.074 272.508L338.407 280.163L345.502 262.107C346.095 265.889 346.704 268.785 346.704 268.785C346.704 268.785 344.592 271.732 343.365 271.89C342.138 272.049 350.077 296.591 334.266 290.455Z" fill="black"/>
<path d="M373.275 345.274L360.679 556.885L344.251 557.962L301.703 435.261L308.682 289.587L310.159 258.81L329.075 274.345L338.407 281.999L345.712 263.409L359.293 275.246L373.275 345.274Z" fill="#A5AFED"/>
<path opacity="0.1" d="M318.907 557.954C318.349 559.337 317.924 560.771 317.638 562.236C305.673 560.394 294.052 556.767 283.163 551.476L282.938 551.359L283.013 550.015V549.314L287.186 541.534C287.186 541.534 320.911 553.054 318.907 557.954Z" fill="black"/>
<path opacity="0.1" d="M348.549 562.269C345.493 562.792 342.411 563.146 339.317 563.329C339.133 559.156 339.024 556.276 339.024 556.276L348.274 554.406L348.549 562.269Z" fill="black"/>
<path opacity="0.1" d="M372.924 557.261C366.989 558.805 357.815 560.541 349.618 559.456L349.501 554.172L371.889 549.673C371.889 549.673 372.482 553.813 372.924 557.261Z" fill="black"/>
<path opacity="0.1" d="M349.468 560.425C315.243 566.268 283.898 549.514 283.898 549.514L284.198 543.838C284.198 543.838 284.974 479.486 282.821 474.553C280.667 469.62 278.989 444.635 280.208 440.821C281.427 437.006 275.759 379.407 275.759 379.407L274.84 356.034L241.208 342.369L256.234 311.041C258.263 306.649 260.008 302.132 261.459 297.518C264.072 289.379 276.201 281.39 276.201 281.39C276.201 281.39 288.639 273.41 293.556 273.71C298.472 274.011 304.917 266.648 304.917 266.648C309.675 254.519 313.982 259.97 313.982 259.97C313.982 260.555 313.982 259.97 313.749 261.765C312.079 275.079 340.745 317.151 341.154 317.902L343.917 384.399L346.68 468.551L349.468 560.425Z" fill="black"/>
<path d="M348.549 560.425C314.324 566.268 282.971 549.514 282.971 549.514L283.28 543.838C283.28 543.838 284.048 479.486 281.894 474.553C279.74 469.62 278.062 444.61 279.29 440.762C280.517 436.914 274.815 379.374 274.815 379.374L273.889 356.001L240.265 342.336L255.29 311.007C257.315 306.617 259.06 302.103 260.516 297.493C263.129 289.379 275.299 281.382 275.299 281.382C275.299 281.382 287.737 273.401 292.646 273.702C297.554 274.002 304.032 266.648 304.032 266.648C308.798 254.519 314.049 259.97 314.049 259.97C314.049 260.555 313.548 260.805 313.815 261.765C317.488 274.679 339.893 317.151 340.302 317.902L343.065 384.399L345.77 468.593L348.549 560.425Z" fill="white"/>
<path opacity="0.1" d="M339.326 319.78C335.644 318.245 316.144 295.982 316.144 295.982V290.915C315.435 289.245 311.211 290.263 307.797 291.432L309.266 260.655L310.936 262.04C314.583 274.946 338.925 319.038 339.326 319.78Z" fill="black"/>
<path d="M340.252 317.944C336.562 316.4 317.062 294.145 317.062 294.145V289.07C316.353 287.4 312.137 288.419 308.715 289.587L310.159 258.843L311.829 260.22C315.51 273.109 339.843 317.193 340.252 317.944Z" fill="white"/>
<path opacity="0.1" d="M283.898 428.967C284.357 428.967 307.697 426.513 307.697 426.513C307.697 426.513 321.829 454.31 320.903 461.063C319.976 467.817 318.298 473.81 312.613 472.75C306.929 471.69 282.02 473.585 282.02 473.585L283.898 428.967Z" fill="black"/>
<path d="M282.971 427.122C283.438 427.122 306.778 424.668 306.778 424.668C306.778 424.668 320.902 452.507 319.984 459.185C319.066 465.863 317.371 471.932 311.695 470.872C306.019 469.812 281.093 471.706 281.093 471.706L282.971 427.122Z" fill="white"/>
<path d="M300.559 414.108C300.559 414.108 321.979 425.628 322.438 429.134C322.897 432.64 311.536 427.598 309.082 426.98C307.466 426.596 305.822 426.339 304.165 426.212L287.796 426.655L300.559 414.108Z" fill="#CF6F80"/>
<path opacity="0.1" d="M333.341 321.216C334.585 321.216 335.595 320.207 335.595 318.963C335.595 317.718 334.585 316.709 333.341 316.709C332.096 316.709 331.087 317.718 331.087 318.963C331.087 320.207 332.096 321.216 333.341 321.216Z" fill="black"/>
<path d="M333.341 320.298C334.585 320.298 335.595 319.289 335.595 318.044C335.595 316.799 334.585 315.79 333.341 315.79C332.096 315.79 331.087 316.799 331.087 318.044C331.087 319.289 332.096 320.298 333.341 320.298Z" fill="#3F3D56"/>
<path opacity="0.1" d="M337.488 418.783C338.733 418.783 339.742 417.774 339.742 416.529C339.742 415.284 338.733 414.275 337.488 414.275C336.243 414.275 335.234 415.284 335.234 416.529C335.234 417.774 336.243 418.783 337.488 418.783Z" fill="black"/>
<path d="M337.488 417.856C338.733 417.856 339.742 416.847 339.742 415.602C339.742 414.358 338.733 413.349 337.488 413.349C336.243 413.349 335.234 414.358 335.234 415.602C335.234 416.847 336.243 417.856 337.488 417.856Z" fill="#3F3D56"/>
<path opacity="0.1" d="M335.594 370C336.838 370 337.848 368.99 337.848 367.746C337.848 366.501 336.838 365.492 335.594 365.492C334.349 365.492 333.34 366.501 333.34 367.746C333.34 368.99 334.349 370 335.594 370Z" fill="black"/>
<path d="M335.594 369.081C336.838 369.081 337.848 368.072 337.848 366.827C337.848 365.583 336.838 364.574 335.594 364.574C334.349 364.574 333.34 365.583 333.34 366.827C333.34 368.072 334.349 369.081 335.594 369.081Z" fill="#3F3D56"/>
<path d="M387.55 425.745C387.55 425.745 389.086 428.049 387.55 429.084C386.014 430.119 387.701 432.773 387.701 432.773C387.701 432.773 383.869 435.01 385.555 437.039C387.241 439.067 386.173 448.175 386.173 448.175L381.565 455.846C381.565 455.846 381.841 460.763 381.857 467.407C381.857 477.775 381.248 492.35 377.875 498.995L378.326 553.513C378.326 553.513 362.19 559.414 348.684 557.611L346.681 470.129C346.681 470.129 349.602 420.519 350.679 411.003C351.309 406.062 351.566 401.081 351.447 396.102C351.447 396.102 350.988 381.21 349.444 374.307C349.444 374.307 347.774 344.356 347.607 336.067C347.532 332.102 347.741 320.532 347.974 309.53C348.233 297.501 348.525 286.156 348.525 286.156L345.479 262.04C345.479 262.04 348.525 261.74 349.444 262.959C349.855 263.343 350.302 263.687 350.779 263.985C356.047 267.541 374.628 278.477 374.628 278.477C374.628 278.477 384.912 282.567 387.375 288.427C389.838 294.287 391.549 298.444 392.743 300.114C393.936 301.783 394.587 309.63 394.587 309.63C394.587 309.63 398.127 324.071 400.89 326.517C403.653 328.963 405.639 344.489 405.639 344.489L381.223 363.689C381.223 363.689 379.077 395.627 378.618 396.862C378.159 398.098 387.55 425.745 387.55 425.745Z" fill="white"/>
<path d="M388.477 425.745C388.477 425.745 390.004 428.049 388.477 429.084C386.949 430.119 388.618 432.773 388.618 432.773C388.618 432.773 384.787 435.01 386.473 437.039C388.159 439.067 387.091 448.175 387.091 448.175L382.5 455.846C382.5 455.846 382.775 460.763 382.8 467.407C382.8 477.775 382.191 492.35 378.818 498.995L379.278 553.513C379.278 553.513 363.142 559.414 349.635 557.611L347.64 470.129C347.64 470.129 350.554 420.519 351.639 411.003C352.27 406.062 352.524 401.081 352.398 396.102C352.398 396.102 351.939 381.21 350.403 374.307C350.403 374.307 348.734 344.356 348.558 336.067C348.483 332.101 348.692 320.532 348.926 309.53C349.185 297.501 349.477 286.156 349.477 286.156L345.453 261.715C345.453 261.715 349.477 261.715 350.403 262.958C350.811 263.347 351.258 263.691 351.739 263.985V263.985C356.998 267.541 375.58 278.477 375.58 278.477C375.58 278.477 385.839 282.567 388.343 288.427C390.847 294.287 392.517 298.444 393.71 300.114C394.904 301.783 395.555 309.63 395.555 309.63C395.555 309.63 399.095 324.071 401.858 326.517C404.621 328.963 406.616 344.489 406.616 344.489L382.199 363.689C382.199 363.689 380.054 395.627 379.586 396.862C379.119 398.097 388.477 425.745 388.477 425.745Z" fill="white"/>
<path opacity="0.1" d="M359.234 293.244L361.446 299.671L349.835 311.358C350.094 299.329 350.386 287.985 350.386 287.985L346.362 263.551C346.362 263.551 350.386 263.551 351.312 264.795C351.72 265.184 352.168 265.528 352.648 265.822V265.822L362.515 294.279L359.234 293.244Z" fill="black"/>
<path d="M358.291 291.399L360.503 297.818L348.9 309.505C349.15 297.476 349.451 286.131 349.451 286.131L345.419 261.69C345.419 261.69 349.451 261.69 350.369 262.933C350.778 263.32 351.226 263.664 351.705 263.96V263.96L361.63 292.442L358.291 291.399Z" fill="white"/>
<path opacity="0.1" d="M358.291 227.799C358.294 230.806 357.821 233.796 356.888 236.655C356.731 236.682 356.571 236.676 356.416 236.639C356.261 236.601 356.115 236.533 355.987 236.438C355.762 228.925 352.072 221.863 347.522 215.862C346.243 214.051 344.695 212.447 342.931 211.103C341.146 209.764 338.926 209.136 336.704 209.342C334.2 209.684 331.988 211.387 329.458 211.604C326.119 211.88 323.131 209.567 319.817 209.459C318.469 209.47 317.14 209.769 315.917 210.337C314.695 210.904 313.608 211.726 312.73 212.748C310.987 214.803 309.693 217.2 308.932 219.785C307.619 223.707 306.904 227.804 306.811 231.939C306.77 234.276 306.544 237.206 304.374 238.058C304.538 236.34 304.343 234.607 303.801 232.969C303.26 231.33 302.383 229.823 301.227 228.541L301.177 228.483C301.177 228.249 301.177 228.032 301.177 227.799C301.177 220.223 304.186 212.957 309.543 207.6C314.9 202.243 322.166 199.233 329.742 199.233C337.318 199.233 344.584 202.243 349.941 207.6C355.298 212.957 358.308 220.223 358.308 227.799H358.291Z" fill="black"/>
<path d="M341.596 182.446C337.259 180.406 332.325 180.02 327.723 181.361C325.41 182.045 323.232 183.156 320.886 183.715C315.877 184.925 310.034 183.615 305.735 186.545C303.348 188.214 301.912 190.852 300.576 193.423L297.237 199.776C295.418 203.257 293.581 206.796 292.821 210.628C292.062 214.459 292.521 218.75 294.95 221.838C296.711 224.075 299.333 225.486 301.252 227.598C302.406 228.886 303.28 230.398 303.821 232.04C304.361 233.682 304.555 235.419 304.391 237.139C306.562 236.305 306.779 233.358 306.829 231.021C306.922 226.886 307.637 222.789 308.949 218.867C309.711 216.282 311.004 213.885 312.747 211.83C313.625 210.807 314.712 209.983 315.934 209.415C317.156 208.846 318.486 208.545 319.834 208.532C323.173 208.649 326.17 210.961 329.476 210.678C331.98 210.469 334.2 208.766 336.721 208.424C338.944 208.213 341.165 208.842 342.949 210.185C344.713 211.524 346.26 213.129 347.531 214.943C352.089 220.953 355.787 227.982 356.004 235.52C356.948 236.204 358.308 235.303 358.776 234.234C359.243 233.166 359.26 231.914 359.853 230.895C360.537 229.718 361.848 229.084 362.874 228.199C365.479 225.954 366.13 222.172 366.03 218.741C365.93 215.31 365.262 211.83 365.913 208.457C366.305 206.395 367.19 204.45 367.674 202.405C368.158 200.36 368.217 198.064 367.073 196.303C365.404 193.724 361.889 193.206 358.826 192.964C355.345 192.664 352.231 193.048 350.011 190.118C348.966 188.59 347.793 187.155 346.505 185.827C346.046 185.384 341.596 182.63 341.596 182.446Z" fill="#512E4E"/>
<path opacity="0.1" d="M250.841 358.48L242.126 342.361L239.363 367.236C239.363 367.236 240.899 378.289 240.59 379.983C240.281 381.678 246.884 396.87 246.884 396.87C246.884 396.87 268.697 435.728 277.604 437.723L307.655 416.22L299.675 406.086C299.675 406.086 296.911 405.009 296.219 406.086C296.219 406.086 281.393 380.593 279.866 378.756C278.338 376.92 278.63 373.222 278.63 373.222C278.63 373.222 276.326 370.767 277.094 368.464C277.862 366.16 272.687 358.179 272.687 358.179L277.445 353.73L250.841 358.48Z" fill="black"/>
<path d="M242.586 340.516L240.282 342.361L237.519 367.237C237.519 367.237 239.054 378.289 238.746 379.983C238.437 381.678 245.048 396.87 245.048 396.87C245.048 396.87 266.852 435.728 275.759 437.723L305.86 416.22L297.872 406.086C297.872 406.086 295.108 405.009 294.416 406.086C294.416 406.086 279.599 380.593 278.063 378.756C276.527 376.92 276.836 373.222 276.836 373.222C276.836 373.222 274.532 370.768 275.3 368.464C276.068 366.16 270.842 358.179 270.842 358.179L275.6 353.73L242.586 340.516Z" fill="white"/>
<path opacity="0.1" d="M385.554 437.999C387.224 440.027 386.172 449.143 386.172 449.143L381.564 456.764C381.564 456.764 381.84 461.689 381.856 468.334L374.11 470.755C373.409 470.973 372.665 471.021 371.942 470.894C371.219 470.767 370.536 470.469 369.951 470.025C369.366 469.58 368.896 469.003 368.58 468.34C368.264 467.677 368.11 466.948 368.133 466.214L369.477 423.14L387.55 430.044C386.014 431.112 387.7 433.733 387.7 433.733C387.7 433.733 383.868 435.97 385.554 437.999Z" fill="black"/>
<path d="M386.473 437.081C388.143 439.101 387.091 448.216 387.091 448.216L382.5 455.846C382.5 455.846 382.775 460.763 382.8 467.407L374.912 469.87C374.227 470.085 373.5 470.132 372.793 470.009C372.086 469.886 371.419 469.595 370.847 469.161C370.275 468.728 369.815 468.163 369.505 467.515C369.196 466.867 369.046 466.155 369.069 465.437L370.413 422.214L388.477 429.134C386.932 430.202 388.619 432.823 388.619 432.823C388.619 432.823 384.787 435.052 386.473 437.081Z" fill="white"/>
<path d="M392.466 416.529C392.466 416.529 391.239 424.367 388.167 424.827C385.095 425.286 383.718 437.507 380.654 437.081C377.591 436.655 379.619 425.711 379.728 423.591C379.836 421.471 376.389 412.689 378.96 410.694C381.531 408.699 389.711 410.694 389.711 410.694L392.466 416.529Z" fill="#CF6F80"/>
<path opacity="0.1" d="M398.96 356.176L404.745 344.489C404.745 344.489 407.057 353.396 407.057 358.154C407.057 362.912 410.279 363.38 410.279 363.38C410.279 363.38 413.81 367.554 411.949 370.601C410.087 373.647 409.344 381.194 409.344 381.194C409.344 381.194 409.954 395.627 407.191 397.622C404.428 399.617 403.81 404.383 403.81 404.383C403.81 404.383 398.743 413.44 398.902 415.594C399.06 417.748 391.839 432.331 391.839 432.331C391.839 432.331 395.37 414.208 374.794 406.378C374.794 406.378 374.635 400.234 376.171 398.548C377.707 396.862 380.103 396.044 378.6 387.563C377.098 379.082 378.166 368.856 378.166 366.811C378.166 364.766 382.774 352.019 382.774 352.019L398.96 356.176Z" fill="black"/>
<path d="M401.532 342.82L406.591 344.489C406.591 344.489 408.903 353.396 408.903 358.154C408.903 362.912 412.125 363.38 412.125 363.38C412.125 363.38 415.656 367.554 413.795 370.601C411.933 373.647 411.182 381.194 411.182 381.194C411.182 381.194 411.8 395.627 409.037 397.622C406.273 399.617 405.697 404.383 405.697 404.383C405.697 404.383 400.63 413.44 400.789 415.594C400.948 417.748 393.719 432.331 393.719 432.331C393.719 432.331 397.25 414.208 376.673 406.378C376.673 406.378 376.523 400.234 378.059 398.548C379.595 396.862 381.99 396.044 380.488 387.563C378.985 379.082 380.054 368.856 380.054 366.811C380.054 364.766 384.662 352.019 384.662 352.019L401.532 342.82Z" fill="white"/>
<path opacity="0.1" d="M289.773 645.729C289.773 645.729 297.837 640.662 303.13 644.343C308.422 648.024 289.773 645.729 289.773 645.729Z" fill="black"/>
<path opacity="0.1" d="M352.447 630.06C352.447 630.06 359.584 629.142 365.578 635.594C371.572 642.047 352.447 630.06 352.447 630.06Z" fill="black"/>
<g opacity="0.1">
<path opacity="0.1" d="M362.875 226.363C361.848 227.256 360.529 227.882 359.844 229.059C359.26 230.069 359.243 231.321 358.776 232.398C358.309 233.475 356.948 234.368 355.996 233.683C355.779 226.171 352.081 219.117 347.532 213.107C346.26 211.295 344.714 209.693 342.949 208.357C341.164 207.011 338.94 206.38 336.713 206.587C334.209 206.929 332.005 208.632 329.476 208.849C326.137 209.125 323.14 206.813 319.826 206.704C318.48 206.714 317.151 207.013 315.93 207.58C314.709 208.148 313.624 208.97 312.747 209.993C311.005 212.048 309.711 214.445 308.949 217.03C307.638 220.952 306.923 225.049 306.829 229.184C306.779 231.513 306.562 234.418 304.408 235.286C304.458 235.906 304.458 236.528 304.408 237.148C306.587 236.313 306.804 233.366 306.854 231.029C306.948 226.894 307.663 222.797 308.974 218.875C309.736 216.29 311.03 213.893 312.772 211.838C313.649 210.815 314.734 209.992 315.955 209.424C317.176 208.855 318.504 208.554 319.851 208.54C323.19 208.657 326.195 210.97 329.501 210.686C332.005 210.477 334.226 208.774 336.738 208.432C338.964 208.222 341.187 208.85 342.974 210.193C344.739 211.532 346.285 213.138 347.557 214.951C352.106 220.962 355.804 227.99 356.021 235.528C356.973 236.213 358.334 235.311 358.801 234.243C359.268 233.174 359.285 231.922 359.87 230.904C360.554 229.727 361.873 229.092 362.9 228.207C365.504 225.962 366.155 222.18 366.055 218.75C366.055 218.641 366.055 218.541 366.055 218.432C365.888 221.421 365.095 224.451 362.875 226.363Z" fill="black"/>
<path opacity="0.1" d="M301.244 225.778C299.332 223.666 296.711 222.247 294.95 220.01C293.462 218.035 292.614 215.652 292.521 213.182C292.259 216.271 293.121 219.351 294.95 221.855C296.711 224.092 299.332 225.503 301.244 227.615C303.09 229.679 304.2 232.298 304.399 235.061C304.525 233.381 304.31 231.693 303.768 230.098C303.226 228.503 302.367 227.034 301.244 225.778Z" fill="black"/>
<path opacity="0.1" d="M367.674 200.569C367.182 202.614 366.305 204.559 365.905 206.621C365.664 208.015 365.577 209.431 365.646 210.844C365.673 210.046 365.76 209.251 365.905 208.465C366.305 206.404 367.182 204.459 367.674 202.413C367.957 201.285 368.05 200.117 367.95 198.958C367.896 199.5 367.804 200.039 367.674 200.569V200.569Z" fill="black"/>
</g>
<rect opacity="0.6" y="689" width="492" height="8" rx="4" fill="#494961"/>
<path d="M451.331 40.908C439.594 29.3393 423.92 22.9544 408.203 18.8695C390.411 14.2455 372.012 11.5217 353.836 8.90841C334.893 6.18497 315.875 4.08432 296.782 2.60647C277.715 1.13643 258.613 0.294901 239.476 0.0818748C222.425 -0.109125 205.259 -0.115027 188.29 1.77681C172.308 3.55867 156.364 7.13437 141.955 14.4752C129.129 20.8689 118.353 30.7319 110.852 42.9435C103.956 54.3102 99.8564 67.936 101.282 81.2973C101.951 87.8766 103.999 94.241 107.294 99.9751C111.156 106.312 116.078 111.938 121.845 116.608C133.75 126.661 147.985 134.01 158.227 145.958C160.931 149.089 163.294 152.499 165.274 156.13C166.761 158.885 168.434 161.255 171.2 162.862C173.669 164.271 176.501 164.918 179.337 164.72C182.173 164.522 184.887 163.489 187.137 161.751C190.327 159.247 192.618 155.387 195.087 152.21L203.696 141.131C204.319 140.138 205.04 139.21 205.848 138.362C206.429 137.882 205.471 138.304 205.661 138.185C205.766 138.119 205.949 138.156 206.063 138.109C206.637 137.945 207.224 137.835 207.819 137.783C214.105 136.627 220.404 135.546 226.717 134.54C250.027 130.779 273.488 127.676 297.047 126.004C309.19 125.034 321.378 124.744 333.553 125.133C349.297 125.777 364.823 128.904 380.509 130.252C397.398 131.704 415.137 131.504 431.051 124.992C443.788 119.779 455.614 111.01 462.511 98.8988C465.783 93.1705 467.722 86.7782 468.183 80.1973C469.025 65.2703 461.766 51.1942 451.331 40.908Z" fill="#494961"/>
<path d="M230.09 12.316C227.087 12.316 224.086 12.3319 221.086 12.3637C192.282 12.6694 162.514 14.9982 139.924 29.8452C119.873 43.0237 105.82 72.3785 117.713 93.4307C123.174 103.097 133.068 110.134 143.544 117.583C147.649 120.503 151.896 123.523 155.965 126.775C164.854 133.878 173.225 143.412 178.041 154.131L199.192 126.912L203.188 126.147C207.033 125.411 297.9 108.18 346.294 113.774C350.744 114.289 355.243 114.881 359.594 115.453C379.253 118.04 397.822 120.481 415.649 116.876C434.26 113.11 454.695 98.7368 455.911 79.5162C456.744 66.3575 448.183 51.9222 434.103 42.7403C419.865 33.4568 402.108 29.6238 385.14 26.4933C333.994 17.0692 282.097 12.3238 230.09 12.316V12.316Z" fill="white"/>
<path d="M190.808 75.456H181.496L179.896 80H176.088L184.056 57.728H188.28L196.248 80H192.408L190.808 75.456ZM189.784 72.48L186.168 62.144L182.52 72.48H189.784ZM216.865 62.368L206.049 88.288H202.273L205.857 79.712L198.913 62.368H202.977L207.937 75.808L213.089 62.368H216.865ZM228.546 80.288C226.882 80.288 225.378 79.9147 224.034 79.168C222.69 78.4 221.634 77.3333 220.866 75.968C220.098 74.5813 219.714 72.9813 219.714 71.168C219.714 69.376 220.108 67.7867 220.898 66.4C221.687 65.0133 222.764 63.9467 224.13 63.2C225.495 62.4533 227.02 62.08 228.706 62.08C230.391 62.08 231.916 62.4533 233.282 63.2C234.647 63.9467 235.724 65.0133 236.514 66.4C237.303 67.7867 237.698 69.376 237.698 71.168C237.698 72.96 237.292 74.5493 236.482 75.936C235.671 77.3227 234.562 78.4 233.154 79.168C231.767 79.9147 230.231 80.288 228.546 80.288ZM228.546 77.12C229.484 77.12 230.359 76.896 231.17 76.448C232.002 76 232.674 75.328 233.186 74.432C233.698 73.536 233.954 72.448 233.954 71.168C233.954 69.888 233.708 68.8107 233.218 67.936C232.727 67.04 232.076 66.368 231.266 65.92C230.455 65.472 229.58 65.248 228.642 65.248C227.703 65.248 226.828 65.472 226.018 65.92C225.228 66.368 224.599 67.04 224.13 67.936C223.66 68.8107 223.426 69.888 223.426 71.168C223.426 73.0667 223.906 74.5387 224.866 75.584C225.847 76.608 227.074 77.12 228.546 77.12ZM271.344 57.76L262.992 80H258.768L250.384 57.76H254.288L260.88 76.256L267.504 57.76H271.344ZM274.459 71.104C274.459 69.3333 274.822 67.7653 275.547 66.4C276.294 65.0347 277.296 63.9787 278.555 63.232C279.835 62.464 281.243 62.08 282.779 62.08C284.166 62.08 285.371 62.3573 286.395 62.912C287.44 63.4453 288.272 64.1173 288.891 64.928V62.368H292.571V80H288.891V77.376C288.272 78.208 287.43 78.9013 286.363 79.456C285.296 80.0107 284.08 80.288 282.715 80.288C281.2 80.288 279.814 79.904 278.555 79.136C277.296 78.3467 276.294 77.2587 275.547 75.872C274.822 74.464 274.459 72.8747 274.459 71.104ZM288.891 71.168C288.891 69.952 288.635 68.896 288.123 68C287.632 67.104 286.982 66.4213 286.171 65.952C285.36 65.4827 284.486 65.248 283.547 65.248C282.608 65.248 281.734 65.4827 280.923 65.952C280.112 66.4 279.451 67.072 278.939 67.968C278.448 68.8427 278.203 69.888 278.203 71.104C278.203 72.32 278.448 73.3867 278.939 74.304C279.451 75.2213 280.112 75.9253 280.923 76.416C281.755 76.8853 282.63 77.12 283.547 77.12C284.486 77.12 285.36 76.8853 286.171 76.416C286.982 75.9467 287.632 75.264 288.123 74.368C288.635 73.4507 288.891 72.384 288.891 71.168ZM305.619 71.2L313.747 80H308.819L302.291 72.416V80H298.643V56.32H302.291V70.08L308.691 62.368H313.747L305.619 71.2ZM324.041 80.288C322.655 80.288 321.407 80.0427 320.297 79.552C319.209 79.04 318.345 78.3573 317.705 77.504C317.065 76.6293 316.724 75.6587 316.681 74.592H320.457C320.521 75.3387 320.873 75.968 321.513 76.48C322.175 76.9707 322.996 77.216 323.977 77.216C325.001 77.216 325.791 77.024 326.345 76.64C326.921 76.2347 327.209 75.7227 327.209 75.104C327.209 74.4427 326.889 73.952 326.249 73.632C325.631 73.312 324.639 72.96 323.273 72.576C321.951 72.2133 320.873 71.8613 320.041 71.52C319.209 71.1787 318.484 70.656 317.865 69.952C317.268 69.248 316.969 68.32 316.969 67.168C316.969 66.2293 317.247 65.376 317.801 64.608C318.356 63.8187 319.145 63.2 320.169 62.752C321.215 62.304 322.409 62.08 323.753 62.08C325.759 62.08 327.369 62.592 328.585 63.616C329.823 64.6187 330.484 65.9947 330.569 67.744H326.921C326.857 66.9547 326.537 66.3253 325.961 65.856C325.385 65.3867 324.607 65.152 323.625 65.152C322.665 65.152 321.929 65.3333 321.417 65.696C320.905 66.0587 320.649 66.5387 320.649 67.136C320.649 67.6053 320.82 68 321.161 68.32C321.503 68.64 321.919 68.896 322.409 69.088C322.9 69.2587 323.625 69.4827 324.585 69.76C325.865 70.1013 326.911 70.4533 327.721 70.816C328.553 71.1573 329.268 71.6693 329.865 72.352C330.463 73.0347 330.772 73.9413 330.793 75.072C330.793 76.0747 330.516 76.9707 329.961 77.76C329.407 78.5493 328.617 79.168 327.593 79.616C326.591 80.064 325.407 80.288 324.041 80.288ZM337.871 60.032C337.21 60.032 336.655 59.808 336.207 59.36C335.759 58.912 335.535 58.3573 335.535 57.696C335.535 57.0347 335.759 56.48 336.207 56.032C336.655 55.584 337.21 55.36 337.871 55.36C338.511 55.36 339.055 55.584 339.503 56.032C339.951 56.48 340.175 57.0347 340.175 57.696C340.175 58.3573 339.951 58.912 339.503 59.36C339.055 59.808 338.511 60.032 337.871 60.032ZM339.663 62.368V80H336.015V62.368H339.663ZM354.629 62.08C356.015 62.08 357.253 62.368 358.341 62.944C359.45 63.52 360.314 64.3733 360.933 65.504C361.551 66.6347 361.861 68 361.861 69.6V80H358.245V70.144C358.245 68.5653 357.85 67.36 357.061 66.528C356.271 65.6747 355.194 65.248 353.829 65.248C352.463 65.248 351.375 65.6747 350.565 66.528C349.775 67.36 349.381 68.5653 349.381 70.144V80H345.733V62.368H349.381V64.384C349.978 63.6587 350.735 63.0933 351.653 62.688C352.591 62.2827 353.583 62.08 354.629 62.08ZM372.37 57.76L371.954 73.28H368.914L368.498 57.76H372.37ZM370.546 80.224C369.884 80.224 369.33 80 368.882 79.552C368.434 79.104 368.21 78.5493 368.21 77.888C368.21 77.2267 368.434 76.672 368.882 76.224C369.33 75.776 369.884 75.552 370.546 75.552C371.186 75.552 371.73 75.776 372.178 76.224C372.626 76.672 372.85 77.2267 372.85 77.888C372.85 78.5493 372.626 79.104 372.178 79.552C371.73 80 371.186 80.224 370.546 80.224Z" fill="#494961"/>
<defs>
<linearGradient id="paint0_linear" x1="158443" y1="451870" x2="158443" y2="135813" gradientUnits="userSpaceOnUse">
<stop stop-color="#808080" stop-opacity="0.25"/>
<stop offset="0.54" stop-color="#808080" stop-opacity="0.12"/>
<stop offset="1" stop-color="#808080" stop-opacity="0.1"/>
</linearGradient>
</defs>
</svg>
