<svg width="26" height="26" viewBox="0 0 26 26" fill="none" xmlns="http://www.w3.org/2000/svg">
<path d="M3.04767 16.7558L1.67545 22.6781C1.62812 22.8945 1.62974 23.1189 1.6802 23.3347C1.73067 23.5504 1.8287 23.7522 1.96713 23.9253C2.10557 24.0983 2.28091 24.2382 2.48035 24.3348C2.67979 24.4314 2.8983 24.4823 3.1199 24.4836C3.22315 24.494 3.3272 24.494 3.43045 24.4836L9.38879 23.1114L20.8288 11.7147L14.4443 5.34473L3.04767 16.7558Z" fill="#494961"/>
<path d="M24.4254 6.00881L20.1643 1.7477C19.8842 1.46897 19.505 1.3125 19.1099 1.3125C18.7147 1.3125 18.3356 1.46897 18.0554 1.7477L15.6865 4.11659L22.0637 10.4938L24.4326 8.12492C24.5713 7.98559 24.6811 7.82029 24.7557 7.63848C24.8304 7.45667 24.8685 7.26192 24.8678 7.06537C24.8672 6.86882 24.8277 6.67434 24.7518 6.49304C24.6759 6.31174 24.565 6.1472 24.4254 6.00881V6.00881Z" fill="#494961"/>
</svg>
