<svg width="1920" height="76" viewBox="0 0 1920 76" fill="none" xmlns="http://www.w3.org/2000/svg">
<path d="M0 43.4286L26.6667 45.2268C53.3333 47.1607 106.667 50.5536 160 47.0589C213.333 43.4286 266.667 32.5714 320 32.5714C373.333 32.5714 426.667 43.4286 480 39.7982C533.333 36.3036 586.667 17.9821 640 18.0839C693.333 17.9821 746.667 36.3036 800 47.0589C853.333 58.0179 906.667 61.4107 960 47.0589C1013.33 32.5714 1066.67 0 1120 0C1173.33 0 1226.67 32.5714 1280 38C1333.33 43.4286 1386.67 21.7143 1440 19.9161C1493.33 17.9821 1546.67 36.3036 1600 41.6304C1653.33 47.1607 1706.67 39.6964 1760 41.6304C1813.33 43.4286 1893.33 53.6825 1920 59.1111V65.1429V76H1893.33C1866.67 76 1813.33 76 1760 76C1706.67 76 1653.33 76 1600 76C1546.67 76 1493.33 76 1440 76C1386.67 76 1333.33 76 1280 76C1226.67 76 1173.33 76 1120 76C1066.67 76 1013.33 76 960 76C906.667 76 853.333 76 800 76C746.667 76 693.333 76 640 76C586.667 76 533.333 76 480 76C426.667 76 373.333 76 320 76C266.667 76 213.333 76 160 76C106.667 76 53.3333 76 26.6667 76H0V43.4286Z" fill="#A5AFED"/>
</svg>
