<svg width="1920" height="206" viewBox="0 0 1920 206" fill="none" xmlns="http://www.w3.org/2000/svg">
<path d="M0 206L21.3333 179.32C42.6667 152.354 85.3333 99.4236 128 87.7646C170.667 76.5347 213.333 106.576 256 125.889C298.667 145.201 341.333 152.354 384 144.987C426.667 137.333 469.333 114.444 512 110.653C554.667 106.576 597.333 122.312 640 133.542C682.667 145.201 725.333 152.354 768 152.569C810.667 152.354 853.333 145.201 896 125.889C938.667 106.576 981.333 76.5347 1024 83.9021C1066.67 91.5556 1109.33 137.333 1152 141.124C1194.67 145.201 1237.33 106.576 1280 83.9021C1322.67 60.7986 1365.33 53.6458 1408 61.0132C1450.67 68.6667 1493.33 91.5556 1536 99.209C1578.67 106.576 1621.33 99.4236 1664 91.5556C1706.67 83.6875 1749.33 76.5347 1792 91.5556C1834.67 106.576 1877.33 145.201 1898.67 164.013L1920 183.111V0H1898.67C1877.33 0 1834.67 0 1792 0C1749.33 0 1706.67 0 1664 0C1621.33 0 1578.67 0 1536 0C1493.33 0 1450.67 0 1408 0C1365.33 0 1322.67 0 1280 0C1237.33 0 1194.67 0 1152 0C1109.33 0 1066.67 0 1024 0C981.333 0 938.667 0 896 0C853.333 0 810.667 0 768 0C725.333 0 682.667 0 640 0C597.333 0 554.667 0 512 0C469.333 0 426.667 0 384 0C341.333 0 298.667 0 256 0C213.333 0 170.667 0 128 0C85.3333 0 42.6667 0 21.3333 0H0V206Z" fill="#A5AFED"/>
</svg>
