<svg width="1920" height="60" viewBox="0 0 1920 60" fill="none" xmlns="http://www.w3.org/2000/svg">
<path d="M0 9.40222L35.6 12.7859C71.0667 16.0432 142.667 23.0004 213.333 17.8457C284.4 12.8808 356 -4.19593 426.667 0.958719C497.733 5.92363 569.333 33.1199 640 39.7609C711.067 46.4018 782.667 33.1199 853.333 24.5816C924.4 16.0432 996 12.8808 1066.67 12.7859C1137.73 12.8808 1209.33 16.0432 1280 24.5816C1351.07 33.1199 1422.67 46.4018 1493.33 41.4369C1564.4 36.2823 1636 12.8808 1706.67 6.0185C1777.73 -0.717332 1849.33 9.40222 1884 14.462L1920 19.5218V60H1884.4C1848.93 60 1777.33 60 1706.67 60C1635.6 60 1564 60 1493.33 60C1422.27 60 1350.67 60 1280 60C1208.93 60 1137.33 60 1066.67 60C995.6 60 924 60 853.333 60C782.267 60 710.667 60 640 60C568.933 60 497.333 60 426.667 60C355.6 60 284 60 213.333 60C142.267 60 70.6667 60 36 60H0V9.40222Z" fill="#A5AFED"/>
</svg>
