<svg width="603" height="732" viewBox="0 0 603 732" fill="none" xmlns="http://www.w3.org/2000/svg">
<path d="M447.159 331.316L451.678 303.66L464.437 300.469C464.437 300.469 474.563 297.348 476.93 317.754C479.297 338.16 477.462 376.259 477.462 376.259L505.475 465.006C507.626 466.028 509.437 467.649 510.691 469.675C511.944 471.701 512.588 474.045 512.545 476.427C512.501 478.809 511.773 481.129 510.446 483.107C509.119 485.086 507.251 486.64 505.064 487.583C502.877 488.527 500.465 488.82 498.116 488.428C495.767 488.035 493.581 486.974 491.819 485.371C490.057 483.767 488.795 481.69 488.183 479.388C487.57 477.085 487.635 474.655 488.367 472.388L451.944 389.023L447.159 331.316Z" fill="#FFB7B7"/>
<path d="M369.572 309.552L376.271 282.341L365.789 274.395C365.789 274.395 357.7 267.547 347.515 285.384C337.329 303.222 324.064 338.982 324.064 338.982L263.471 409.598C261.091 409.694 258.79 410.474 256.841 411.844C254.893 413.214 253.381 415.117 252.486 417.325C251.591 419.533 251.351 421.952 251.795 424.293C252.238 426.634 253.347 428.798 254.988 430.524C256.629 432.251 258.732 433.468 261.047 434.03C263.361 434.592 265.788 434.475 268.038 433.692C270.287 432.91 272.263 431.495 273.73 429.618C275.197 427.741 276.092 425.48 276.307 423.108L342.524 360.745L369.572 309.552Z" fill="#FFB7B7"/>
<path d="M317.209 716.929L302.014 716.928L294.785 658.294L317.212 658.295L317.209 716.929Z" fill="#FFB7B7"/>
<path d="M321.085 711.965L291.161 711.964H291.16C286.102 711.964 281.252 713.974 277.676 717.552C274.1 721.13 272.09 725.982 272.09 731.042V731.662L321.084 731.664L321.085 711.965Z" fill="#2F2E41"/>
<path d="M508.075 716.929L492.881 716.928L485.652 658.294L508.079 658.295L508.075 716.929Z" fill="#FFB7B7"/>
<path d="M511.952 711.965L482.028 711.964H482.027C476.969 711.964 472.119 713.974 468.542 717.552C464.966 721.13 462.957 725.982 462.957 731.042V731.662L511.951 731.664L511.952 711.965Z" fill="#2F2E41"/>
<path d="M414.884 257.439C392.187 257.439 373.788 239.031 373.788 216.324C373.788 193.618 392.187 175.21 414.884 175.21C437.581 175.21 455.981 193.618 455.981 216.324C455.981 239.031 437.581 257.439 414.884 257.439Z" fill="#2F2E41"/>
<path d="M446.963 194.157C440.322 187.513 438.976 178.087 443.956 173.104C448.937 168.121 458.359 169.468 465 176.112C471.641 182.756 472.987 192.181 468.006 197.164C463.025 202.147 453.604 200.801 446.963 194.157Z" fill="#2F2E41"/>
<path d="M372.051 181.1C369.284 174.62 374.042 166.374 382.679 162.683C391.316 158.992 400.561 161.254 403.328 167.734C406.095 174.215 401.336 182.46 392.699 186.151C384.063 189.842 374.818 187.581 372.051 181.1Z" fill="#2F2E41"/>
<path d="M382.977 242.877C373.738 225.967 379.949 204.766 396.852 195.522C413.754 186.279 434.946 192.493 444.185 209.403C453.425 226.312 447.213 247.513 430.311 256.757C413.409 266.001 392.217 259.786 382.977 242.877Z" fill="#FFB7B7"/>
<path d="M450.23 204.192C442.26 209.687 432.8 212.612 423.12 212.574C426.573 214.969 430.504 216.587 434.642 217.316C421.772 220.078 408.47 220.152 395.57 217.535C392.703 217.075 389.936 216.125 387.391 214.725C386.123 214.016 385.018 213.049 384.148 211.885C383.278 210.721 382.663 209.387 382.342 207.97C381.485 203.071 385.301 198.62 389.267 195.62C395.338 191.097 402.339 187.981 409.762 186.497C417.185 185.013 424.845 185.198 432.187 187.039C436.982 188.279 441.785 190.374 444.899 194.226C448.013 198.078 448.936 204.017 445.969 207.983L450.23 204.192Z" fill="#2F2E41"/>
<path d="M431.061 271.515L465.582 299.72L435.419 371.671L434.844 383.184C434.844 383.184 466.156 412.066 485.53 492.749C504.904 573.431 544.034 680.639 544.034 680.639L465.753 699.798L411.325 517.285L341.943 660.472L332.073 702.823L271.561 686.017L294.915 572.364L352.194 395.946L347.49 347.209C347.49 347.209 337.009 322.883 355.218 297.128L360.929 272.927L390.495 267.885L431.061 271.515Z" fill="#2F2E41"/>
<path d="M138.166 558.272C142.731 558.257 147.276 557.669 151.694 556.521L152.565 556.28L153.373 555.875C182.58 541.225 207.221 521.874 226.611 498.359C242.661 478.78 255.175 456.55 263.589 432.668C273.651 404.076 278.492 373.907 277.881 343.601C277.868 342.964 277.858 342.473 277.858 342.135C277.858 327.403 269.684 314.476 257.034 309.203C247.352 305.167 159.447 269.046 153.096 266.436C141.135 260.44 128.374 265.444 126.332 266.319C121.752 268.193 40.4889 301.445 22.9281 309.811C4.8299 318.432 0.00115967 333.921 0.00115967 341.714C0.00115967 376.995 6.10867 409.967 18.1541 439.715C27.8821 463.794 41.6696 486.024 58.9161 505.436C92.1913 542.898 125.475 556.179 125.797 556.296C129.774 557.666 133.96 558.334 138.166 558.272ZM145.993 538.875C143.108 539.522 136.464 540.493 132.134 538.913C126.633 536.906 98.7746 522.453 72.742 493.145C36.7738 452.65 18.5235 401.746 18.4969 341.844C18.5611 340.631 19.4226 331.975 30.88 326.517C48.1003 318.313 132.566 283.76 133.417 283.412L133.651 283.313C135.421 282.571 141.054 281.008 144.937 283.044L145.715 283.406C146.656 283.793 239.968 322.135 249.92 326.284C256.882 329.185 259.362 336.375 259.362 342.135C259.362 342.556 259.373 343.168 259.388 343.959C260.184 384.946 250.703 485.802 145.993 538.875Z" fill="#494961"/>
<path d="M149.228 274.848C149.228 274.848 243.388 313.538 253.477 317.743C263.566 321.949 268.61 332.042 268.61 342.135C268.61 352.228 276.176 483.928 149.228 547.604C149.228 547.604 137.706 550.794 128.965 547.604C120.224 544.415 9.24902 490.586 9.24902 341.714C9.24902 341.714 9.24902 326.575 26.9041 318.164C44.5591 309.753 129.918 274.848 129.918 274.848C129.918 274.848 140.401 270.222 149.228 274.848Z" fill="white"/>
<path d="M139.14 305.127V511.524C139.14 511.524 44.1387 465.774 44.9794 345.499L139.14 305.127Z" fill="#A5AFED"/>
<path d="M25.6918 732H595.309C595.493 732 595.668 731.947 595.798 731.854C595.928 731.76 596 731.633 596 731.5C596 731.367 595.928 731.24 595.798 731.146C595.668 731.053 595.493 731 595.309 731H25.6918C25.5084 731 25.3326 731.053 25.203 731.146C25.0734 731.24 25.0005 731.367 25.0005 731.5C25.0005 731.633 25.0734 731.76 25.203 731.854C25.3326 731.947 25.5084 732 25.6918 732Z" fill="white"/>
<path d="M551.676 269.825C561.8 269.825 570.008 261.57 570.008 251.388C570.008 241.205 561.8 232.95 551.676 232.95C541.551 232.95 533.343 241.205 533.343 251.388C533.343 261.57 541.551 269.825 551.676 269.825Z" fill="white"/>
<path d="M549.712 59.0014C521.06 59.2049 497.6 82.6209 497.193 111.434C497.19 111.7 497.188 113.57 497.188 116.016C497.188 119.604 498.605 123.044 501.127 125.58C503.649 128.117 507.07 129.542 510.636 129.542H510.636C512.404 129.542 514.155 129.191 515.788 128.51C517.421 127.829 518.905 126.831 520.155 125.573C521.404 124.315 522.395 122.821 523.071 121.178C523.746 119.535 524.093 117.774 524.091 115.996C524.09 114.332 524.089 113.18 524.089 113.109C524.088 108.656 525.24 104.28 527.431 100.41C529.622 96.5405 532.777 93.3112 536.585 91.0399C540.394 88.7685 544.725 87.5333 549.152 87.4557C553.579 87.3782 557.95 88.461 561.834 90.5976C565.719 92.7342 568.984 95.8511 571.308 99.6415C573.631 103.432 574.934 107.766 575.087 112.216C575.24 116.666 574.239 121.08 572.182 125.023C570.124 128.966 567.082 132.303 563.353 134.704L563.358 134.71C563.358 134.71 544.217 147.103 538.381 164.103L538.386 164.105C537.36 167.587 536.84 171.201 536.842 174.833C536.842 176.327 536.93 189.391 537.099 199.995C537.158 203.654 538.644 207.143 541.238 209.709C543.832 212.275 547.325 213.713 550.964 213.712H550.964C552.792 213.712 554.602 213.348 556.29 212.642C557.978 211.935 559.511 210.9 560.799 209.596C562.088 208.292 563.108 206.744 563.8 205.043C564.491 203.341 564.842 201.518 564.83 199.679C564.772 189.968 564.74 178.66 564.74 177.839C564.74 167.401 574.753 157 582.979 150.217C592.45 142.406 599.266 131.762 602.004 119.756C602.609 117.284 602.943 114.752 603 112.207C603 105.188 601.619 98.2374 598.936 91.757C596.253 85.2765 592.322 79.394 587.369 74.4484C582.415 69.5027 576.538 65.5917 570.075 62.9406C563.612 60.2894 556.691 58.9507 549.712 59.0014Z" fill="white"/>
<path d="M514.434 123.145C510.867 123.144 507.446 121.719 504.925 119.183C502.403 116.646 500.986 113.206 500.985 109.619C500.985 107.173 500.987 105.302 500.991 105.036C501.104 96.6565 503.202 88.4249 507.112 81.0242C500.689 89.8671 497.157 100.499 497.005 111.449C497.002 111.715 497 113.585 497 116.032C497 119.619 498.417 123.059 500.939 125.595C503.461 128.132 506.882 129.557 510.448 129.558C513.379 129.556 516.23 128.593 518.567 126.814C520.903 125.035 522.599 122.538 523.396 119.701C520.933 121.922 517.741 123.149 514.434 123.145Z" fill="#494961"/>
<path d="M550.624 87.5012C554.747 87.6993 558.761 88.9008 562.321 91.0027C565.881 93.1045 568.88 96.0439 571.062 99.5683C573.243 103.093 574.542 107.097 574.846 111.237C575.149 115.378 574.449 119.53 572.806 123.339C575.183 120.531 576.93 117.241 577.929 113.692C578.927 110.144 579.153 106.42 578.59 102.776C578.028 99.132 576.691 95.6527 574.67 92.5753C572.65 89.4979 569.993 86.8948 566.882 84.9436C563.77 82.9924 560.277 81.7388 556.64 81.2684C553.003 80.798 549.308 81.1218 545.807 82.2177C542.306 83.3137 539.081 85.156 536.352 87.619C533.622 90.0821 531.454 93.108 529.993 96.4905C532.518 93.5034 535.691 91.1394 539.268 89.5809C542.845 88.0223 546.73 87.3108 550.624 87.5012Z" fill="#494961"/>
<path d="M554.761 207.314C551.122 207.315 547.629 205.877 545.036 203.311C542.442 200.745 540.955 197.256 540.896 193.598C540.727 182.994 540.64 169.929 540.64 168.436C540.637 164.803 541.157 161.19 542.183 157.707L542.179 157.706C542.785 155.958 543.516 154.256 544.368 152.615C541.753 156.12 539.672 159.997 538.193 164.119L538.198 164.12C537.172 167.603 536.652 171.216 536.654 174.849C536.654 176.342 536.742 189.407 536.91 200.011C536.969 203.669 538.456 207.158 541.05 209.724C543.644 212.29 547.137 213.728 550.776 213.727C553.776 213.727 556.695 212.748 559.095 210.938C561.495 209.128 563.247 206.584 564.087 203.687C561.538 206.025 558.211 207.319 554.761 207.314Z" fill="#494961"/>
<path d="M547.636 265.328C545.032 264.187 542.727 262.453 540.903 260.263C539.079 258.073 537.787 255.487 537.127 252.708C536.467 249.929 536.459 247.034 537.102 244.252C537.745 241.469 539.022 238.875 540.833 236.674C538.734 238.216 536.984 240.189 535.701 242.463C534.418 244.736 533.63 247.259 533.39 249.862C533.15 252.465 533.463 255.09 534.309 257.562C535.155 260.034 536.514 262.297 538.296 264.201C540.077 266.104 542.242 267.605 544.644 268.603C547.047 269.601 549.633 270.074 552.232 269.99C554.83 269.907 557.381 269.268 559.715 268.117C562.049 266.965 564.113 265.328 565.769 263.314C563.185 265.213 560.151 266.399 556.97 266.752C553.789 267.105 550.571 266.614 547.636 265.328Z" fill="#494961"/>
<path d="M106.734 7.45606H106.638C104.626 7.5585 102.614 7.26897 100.733 6.60645C100.733 6.60645 100.733 5.74414 100.733 5.74414H106.665C106.665 5.74414 106.693 6.73325 106.734 7.45606Z" fill="#E26D6D"/>
<path d="M100.311 2.16892C101.009 2.01882 101.515 1.66495 101.442 1.37855C101.369 1.09215 100.745 0.98167 100.047 1.13177C99.3499 1.28188 98.8438 1.63573 98.9168 1.92213C98.9897 2.20852 99.6141 2.31903 100.311 2.16892Z" fill="#F4F6F9"/>
<path d="M8.97128 136.255V136.331C9.88198 137.983 10.4037 139.794 10.5025 141.644L9.66102 141.999L7.26074 137.015L8.97128 136.255Z" fill="white"/>
<path d="M8.59571 146.224C10.3104 145.529 10.4712 142.404 8.95488 139.245C7.43857 136.086 4.81935 134.09 3.10468 134.785C1.39002 135.481 1.22921 138.605 2.74551 141.764C4.26182 144.923 6.88105 146.92 8.59571 146.224Z" fill="white"/>
<path d="M6.58538 145.105C6.84099 144.928 6.69898 144.358 6.26819 143.832C5.8374 143.307 5.28095 143.024 5.02534 143.201C4.76972 143.378 4.91173 143.947 5.34252 144.473C5.77331 144.999 6.32976 145.282 6.58538 145.105Z" fill="#F4F6F9"/>
<path d="M10.7641 107.939V108.002C11.0259 109.411 10.9554 110.856 10.5572 112.238L9.85367 112.314L9.34326 108.142L10.7641 107.939Z" fill="white"/>
<path d="M7.97191 115.184C9.41049 115.036 10.3159 112.772 9.99418 110.127C9.67247 107.483 8.24548 105.458 6.80691 105.606C5.36834 105.754 4.46294 108.018 4.78465 110.663C5.10635 113.308 6.53334 115.332 7.97191 115.184Z" fill="white"/>
<path d="M6.77304 113.953C7.00278 113.878 7.03815 113.427 6.85204 112.945C6.66594 112.463 6.32882 112.134 6.09909 112.209C5.86935 112.284 5.83398 112.735 6.02009 113.217C6.20619 113.699 6.54331 114.028 6.77304 113.953Z" fill="#F4F6F9"/>
<path d="M103.754 6.2389C107.51 6.2389 110.555 4.84229 110.555 3.11946C110.555 1.39663 107.51 0 103.754 0C99.9984 0 96.9536 1.39663 96.9536 3.11946C96.9536 4.84229 99.9984 6.2389 103.754 6.2389Z" fill="#E2E2E2"/>
<path d="M103.506 166.511C142.773 166.511 174.604 137.25 174.604 101.154C174.604 65.059 142.773 35.7979 103.506 35.7979C64.2399 35.7979 32.4082 65.059 32.4082 101.154C32.4082 137.25 64.2399 166.511 103.506 166.511Z" fill="white"/>
<path d="M131.054 161.249C114.119 167.833 95.0681 168.133 77.8977 162.085C60.7273 156.038 46.772 144.112 38.9596 128.811C31.1472 113.509 30.0848 96.0213 35.9953 80.0155C41.9058 64.0097 54.3298 50.73 70.6609 42.9624C60.4791 52.9849 53.7044 65.5235 51.1693 79.0372C48.6342 92.551 50.4492 106.451 56.3912 119.03C62.3332 131.608 72.1433 142.317 84.616 149.84C97.0888 157.363 111.681 161.372 126.599 161.375C128.144 161.363 129.592 161.325 131.054 161.249Z" fill="#E2E2E2"/>
<path d="M123.315 67.0558C127.033 67.0558 130.047 64.2853 130.047 60.8676C130.047 57.45 127.033 54.6794 123.315 54.6794C119.597 54.6794 116.583 57.45 116.583 60.8676C116.583 64.2853 119.597 67.0558 123.315 67.0558Z" fill="#A5AFED"/>
<path d="M62.4393 70.9487C66.1572 70.9487 69.1712 68.1781 69.1712 64.7605C69.1712 61.3428 66.1572 58.5723 62.4393 58.5723C58.7215 58.5723 55.7075 61.3428 55.7075 64.7605C55.7075 68.1781 58.7215 70.9487 62.4393 70.9487Z" fill="#A5AFED"/>
<path d="M86.4835 65.5088C89.2719 65.5088 91.5323 63.4309 91.5323 60.8677C91.5323 58.3045 89.2719 56.2266 86.4835 56.2266C83.695 56.2266 81.4346 58.3045 81.4346 60.8677C81.4346 63.4309 83.695 65.5088 86.4835 65.5088Z" fill="#A5AFED"/>
<path d="M95.7122 104.553C101.937 104.553 106.982 99.9144 106.982 94.1927C106.982 88.4709 101.937 83.8325 95.7122 83.8325C89.4878 83.8325 84.4419 88.4709 84.4419 94.1927C84.4419 99.9144 89.4878 104.553 95.7122 104.553Z" fill="#A5AFED"/>
<path d="M57.8592 125.159C64.0836 125.159 69.1295 120.521 69.1295 114.799C69.1295 109.077 64.0836 104.439 57.8592 104.439C51.6348 104.439 46.5889 109.077 46.5889 114.799C46.5889 120.521 51.6348 125.159 57.8592 125.159Z" fill="#A5AFED"/>
<path d="M110.128 141.429C116.352 141.429 121.398 136.79 121.398 131.068C121.398 125.347 116.352 120.708 110.128 120.708C103.903 120.708 98.8574 125.347 98.8574 131.068C98.8574 136.79 103.903 141.429 110.128 141.429Z" fill="#A5AFED"/>
<path d="M146.036 131.068C149.753 131.068 152.767 128.298 152.767 124.88C152.767 121.462 149.753 118.692 146.036 118.692C142.318 118.692 139.304 121.462 139.304 124.88C139.304 128.298 142.318 131.068 146.036 131.068Z" fill="#A5AFED"/>
<path d="M75.9029 149.177C78.6913 149.177 80.9517 147.099 80.9517 144.535C80.9517 141.972 78.6913 139.894 75.9029 139.894C73.1145 139.894 70.854 141.972 70.854 144.535C70.854 147.099 73.1145 149.177 75.9029 149.177Z" fill="#A5AFED"/>
<path d="M59.8594 96.7035C62.6478 96.7035 64.9083 94.6256 64.9083 92.0623C64.9083 89.4991 62.6478 87.4211 59.8594 87.4211C57.071 87.4211 54.8105 89.4991 54.8105 92.0623C54.8105 94.6256 57.071 96.7035 59.8594 96.7035Z" fill="#A5AFED"/>
<path d="M139.304 93.7107C143.021 93.7107 146.035 90.9401 146.035 87.5225C146.035 84.1048 143.021 81.3342 139.304 81.3342C135.586 81.3342 132.572 84.1048 132.572 87.5225C132.572 90.9401 135.586 93.7107 139.304 93.7107Z" fill="#A5AFED"/>
<path d="M95.7119 36.1909C101.395 25.1206 100.719 5.75708 100.719 5.75708H106.651C106.651 5.75708 107.382 27.2002 111.797 36.1909" fill="#E2E2E2"/>
<path d="M120.129 38.7779C127.371 32.1459 132.351 18.0068 132.351 18.0068L136.641 19.4271C136.641 19.4271 131.123 35.0878 131.744 42.6582" fill="#E2E2E2"/>
<path d="M136.213 20.6696C134.737 20.2561 133.37 19.5652 132.199 18.6407L132.42 18.0193L136.71 19.4395C136.71 19.4395 136.42 20.137 136.213 20.6696Z" fill="#E2E2E2"/>
<path d="M140.21 18.4262C140.698 17.1809 138.898 15.4441 136.188 14.5469C133.479 13.6498 130.887 13.932 130.399 15.1773C129.911 16.4226 131.712 18.1594 134.421 19.0566C137.13 19.9538 139.722 19.6715 140.21 18.4262Z" fill="#E2E2E2"/>
<path d="M134.103 14.9838C134.131 14.7612 133.712 14.5335 133.168 14.4753C132.623 14.4171 132.158 14.5503 132.13 14.7729C132.102 14.9956 132.521 15.2232 133.066 15.2814C133.611 15.3397 134.075 15.2064 134.103 14.9838Z" fill="#E2E2E2"/>
<path d="M135.441 44.9028C142.945 40.6801 150.215 29.7493 150.215 29.7493L153.484 31.7275C153.484 31.7275 145.428 43.8249 144.325 50.2921" fill="#E2E2E2"/>
<path d="M152.863 32.691C151.711 32.0749 150.714 31.2407 149.939 30.2436L150.27 29.7744L153.539 31.7526L152.863 32.691Z" fill="#E2E2E2"/>
<path d="M156.706 31.5785C157.387 30.6239 156.255 28.8352 154.178 27.5834C152.101 26.3316 149.865 26.0907 149.184 27.0453C148.503 28 149.635 29.7887 151.712 31.0405C153.789 32.2923 156.025 32.5332 156.706 31.5785Z" fill="#E2E2E2"/>
<path d="M152.322 27.5552C152.395 27.371 152.095 27.1009 151.651 26.9519C151.207 26.8029 150.788 26.8314 150.715 27.0156C150.642 27.1998 150.942 27.4699 151.386 27.6189C151.83 27.7679 152.249 27.7394 152.322 27.5552Z" fill="#E2E2E2"/>
<path d="M75.0476 43.3428C76.0546 35.3032 71.1851 23.3073 71.1851 23.3073L74.8958 22.1533C74.8958 22.1533 80.2896 35.4554 85.1453 40.2487" fill="#E2E2E2"/>
<path d="M75.3373 23.2185C74.1025 23.6738 72.7762 23.8813 71.4472 23.8272L71.2402 23.2946L74.951 22.1406L75.3373 23.2185Z" fill="#E2E2E2"/>
<path d="M73.1907 23.0156C75.5439 22.2851 77.1293 20.8162 76.732 19.7346C76.3347 18.6531 74.105 18.3685 71.7519 19.099C69.3988 19.8295 67.8133 21.2984 68.2106 22.3799C68.608 23.4615 70.8376 23.7461 73.1907 23.0156Z" fill="#E2E2E2"/>
<path d="M70.0921 21.1226C70.4934 20.8935 70.7275 20.5728 70.6149 20.4062C70.5024 20.2396 70.0859 20.2903 69.6846 20.5193C69.2833 20.7484 69.0492 21.0691 69.1618 21.2357C69.2743 21.4023 69.6908 21.3517 70.0921 21.1226Z" fill="#E2E2E2"/>
<path d="M170.976 87.7634C179.253 90.3757 193.048 88.5116 193.048 88.5116L193.489 92.1003C193.489 92.1003 178.218 94.1419 172.093 97.4896" fill="#E2E2E2"/>
<path d="M192.33 92.2779V92.2145C192.11 91.0076 192.171 89.7714 192.51 88.5878L193.117 88.5117L193.558 92.1004L192.33 92.2779Z" fill="#E2E2E2"/>
<path d="M195.713 94.2689C196.947 94.1398 197.72 92.1962 197.439 89.9278C197.158 87.6593 195.93 85.9249 194.697 86.054C193.463 86.183 192.69 88.1265 192.971 90.395C193.251 92.6635 194.479 94.3979 195.713 94.2689Z" fill="#E2E2E2"/>
<path d="M196.287 88.6256C196.488 88.5596 196.521 88.1746 196.362 87.7657C196.203 87.3569 195.912 87.0789 195.711 87.1449C195.51 87.2109 195.476 87.5959 195.635 88.0048C195.794 88.4136 196.086 88.6916 196.287 88.6256Z" fill="#E2E2E2"/>
<path d="M172.535 101.294C180.081 105.479 193.972 106.366 193.972 106.366L193.572 109.955C193.572 109.955 178.177 108.966 171.417 111.033" fill="#E2E2E2"/>
<path d="M192.344 109.904C192.4 108.68 192.743 107.482 193.351 106.392H193.958L193.558 109.98L192.344 109.904Z" fill="#E2E2E2"/>
<path d="M197.894 108.605C198.147 106.334 197.35 104.399 196.114 104.283C194.879 104.167 193.673 105.914 193.421 108.186C193.168 110.457 193.965 112.392 195.201 112.508C196.436 112.624 197.642 110.877 197.894 108.605Z" fill="#E2E2E2"/>
<path d="M197.376 105.922C197.587 105.897 197.709 105.527 197.647 105.098C197.586 104.668 197.365 104.34 197.154 104.365C196.943 104.391 196.821 104.76 196.883 105.19C196.944 105.62 197.165 105.948 197.376 105.922Z" fill="#E2E2E2"/>
<path d="M166.327 127.454C171.321 134.124 183.585 140.198 183.585 140.198L181.612 143.318C181.612 143.318 168.038 136.572 160.92 135.9" fill="#E2E2E2"/>
<path d="M180.563 142.785C181.17 141.692 182.021 140.728 183.06 139.958L183.598 140.236L181.626 143.356L180.563 142.785Z" fill="#E2E2E2"/>
<path d="M186.169 143.689C187.417 141.715 187.558 139.65 186.485 139.076C185.411 138.502 183.529 139.637 182.281 141.611C181.032 143.585 180.891 145.65 181.964 146.224C183.038 146.798 184.92 145.663 186.169 143.689Z" fill="#E2E2E2"/>
<path d="M186.695 141.345C186.833 140.93 186.779 140.547 186.575 140.489C186.371 140.432 186.094 140.722 185.956 141.137C185.818 141.553 185.871 141.936 186.075 141.993C186.279 142.05 186.557 141.76 186.695 141.345Z" fill="#E2E2E2"/>
<path d="M166.134 72.6862C176.315 73.5104 191.296 67.9055 191.296 67.9055L192.882 71.8366C192.882 71.8366 176.329 78.0248 170.369 83.3507" fill="#E2E2E2"/>
<path d="M191.599 72.3436C190.982 71.0405 190.676 69.6308 190.703 68.2097L191.365 67.9688L192.951 71.8998L191.599 72.3436Z" fill="#E2E2E2"/>
<path d="M196 73.698C197.35 73.2395 197.637 70.8546 196.639 68.3713C195.641 65.8879 193.737 64.2465 192.387 64.7051C191.036 65.1637 190.75 67.5485 191.747 70.0319C192.745 72.5152 194.649 74.1566 196 73.698Z" fill="#E2E2E2"/>
<path d="M194.925 67.1871C195.128 67.0636 195.048 66.6224 194.746 66.2017C194.443 65.7809 194.033 65.54 193.83 65.6635C193.626 65.7871 193.707 66.2283 194.009 66.649C194.311 67.0697 194.721 67.3107 194.925 67.1871Z" fill="#E2E2E2"/>
<path d="M171.68 115.243C179.032 121.773 194.51 126.085 194.51 126.085L193.048 130.054C193.048 130.054 175.915 125.261 167.679 125.996" fill="#E2E2E2"/>
<path d="M191.682 129.648C192.101 128.277 192.83 127.002 193.82 125.907L194.496 126.11L193.034 130.079L191.682 129.648Z" fill="#E2E2E2"/>
<path d="M198.328 129.524C199.251 127.016 198.894 124.64 197.53 124.215C196.166 123.791 194.312 125.48 193.389 127.987C192.465 130.495 192.822 132.871 194.186 133.296C195.55 133.72 197.404 132.031 198.328 129.524Z" fill="#E2E2E2"/>
<path d="M144.697 153.044C145.552 162.402 154.091 175.032 154.091 175.032L150.146 177.125C150.146 177.125 140.697 163.176 133.979 158.7" fill="#E2E2E2"/>
<path d="M149.374 176.022C150.667 175.245 152.124 174.726 153.65 174.5L154.022 175.071L150.077 177.163L149.374 176.022Z" fill="#E2E2E2"/>
<path d="M154.47 179.944C156.963 178.618 158.399 176.615 157.677 175.469C156.956 174.323 154.351 174.47 151.858 175.796C149.366 177.122 147.93 179.126 148.651 180.271C149.372 181.417 151.978 181.27 154.47 179.944Z" fill="#E2E2E2"/>
<path d="M156.475 177.847C156.874 177.502 157.063 177.09 156.896 176.926C156.729 176.763 156.27 176.911 155.87 177.256C155.47 177.602 155.282 178.014 155.449 178.177C155.616 178.34 156.075 178.193 156.475 177.847Z" fill="#E2E2E2"/>
<path d="M151.236 52.714C164.01 49.3028 179.322 35.988 179.322 35.988L183.267 40.0712C183.267 40.0712 166.286 54.7809 161.872 63.8096" fill="#E2E2E2"/>
<path d="M181.943 41.2633C180.528 39.9466 179.432 38.3691 178.729 36.6348C178.729 36.6348 179.404 36.0515 179.404 36.0515L183.35 40.1347L181.943 41.2633Z" fill="#E2E2E2"/>
<path d="M188.008 40.9806C189.411 39.8381 188.529 36.817 186.038 34.2327C183.547 31.6484 180.391 30.4795 178.988 31.622C177.585 32.7645 178.467 35.7857 180.958 38.37C183.449 40.9543 186.605 42.1231 188.008 40.9806Z" fill="#E2E2E2"/>
<path d="M183.38 33.5317C183.565 33.2916 183.241 32.7887 182.656 32.4085C182.071 32.0283 181.448 31.9147 181.263 32.1548C181.078 32.3949 181.402 32.8978 181.987 33.2781C182.571 33.6583 183.195 33.7719 183.38 33.5317Z" fill="#E2E2E2"/>
<path d="M162.975 136.99C168.631 148.073 185.295 159.904 185.295 159.904L181.516 164.114C181.516 164.114 163.072 150.977 152.685 148.365" fill="#E2E2E2"/>
<path d="M180.039 163.087V163.024C181.228 161.531 182.752 160.289 184.509 159.385C184.509 159.385 185.24 159.904 185.24 159.904L181.46 164.114L180.039 163.087Z" fill="#E2E2E2"/>
<path d="M188.2 165.699C190.591 163.037 191.358 159.989 189.912 158.892C188.467 157.795 185.357 159.065 182.966 161.727C180.575 164.39 179.808 167.438 181.253 168.534C182.699 169.631 185.809 168.362 188.2 165.699Z" fill="#E2E2E2"/>
<path d="M189.62 162.415C189.939 161.826 189.964 161.242 189.677 161.111C189.391 160.98 188.9 161.352 188.582 161.942C188.264 162.532 188.239 163.116 188.525 163.247C188.812 163.377 189.302 163.005 189.62 162.415Z" fill="#E2E2E2"/>
<path d="M91.3533 165.56C82.5384 174.741 77.3378 193.458 77.3378 193.458L71.6406 191.936C71.6406 191.936 77.4206 171.165 75.9032 161.363" fill="white"/>
<path d="M72.0821 190.313H72.1648C74.1311 190.729 75.9789 191.525 77.5861 192.646L77.3378 193.47L71.6406 191.949L72.0821 190.313Z" fill="white"/>
<path d="M80.1515 197.004C80.6725 195.349 78.17 193.229 74.562 192.269C70.9541 191.309 67.6069 191.873 67.0859 193.528C66.5649 195.183 69.0674 197.302 72.6753 198.262C76.2833 199.222 79.6305 198.659 80.1515 197.004Z" fill="white"/>
<path d="M77.9167 197.627C77.9333 197.334 77.3669 197.068 76.6517 197.034C75.9365 197 75.3433 197.211 75.3268 197.504C75.3103 197.798 75.8767 198.064 76.5919 198.098C77.307 198.132 77.9002 197.921 77.9167 197.627Z" fill="#F4F6F9"/>
<path d="M41.9817 133.947C28.6836 133.617 9.70204 141.999 9.70204 141.999L7.30176 137.016C7.30176 137.016 28.3387 127.746 35.5396 120.391" fill="white"/>
<path d="M39.7467 72.2044C32.67 61.8442 14.5713 51.9152 14.5713 51.9152L17.7855 47.3628C17.7855 47.3628 37.8292 58.3443 48.4925 59.7772" fill="white"/>
<path d="M19.372 48.2124V48.2885C18.3836 49.9041 17.0286 51.3053 15.3991 52.3971L14.6128 51.9532L17.7856 47.3628L19.372 48.2124Z" fill="white"/>
<path d="M16.6379 49.8422C18.6604 46.9328 19.0197 43.8222 17.4405 42.8945C15.8612 41.9668 12.9414 43.5733 10.9189 46.4826C8.8964 49.392 8.53709 52.5025 10.1163 53.4303C11.6956 54.358 14.6154 52.7515 16.6379 49.8422Z" fill="white"/>
<path d="M56.4108 54.616C54.0932 45.4097 43.623 33.9844 43.623 33.9844L47.2097 31.4482C47.2097 31.4482 58.811 44.129 66.1912 47.6289" fill="#E2E2E2"/>
<path d="M48.2029 32.3741C47.0377 33.3147 45.6698 34.019 44.1886 34.4411L43.7334 33.9339L47.32 31.3977L48.2029 32.3741Z" fill="#E2E2E2"/>
<path d="M45.7455 32.9396C48.0175 31.2902 49.132 29.1066 48.2349 28.0623C47.3377 27.018 44.7686 27.5086 42.4966 29.158C40.2246 30.8074 39.1101 32.9911 40.0073 34.0353C40.9044 35.0796 43.4735 34.589 45.7455 32.9396Z" fill="#E2E2E2"/>
<path d="M41.541 31.9933C41.8874 31.5933 42.0136 31.1559 41.8228 31.0164C41.6321 30.8768 41.1967 31.0879 40.8503 31.4879C40.5039 31.8879 40.3778 32.3253 40.5685 32.4649C40.7592 32.6044 41.1947 32.3933 41.541 31.9933Z" fill="#E2E2E2"/>
<path d="M35.7188 113.239C26.0625 110.183 9.90885 112.314 9.90885 112.314L9.39844 108.142C9.39844 108.142 27.166 105.783 34.3393 101.89" fill="white"/>
<path d="M70.9366 157.191C62.2183 162.2 53.8863 175.02 53.8863 175.02L50.0376 172.75C50.0376 172.75 59.2939 158.547 60.5078 150.99" fill="white"/>
<path d="M50.7549 171.609C52.1101 172.31 53.286 173.27 54.2036 174.424L53.8311 174.982L49.9824 172.712L50.7549 171.609Z" fill="white"/>
<path d="M54.3957 178.221C55.1774 177.103 53.8396 175.032 51.4078 173.595C48.9759 172.158 46.3708 171.899 45.5892 173.017C44.8075 174.135 46.1452 176.206 48.5771 177.643C51.009 179.08 53.6141 179.339 54.3957 178.221Z" fill="white"/>
<path d="M53.3255 178.236C53.407 178.025 53.0482 177.716 52.524 177.545C51.9999 177.374 51.5089 177.406 51.4274 177.618C51.3459 177.829 51.7047 178.139 52.2289 178.309C52.753 178.48 53.244 178.448 53.3255 178.236Z" fill="#F4F6F9"/>
<path d="M121.246 161.946C119.384 169.364 122.626 181.03 122.626 181.03L119.012 181.753C119.012 181.753 115.494 168.819 111.507 163.873" fill="white"/>
<path d="M118.653 180.726C119.86 180.415 121.125 180.346 122.364 180.523L122.502 181.043L118.887 181.766C118.887 181.766 118.791 181.183 118.653 180.726Z" fill="white"/>
<path d="M121.502 184.927C123.78 184.47 125.425 183.252 125.177 182.205C124.929 181.158 122.881 180.679 120.603 181.135C118.326 181.591 116.68 182.81 116.928 183.857C117.176 184.904 119.224 185.383 121.502 184.927Z" fill="white"/>
<path d="M123.629 183.773C124.035 183.596 124.295 183.318 124.21 183.154C124.125 182.99 123.727 183 123.321 183.178C122.915 183.356 122.655 183.633 122.74 183.797C122.825 183.962 123.223 183.951 123.629 183.773Z" fill="#F4F6F9"/>
<path d="M110.004 164.406C105.755 173.004 106.5 187.929 106.5 187.929L101.92 187.992C101.92 187.992 101.106 171.507 97.5884 164.533" fill="white"/>
<path d="M101.837 186.673C103.388 186.569 104.945 186.772 106.403 187.269V187.929L101.823 187.992C101.823 187.992 101.934 187.257 101.837 186.673Z" fill="white"/>
<path d="M104.235 192.415C107.129 192.377 109.459 191.268 109.439 189.938C109.418 188.607 107.055 187.559 104.16 187.597C101.266 187.635 98.9355 188.744 98.956 190.074C98.9765 191.405 101.34 192.453 104.235 192.415Z" fill="white"/>
<path d="M107.121 191.472C107.66 191.348 108.05 191.072 107.991 190.854C107.932 190.637 107.447 190.561 106.907 190.684C106.368 190.808 105.978 191.084 106.037 191.302C106.096 191.519 106.581 191.595 107.121 191.472Z" fill="#F4F6F9"/>
<path d="M33.9254 88.3594C27.3315 83.8578 14.5024 81.9049 14.5024 81.9049L15.2198 78.6079C15.2198 78.6079 29.4284 80.789 35.9119 79.4068" fill="white"/>
<path d="M16.406 78.7603C16.2428 79.8941 15.8095 80.9809 15.1369 81.9431L14.5713 81.8544L15.2886 78.5574L16.406 78.7603Z" fill="white"/>
<path d="M15.1657 80.2635C15.6183 78.1755 15.0646 76.3142 13.9289 76.1062C12.7932 75.8982 11.5056 77.4222 11.053 79.5101C10.6003 81.5981 11.154 83.4594 12.2897 83.6675C13.4254 83.8755 14.7131 82.3515 15.1657 80.2635Z" fill="white"/>
<path d="M57.2248 147.135C48.81 149.671 38.9054 158.7 38.9054 158.7L36.1465 156.049C36.1465 156.049 47.1823 146.006 49.9412 139.945" fill="white"/>
<path d="M37.0983 155.238C38.0865 156.114 38.854 157.179 39.3469 158.357L38.9054 158.763L36.1465 156.113C36.1465 156.113 36.7121 155.606 37.0983 155.238Z" fill="white"/>
<path d="M39.2128 161.582C40.1252 160.797 39.4852 158.805 37.7833 157.133C36.0814 155.46 33.9621 154.741 33.0496 155.525C32.1371 156.31 32.7771 158.302 34.479 159.974C36.181 161.647 38.3003 162.366 39.2128 161.582Z" fill="white"/>
<path d="M37.6932 161.246C37.8117 161.083 37.5892 160.755 37.1964 160.514C36.8036 160.273 36.3891 160.21 36.2706 160.373C36.1522 160.536 36.3746 160.863 36.7675 161.105C37.1603 161.346 37.5748 161.409 37.6932 161.246Z" fill="#F4F6F9"/>
</svg>
