<svg width="208" height="280" viewBox="0 0 208 280" fill="none" xmlns="http://www.w3.org/2000/svg">
<path d="M100.515 195.596C151.383 195.596 192.62 154.245 192.62 103.236C192.62 52.2265 151.383 10.8755 100.515 10.8755C49.6462 10.8755 8.40918 52.2265 8.40918 103.236C8.40918 154.245 49.6462 195.596 100.515 195.596Z" fill="white"/>
<path d="M187.277 103.235C187.286 125.74 178.598 147.372 163.038 163.59C147.478 179.807 126.257 189.348 103.831 190.208C81.4051 191.068 59.5192 183.181 42.7694 168.202C26.0197 153.224 15.7094 132.321 14.0039 109.881C13.8267 107.691 13.7529 105.441 13.7529 103.235C13.7529 80.1611 22.8939 58.0317 39.165 41.7157C55.436 25.3997 77.5043 16.2334 100.515 16.2334C123.526 16.2334 145.594 25.3997 161.865 41.7157C178.136 58.0317 187.277 80.1611 187.277 103.235Z" fill="#1B348C"/>
<path d="M155.173 170.804C144.615 179.388 132.194 185.366 118.91 188.256C105.626 191.146 91.851 190.866 78.6946 187.44C65.5382 184.014 53.3682 177.537 43.165 168.532C32.9618 159.526 25.0107 148.243 19.9521 135.591L145.8 99.8018L155.173 170.804Z" fill="#071B6B"/>
<path d="M181.107 70.8056L14.0039 109.881C13.8267 107.69 13.7529 105.441 13.7529 103.235C13.751 94.5049 15.0545 85.8236 17.6202 77.481L131.689 22.0205C142.822 26.3192 152.955 32.8685 161.456 41.2611C169.958 49.6538 176.647 59.7103 181.107 70.8056Z" fill="#071B6B"/>
<path d="M188.487 195.048C185.388 194.633 182.303 194.293 179.203 194.027C174.258 193.627 169.284 193.405 164.324 193.346C162.302 193.346 160.28 193.346 158.273 193.346C141.637 193.538 125.002 195.226 108.5 196.765C92.4157 198.464 76.2416 199.161 60.0711 198.852C57.3551 198.763 54.6244 198.63 51.8938 198.452C48.8383 198.26 45.7829 197.979 42.7275 197.638C38.9488 197.224 35.1701 196.706 31.3767 196.054C31.1666 195.996 30.9718 195.893 30.8065 195.75C30.6412 195.608 30.5093 195.431 30.4204 195.231C30.3315 195.032 30.2878 194.815 30.2923 194.596C30.2969 194.378 30.3496 194.163 30.4468 193.967C31.5864 191.861 32.6065 189.692 33.5022 187.47C34.2697 185.56 34.9782 183.621 35.5096 181.668C35.8491 180.572 36.1443 179.447 36.41 178.322C38.5628 168.798 39.2793 159.005 38.5355 149.267C37.6646 134.821 34.6387 120.642 32.9561 106.344C31.2291 91.424 31.48 76.7411 35.4801 62.2507C38.816 49.9804 42.8603 35.8451 50.462 25.5138C51.513 24.0961 52.6466 22.7419 53.8569 21.4583C60.5877 14.2204 69.3554 9.39522 78.1674 4.95483C78.4221 4.51796 78.8066 4.17182 79.267 3.96482C79.7275 3.75782 80.241 3.70031 80.7357 3.80033C83.6637 4.30369 86.5612 4.97079 89.4149 5.79851C104.175 10.0761 117.814 18.0392 132.766 22.0799C146.051 25.6619 160.103 25.4694 166.332 39.9747C166.745 40.9516 167.144 41.9285 167.498 42.935C172.989 57.9583 172.029 74.4025 169.579 89.9735C168.103 99.3871 166.273 108.801 166.007 118.362C165.957 127.505 166.634 136.636 168.029 145.671C169.815 158.992 172.856 172.831 180.605 183.725C181.585 185.135 182.655 186.479 183.808 187.751C185.54 189.717 187.447 191.52 189.506 193.139C190.465 193.893 189.432 195.181 188.487 195.048Z" fill="#A62484"/>
<path d="M147.276 135.206C148.398 126.326 149.977 117.445 151.232 108.431C152.221 101.356 148.457 102.407 142.523 102.821C123.956 104.079 105.307 103.31 86.9057 100.527C82.7875 99.9201 49.0893 91.4982 52.4252 102.17C52.4252 102.17 52.499 102.288 52.5285 102.362C56.3335 119.738 58.1705 137.488 58.0047 155.277C58.0047 156.639 59.7612 156.846 60.4106 155.854L61.7834 153.693C62.3894 163.431 61.3107 173.201 58.5951 182.571C58.5475 182.771 58.5466 182.981 58.5924 183.182C58.6383 183.383 58.7296 183.571 58.8594 183.731C58.9893 183.891 59.1541 184.02 59.3411 184.106C59.5282 184.192 59.7325 184.234 59.9383 184.228C67.4238 183.041 75.0133 182.649 82.5809 183.059C90.3892 183.607 97.7546 186.286 105.504 187.041C112.884 187.751 120.412 187.233 127.777 187.041C136.147 186.907 144.516 186.715 152.87 186.523C153.623 186.523 154.346 185.501 153.771 184.835C142.73 171.425 145.269 151.207 147.276 135.206Z" fill="#73195B"/>
<path d="M202.746 272.518C202.689 272.731 202.574 272.924 202.414 273.075C202.254 273.227 202.056 273.332 201.841 273.378C201.625 273.423 201.402 273.409 201.194 273.336C200.987 273.262 200.804 273.133 200.665 272.962L198.702 273.066C190.746 273.524 182.79 273.806 174.819 273.983L170.199 274.102C166.169 274.102 162.14 274.205 158.125 274.25C151.571 276.203 143.837 275.73 137.209 276.174C128.722 276.707 120.25 277.166 111.807 277.447C97.6539 277.991 83.4805 277.497 69.3998 275.967C59.3331 278.335 48.7351 277.95 38.4028 278.024H32.9119C31.2587 278.024 29.6055 278.068 27.9523 278.157H27.6867L26.1073 278.231L24.3065 278.32C23.3323 278.32 22.3581 278.424 21.3544 278.498H20.6754L18.7418 278.779C14.3137 279.193 9.41318 280.747 5.02931 279.563H4.54222C2.40195 279.563 0.527365 279.223 0.320718 278.601C-0.299222 276.707 0.173113 273.82 0.158353 271.837C0.158353 269.454 0.158353 267.071 0.158353 264.703C0.158353 259.434 -0.00401224 254.194 0.0255087 248.954C-0.0736924 244.684 0.212846 240.414 0.881617 236.196C0.881617 233.235 0.9997 230.275 1.25063 227.404C2.21006 214.926 3.77467 200.184 12.8819 190.756C17.5296 186.172 23.1364 182.684 29.2955 180.543C31.2587 179.817 33.2809 179.196 35.3178 178.633L36.5429 178.293C37.8714 177.938 39.1851 177.612 40.5135 177.316C43.0966 176.709 45.6649 176.191 48.2185 175.688C50.772 175.185 53.0009 174.726 55.3626 174.208C57.1929 173.778 59.0084 173.334 60.8239 172.876C63.776 172.106 66.6396 171.247 69.4736 170.197C75.1711 168.139 80.3668 165.149 85.8134 162.618C85.5477 160.516 85.4887 158.341 85.3854 156.239V155.262C85.2378 152.021 85.1935 148.779 85.1787 145.538C85.1787 144.886 85.1787 144.22 85.1787 143.569C85.1755 143.415 85.2175 143.264 85.2996 143.133C85.3816 143.003 85.5001 142.9 85.6402 142.837C85.7802 142.774 85.9357 142.753 86.0873 142.778C86.2388 142.803 86.3797 142.872 86.4924 142.977C87.5226 142.879 88.5573 142.834 89.5921 142.844C91.201 142.681 92.8247 142.607 94.4188 142.503C97.5333 142.281 100.648 142.163 103.762 141.97C110.227 141.704 116.722 141.334 123.187 141.171C125.962 141.068 125.962 145.612 123.32 145.419H123.172C123.172 145.893 123.172 146.307 123.084 146.781C123.078 146.805 123.078 146.831 123.084 146.855C122.98 148.675 122.862 150.526 122.685 152.331C122.508 154.137 122.449 155.588 122.346 157.216C122.346 158.341 122.228 159.466 122.198 160.561C123.738 162.189 125.45 163.643 127.305 164.898C130.286 166.674 133.383 168.247 136.575 169.604C140.324 171.277 144.103 172.816 147.94 174.237C151.778 175.658 155.675 176.946 159.631 178.1L160 178.189C161.83 178.737 163.69 179.211 165.579 179.669C170.634 180.757 175.63 182.105 180.546 183.71C182.022 184.273 183.498 184.865 184.974 185.56C188.876 187.312 192.389 189.828 195.307 192.961C214.053 213.653 207.912 248.007 202.746 272.518Z" fill="#F8ACA9"/>
<path d="M123.364 145.419H123.202C123.202 145.922 123.202 146.366 123.098 146.899C123.01 148.72 122.877 150.57 122.714 152.376C122.552 154.182 122.478 155.632 122.39 157.26C117.822 160.502 112.53 162.57 106.98 163.284C99.2157 164.069 91.7026 160.324 85.2966 156.343V155.366C85.0899 151.488 85.0752 147.565 85.0752 143.687C85.0676 143.535 85.1053 143.384 85.1835 143.253C85.2617 143.122 85.377 143.018 85.5146 142.953C85.6522 142.888 85.8059 142.865 85.9563 142.888C86.1067 142.911 86.247 142.978 86.3593 143.081C87.4318 142.943 88.5109 142.864 89.5919 142.844C91.2008 142.681 92.8097 142.592 94.4333 142.503C97.5478 142.296 100.662 142.148 103.777 141.985C110.227 141.689 116.722 141.334 123.172 141.171C126.006 141.127 125.991 145.671 123.364 145.419Z" fill="#FE757C"/>
<path d="M65.0158 220.417C64.8091 221.897 62.9345 222.105 61.9751 221.35C58.4621 218.626 56.927 212.869 55.3329 208.887C53.5789 204.418 52.187 199.815 51.1704 195.122C50.1077 190.252 49.3844 185.309 48.7497 180.321C48.5873 179.018 48.2774 177.36 48.1445 175.629C50.5357 175.185 52.9269 174.696 55.2738 174.148C55.5248 175.88 55.6133 177.642 55.8495 179.077C56.6023 183.843 57.6503 188.476 58.8016 193.153C59.9529 197.831 61.0895 202.463 62.2998 207.141C63.3773 211.418 65.6357 216.066 65.0158 220.417Z" fill="white"/>
<path d="M165.609 179.61C165.609 180.75 165.461 181.771 165.431 182.378C165.211 186.46 164.767 190.526 164.103 194.559C163.422 198.856 162.501 203.111 161.343 207.303C160.751 209.351 160.042 211.362 159.217 213.327C158.479 215.118 157.874 217.368 156.265 218.626C155.424 219.322 153.697 219.381 153.416 218.005C153.259 216.062 153.521 214.109 154.184 212.277C154.671 210.16 155.099 208.029 155.66 205.897C156.726 201.685 157.579 197.422 158.214 193.124C158.848 189.098 159.158 185.027 159.483 180.942C159.483 180.335 159.483 179.24 159.616 177.982L160 178.086C161.918 178.737 163.719 179.21 165.609 179.61Z" fill="white"/>
<path d="M153.239 86.8651C153.612 94.9696 152.731 103.083 150.627 110.917C150.538 111.376 150.39 111.79 150.258 112.249C150.125 112.708 149.918 113.507 149.756 114.114C149.282 115.68 148.73 117.222 148.102 118.732C146.078 123.818 143.067 128.452 139.246 132.364C136.014 135.591 132.456 138.492 129.017 141.541C125.513 144.945 121.769 148.091 117.814 150.955C114.139 153.367 108.958 154.773 104.81 153.175C104.348 153.213 103.884 153.213 103.423 153.175C102.334 152.989 101.26 152.732 100.205 152.405C99.9822 152.464 99.7482 152.464 99.5257 152.405C91.3632 149.771 83.6877 145.079 76.6618 140.061C74.6064 138.574 72.6761 136.921 70.8904 135.117C65.4858 130.437 61.412 124.406 59.082 117.637C58.8358 117.044 58.6287 116.436 58.4621 115.816C58.3735 115.55 58.3292 115.298 58.2407 115.032C58.0783 114.351 57.9012 113.685 57.7388 113.004C55.141 102.54 54.6244 91.2166 54.5506 80.3229C54.4891 80.2493 54.4438 80.1636 54.4177 80.0713C50.3438 67.727 54.4915 53.0441 62.7721 43.8081C72.1598 33.2548 84.9129 31.1382 98.0497 31.4342C118.508 31.8634 145.416 35.5934 151.453 60.7408C153.252 69.324 153.853 78.116 153.239 86.8651Z" fill="#F8ACA9"/>
<path d="M79.0829 108.268C85.1154 108.268 90.0057 106.001 90.0057 103.206C90.0057 100.41 85.1154 98.1436 79.0829 98.1436C73.0504 98.1436 68.1602 100.41 68.1602 103.206C68.1602 106.001 73.0504 108.268 79.0829 108.268Z" fill="#FE898F"/>
<path d="M129.342 108.268C135.374 108.268 140.264 106.001 140.264 103.206C140.264 100.41 135.374 98.1436 129.342 98.1436C123.309 98.1436 118.419 100.41 118.419 103.206C118.419 106.001 123.309 108.268 129.342 108.268Z" fill="#FE898F"/>
<path d="M127.143 92.6376C128.488 92.6376 129.578 90.3116 129.578 87.4423C129.578 84.5731 128.488 82.2471 127.143 82.2471C125.797 82.2471 124.707 84.5731 124.707 87.4423C124.707 90.3116 125.797 92.6376 127.143 92.6376Z" fill="#73195B"/>
<path d="M85.0458 92.6376C86.3909 92.6376 87.4813 90.3116 87.4813 87.4423C87.4813 84.5731 86.3909 82.2471 85.0458 82.2471C83.7008 82.2471 82.6104 84.5731 82.6104 87.4423C82.6104 90.3116 83.7008 92.6376 85.0458 92.6376Z" fill="#73195B"/>
<path d="M135.35 73.8103C135.224 73.8109 135.101 73.7749 134.995 73.7067C129.091 70.0656 121.416 73.7067 121.342 73.7067C121.185 73.7785 121.006 73.7862 120.844 73.7281C120.681 73.6701 120.548 73.551 120.471 73.3959C120.431 73.3195 120.407 73.2358 120.4 73.1499C120.394 73.0639 120.404 72.9775 120.432 72.8958C120.46 72.8141 120.504 72.7389 120.561 72.6748C120.618 72.6106 120.688 72.5589 120.766 72.5226C121.121 72.3598 129.239 68.5411 135.689 72.5226C135.762 72.568 135.826 72.6274 135.876 72.6974C135.926 72.7675 135.961 72.8468 135.981 72.9308C136 73.0148 136.002 73.1017 135.988 73.1867C135.973 73.2716 135.942 73.3528 135.896 73.4255C135.849 73.5342 135.774 73.6278 135.677 73.6957C135.581 73.7637 135.467 73.8034 135.35 73.8103Z" fill="#73195B"/>
<path d="M92.1899 73.8103C92.0644 73.8109 91.9413 73.7749 91.8357 73.7067C85.9315 70.0656 78.2561 73.7067 78.1675 73.7067C78.0109 73.7813 77.8312 73.7905 77.6679 73.7322C77.5045 73.6739 77.371 73.5529 77.2966 73.3959C77.2222 73.2389 77.2131 73.0587 77.2712 72.8949C77.3294 72.7311 77.45 72.5972 77.6066 72.5226C77.9608 72.3598 86.0791 68.5411 92.5294 72.5226C92.6025 72.568 92.6659 72.6274 92.7159 72.6974C92.7659 72.7675 92.8016 72.8468 92.8208 72.9308C92.84 73.0148 92.8424 73.1017 92.8279 73.1867C92.8133 73.2716 92.7821 73.3528 92.7361 73.4255C92.6897 73.5342 92.614 73.6278 92.5175 73.6957C92.4211 73.7637 92.3076 73.8034 92.1899 73.8103Z" fill="#73195B"/>
<path d="M167.823 45.2588C167.72 44.4891 167.616 43.7786 167.498 42.935C166.48 36.2004 164.384 29.4214 159.793 24.2853C156.147 20.2446 150.11 16.6035 144.487 17.1511C142.036 12.7995 136.206 9.39522 132.265 7.08622C126.495 3.81989 120.167 1.66146 113.608 0.721658C99.2605 -1.39493 81.9464 1.1657 69.1491 8.12231C63.1658 11.4036 57.9519 15.9305 53.8572 21.3991C47.228 30.4451 43.4357 41.2659 42.964 52.4818C42.4729 61.2976 43.7994 70.1202 46.8608 78.3989C47.215 79.3856 47.5988 80.3724 48.0121 81.3591C48.084 81.5292 48.2146 81.6676 48.3799 81.7491C48.5452 81.8306 48.7342 81.8498 48.9125 81.8032C49.0211 81.935 49.1727 82.0242 49.3405 82.0548C51.0527 82.3212 52.7797 82.4988 54.5067 82.6024C55.3038 82.6024 56.1008 82.6913 56.9126 82.6913C60.2903 82.772 63.6693 82.6087 67.0236 82.2028C81.1789 86.2584 97.4892 83.3425 110.626 77.4664C118.105 74.013 125.142 69.6697 131.586 64.5301C135.454 61.6964 138.817 58.2286 141.534 54.2728C142.243 55.1904 143.011 56.1673 143.586 57.1442C145.019 59.2764 146.283 61.5183 147.365 63.8492C149.033 67.4607 150.922 77.0668 152.324 80.6191C152.679 81.4923 152.989 82.0104 153.254 81.966H153.387C156.856 81.5115 160.067 79.8883 162.494 77.3628C169.594 69.8141 169.004 55.2792 167.823 45.2588ZM108.072 74.1509C98.5455 78.2591 88.2723 80.3407 77.9021 80.2638C86.7772 78.0885 95.4998 75.3295 104.013 72.0047C112.146 68.9557 122.316 65.6846 130.582 60.4153C123.905 66.2344 116.295 70.8785 108.072 74.1509Z" fill="#A62484"/>
<path d="M60.3221 106.284C59.894 102.169 59.584 98.0695 59.3626 93.9252C59.1855 90.4617 59.2593 86.5245 57.6209 83.4606C57.5022 83.2153 57.3047 83.0172 57.06 82.8982C55.8187 81.1306 54.0726 79.7815 52.0517 79.0285C50.0308 78.2755 47.8299 78.154 45.7387 78.6798C43.4751 79.2891 41.5309 80.746 40.3068 82.7502C39.0107 85.2419 38.7456 88.1453 39.5688 90.8317C40.449 93.9426 41.7239 96.9272 43.3623 99.7125C44.7407 102.282 46.6839 104.504 49.0451 106.21C50.2849 107.113 51.5986 107.898 52.8828 108.697C54.1957 109.635 55.5717 110.48 57.0009 111.228C57.4647 111.505 58.008 111.618 58.5435 111.548C59.0789 111.478 59.5754 111.23 59.953 110.843C61.001 109.629 60.4697 107.72 60.3221 106.284Z" fill="#F8ACA9"/>
<path d="M149.417 105.722C149.579 101.578 149.623 97.4629 149.564 93.3185C149.564 89.8402 149.21 85.9179 150.642 82.7652C150.754 82.5137 150.939 82.3021 151.173 82.1583C152.302 80.3181 153.958 78.8627 155.926 77.9832C157.893 77.1036 160.08 76.8409 162.199 77.2295C164.494 77.6848 166.524 79.0103 167.867 80.9298C169.324 83.3388 169.775 86.2267 169.122 88.9669C168.439 92.105 167.363 95.1437 165.919 98.0105C164.714 100.668 162.916 103.013 160.664 104.864C159.483 105.84 158.214 106.714 156.989 107.602C155.745 108.617 154.433 109.547 153.063 110.384C152.62 110.689 152.089 110.836 151.553 110.801C151.018 110.766 150.51 110.552 150.111 110.192C148.945 109.097 149.358 107.158 149.417 105.722Z" fill="#F8ACA9"/>
<path d="M149.756 114.114C148.358 118.837 146.215 123.304 143.409 127.347C142.612 128.47 141.76 129.551 140.855 130.588C140.309 131.195 139.763 131.787 139.172 132.364C135.925 135.591 132.382 138.492 128.943 141.541L128.338 142.089L124.53 145.567C122.406 147.542 120.137 149.353 117.74 150.984C114.065 153.397 108.884 154.803 104.736 153.219C104.272 153.235 103.807 153.205 103.349 153.131C102.259 152.956 101.184 152.704 100.131 152.376C99.9083 152.435 99.6743 152.435 99.4518 152.376C91.3483 149.756 83.6876 145.064 76.6617 140.061C74.6146 138.602 72.6893 136.979 70.9051 135.206C64.9804 130.13 60.6398 123.45 58.4029 115.965C58.3144 115.698 58.2701 115.446 58.1963 115.18C67.9972 111.391 77.9015 107.898 88.042 105.056C96.7654 102.629 106.005 99.8459 115.039 101.814C124.072 103.783 133.135 107.987 141.918 111.317C144.132 112.146 146.326 112.989 148.501 113.848C148.914 113.96 149.333 114.049 149.756 114.114Z" fill="#4AB0F2"/>
<path d="M150.258 112.249C150.125 112.856 149.918 113.507 149.756 114.114C149.282 115.68 148.731 117.222 148.103 118.732C141.8 116.631 135.586 114.04 129.445 111.791C121.652 108.949 113.047 104.257 104.604 104.641C96.1606 105.026 87.4814 108.993 79.5107 111.554C72.898 113.655 66.0344 116.483 59.1118 117.637C58.8655 117.044 58.6584 116.436 58.4918 115.816C58.4033 115.55 58.359 115.298 58.2704 115.032C58.108 114.351 57.9309 113.685 57.7686 113.004C64.8241 109.511 73.0752 107.617 80.4702 105.189C88.5146 102.555 96.7805 99.091 105.297 98.5137C114.154 97.8921 122.892 102.436 130.995 105.337C137.298 107.661 143.896 109.748 150.258 112.249Z" fill="#F7FFFF"/>
<path d="M143.408 127.347C142.612 128.47 141.76 129.552 140.855 130.588L115.364 123.055H89.9902C89.9902 123.055 108.647 120.02 115.88 120.701C121.12 121.19 135.777 125.186 143.408 127.347Z" fill="#CBE3F2"/>
<path d="M128.338 142.089L124.53 145.567C119.807 145.138 112.899 144.487 110.109 144.087C105.829 143.628 86.3154 137.456 85.1641 137.057L109.194 142.089H128.338Z" fill="#CBE3F2"/>
<path d="M143.409 139.247L158.406 153.856L160.221 149.549L143.409 139.247Z" fill="#F7FFFF"/>
<path d="M156.221 128.279L176.059 130.573L176.9 125.585L156.221 128.279Z" fill="#F7FFFF"/>
<path d="M159.335 114.958L176.9 110.799L175.055 104.479L159.335 114.958Z" fill="#F7FFFF"/>
<path d="M57.9903 135.709L40.7058 150.718L38.2998 147.21L57.9903 135.709Z" fill="#F7FFFF"/>
<path d="M50.6832 126.606L29.0886 131.594L27.583 126.606H50.6832Z" fill="#F7FFFF"/>
<path d="M45.4291 112.383L29.2959 106.936L32.1447 104.79L45.4291 112.383Z" fill="#F7FFFF"/>
<path d="M144.487 17.1511C144.487 17.1511 131.35 9.09923 123.261 6.435C112.214 3.11048 100.467 2.90561 89.312 5.84295C85.2904 6.9707 81.4488 8.66508 77.9021 10.8754C61.5475 21.2363 45.5914 45.17 45.5914 45.17C45.5914 45.17 44.4696 48.1303 42.964 52.5706C40.1153 60.8446 35.9528 74.1657 35.5838 82.3065C34.9491 94.7691 43.9382 146.366 42.8902 164.572C42.5065 171.055 41.547 174.933 40.4548 177.375C38.4621 181.727 36.0266 181.105 35.5838 181.712L35.2591 178.752L36.4842 178.411C38.6211 168.855 39.3127 159.03 38.5359 149.268C37.665 134.821 34.6391 120.642 32.9564 106.344C31.2295 91.4241 31.4804 76.7412 35.4805 62.2507C38.8163 49.9804 42.8607 35.8452 50.4624 25.5139C51.5134 24.0962 52.647 22.742 53.8573 21.4583C57.9519 15.9897 63.1659 11.4628 69.1491 8.18155C81.9465 1.16574 99.2605 -1.39489 113.608 0.780903C120.167 1.72071 126.495 3.87914 132.265 7.14546C136.206 9.39526 142.036 12.7996 144.487 17.1511Z" fill="white"/>
<path d="M129.327 14.4867C129.327 14.4867 102.419 13.8354 83.5844 27.3046C64.7501 40.7738 58.1816 52.3188 58.1816 52.3188C58.1816 52.3188 65.429 31.2417 82.5807 22.0205C99.7324 12.7993 116.545 10.7715 129.327 14.4867Z" fill="white"/>
</svg>
