<svg width="64" height="64" viewBox="0 0 64 64" fill="none" xmlns="http://www.w3.org/2000/svg">
<path d="M29.9579 38.728H36.1979V36.184C36.1979 34.312 36.6299 33.208 38.2139 32.296C40.4699 30.904 44.0219 28.552 44.0219 24.376C44.0219 19.672 39.6539 16.744 33.7499 16.744C25.7339 16.744 22.8539 22.744 22.7099 23.848L28.5659 26.2C29.0459 24.76 30.3419 22.696 32.8379 22.696C35.0939 22.696 36.3419 23.56 36.3419 25.432C36.3419 27.496 34.5179 28.888 32.7419 29.848C31.0619 30.76 29.9579 32.104 29.9579 34.216V38.728ZM33.1739 49.576C35.6219 49.576 37.5419 47.656 37.5419 45.256C37.5419 42.808 35.6219 40.888 33.1739 40.888C30.8219 40.888 28.8539 42.808 28.8539 45.256C28.8539 47.656 30.8219 49.576 33.1739 49.576Z" fill="white"/>
</svg>
