<svg width="42" height="42" viewBox="0 0 42 42" fill="none" xmlns="http://www.w3.org/2000/svg">
<path d="M32.8125 12.1401L31.08 10.1246C29.611 8.58177 27.8435 7.35392 25.885 6.51581C23.9264 5.67771 21.8178 5.24687 19.6875 5.24952C10.9922 5.24952 3.9375 12.3042 3.9375 20.9995C3.9375 29.6948 10.9922 36.7495 19.6875 36.7495C22.945 36.7493 26.1223 35.7395 28.7823 33.8592C31.4422 31.9788 33.4541 29.3203 34.5409 26.2495" stroke="#A5AFED" stroke-width="4" stroke-miterlimit="10" stroke-linecap="square"/>
<path d="M38.0625 5.61452V18.0464C38.0625 18.1334 38.0279 18.2168 37.9663 18.2784C37.9048 18.3399 37.8214 18.3745 37.7343 18.3745H25.3025C25.2376 18.3745 25.1741 18.3553 25.1201 18.3193C25.0661 18.2832 25.024 18.2319 24.9991 18.172C24.9743 18.112 24.9678 18.046 24.9804 17.9823C24.9931 17.9186 25.0244 17.8601 25.0704 17.8142L37.5022 5.38237C37.5481 5.33643 37.6066 5.30513 37.6702 5.29245C37.7339 5.27977 37.7999 5.28627 37.8599 5.31112C37.9199 5.33598 37.9712 5.37808 38.0072 5.43208C38.0433 5.48609 38.0625 5.54958 38.0625 5.61452V5.61452Z" fill="#A5AFED"/>
</svg>
