<svg width="265" height="280" viewBox="0 0 265 280" fill="none" xmlns="http://www.w3.org/2000/svg">
<path d="M122.519 245.221C190.185 245.221 245.039 190.326 245.039 122.611C245.039 54.8946 190.185 0 122.519 0C54.8538 0 0 54.8946 0 122.611C0 190.326 54.8538 245.221 122.519 245.221Z" fill="white"/>
<path d="M237.907 122.63C237.872 152.875 225.963 181.896 204.743 203.445C183.522 224.994 154.689 237.346 124.452 237.842C94.2145 238.339 64.9916 226.939 43.0758 206.098C21.1601 185.258 8.30458 156.643 7.27755 126.416C6.25052 96.1884 17.1341 66.7669 37.5847 44.4863C58.0353 22.2058 86.4171 8.8486 116.618 7.29093C146.82 5.73327 176.425 16.0998 199.059 36.1582C221.692 56.2166 235.545 84.3624 237.632 114.535C237.829 117.207 237.907 119.86 237.907 122.63Z" fill="#1B348C"/>
<path d="M167.865 28.9039L17.6826 74.3524C24.6037 59.3477 34.6588 46.0001 47.1711 35.2084C59.6834 24.4166 74.3623 16.4311 90.2197 11.7896L167.865 28.9039Z" fill="#071B6B"/>
<path d="M237.906 122.63C237.933 148.084 229.544 172.832 214.045 193.022C198.547 213.212 176.809 227.711 152.216 234.262C127.622 240.813 101.553 239.048 78.0665 229.242C54.58 219.436 34.9941 202.14 22.3579 180.045L237.729 114.535C237.828 117.207 237.906 119.86 237.906 122.63Z" fill="#071B6B"/>
<path d="M86.2125 184.407C86.2125 185.154 86.2125 185.92 86.2125 186.628C84.4246 215.669 48.1365 222.566 48.1365 222.566C48.1365 222.566 9.92285 215.296 9.92285 184.407C14.4441 174.69 21.6936 166.498 30.7881 160.828C45.6806 151.77 37.3305 117.404 37.3305 117.404L48.0579 119.369L55.0129 118.092L58.6869 117.404C58.6869 117.404 58.2351 119.369 57.7242 122.395C57.1623 125.613 56.7754 128.86 56.5651 132.121C55.8774 142.614 56.8991 155.7 65.2884 160.789C74.4149 166.455 81.6875 174.664 86.2125 184.407Z" fill="#A62484"/>
<path d="M48.0775 222.566C48.0775 222.566 9.92285 215.296 9.92285 184.407C14.4441 174.69 21.6936 166.498 30.7881 160.828C45.6806 151.77 37.3305 117.404 37.3305 117.404L48.0579 119.369L55.0129 118.092C55.9953 119.546 56.9776 121.019 57.7242 122.395C57.1623 125.613 56.7754 128.86 56.5651 132.121L47.9989 134.852L56.4275 141.965L46.9576 145.738C46.9576 145.738 46.9576 159.217 41.5154 167.548C36.0731 175.88 37.3305 182.187 37.3305 182.187L86.1536 186.667C84.1889 186.667 46.0539 189.261 41.8887 197.69C37.7235 206.12 48.0775 222.566 48.0775 222.566Z" fill="#73195B"/>
<path d="M86.2119 186.667H9.92227C9.33346 186.667 8.76876 186.433 8.35241 186.017C7.93605 185.601 7.70215 185.036 7.70215 184.447C7.70215 183.858 7.93605 183.293 8.35241 182.877C8.76876 182.46 9.33346 182.227 9.92227 182.227H86.2119C86.8008 182.227 87.3654 182.46 87.7818 182.877C88.1982 183.293 88.4321 183.858 88.4321 184.447C88.4321 185.036 88.1982 185.601 87.7818 186.017C87.3654 186.433 86.8008 186.667 86.2119 186.667Z" fill="#FEE7C5"/>
<path d="M56.5048 141.985H39.6083C39.0195 141.985 38.4548 141.751 38.0384 141.334C37.6221 140.918 37.3882 140.353 37.3882 139.764C37.3882 139.175 37.6221 138.611 38.0384 138.194C38.4548 137.778 39.0195 137.544 39.6083 137.544H56.5048C57.0936 137.544 57.6583 137.778 58.0747 138.194C58.491 138.611 58.7249 139.175 58.7249 139.764C58.7249 140.353 58.491 140.918 58.0747 141.334C57.6583 141.751 57.0936 141.985 56.5048 141.985Z" fill="#FEE7C5"/>
<path d="M77.0951 152.025C76.9492 152.025 76.8092 151.967 76.7061 151.864C76.6029 151.761 76.5449 151.621 76.5449 151.475V124.811C76.5695 124.681 76.6389 124.563 76.7411 124.478C76.8434 124.393 76.9721 124.347 77.1049 124.347C77.2378 124.347 77.3664 124.393 77.4687 124.478C77.571 124.563 77.6404 124.681 77.6649 124.811V151.475C77.665 151.549 77.6501 151.622 77.6212 151.69C77.5924 151.758 77.5501 151.82 77.4969 151.871C77.4437 151.923 77.3807 151.963 77.3117 151.989C77.2426 152.016 77.169 152.028 77.0951 152.025Z" fill="white"/>
<path d="M77.0956 149.294L75.0718 154.776H77.0956H79.1195L77.0956 149.294Z" fill="#A62484"/>
<path d="M79.9441 48.1211H48.0569H16.1696L0.982422 130.353H48.0569H95.1509L79.9441 48.1211Z" fill="#F7FFFF"/>
<path d="M59.1378 48.1211L63.0672 111.49L69.4329 48.1211H59.1378ZM0.982422 130.353H44.8937L50.9646 48.1211H16.1696L0.982422 130.353Z" fill="#F1C5FF"/>
<path d="M62.6549 162.047C63.5881 162.436 64.3355 163.169 64.7417 164.095C65.1479 165.021 65.1817 166.068 64.8359 167.018C64.1885 167.816 63.2541 168.329 62.233 168.447C61.2119 168.564 60.1853 168.277 59.3735 167.647C58.4262 167.258 57.6682 166.514 57.2609 165.575C56.8535 164.635 56.8289 163.574 57.1924 162.617C57.8482 161.827 58.7868 161.325 59.8076 161.219C60.8284 161.112 61.8503 161.41 62.6549 162.047Z" fill="white"/>
<path d="M57.5462 170.948C57.8545 170.696 58.2317 170.544 58.6282 170.512C59.0246 170.479 59.4216 170.568 59.7665 170.766C60.1115 170.964 60.3882 171.262 60.5602 171.621C60.7321 171.98 60.7911 172.382 60.7294 172.775C60.4212 173.027 60.0439 173.178 59.6475 173.211C59.251 173.243 58.8541 173.155 58.5091 172.957C58.1641 172.759 57.8874 172.46 57.7155 172.102C57.5436 171.743 57.4845 171.341 57.5462 170.948Z" fill="white"/>
<path d="M149.063 222.566H7.68262V279.902H149.063V222.566Z" fill="#F8ACA9"/>
<path d="M149.064 237.755V280H7.60449V222.566H93.7963C109.416 226.928 132.462 233.294 149.064 237.755Z" fill="#FE757C"/>
<path d="M215.705 108.503C220.843 115.153 225.574 122.109 229.871 129.331C234.959 138.507 239.891 149.923 238.339 155.445C238.339 155.445 242.916 152.458 238.633 140.079C234.35 127.7 223.25 110.546 215.705 108.503Z" fill="#D284EB"/>
<path d="M264.47 147.074C262.933 148.748 261.067 150.086 258.988 151.004C253.094 154.462 247.377 157.94 241.561 161.378C242.505 160.487 243.391 159.535 244.214 158.529C245.511 157.121 246.507 155.463 247.141 153.656C247.635 151.718 247.412 149.666 246.512 147.88C245.039 144.48 243.054 141.258 241.306 138.055C239.557 134.852 237.592 131.138 235.765 127.72C233.938 124.301 232.052 120.823 230.205 117.384C228.515 114.26 226.885 111.096 224.979 108.09C223.112 105.017 220.794 102.242 218.103 99.8571C215.391 97.5778 212.208 95.9272 209.399 93.7855C204.103 89.6277 200.029 84.1146 197.611 77.8304C193.625 80.0379 189.325 81.6217 184.86 82.5265C184.447 81.7602 184.034 80.9939 183.681 80.2276C183.539 80.214 183.406 80.1569 183.298 80.0642C183.19 79.9714 183.114 79.8477 183.08 79.7098C183.045 79.572 183.054 79.4269 183.106 79.2944C183.157 79.1619 183.248 79.0486 183.366 78.97C183.456 78.9183 183.558 78.8911 183.661 78.8911C183.765 78.8911 183.866 78.9183 183.956 78.97C185.213 78.2234 186.53 77.5946 187.885 77.0051C189.241 76.4156 190.656 75.4921 192.011 74.7062C194.801 73.1146 197.493 71.3658 200.145 69.5581C200.185 69.5402 200.229 69.531 200.273 69.531C200.317 69.531 200.36 69.5402 200.4 69.5581C200.43 69.5247 200.466 69.4979 200.507 69.4795C200.548 69.4612 200.592 69.4517 200.636 69.4517C200.681 69.4517 200.725 69.4612 200.766 69.4795C200.806 69.4979 200.843 69.5247 200.872 69.5581C202.012 71.3069 202.837 73.2718 203.878 75.1188C204.891 76.9848 206.054 78.7656 207.356 80.4437C209.344 82.9923 211.892 85.0495 214.802 86.4563C217.88 87.5754 221.067 88.3658 224.311 88.8142C227.34 89.4601 230.224 90.6591 232.818 92.3511C234.326 93.3772 235.653 94.6453 236.748 96.1041C236.748 96.1041 236.865 96.1041 236.885 96.1041C238.028 97.7049 239.065 99.3786 239.989 101.115C241.011 102.844 241.954 104.592 243.015 106.322C250.127 118.648 257.233 130.975 264.332 143.301C264.741 143.839 264.973 144.491 264.998 145.166C265.022 145.841 264.838 146.507 264.47 147.074Z" fill="#D284EB"/>
<path d="M175.174 104.671C174.986 104.844 174.774 104.989 174.545 105.103C174.356 105.239 174.16 105.364 173.956 105.477C173.562 105.749 173.148 105.992 172.718 106.204C172.676 106.228 172.629 106.241 172.581 106.241C172.532 106.241 172.485 106.228 172.443 106.204C172.418 106.225 172.388 106.239 172.356 106.245C172.324 106.251 172.29 106.25 172.259 106.24C172.228 106.23 172.2 106.213 172.177 106.189C172.154 106.166 172.137 106.137 172.129 106.105C170.93 100.486 169.987 94.9055 168.965 89.3251L167.491 81.0135C167.374 80.4437 167.275 79.8542 167.157 79.2648C167.039 78.6753 166.863 77.6142 166.725 76.789C166.392 75.5018 166.182 74.186 166.096 72.8592C166.052 72.8308 166.015 72.7916 165.989 72.7452C165.964 72.6988 165.951 72.6468 165.951 72.5939C165.951 72.541 165.964 72.489 165.989 72.4426C166.015 72.3962 166.052 72.357 166.096 72.3286C166.615 72.1086 167.155 71.944 167.708 71.8374L169.26 71.4641C169.79 71.3462 170.301 71.2479 170.832 71.1693C171.293 71.0483 171.77 70.9953 172.246 71.0121C172.297 70.9864 172.354 70.9734 172.411 70.9742C172.468 70.9749 172.524 70.9894 172.574 71.0164C172.624 71.0434 172.667 71.0821 172.699 71.1293C172.731 71.1764 172.751 71.2306 172.757 71.2872C172.954 74.2542 173.17 77.182 173.386 80.1686C173.583 82.7623 173.759 85.3756 173.956 88.0283C174.152 90.6809 174.369 93.6479 174.565 96.4774C174.762 99.3069 175.037 101.665 174.997 104.337C175.049 104.325 175.103 104.325 175.155 104.337C175.194 104.383 175.217 104.44 175.221 104.501C175.225 104.561 175.208 104.621 175.174 104.671Z" fill="#A62484"/>
<path d="M173.445 80.1293L167.177 79.2648C167.04 78.4395 166.883 77.6142 166.745 76.789C166.412 75.5018 166.202 74.186 166.116 72.8592C166.072 72.8308 166.035 72.7916 166.01 72.7452C165.984 72.6988 165.971 72.6468 165.971 72.5939C165.971 72.541 165.984 72.489 166.01 72.4426C166.035 72.3962 166.072 72.357 166.116 72.3286C166.635 72.1086 167.175 71.944 167.728 71.8374L169.28 71.4641C169.81 71.3462 170.321 71.2479 170.852 71.1693C171.313 71.0483 171.79 70.9953 172.267 71.0121C172.317 70.9864 172.374 70.9734 172.431 70.9742C172.488 70.9749 172.544 70.9894 172.594 71.0164C172.644 71.0434 172.687 71.0821 172.719 71.1293C172.751 71.1764 172.771 71.2306 172.777 71.2872C173.013 74.2149 173.229 77.1623 173.445 80.1293Z" fill="#7D1B63"/>
<path d="M225.019 54.0943C224.717 54.5892 224.339 55.0335 223.899 55.4108C223.679 55.5873 223.425 55.7146 223.152 55.7841H223.034C222.118 56.0576 221.154 56.1378 220.205 56.0199C219.085 56.0199 217.985 55.7841 216.865 55.6662C214.508 55.4237 212.13 55.4964 209.792 55.8824C207.447 56.2756 205.135 56.8471 202.876 57.5919C200.754 58.2796 198.652 59.1638 196.55 59.8908C196.55 60.1659 196.55 60.441 196.55 60.7357C196.55 61.0305 196.55 61.4824 196.55 61.8754C196.56 62.0586 196.56 62.2423 196.55 62.4255C196.58 62.5747 196.58 62.7283 196.55 62.8775C196.508 62.9564 196.447 63.0238 196.373 63.074L188.514 67.9076L184.585 70.2066C183.379 71.0867 182.057 71.7944 180.655 72.309C180.631 72.3298 180.599 72.3412 180.567 72.3412C180.535 72.3412 180.503 72.3298 180.479 72.309C179.441 72.1169 178.39 72.0117 177.335 71.9947C176.238 72.034 175.146 72.1721 174.074 72.4073C171.734 72.8845 169.435 73.5415 167.197 74.3722C162.699 76.0958 158.298 78.0636 154.014 80.2669C154.014 80.3652 153.857 80.4438 153.778 80.3652C153.746 80.3734 153.712 80.371 153.681 80.3584C153.65 80.3458 153.623 80.3237 153.606 80.2952C153.588 80.2667 153.58 80.2333 153.583 80.2C153.586 80.1666 153.599 80.135 153.621 80.1098C153.514 79.9832 153.422 79.8448 153.346 79.6971C152.816 78.9701 152.364 78.2038 151.912 77.4375C151.33 76.3989 150.85 75.3066 150.478 74.1757C151.506 71.5321 153.205 69.2023 155.409 67.4164C157.665 65.4207 160.04 63.5637 162.521 61.8557C172.033 55.195 182.611 50.2047 193.799 47.0992C196.554 46.2771 199.356 45.6209 202.189 45.1343C204.81 44.8058 207.469 44.9321 210.048 45.5076C215.229 46.4602 220.182 48.3872 224.645 51.1862C224.713 51.2235 224.765 51.283 224.794 51.3547C224.823 51.4263 224.826 51.5056 224.803 51.5792L224.979 51.7757C225.088 51.9157 225.169 52.076 225.215 52.2473C225.337 52.5475 225.383 52.8732 225.349 53.1955C225.315 53.5177 225.201 53.8265 225.019 54.0943Z" fill="white"/>
<path d="M225.018 54.0941C224.716 54.589 224.339 55.0333 223.898 55.4106C223.679 55.5871 223.425 55.7144 223.152 55.7839H223.034C222.117 56.0573 221.154 56.1376 220.205 56.0197C219.085 56.0197 217.985 55.7839 216.865 55.666C214.508 55.4235 212.129 55.4961 209.792 55.8822C207.446 56.2754 205.134 56.8468 202.876 57.5916C200.754 58.2794 198.652 59.1636 196.55 59.8906C196.55 60.1657 196.55 60.4408 196.55 60.7355C196.55 61.0302 196.55 61.4822 196.55 61.8752C196.559 62.0584 196.559 62.2421 196.55 62.4253C196.58 62.5745 196.58 62.7281 196.55 62.8773C196.508 62.9562 196.447 63.0236 196.373 63.0737L188.514 67.9074L184.585 70.2064C183.379 71.0865 182.056 71.7942 180.655 72.3088C180.63 72.3296 180.599 72.341 180.567 72.341C180.534 72.341 180.503 72.3296 180.478 72.3088C179.441 72.1167 178.39 72.0115 177.335 71.9945C176.237 72.0338 175.146 72.1719 174.073 72.4071C171.734 72.8843 169.435 73.5412 167.197 74.372C162.699 76.0956 158.298 78.0634 154.014 80.2667C154.014 80.365 153.857 80.4436 153.778 80.365C153.745 80.3732 153.711 80.3708 153.68 80.3582C153.649 80.3456 153.623 80.3235 153.606 80.295C153.588 80.2665 153.58 80.2331 153.583 80.1998C153.586 80.1664 153.599 80.1348 153.621 80.1095C153.514 79.983 153.421 79.8446 153.346 79.6969C160.281 73.3306 173.268 62.0127 179.064 60.2836C184.246 58.7109 189.255 56.6175 194.015 54.0352L188.612 61.6001C189.378 61.1088 201.756 53.2295 210.342 51.4415C215.282 50.6401 220.334 50.8406 225.195 52.0309C225.304 52.1709 225.384 52.3312 225.431 52.5025C225.481 52.7819 225.47 53.0688 225.399 53.3435C225.328 53.6183 225.198 53.8744 225.018 54.0941Z" fill="#FEDDAD"/>
<path d="M231.304 109.399L201.606 126.375L219.652 157.951L249.349 140.976L231.304 109.399Z" fill="#A62484"/>
<path d="M238.535 140.079C235.087 130.509 229.905 121.657 223.25 113.965L220.774 115.36C224.043 119.859 227.079 124.522 229.871 129.33C233.177 135.11 235.813 141.247 237.73 147.624L240.146 146.248C239.792 144.148 239.252 142.084 238.535 140.079Z" fill="#7D1B63"/>
<path d="M230.186 117.364C232.033 120.803 233.801 124.261 235.766 127.719C237.73 131.177 239.459 134.596 241.326 138.035C242.347 140 243.448 141.847 244.489 143.773L249.381 140.982L231.345 109.406L227.16 111.784C228.182 113.611 229.184 115.497 230.186 117.364Z" fill="#7D1B63"/>
<path d="M198.141 61.1093C197.159 59.9304 196.176 60.4609 194.938 61.1093C193.151 62.0328 191.402 63.0742 189.653 63.9781C186.374 65.7497 183.205 67.7182 180.164 69.8728L180.026 69.9711L179.751 70.0889C179.259 70.3691 178.793 70.6912 178.356 71.0518C177.946 71.327 177.609 71.6979 177.374 72.1325C177.301 72.2756 177.264 72.4338 177.264 72.5942C177.264 72.7547 177.301 72.9128 177.374 73.056C177.364 73.0739 177.358 73.0942 177.358 73.1149C177.358 73.1356 177.364 73.1559 177.374 73.1739C177.817 74.2827 178.349 75.3538 178.965 76.3767C179.555 77.4574 180.164 78.5381 180.812 79.5795C181.093 80.1824 181.464 80.7389 181.912 81.23C181.945 81.2383 181.978 81.2383 182.011 81.23C182.043 81.3029 182.095 81.3654 182.161 81.4105C182.227 81.4555 182.304 81.4815 182.384 81.4854C182.44 81.5645 182.523 81.6203 182.617 81.642C182.711 81.6638 182.81 81.65 182.895 81.6033C186.51 79.8546 190.007 77.9093 193.465 75.8658C195.141 74.8833 196.792 73.8616 198.416 72.8005L200.852 71.1893C201.343 70.8553 201.952 70.5212 202.169 69.9514C202.319 69.2848 202.221 68.5862 201.894 67.9865C201.591 67.1369 201.243 66.3039 200.852 65.4911C200.118 63.9323 199.208 62.4623 198.141 61.1093Z" fill="#A62484"/>
<path d="M179.338 72.1322C179.22 71.9947 178.985 72.1322 179.024 72.309C179.252 72.9953 179.555 73.6542 179.928 74.274L181.048 76.3568C181.398 77.0362 181.792 77.6925 182.227 78.3217C182.659 78.9111 182.934 79.6382 183.386 80.2866C183.17 79.5596 182.738 78.9111 182.462 78.3217C182.187 77.7322 181.834 76.9462 181.5 76.3568C181.166 75.7673 180.792 75.001 180.419 74.3919C180.166 73.5918 179.802 72.8312 179.338 72.1322Z" fill="white"/>
<path d="M181.775 71.0121C181.618 70.7566 181.205 71.0121 181.343 71.2675C182.07 72.584 182.757 73.9201 183.504 75.1973L184.585 77.1622L185.096 78.1643C185.213 78.4198 185.312 78.7342 185.587 78.8521C185.609 78.6093 185.546 78.3665 185.41 78.1643C185.233 77.791 185.056 77.4373 184.899 77.0836C184.565 76.4156 184.27 75.7278 183.956 75.1187C183.307 73.6843 182.541 72.3482 181.775 71.0121Z" fill="white"/>
<path d="M185.134 71.0711L184.683 70.1672C184.526 69.8253 184.321 69.5076 184.073 69.224C184.037 69.19 183.991 69.1682 183.942 69.162C183.892 69.1558 183.842 69.1653 183.798 69.1893C183.755 69.2133 183.72 69.2505 183.699 69.2956C183.678 69.3407 183.671 69.3913 183.68 69.4402C183.795 69.7999 183.967 70.1384 184.191 70.4423L184.722 71.3658C185.115 72.0142 185.488 72.7019 185.901 73.3307C186.706 74.6275 187.492 75.944 188.337 77.2605C188.337 77.4177 188.632 77.2605 188.553 77.1426C187.846 75.7868 187.08 74.4507 186.353 73.0949C185.92 72.4072 185.527 71.7391 185.134 71.0711Z" fill="white"/>
<path d="M188.926 65.8641C188.75 65.6087 188.337 65.8641 188.514 66.0999C189.54 67.3528 190.491 68.665 191.363 70.0297C191.736 70.6978 192.051 71.4248 192.365 72.1322C192.626 72.8623 193.034 73.5312 193.564 74.0971C193.564 74.0971 193.858 74.0971 193.799 73.9596C193.544 73.2915 193.112 72.6627 192.797 71.9946C192.483 71.3266 192.149 70.5013 191.756 69.7939C190.897 68.4253 189.952 67.1127 188.926 65.8641Z" fill="white"/>
<path d="M196.903 66.807L195.744 64.8421C195.42 64.204 195.046 63.5929 194.624 63.0147C194.594 62.9915 194.557 62.9777 194.519 62.9751C194.48 62.9724 194.442 62.981 194.409 62.9998C194.375 63.0186 194.348 63.0468 194.331 63.0809C194.313 63.1149 194.306 63.1534 194.31 63.1916C194.595 63.8811 194.951 64.5395 195.371 65.1565L196.55 67.1214C197.336 68.4182 198.102 69.7151 198.947 70.953C198.94 70.9679 198.936 70.9845 198.937 71.0011C198.938 71.0177 198.943 71.0339 198.952 71.048C198.961 71.0621 198.973 71.0737 198.988 71.0817C199.002 71.0898 199.019 71.094 199.035 71.094C199.052 71.094 199.068 71.0898 199.083 71.0817C199.097 71.0737 199.11 71.0621 199.119 71.048C199.127 71.0339 199.132 71.0177 199.133 71.0011C199.134 70.9845 199.131 70.9679 199.124 70.953C198.436 69.381 197.65 68.0842 196.903 66.807Z" fill="white"/>
<path d="M196.903 61.6785C196.667 61.5213 196.471 61.8553 196.628 62.0518C197.463 63.1654 198.212 64.3413 198.868 65.569C199.555 66.7873 200.243 68.0055 200.833 69.2631C200.833 69.4006 201.127 69.2631 201.049 69.1255C200.42 67.7894 199.772 66.4532 199.084 65.1957C198.75 64.5669 198.396 63.9578 198.043 63.329C197.781 62.7061 197.393 62.1441 196.903 61.6785Z" fill="white"/>
<path d="M154.8 76.9265L151.912 72.2303C151.858 72.182 151.788 72.1553 151.716 72.1553C151.643 72.1553 151.573 72.182 151.519 72.2303H151.283C150.991 72.322 150.723 72.4763 150.497 72.6823C149.927 73.0163 149.358 73.3503 148.807 73.7237C148.762 73.7712 148.736 73.8346 148.736 73.9005C148.736 73.9664 148.762 74.0298 148.807 74.0773C149.515 75.3545 150.242 76.6317 150.969 77.9089C151.608 79.1584 152.337 80.3601 153.15 81.5047C153.327 81.8388 153.68 81.6226 153.916 81.5047L154.584 81.1314C154.755 81.0314 154.92 80.9198 155.076 80.7973C155.322 80.7175 155.559 80.6121 155.783 80.483C155.976 80.375 156.138 80.2194 156.254 80.031C156.295 80.0186 156.332 79.9962 156.362 79.9657C156.392 79.9353 156.414 79.8979 156.426 79.8568C156.437 79.8158 156.439 79.7725 156.429 79.7308C156.42 79.6892 156.4 79.6505 156.372 79.6184C156.39 79.5276 156.39 79.4341 156.372 79.3433C155.803 78.5966 155.213 77.7124 154.8 76.9265Z" fill="#7D1B63"/>
<path d="M197.041 110.33C198.821 110.33 200.263 108.227 200.263 105.634C200.263 103.04 198.821 100.938 197.041 100.938C195.261 100.938 193.818 103.04 193.818 105.634C193.818 108.227 195.261 110.33 197.041 110.33Z" fill="white"/>
<path d="M205.155 113.965C206.02 115.321 205.98 116.893 205.155 117.482C204.33 118.072 202.778 117.482 201.913 116.126C201.049 114.771 201.088 113.218 201.913 112.629C202.738 112.039 204.33 112.55 205.155 113.965Z" fill="white"/>
<path d="M216.845 167.135C217.435 168.059 217.415 169.1 216.845 169.552C216.275 170.004 215.214 169.552 214.625 168.629C214.035 167.705 214.055 166.664 214.625 166.212C215.195 165.76 216.256 166.232 216.845 167.135Z" fill="white"/>
<path d="M144.76 88.5781C144.445 90.8574 123.659 112.589 123.659 112.589L128.472 115.321L144.76 88.5781Z" fill="white"/>
<path d="M138.63 80.5615C137.726 80.817 103.461 97.0471 103.461 97.0471L101.634 93.3531L138.63 80.5615Z" fill="white"/>
<path d="M137.137 72.2695C135.29 72.8394 101.634 77.3194 101.634 77.3194V72.2695H137.137Z" fill="white"/>
<path d="M128.453 93.2939C126.704 94.2175 106.841 106.537 106.841 106.537L111.733 110.349L128.453 93.2939Z" fill="white"/>
</svg>
