<svg width="32" height="32" viewBox="0 0 32 32" fill="none" xmlns="http://www.w3.org/2000/svg">
<path d="M15.9998 27.9998C14.3158 26.5633 12.7548 24.9885 11.3332 23.2918C9.19984 20.7438 6.66651 16.9491 6.66651 13.3331C6.66558 11.4864 7.21252 9.68092 8.2381 8.14517C9.26368 6.60941 10.7218 5.41241 12.4279 4.70566C14.1341 3.99891 16.0115 3.81418 17.8227 4.17485C19.6338 4.53552 21.2973 5.42537 22.6025 6.7318C23.4715 7.59694 24.1603 8.62585 24.629 9.75896C25.0977 10.8921 25.3371 12.1069 25.3332 13.3331C25.3332 16.9491 22.7998 20.7438 20.6665 23.2918C19.2449 24.9885 17.6839 26.5633 15.9998 27.9998ZM15.9998 9.33313C14.939 9.33313 13.9216 9.75456 13.1714 10.5047C12.4213 11.2548 11.9998 12.2723 11.9998 13.3331C11.9998 14.394 12.4213 15.4114 13.1714 16.1616C13.9216 16.9117 14.939 17.3331 15.9998 17.3331C17.0607 17.3331 18.0781 16.9117 18.8283 16.1616C19.5784 15.4114 19.9998 14.394 19.9998 13.3331C19.9998 12.2723 19.5784 11.2548 18.8283 10.5047C18.0781 9.75456 17.0607 9.33313 15.9998 9.33313Z" fill="#494961"/>
</svg>
