<svg width="100" height="100" viewBox="0 0 100 100" fill="none" xmlns="http://www.w3.org/2000/svg">
<path d="M9 50.4639C12.3452 58.5759 18.0819 65.5233 25.4754 70.4162C32.8689 75.3091 41.5824 77.9247 50.5 77.9279C59.4176 77.9247 68.1311 75.3091 75.5246 70.4162C82.9181 65.5233 88.6548 58.5759 92 50.4639H9Z" fill="white" stroke="#A7A7A7" stroke-width="0.124642"/>
<path d="M92 50.464C88.6548 42.352 82.9181 35.4046 75.5246 30.5117C68.1311 25.6188 59.4176 23.0032 50.5 23C41.5824 23.0032 32.8689 25.6188 25.4754 30.5117C18.0819 35.4046 12.3452 42.352 9 50.464H92Z" fill="white" stroke="#B8B8B8" stroke-width="0.124642"/>
<path d="M50.5001 26.0796C42.5826 26.0825 34.8462 28.4047 28.282 32.7488C21.7177 37.093 16.6243 43.2613 13.6543 50.4636H87.3458C87.3482 50.4582 87.3506 50.4528 87.3531 50.4474C84.38 43.247 79.2844 37.0814 72.7189 32.7402C66.1534 28.3989 58.4169 26.0797 50.5001 26.0796Z" fill="white"/>
<path d="M50.5005 74.8474C58.4179 74.8445 66.1543 72.5223 72.7186 68.1781C79.2829 63.834 84.3762 57.6657 87.3462 50.4634H13.6547C13.6523 50.4688 13.6499 50.4742 13.6475 50.4796C16.6205 57.68 21.7161 63.8456 28.2816 68.1868C34.8471 72.528 42.5836 74.8472 50.5004 74.8474L50.5005 74.8474Z" fill="#494961"/>
<path d="M75.3107 49.4123C75.3003 49.2457 75.2875 49.0793 75.2721 48.9131C75.2563 48.7412 75.2377 48.5696 75.2165 48.3983C75.1953 48.227 75.1714 48.0561 75.1449 47.8855C75.1185 47.715 75.0895 47.5448 75.0578 47.3752C75.0261 47.2054 74.9918 47.0362 74.9549 46.8675C74.918 46.6988 74.8786 46.5307 74.8365 46.3631C74.7944 46.1956 74.7497 46.0287 74.7024 45.8625C74.6553 45.6963 74.6055 45.5308 74.5533 45.3661C74.501 45.2015 74.4461 45.0376 74.3888 44.8745C74.3314 44.7114 74.2716 44.5492 74.2092 44.3878C74.1468 44.2265 74.082 44.0661 74.0147 43.9066C73.9474 43.7473 73.8777 43.5889 73.8056 43.4316C73.7334 43.2743 73.6589 43.1181 73.5819 42.963C73.5049 42.8078 73.4256 42.6538 73.3438 42.501C73.2621 42.3482 73.1781 42.1967 73.0917 42.0465C73.0054 41.8962 72.9167 41.7472 72.8258 41.5995C72.7348 41.4519 72.6416 41.3056 72.5461 41.1607C72.4506 41.0158 72.3529 40.8724 72.253 40.7304C72.1532 40.5884 72.0511 40.4478 71.9469 40.3088C71.8428 40.1699 71.7365 40.0325 71.6281 39.8967C71.5196 39.7609 71.409 39.6268 71.2964 39.4943C71.1839 39.3617 71.0693 39.2308 70.9527 39.1017C70.8362 38.9725 70.7176 38.8451 70.5971 38.7194C70.4766 38.5938 70.3542 38.47 70.2299 38.348C70.1055 38.226 69.9793 38.1059 69.8513 37.9876C69.7233 37.8693 69.5935 37.7529 69.4619 37.6385C69.3303 37.5241 69.1969 37.4117 69.0619 37.3012C68.9268 37.1908 68.7901 37.0823 68.6518 36.9759C68.5133 36.8696 68.3732 36.7652 68.2316 36.663C68.09 36.5607 67.9469 36.4605 67.8022 36.3625C67.6575 36.2645 67.5113 36.1686 67.3637 36.075C67.2161 35.9813 67.067 35.8898 66.9165 35.8006C66.7661 35.7113 66.6142 35.6243 66.4611 35.5396C66.308 35.4548 66.1536 35.3724 65.9979 35.2922C65.8422 35.212 65.6853 35.1341 65.5272 35.0586C65.3691 34.983 65.2099 34.9099 65.0496 34.8391C64.8893 34.7683 64.7278 34.6999 64.5654 34.6339C64.403 34.5678 64.2396 34.5042 64.0752 34.443C63.9108 34.3818 63.7455 34.323 63.5793 34.2667C63.4131 34.2105 63.2461 34.1567 63.0783 34.1053C62.9104 34.054 62.7417 34.0052 62.5723 33.9589C62.403 33.9126 62.233 33.8687 62.0623 33.8274C61.8916 33.7861 61.7203 33.7474 61.5484 33.7112C61.3765 33.675 61.204 33.6413 61.0311 33.6102C60.8582 33.5791 60.6848 33.5505 60.511 33.5245C60.3372 33.4986 60.163 33.4752 59.9884 33.4544C59.8139 33.4337 59.639 33.4155 59.4639 33.3999C59.2888 33.3843 59.1136 33.3713 58.9381 33.3608C58.7626 33.3504 58.587 33.3426 58.4112 33.3374C58.2355 33.3322 58.0596 33.3296 57.8838 33.3296C57.3758 33.3296 56.8681 33.3513 56.362 33.3947C55.856 33.4382 55.3521 33.5033 54.8519 33.5899C54.3516 33.6764 53.8555 33.7844 53.3648 33.9134C52.8742 34.0424 52.3895 34.1923 51.9121 34.3628C51.4348 34.5333 50.9653 34.7242 50.5049 34.9349C50.0446 35.1456 49.5938 35.3758 49.1539 35.625C48.714 35.8743 48.2854 36.1422 47.8693 36.4282C47.4531 36.7141 47.0499 37.0177 46.6607 37.3381C46.2716 37.6586 45.8969 37.9955 45.5377 38.348C45.1786 38.7005 44.8353 39.0682 44.5088 39.4501C44.1823 39.8319 43.8729 40.2276 43.5815 40.6359C43.2902 41.0442 43.0171 41.4648 42.7631 41.8965C42.5091 42.3282 42.2744 42.7706 42.0597 43.2224C41.8451 43.6742 41.6506 44.135 41.4769 44.6034C41.3031 45.0719 41.1502 45.5475 41.0187 46.029C40.8873 46.5105 40.7773 46.9974 40.6891 47.4884C40.6009 47.9793 40.5345 48.4737 40.4902 48.9703C40.446 49.4669 40.4238 49.9652 40.4238 50.4637C40.4238 50.9621 40.446 51.4603 40.4902 51.9569C40.5345 52.4535 40.6008 52.948 40.6891 53.439C40.7773 53.9299 40.8873 54.4168 41.0187 54.8983C41.1502 55.3798 41.3031 55.8555 41.4769 56.3239C41.6506 56.7923 41.8451 57.253 42.0597 57.7048C42.2744 58.1566 42.5091 58.5989 42.7631 59.0306C43.0171 59.4623 43.2902 59.8829 43.5815 60.2913C43.8729 60.6996 44.1823 61.0953 44.5088 61.4772C44.8353 61.859 45.1786 62.2267 45.5377 62.5791C45.8969 62.9316 46.2716 63.2686 46.6607 63.589C47.0499 63.9095 47.4531 64.2131 47.8693 64.499C48.2854 64.7849 48.714 65.0529 49.1539 65.3021C49.5938 65.5514 50.0446 65.7817 50.5049 65.9924C50.9653 66.203 51.4348 66.3939 51.9121 66.5644C52.3895 66.7348 52.8741 66.8848 53.3648 67.0138C53.8555 67.1429 54.3516 67.2508 54.8519 67.3375C55.3521 67.424 55.856 67.489 56.362 67.5324C56.8681 67.5759 57.3758 67.5977 57.8838 67.5978C58.3918 67.5977 58.8995 67.5759 59.4056 67.5324C59.9116 67.489 60.4155 67.424 60.9157 67.3375C61.416 67.2508 61.9121 67.1429 62.4028 67.0138C62.8934 66.8848 63.3781 66.7348 63.8555 66.5644C64.3328 66.3939 64.8023 66.203 65.2627 65.9924C65.7231 65.7817 66.1739 65.5514 66.6139 65.3021C67.0538 65.0529 67.4824 64.7849 67.8985 64.499C68.3146 64.2131 68.7177 63.9095 69.1068 63.589C69.496 63.2686 69.8707 62.9316 70.2299 62.5791C70.5891 62.2267 70.9325 61.8591 71.259 61.4772C71.5855 61.0953 71.8949 60.6996 72.1863 60.2913C72.4776 59.8829 72.7507 59.4623 73.0047 59.0306C73.2586 58.5989 73.4932 58.1566 73.7079 57.7048C73.9225 57.253 74.117 56.7923 74.2907 56.3239C74.4645 55.8555 74.6174 55.3798 74.7489 54.8983C74.8803 54.4168 74.9903 53.9299 75.0785 53.439C75.1642 52.9594 75.229 52.4765 75.2727 51.9915C75.2752 51.9609 75.2776 51.9303 75.2799 51.8997C75.283 51.8374 75.2858 51.775 75.2882 51.7127C74.9695 55.3643 73.2665 58.7658 70.5158 61.2449C67.7651 63.724 64.1668 65.1002 60.432 65.1017C56.4759 65.1017 52.6819 63.5595 49.8845 60.8143C47.0871 58.0692 45.5156 54.3459 45.5156 50.4637C45.5156 46.5814 47.0871 42.8582 49.8845 40.113C52.6819 37.3679 56.4759 35.8257 60.432 35.8256C64.3019 35.8266 68.0199 37.3035 70.8009 39.9443C73.5819 42.5851 75.2082 46.1832 75.3364 49.9788C75.3363 49.9679 75.3361 49.957 75.3359 49.9461C75.3318 49.8336 75.3266 49.7212 75.3203 49.6088C75.3174 49.5433 75.3142 49.4778 75.3107 49.4123H75.3107Z" fill="#E2E6FF"/>
<path d="M75.0771 53.4445C75.0776 53.4427 75.0781 53.4409 75.0786 53.4392C75.1643 52.9596 75.2291 52.4767 75.2729 51.9917C75.2226 52.4778 75.1574 52.9623 75.0774 53.4445L75.0771 53.4445Z" fill="#FF3C0A"/>
<path d="M75.1143 47.7041C75.2004 48.2713 75.2661 48.8412 75.3112 49.4129C75.3009 49.2464 75.288 49.0799 75.2727 48.9137C75.2568 48.7419 75.2382 48.5703 75.2171 48.399C75.1958 48.2277 75.1719 48.0567 75.1454 47.8862C75.1354 47.8254 75.125 47.7647 75.1143 47.7041H75.1143Z" fill="#FF3C0A"/>
<path d="M74.9739 46.4851C74.9604 46.4154 74.9466 46.3458 74.9323 46.2762C74.896 46.1057 74.8574 45.9356 74.8166 45.7661C74.7758 45.5965 74.7328 45.4274 74.6876 45.2589C74.6424 45.0904 74.595 44.9224 74.5454 44.7551C74.4958 44.5878 74.444 44.4212 74.39 44.2552C74.3359 44.0892 74.2797 43.9239 74.2214 43.7593C74.1631 43.5948 74.1026 43.4309 74.04 43.2679C73.9773 43.1048 73.9125 42.9426 73.8456 42.7812C73.7788 42.6198 73.7098 42.4592 73.6387 42.2995C73.5676 42.1398 73.4944 41.981 73.4192 41.8232C73.3438 41.6654 73.2665 41.5086 73.187 41.3528C73.1077 41.1969 73.0263 41.042 72.9429 40.8882C72.8594 40.7344 72.7739 40.5817 72.6864 40.4301C72.599 40.2784 72.5095 40.1278 72.4181 39.9784C72.3267 39.829 72.2334 39.6808 72.1381 39.5338C72.0428 39.3867 71.9456 39.2409 71.8464 39.0964C71.7473 38.9518 71.6463 38.8085 71.5434 38.6665C71.4405 38.5245 71.3358 38.3839 71.2292 38.2445C71.1227 38.1051 71.0143 37.9671 70.9041 37.8304C70.7938 37.6938 70.6819 37.5586 70.5681 37.4248C70.4544 37.291 70.3389 37.1586 70.2217 37.0276C70.1045 36.8968 69.9855 36.7674 69.8649 36.6395C69.7443 36.5116 69.622 36.3853 69.4981 36.2605C69.3742 36.1358 69.2487 36.0126 69.1215 35.8909C68.9943 35.7693 68.8655 35.6493 68.7352 35.5309C68.6049 35.4126 68.473 35.2959 68.3397 35.1809C68.2063 35.0658 68.0715 34.9524 67.9351 34.8408C67.7987 34.7292 67.6609 34.6194 67.5216 34.5113C67.3824 34.4031 67.2418 34.2968 67.0998 34.1922C66.9578 34.0875 66.8145 33.9847 66.6698 33.8837C66.525 33.7828 66.3789 33.6837 66.2316 33.5865C66.0843 33.4892 65.9357 33.3938 65.7859 33.3002C65.636 33.2067 65.485 33.115 65.3328 33.0253C65.1805 32.9356 65.0271 32.8478 64.8726 32.762C64.7181 32.6762 64.5624 32.5924 64.4057 32.5105C64.249 32.4286 64.0912 32.3487 63.9324 32.2707C63.7736 32.1928 63.6137 32.117 63.4529 32.0431C63.292 31.9693 63.1303 31.8974 62.9675 31.8277C62.8049 31.7579 62.6413 31.6901 62.4768 31.6244C62.3124 31.5588 62.147 31.4953 61.9809 31.4339C61.8148 31.3724 61.6478 31.313 61.4801 31.2557C61.3124 31.1985 61.1438 31.1434 60.9746 31.0904C60.8055 31.0374 60.6357 30.9866 60.4652 30.9379C60.2948 30.8891 60.1237 30.8426 59.952 30.7982C59.7803 30.7538 59.608 30.7116 59.4352 30.6716C59.2624 30.6316 59.089 30.5938 58.9152 30.5582C58.7414 30.5225 58.5671 30.489 58.3924 30.4577C58.2177 30.4265 58.0426 30.3975 57.8672 30.3707C57.6917 30.3438 57.516 30.3192 57.3399 30.2968C57.1638 30.2745 56.9875 30.2544 56.8109 30.2364C56.6342 30.2186 56.4573 30.2029 56.2802 30.1895C56.1032 30.176 55.926 30.1648 55.7487 30.1557C55.5713 30.1468 55.3939 30.1401 55.2164 30.1356C55.0389 30.1311 54.8614 30.1289 54.6839 30.1289C54.1681 30.1289 53.6524 30.1478 53.138 30.1856C52.6236 30.2234 52.1108 30.2802 51.6007 30.3556C51.0906 30.4311 50.5836 30.5252 50.0807 30.6378C49.5779 30.7505 49.0795 30.8815 48.5866 31.0307C48.0937 31.1799 47.6066 31.3471 47.1264 31.5321C46.6462 31.717 46.1733 31.9195 45.7086 32.1392C45.2439 32.3588 44.7877 32.5954 44.341 32.8485C43.8943 33.1016 43.4573 33.3711 43.0312 33.6562C42.605 33.9414 42.1898 34.2421 41.7865 34.5577C41.3832 34.8733 40.9921 35.2036 40.6139 35.5478C40.2358 35.8922 39.8709 36.2502 39.5201 36.6213C39.1692 36.9924 38.8326 37.3762 38.5109 37.772C38.1893 38.1677 37.8829 38.5752 37.5923 38.9934C37.3018 39.4117 37.0273 39.8404 36.7694 40.2788C36.5115 40.7171 36.2704 41.1648 36.0466 41.6209C35.8227 42.077 35.6164 42.5411 35.4279 43.0124C35.2395 43.4836 35.0691 43.9615 34.917 44.4452C34.765 44.9289 34.6314 45.418 34.5167 45.9116C34.4018 46.4051 34.3058 46.9026 34.2289 47.4032C34.1521 47.9037 34.0943 48.4069 34.0558 48.9116C34.0173 49.4164 33.998 49.9225 33.998 50.4287C33.998 50.9349 34.0173 51.4409 34.0558 51.9457C34.0943 52.4505 34.1521 52.9536 34.2289 53.4541C34.3058 53.9547 34.4018 54.4523 34.5167 54.9458C34.6314 55.4393 34.765 55.9284 34.917 56.4122C35.0691 56.8958 35.2395 57.3738 35.4279 57.845C35.6164 58.3162 35.8227 58.7804 36.0466 59.2365C36.2704 59.6925 36.5115 60.1402 36.7694 60.5786C37.0273 61.0169 37.3018 61.4457 37.5923 61.8639C37.8829 62.2822 38.1893 62.6896 38.5109 63.0854C38.8326 63.4811 39.1692 63.865 39.5201 64.236C39.8709 64.6071 40.2358 64.9652 40.6139 65.3095C40.9921 65.6538 41.3832 65.9841 41.7865 66.2996C42.1898 66.6152 42.605 66.9159 43.0312 67.2011C43.4573 67.4863 43.8943 67.7557 44.341 68.0088C44.7877 68.2619 45.2439 68.4985 45.7086 68.7182C46.1733 68.9378 46.6462 69.1403 47.1264 69.3253C47.6066 69.5102 48.0937 69.6774 48.5866 69.8266C49.0795 69.9758 49.5779 70.1069 50.0807 70.2195C50.5836 70.3321 51.0906 70.4263 51.6007 70.5017C52.1108 70.5772 52.6236 70.6339 53.138 70.6718C53.6524 70.7096 54.1681 70.7285 54.6839 70.7284C55.1997 70.7285 55.7153 70.7096 56.2296 70.6718C56.7441 70.6339 57.2568 70.5772 57.7669 70.5017C58.277 70.4263 58.784 70.3321 59.2869 70.2195C59.7898 70.1069 60.2883 69.9758 60.7812 69.8266C61.2741 69.6774 61.7611 69.5102 62.2413 69.3253C62.7214 69.1403 63.1944 68.9378 63.6591 68.7182C64.1239 68.4985 64.5801 68.2619 65.0268 68.0088C65.4736 67.7557 65.9105 67.4863 66.3367 67.2011C66.7629 66.9159 67.1781 66.6152 67.5814 66.2996C67.9846 65.9841 68.3758 65.6538 68.7539 65.3095C69.132 64.9652 69.4968 64.6071 69.8476 64.236C70.1985 63.865 70.5351 63.4811 70.8567 63.0854C71.1784 62.6896 71.4848 62.2822 71.7754 61.8639C72.066 61.4457 72.3405 61.0169 72.5984 60.5786C72.8563 60.1402 73.0973 59.6925 73.3211 59.2365C73.5449 58.7804 73.7513 58.3162 73.9398 57.845C74.1282 57.3738 74.2987 56.8958 74.4508 56.4122C74.6028 55.9284 74.7364 55.4393 74.8512 54.9458C74.88 54.8046 74.9073 54.6632 74.9331 54.5214C74.9894 54.1636 75.0377 53.8047 75.0777 53.4448C74.9898 53.9339 74.8802 54.419 74.7493 54.8988C74.6178 55.3803 74.465 55.856 74.2912 56.3244C74.1175 56.7928 73.923 57.2535 73.7083 57.7053C73.4937 58.1571 73.2591 58.5994 73.0051 59.0311C72.7511 59.4628 72.4781 59.8834 72.1867 60.2918C71.8954 60.7001 71.586 61.0958 71.2595 61.4777C70.9329 61.8595 70.5895 62.2272 70.2303 62.5796C69.8711 62.9321 69.4964 63.2691 69.1073 63.5895C68.7182 63.91 68.315 64.2136 67.899 64.4995C67.4829 64.7854 67.0542 65.0534 66.6143 65.3026C66.1744 65.5519 65.7235 65.7822 65.2631 65.9929C64.8028 66.2035 64.3333 66.3944 63.8559 66.5649C63.3786 66.7353 62.8939 66.8853 62.4032 67.0143C61.9126 67.1434 61.4164 67.2513 60.9162 67.338C60.4159 67.4245 59.9121 67.4895 59.4061 67.5329C58.9 67.5764 58.3922 67.5982 57.8843 67.5983C57.3763 67.5982 56.8685 67.5764 56.3624 67.5329C55.8564 67.4895 55.3526 67.4245 54.8523 67.338C54.3521 67.2513 53.8559 67.1434 53.3653 67.0143C52.8746 66.8853 52.3899 66.7353 51.9126 66.5649C51.4353 66.3944 50.9657 66.2035 50.5054 65.9929C50.045 65.7822 49.5943 65.5519 49.1544 65.3026C48.7144 65.0534 48.2858 64.7854 47.8697 64.4995C47.4536 64.2136 47.0504 63.91 46.6612 63.5895C46.2721 63.2691 45.8974 62.9321 45.5382 62.5796C45.179 62.2272 44.8357 61.8595 44.5092 61.4777C44.1827 61.0958 43.8733 60.7001 43.582 60.2918C43.2906 59.8834 43.0176 59.4628 42.7636 59.0311C42.5096 58.5994 42.2749 58.1571 42.0602 57.7053C41.8455 57.2535 41.651 56.7928 41.4773 56.3244C41.3035 55.856 41.1507 55.3803 41.0192 54.8988C40.8877 54.4173 40.7777 53.9304 40.6895 53.4395C40.6013 52.9485 40.535 52.454 40.4907 51.9574C40.4464 51.4608 40.4243 50.9626 40.4243 50.4642C40.4243 49.9657 40.4464 49.4674 40.4907 48.9708C40.535 48.4742 40.6013 47.9797 40.6895 47.4888C40.7777 46.9979 40.8877 46.511 41.0192 46.0295C41.1507 45.548 41.3035 45.0724 41.4773 44.6039C41.651 44.1355 41.8455 43.6747 42.0602 43.2229C42.2749 42.7711 42.5096 42.3287 42.7636 41.897C43.0176 41.4653 43.2906 41.0447 43.582 40.6364C43.8733 40.2281 44.1827 39.8324 44.5092 39.4506C44.8357 39.0687 45.179 38.701 45.5382 38.3485C45.8974 37.996 46.2721 37.6591 46.6612 37.3386C47.0504 37.0182 47.4536 36.7146 47.8697 36.4287C48.2858 36.1427 48.7144 35.8748 49.1544 35.6255C49.5943 35.3763 50.045 35.1461 50.5054 34.9354C50.9657 34.7247 51.4352 34.5338 51.9126 34.3633C52.3899 34.1928 52.8746 34.0429 53.3653 33.9139C53.8559 33.7849 54.3521 33.6769 54.8523 33.5904C55.3526 33.5038 55.8564 33.4387 56.3624 33.3952C56.8685 33.3518 57.3763 33.3301 57.8843 33.3301C58.0601 33.3301 58.2359 33.3327 58.4117 33.3379C58.5874 33.3431 58.7631 33.3509 58.9386 33.3613C59.114 33.3717 59.2893 33.3848 59.4644 33.4004C59.6395 33.416 59.8143 33.4341 59.9889 33.4549C60.1634 33.4757 60.3376 33.4991 60.5115 33.525C60.6852 33.551 60.8586 33.5796 61.0315 33.6107C61.2045 33.6418 61.3769 33.6755 61.5489 33.7117C61.7207 33.7479 61.8921 33.7866 62.0628 33.8279C62.2334 33.8692 62.4034 33.9131 62.5727 33.9594C62.7422 34.0057 62.9108 34.0545 63.0788 34.1058C63.2466 34.1572 63.4136 34.211 63.5797 34.2672C63.7459 34.3235 63.9113 34.3823 64.0757 34.4435C64.24 34.5047 64.4034 34.5683 64.5658 34.6344C64.7283 34.7004 64.8897 34.7688 65.0501 34.8395C65.2104 34.9104 65.3696 34.9835 65.5276 35.059C65.6857 35.1346 65.8427 35.2125 65.9984 35.2927C66.154 35.3728 66.3084 35.4553 66.4616 35.5401C66.6147 35.6248 66.7665 35.7118 66.917 35.8011C67.0675 35.8903 67.2165 35.9818 67.3642 36.0755C67.5118 36.1691 67.658 36.265 67.8027 36.363C67.9473 36.461 68.0905 36.5612 68.232 36.6635C68.3737 36.7657 68.5138 36.8701 68.6522 36.9764C68.7906 37.0828 68.9273 37.1913 69.0623 37.3017C69.1974 37.4121 69.3307 37.5246 69.4623 37.639C69.5939 37.7534 69.7237 37.8698 69.8517 37.9881C69.9798 38.1064 70.106 38.2265 70.2303 38.3485C70.3547 38.4705 70.4771 38.5943 70.5976 38.7199C70.7181 38.8455 70.8366 38.973 70.9532 39.1022C71.0698 39.2313 71.1843 39.3622 71.2969 39.4947C71.4095 39.6272 71.52 39.7614 71.6285 39.8972C71.7369 40.033 71.8432 40.1704 71.9474 40.3093C72.0516 40.4483 72.1536 40.5888 72.2535 40.7309C72.3534 40.8728 72.4511 41.0163 72.5466 41.1612C72.6421 41.3061 72.7353 41.4524 72.8262 41.6C72.9172 41.7477 73.0059 41.8967 73.0922 42.047C73.1786 42.1972 73.2626 42.3487 73.3443 42.5015C73.426 42.6543 73.5054 42.8083 73.5824 42.9634C73.6593 43.1186 73.7339 43.2748 73.806 43.4321C73.8782 43.5894 73.9479 43.7478 74.0151 43.9071C74.0825 44.0666 74.1473 44.227 74.2097 44.3883C74.272 44.5497 74.3319 44.7119 74.3893 44.875C74.4466 45.0381 74.5014 45.2019 74.5537 45.3666C74.606 45.5313 74.6557 45.6968 74.7029 45.863C74.7502 46.0292 74.7948 46.1961 74.837 46.3636C74.879 46.5311 74.9185 46.6993 74.9554 46.868C74.9923 47.0367 75.0266 47.2059 75.0583 47.3757C75.078 47.4849 75.0967 47.5943 75.1143 47.7039C75.0779 47.2966 75.0311 46.8902 74.9739 46.4851H74.9739Z" fill="#B8C2FF"/>
<path d="M50.5002 26.0801C47.2371 26.0801 44.006 26.7108 40.9913 27.9362C37.9766 29.1616 35.2374 30.9577 32.9301 33.222C30.6227 35.4862 28.7925 38.1743 27.5437 41.1327C26.295 44.0912 25.6523 47.262 25.6523 50.4641C25.6524 53.6663 26.2951 56.8371 27.5438 59.7955C28.7925 62.7539 30.6228 65.4419 32.9301 67.7062C35.2375 69.9704 37.9767 71.7665 40.9913 72.9919C44.006 74.2173 47.2371 74.848 50.5002 74.848C56.3614 74.8319 62.0282 72.783 66.499 69.0634C70.9697 65.3439 73.9567 60.1931 74.932 54.5214C74.9062 54.6631 74.8789 54.8046 74.8501 54.9457C74.7353 55.4393 74.6018 55.9284 74.4497 56.4121C74.2976 56.8958 74.1272 57.3738 73.9387 57.8449C73.7502 58.3162 73.5438 58.7803 73.32 59.2365C73.0963 59.6925 72.8552 60.1402 72.5973 60.5785C72.3394 61.0169 72.0649 61.4457 71.7743 61.8639C71.4837 62.2822 71.1773 62.6896 70.8557 63.0854C70.534 63.4811 70.1974 63.8649 69.8465 64.236C69.4957 64.6071 69.1309 64.9651 68.7528 65.3095C68.3747 65.6537 67.9836 65.984 67.5803 66.2996C67.177 66.6152 66.7618 66.9159 66.3356 67.2011C65.9094 67.4862 65.4725 67.7557 65.0258 68.0088C64.579 68.2619 64.1228 68.4985 63.658 68.7181C63.1933 68.9378 62.7204 69.1403 62.2402 69.3252C61.7601 69.5102 61.273 69.6774 60.7801 69.8266C60.2872 69.9758 59.7888 70.1068 59.2859 70.2195C58.7829 70.3321 58.2759 70.4262 57.7659 70.5017C57.2558 70.5771 56.743 70.6339 56.2286 70.6717C55.7142 70.7095 55.1986 70.7284 54.6828 70.7284C54.167 70.7284 53.6513 70.7095 53.1369 70.6717C52.6225 70.6339 52.1097 70.5771 51.5996 70.5017C51.0896 70.4262 50.5825 70.3321 50.0796 70.2195C49.5768 70.1068 49.0784 69.9758 48.5856 69.8266C48.0926 69.6774 47.6055 69.5102 47.1253 69.3252C46.6451 69.1403 46.1722 68.9378 45.7075 68.7181C45.2428 68.4985 44.7866 68.2619 44.3399 68.0088C43.8932 67.7557 43.4563 67.4862 43.0301 67.2011C42.6039 66.9159 42.1887 66.6152 41.7854 66.2996C41.3821 65.984 40.991 65.6537 40.6129 65.3095C40.2347 64.9652 39.8698 64.6071 39.519 64.236C39.1681 63.8649 38.8315 63.4811 38.5098 63.0854C38.1882 62.6896 37.8818 62.2822 37.5912 61.8639C37.3007 61.4457 37.0262 61.0169 36.7683 60.5785C36.5104 60.1402 36.2693 59.6925 36.0455 59.2365C35.8217 58.7803 35.6153 58.3162 35.4268 57.8449C35.2384 57.3738 35.068 56.8958 34.916 56.4121C34.7639 55.9284 34.6304 55.4393 34.5156 54.9457C34.4008 54.4522 34.3048 53.9547 34.2278 53.4541C34.151 52.9536 34.0933 52.4504 34.0547 51.9457C34.0162 51.4409 33.9969 50.9349 33.997 50.4286C33.9969 49.9224 34.0162 49.4164 34.0547 48.9116C34.0933 48.4068 34.151 47.9037 34.2278 47.4032C34.3048 46.9026 34.4008 46.4051 34.5156 45.9115C34.6304 45.418 34.7639 44.9289 34.916 44.4452C35.068 43.9615 35.2384 43.4835 35.4268 43.0123C35.6153 42.5411 35.8217 42.0769 36.0455 41.6208C36.2693 41.1648 36.5104 40.7171 36.7683 40.2788C37.0262 39.8404 37.3007 39.4116 37.5912 38.9934C37.8818 38.5751 38.1882 38.1677 38.5098 37.7719C38.8315 37.3762 39.1681 36.9923 39.519 36.6213C39.8698 36.2502 40.2347 35.8921 40.6129 35.5478C40.991 35.2035 41.3821 34.8733 41.7854 34.5577C42.1887 34.2421 42.6039 33.9414 43.0301 33.6562C43.4563 33.371 43.8932 33.1016 44.3399 32.8485C44.7866 32.5954 45.2428 32.3588 45.7075 32.1391C46.1722 31.9195 46.6451 31.717 47.1253 31.532C47.6055 31.3471 48.0926 31.1799 48.5856 31.0307C49.0784 30.8815 49.5768 30.7504 50.0796 30.6378C50.5825 30.5252 51.0896 30.431 51.5996 30.3556C52.1097 30.2801 52.6225 30.2234 53.1369 30.1856C53.6513 30.1478 54.167 30.1288 54.6828 30.1289C54.8603 30.1289 55.0378 30.1311 55.2153 30.1356C55.3928 30.1401 55.5702 30.1468 55.7476 30.1557C55.9249 30.1647 56.1021 30.176 56.2791 30.1894C56.4562 30.2029 56.6331 30.2185 56.8098 30.2364C56.9864 30.2543 57.1628 30.2744 57.3388 30.2968C57.5149 30.3192 57.6907 30.3438 57.8661 30.3706C58.0415 30.3974 58.2166 30.4264 58.3913 30.4577C58.566 30.489 58.7403 30.5225 58.9141 30.5582C59.0879 30.5938 59.2613 30.6315 59.4341 30.6715C59.6069 30.7116 59.7792 30.7538 59.9509 30.7981C60.1226 30.8425 60.2937 30.8891 60.4641 30.9378C60.6346 30.9865 60.8044 31.0374 60.9736 31.0904C61.1428 31.1434 61.3113 31.1985 61.479 31.2557C61.6467 31.313 61.8137 31.3724 61.9798 31.4339C62.146 31.4953 62.3113 31.5588 62.4758 31.6244C62.6402 31.6901 62.8038 31.7578 62.9665 31.8276C63.1292 31.8974 63.291 31.9692 63.4518 32.0431C63.6126 32.1169 63.7725 32.1928 63.9313 32.2707C64.0901 32.3486 64.2479 32.4286 64.4046 32.5105C64.5613 32.5924 64.717 32.6762 64.8716 32.762C65.0261 32.8478 65.1795 32.9356 65.3317 33.0253C65.4839 33.115 65.635 33.2067 65.7848 33.3002C65.9346 33.3937 66.0832 33.4892 66.2305 33.5865C66.3779 33.6837 66.5239 33.7827 66.6687 33.8836C66.8134 33.9847 66.9567 34.0875 67.0987 34.1921C67.2407 34.2967 67.3813 34.4031 67.5205 34.5112C67.6598 34.6193 67.7977 34.7292 67.9341 34.8407C68.0704 34.9524 68.2052 35.0658 68.3386 35.1809C68.4719 35.2959 68.6038 35.4125 68.7341 35.5309C68.8644 35.6492 68.9932 35.7693 69.1204 35.8909C69.2476 36.0125 69.3731 36.1357 69.4971 36.2605C69.621 36.3853 69.7432 36.5116 69.8638 36.6395C69.9844 36.7673 70.1034 36.8967 70.2206 37.0276C70.3378 37.1585 70.4533 37.2909 70.567 37.4248C70.6808 37.5585 70.7928 37.6938 70.903 37.8304C71.0132 37.967 71.1216 38.1051 71.2281 38.2445C71.3347 38.3838 71.4394 38.5245 71.5423 38.6665C71.6452 38.8085 71.7462 38.9518 71.8454 39.0963C71.9445 39.2409 72.0417 39.3867 72.1371 39.5337C72.2323 39.6808 72.3257 39.829 72.417 39.9784C72.5084 40.1278 72.5979 40.2784 72.6853 40.4301C72.7728 40.5817 72.8583 40.7344 72.9418 40.8882C73.0252 41.042 73.1066 41.1969 73.186 41.3528C73.2654 41.5086 73.3428 41.6654 73.4181 41.8232C73.4933 41.981 73.5665 42.1398 73.6376 42.2994C73.7087 42.4591 73.7777 42.6197 73.8446 42.7812C73.9115 42.9426 73.9762 43.1048 74.0389 43.2678C74.1015 43.4309 74.162 43.5947 74.2203 43.7593C74.2787 43.9239 74.3349 44.0892 74.3889 44.2551C74.4429 44.4211 74.4947 44.5878 74.5444 44.7551C74.5939 44.9224 74.6413 45.0903 74.6865 45.2589C74.7318 45.4274 74.7748 45.5964 74.8155 45.766C74.8563 45.9356 74.8949 46.1057 74.9313 46.2762C74.9455 46.3457 74.9593 46.4154 74.9728 46.4851C74.0133 40.7923 71.0277 35.6178 66.5468 31.8817C62.0659 28.1455 56.3801 26.0898 50.5002 26.0801L50.5002 26.0801Z" fill="#98A6FF"/>
<path d="M75.2876 51.7128C75.2852 51.7752 75.2824 51.8375 75.2793 51.8998C75.2891 51.7858 75.298 51.6718 75.3061 51.5576C75.3002 51.6094 75.294 51.6611 75.2876 51.7128Z" fill="#FF6600"/>
<path d="M75.3194 49.6089C75.3257 49.7215 75.3309 49.8341 75.335 49.9468C75.3352 49.9577 75.3354 49.9686 75.3355 49.9795C75.338 50.0141 75.3403 50.0487 75.3426 50.0833C75.3364 49.9251 75.3286 49.767 75.3193 49.6089L75.3194 49.6089Z" fill="#FF6600"/>
<path d="M60.4269 38.0806C60.2083 38.0806 59.9918 38.1228 59.7897 38.2049C59.5877 38.2871 59.4042 38.4074 59.2496 38.5591C59.0949 38.7109 58.9723 38.891 58.8886 39.0892C58.8049 39.2875 58.7619 39.5 58.7619 39.7145C58.7629 40.0866 58.8933 40.4473 59.1315 40.7368C59.3698 41.0263 59.7016 41.2273 60.0721 41.3066V42.5777C58.5404 42.6579 57.083 43.2505 55.9425 44.257L54.7316 43.0688C54.7642 42.9804 54.781 42.8871 54.7813 42.7931C54.7813 42.6858 54.7598 42.5796 54.718 42.4804C54.6761 42.3813 54.6148 42.2912 54.5375 42.2154C54.4602 42.1395 54.3684 42.0793 54.2673 42.0382C54.1663 41.9972 54.058 41.9761 53.9487 41.9761C53.8341 41.9761 53.7208 41.9993 53.6158 42.0443C53.5108 42.0893 53.4164 42.155 53.3385 42.2374C53.1956 42.3885 53.1163 42.587 53.1163 42.7931C53.1163 42.9004 53.1378 43.0067 53.1797 43.1058C53.2215 43.2049 53.2828 43.295 53.3602 43.3708C53.4375 43.4467 53.5293 43.5068 53.6303 43.5479C53.7313 43.5889 53.8396 43.6101 53.9489 43.61C54.0446 43.6098 54.1396 43.5934 54.2296 43.5615L55.4404 44.7497C54.4149 45.8689 53.811 47.2991 53.7293 48.8021H52.4379C52.3569 48.4378 52.1515 48.1117 51.8557 47.8779C51.5598 47.644 51.1914 47.5164 50.8115 47.5163C50.5929 47.5163 50.3764 47.5586 50.1743 47.6407C49.9723 47.7228 49.7888 47.8432 49.6342 47.9949C49.4795 48.1466 49.3569 48.3268 49.2732 48.525C49.1895 48.7232 49.1465 48.9357 49.1465 49.1503H71.7074C71.7074 48.9357 71.6643 48.7232 71.5806 48.525C71.497 48.3268 71.3743 48.1466 71.2197 47.9949C71.0651 47.8432 70.8815 47.7228 70.6795 47.6407C70.4775 47.5586 70.261 47.5163 70.0423 47.5163C69.6631 47.5173 69.2956 47.6453 69.0006 47.8791C68.7056 48.1129 68.5008 48.4385 68.4199 48.8021H67.127C67.0459 47.2982 66.442 45.8671 65.4159 44.7473L66.6529 43.5334C66.7429 43.5653 66.8379 43.5817 66.9336 43.582C67.0429 43.582 67.1512 43.5609 67.2522 43.5198C67.3532 43.4788 67.445 43.4186 67.5223 43.3427C67.5996 43.2669 67.661 43.1768 67.7028 43.0777C67.7447 42.9786 67.7662 42.8724 67.7662 42.7651C67.7662 42.6526 67.7426 42.5414 67.6968 42.4383C67.651 42.3353 67.584 42.2426 67.5001 42.1661C67.3461 42.026 67.1438 41.9481 66.9338 41.9482C66.8244 41.9482 66.7162 41.9693 66.6152 42.0103C66.5142 42.0514 66.4224 42.1115 66.3451 42.1874C66.2677 42.2632 66.2064 42.3533 66.1646 42.4524C66.1227 42.5515 66.1012 42.6578 66.1012 42.7651C66.1014 42.8591 66.1182 42.9523 66.1508 43.0407L64.9114 44.2571C63.7709 43.2507 62.3135 42.658 60.782 42.5779V41.3103C61.1531 41.2309 61.4853 41.0293 61.7236 40.739C61.9619 40.4487 62.0919 40.0873 62.092 39.7145C62.092 39.5 62.0489 39.2875 61.9653 39.0892C61.8816 38.891 61.7589 38.7109 61.6043 38.5591C61.4497 38.4074 61.2661 38.2871 61.0641 38.2049C60.8621 38.1228 60.6456 38.0806 60.4269 38.0806H60.4269Z" fill="#FFD42A" stroke="#FFD42A" stroke-width="0.698832"/>
<path d="M60.4269 62.6518C60.6456 62.6518 60.8621 62.6095 61.0641 62.5274C61.2661 62.4453 61.4497 62.3249 61.6043 62.1732C61.7589 62.0215 61.8816 61.8413 61.9652 61.6431C62.0489 61.4449 62.092 61.2324 62.092 61.0178C62.091 60.6457 61.9606 60.285 61.7223 59.9955C61.4841 59.706 61.1523 59.505 60.7818 59.4257V58.1546C62.3135 58.0745 63.7709 57.4818 64.9114 56.4753L66.1222 57.6635C66.0896 57.7519 66.0728 57.8452 66.0726 57.9392C66.0725 58.0465 66.0941 58.1527 66.1359 58.2519C66.1777 58.351 66.2391 58.4411 66.3164 58.517C66.3937 58.5928 66.4855 58.653 66.5865 58.6941C66.6875 58.7351 66.7958 58.7563 66.9052 58.7563C67.0197 58.7562 67.133 58.733 67.238 58.688C67.343 58.6431 67.4374 58.5773 67.5154 58.4949C67.6582 58.3438 67.7376 58.1453 67.7376 57.9392C67.7376 57.8319 67.716 57.7257 67.6742 57.6265C67.6324 57.5274 67.571 57.4374 67.4937 57.3615C67.4164 57.2856 67.3246 57.2255 67.2236 57.1844C67.1226 57.1434 67.0143 57.1223 66.905 57.1223C66.8093 57.1225 66.7143 57.1389 66.6243 57.1708L65.4134 55.9826C66.439 54.8634 67.0428 53.4332 67.1245 51.9303H68.416C68.4969 52.2945 68.7024 52.6206 68.9982 52.8545C69.294 53.0883 69.6625 53.2159 70.0423 53.216C70.261 53.216 70.4775 53.1737 70.6795 53.0916C70.8815 53.0095 71.0651 52.8892 71.2197 52.7374C71.3743 52.5857 71.497 52.4056 71.5806 52.2073C71.6643 52.0091 71.7074 51.7966 71.7074 51.582H49.1465C49.1465 51.7966 49.1895 52.0091 49.2732 52.2073C49.3569 52.4056 49.4795 52.5857 49.6342 52.7374C49.7888 52.8892 49.9723 53.0095 50.1743 53.0916C50.3764 53.1737 50.5929 53.216 50.8115 53.216C51.1907 53.215 51.5582 53.087 51.8532 52.8532C52.1483 52.6195 52.3531 52.2938 52.4339 51.9303H53.7268C53.8079 53.4341 54.4119 54.8652 55.4379 55.9851L54.201 57.1989C54.1109 57.167 54.016 57.1506 53.9203 57.1504C53.8109 57.1503 53.7027 57.1715 53.6017 57.2125C53.5007 57.2535 53.4089 57.3137 53.3315 57.3896C53.2542 57.4654 53.1929 57.5555 53.1511 57.6546C53.1092 57.7537 53.0877 57.86 53.0877 57.9673C53.0876 58.0797 53.1112 58.1909 53.157 58.294C53.2028 58.3971 53.2698 58.4898 53.3538 58.5662C53.5078 58.7064 53.7101 58.7842 53.9201 58.7841C54.0294 58.7842 54.1377 58.763 54.2387 58.722C54.3397 58.681 54.4315 58.6208 54.5088 58.5449C54.5861 58.4691 54.6475 58.379 54.6893 58.2799C54.7311 58.1808 54.7527 58.0745 54.7527 57.9673C54.7524 57.8733 54.7356 57.78 54.703 57.6916L55.9425 56.4753C57.0829 57.4817 58.5403 58.0743 60.0719 58.1544V59.422C59.7008 59.5015 59.3685 59.703 59.1303 59.9933C58.892 60.2836 58.762 60.6451 58.7619 61.0178C58.7619 61.2324 58.8049 61.4449 58.8886 61.6431C58.9723 61.8413 59.0949 62.0215 59.2495 62.1732C59.4042 62.3249 59.5877 62.4453 59.7897 62.5274C59.9917 62.6095 60.2083 62.6518 60.4269 62.6518H60.4269Z" stroke="#FFD42A" stroke-width="0.698832" stroke-miterlimit="10"/>
<path d="M58.2039 49.2151C59.0247 49.2151 59.6901 48.5622 59.6901 47.7567C59.6901 46.9513 59.0247 46.2983 58.2039 46.2983C57.3831 46.2983 56.7178 46.9513 56.7178 47.7567C56.7178 48.5622 57.3831 49.2151 58.2039 49.2151Z" fill="#494961"/>
<path d="M63.6146 46.3878C64.0942 46.3878 64.4831 46.0064 64.4831 45.5359C64.4831 45.0655 64.0942 44.6841 63.6146 44.6841C63.1349 44.6841 62.7461 45.0655 62.7461 45.5359C62.7461 46.0064 63.1349 46.3878 63.6146 46.3878Z" fill="#494961"/>
<path d="M63.6151 54.6292C64.4358 54.6292 65.1012 53.9763 65.1012 53.1708C65.1012 52.3654 64.4358 51.7124 63.6151 51.7124C62.7943 51.7124 62.1289 52.3654 62.1289 53.1708C62.1289 53.9763 62.7943 54.6292 63.6151 54.6292Z" fill="#FFD42A"/>
<path d="M58.2035 56.3449C58.6831 56.3449 59.072 55.9635 59.072 55.493C59.072 55.0225 58.6831 54.6411 58.2035 54.6411C57.7238 54.6411 57.335 55.0225 57.335 55.493C57.335 55.9635 57.7238 56.3449 58.2035 56.3449Z" fill="#FFD42A"/>
</svg>
