<svg width="348" height="348" viewBox="0 0 348 348" fill="none" xmlns="http://www.w3.org/2000/svg">
<path d="M174.006 304.614C246.142 304.614 304.62 246.136 304.62 174C304.62 101.864 246.142 43.3862 174.006 43.3862C101.87 43.3862 43.3926 101.864 43.3926 174C43.3926 246.136 101.87 304.614 174.006 304.614Z" fill="white"/>
<path d="M261 261C309.049 212.951 309.049 135.049 261 87C212.951 38.9512 135.049 38.9512 87 87C38.9512 135.049 38.9512 212.951 87 261C135.049 309.049 212.951 309.049 261 261Z" fill="#1B348C"/>
<path d="M185.059 216.303L51.0957 175.758C51.5657 207.092 63.9744 237.066 85.7898 259.564C107.605 282.061 137.183 295.386 168.488 296.821C199.793 298.255 230.465 287.689 254.246 267.281C278.027 246.872 293.124 218.158 296.457 186.998L185.059 216.303ZM173.442 50.9424C145.892 51.0412 119.181 60.4292 97.6269 77.5884C126.261 93.3291 165.257 115.496 165.257 115.496L173.442 50.9424Z" fill="#071B6B"/>
<path d="M226.335 171.3C226.135 171.577 225.911 171.836 225.666 172.074C224.536 173.14 223.129 173.866 221.605 174.167C220.22 174.506 218.767 174.441 217.419 173.979C216.929 173.832 216.463 173.613 216.037 173.33C214.485 172.397 213.358 170.895 212.897 169.144C212.675 168.228 212.682 167.273 212.915 166.36C213.149 165.448 213.603 164.607 214.237 163.911C214.677 163.411 215.229 163.024 215.849 162.78C216.286 162.355 216.787 162.002 217.335 161.734C219.041 161.018 220.958 160.988 222.686 161.651C224.413 162.314 225.818 163.618 226.608 165.292C227.137 166.216 227.393 167.272 227.344 168.335C227.296 169.399 226.946 170.427 226.335 171.3Z" fill="white"/>
<path d="M225.666 172.074C224.537 173.14 223.129 173.866 221.605 174.167C220.221 174.506 218.768 174.441 217.419 173.979C217.388 173.743 217.388 173.504 217.419 173.267C217.336 172.718 217.363 172.157 217.497 171.618C217.631 171.078 217.871 170.57 218.201 170.123C218.868 169.22 219.867 168.62 220.977 168.453C222.088 168.287 223.219 168.568 224.121 169.235C225.024 169.903 225.625 170.901 225.792 172.011L225.666 172.074Z" fill="#FEDDAD"/>
<path d="M208.46 169.081C208.47 169.129 208.47 169.179 208.46 169.227C207.927 169.911 207.248 170.468 206.474 170.859C205.699 171.25 204.848 171.465 203.981 171.488C203.777 172.751 203.25 173.941 202.453 174.942C201.779 175.796 200.932 176.498 199.966 177C199.001 177.502 197.94 177.794 196.853 177.855C195.767 177.917 194.68 177.746 193.664 177.356C192.648 176.966 191.727 176.364 190.961 175.59C190.058 174.508 189.452 173.21 189.203 171.823C189.124 171.415 189.075 171.003 189.057 170.588C188.906 170.143 188.828 169.676 188.826 169.206C188.796 168.676 188.878 168.144 189.065 167.647C189.252 167.149 189.542 166.697 189.915 166.318C190.343 165.52 190.919 164.809 191.61 164.225C192.668 163.355 193.988 162.868 195.357 162.843C196.311 162.871 197.246 163.107 198.099 163.534C198.354 162.635 198.872 161.834 199.585 161.231C200.771 160.431 202.202 160.075 203.625 160.227C205.172 160.305 206.646 160.902 207.812 161.922C208.741 162.851 209.315 164.076 209.433 165.384C209.552 166.692 209.207 168 208.46 169.081Z" fill="white"/>
<path d="M208.46 169.081C208.47 169.129 208.47 169.179 208.46 169.227C207.927 169.911 207.248 170.468 206.474 170.859C205.699 171.25 204.848 171.464 203.981 171.488C203.777 172.751 203.25 173.94 202.453 174.941C201.779 175.796 200.932 176.498 199.966 177C199.001 177.502 197.94 177.794 196.853 177.855C195.767 177.916 194.68 177.746 193.664 177.356C192.648 176.965 191.727 176.364 190.961 175.59C190.058 174.508 189.452 173.21 189.203 171.823C190.481 170.632 192.166 169.973 193.913 169.981C194.918 169.982 195.911 170.2 196.825 170.619C197.738 171.038 198.551 171.648 199.208 172.409C199.255 171.343 199.618 170.316 200.252 169.458C200.886 168.601 201.761 167.951 202.766 167.594C203.771 167.237 204.859 167.187 205.892 167.452C206.925 167.717 207.856 168.284 208.565 169.081H208.46Z" fill="#FEDDAD"/>
<path d="M244.777 190.326C245.744 188.816 246.246 187.054 246.221 185.261C246.071 183.124 245.201 181.101 243.752 179.523C242.304 177.945 240.362 176.905 238.246 176.574C234.06 175.8 228.889 176.888 226.754 180.949C226.318 181.8 226.035 182.721 225.917 183.67C224.663 183.65 223.415 183.855 222.233 184.277C221.129 184.694 220.12 185.327 219.265 186.139C218.409 186.952 217.725 187.927 217.251 189.008C217.165 189.168 217.095 189.336 217.042 189.51C216.067 189.182 215.054 188.978 214.028 188.903C214.145 188.736 214.25 188.561 214.342 188.38C215.008 187.024 215.163 185.473 214.779 184.012C214.394 182.551 213.496 181.278 212.249 180.426C210.759 179.664 209.071 179.379 207.413 179.609C205.978 179.615 204.594 180.143 203.52 181.095C203.022 181.658 202.664 182.331 202.474 183.058C202.285 183.786 202.271 184.548 202.432 185.282C202.097 185.477 201.807 185.74 201.58 186.053C201.353 186.367 201.194 186.724 201.113 187.103C201.039 187.644 201.09 188.194 201.26 188.713C201.431 189.231 201.717 189.704 202.097 190.096C203.088 191.135 204.361 191.862 205.76 192.189C205.085 192.914 204.54 193.75 204.148 194.659C204.019 194.752 203.9 194.857 203.792 194.973C203.156 195.943 202.844 197.089 202.9 198.248C202.957 199.406 203.379 200.517 204.106 201.42C205.397 203.339 207.313 204.752 209.528 205.418C211.989 206.076 214.572 206.141 217.063 205.606C219.417 205.425 221.636 204.434 223.342 202.802C223.665 202.43 223.933 202.014 224.138 201.567C225.727 201.879 227.365 201.854 228.944 201.493C230.523 201.132 232.009 200.444 233.306 199.473C233.334 199.759 233.397 200.04 233.494 200.311C233.905 201.073 234.476 201.738 235.169 202.257C236.998 203.355 239.146 203.798 241.26 203.513C244.735 203.513 248.795 202.111 249.633 198.343C250.47 194.575 247.791 191.687 244.777 190.326Z" fill="white"/>
<path d="M247.268 190.243C247.285 188.742 246.823 187.275 245.949 186.055C245.075 184.835 243.835 183.925 242.409 183.458C240.982 182.992 239.444 182.992 238.018 183.459C236.592 183.926 235.352 184.836 234.478 186.056C233.797 185.864 233.093 185.758 232.385 185.742C230.832 185.714 229.301 186.112 227.958 186.893C226.615 187.674 225.512 188.808 224.768 190.172C224.025 191.536 223.669 193.077 223.74 194.629C223.812 196.181 224.307 197.684 225.172 198.974C226.038 200.264 227.241 201.292 228.649 201.946C230.058 202.601 231.62 202.857 233.164 202.686C234.708 202.515 236.176 201.925 237.407 200.978C238.639 200.032 239.588 198.766 240.151 197.318C241.084 197.326 242.01 197.149 242.874 196.797C243.739 196.445 244.525 195.925 245.187 195.266C245.849 194.608 246.374 193.825 246.731 192.963C247.088 192.101 247.27 191.176 247.268 190.243Z" fill="#FEDDAD"/>
<path d="M208.775 192.273C210.948 192.273 212.71 190.511 212.71 188.338C212.71 186.165 210.948 184.403 208.775 184.403C206.602 184.403 204.84 186.165 204.84 188.338C204.84 190.511 206.602 192.273 208.775 192.273Z" fill="#FEDDAD"/>
<path d="M180.956 227.585C181.384 228.611 181.584 229.718 181.542 230.829C181.354 235.016 177.795 237.109 174.07 237.841C173.219 238.006 172.359 238.117 171.495 238.176H171.076C169.862 238.163 168.694 237.71 167.79 236.899L167.644 236.774C166.286 235.516 165.419 233.817 165.195 231.98C164.475 230.97 163.988 229.811 163.771 228.589C161.888 229.405 159.858 229.825 157.806 229.824C156.639 229.86 155.477 229.651 154.396 229.212C153.314 228.772 152.337 228.111 151.526 227.271C150.973 226.643 150.515 225.938 150.166 225.178C149.89 224.684 149.726 224.135 149.686 223.571C149.647 223.006 149.732 222.44 149.935 221.912C149.626 219.62 150.21 217.296 151.568 215.423C152.811 213.864 154.508 212.73 156.424 212.179C155.963 210.872 155.963 209.446 156.424 208.139C156.633 206.933 157.12 205.793 157.847 204.808C158.573 203.823 159.52 203.022 160.611 202.467C162.03 201.648 163.581 201.081 165.195 200.792C165.561 199.867 166.142 199.042 166.89 198.385C168.204 197.245 169.817 196.505 171.538 196.252C173.259 196 175.017 196.246 176.602 196.962C177.907 197.821 178.844 199.136 179.231 200.649C179.618 202.163 179.427 203.766 178.696 205.146C178.696 205.146 178.696 205.146 178.696 205.272L178.57 205.46C179.008 205.52 179.442 205.611 179.868 205.732C182.329 206.434 184.502 207.903 186.071 209.924C187.641 211.945 188.525 214.414 188.596 216.972C188.579 219.315 187.835 221.594 186.467 223.496C185.098 225.397 183.172 226.826 180.956 227.585Z" fill="white"/>
<path d="M156.005 205.167C156.811 204.08 157.227 202.754 157.186 201.401C157.144 200.049 156.647 198.75 155.775 197.715C154.835 196.788 153.595 196.227 152.278 196.135C150.961 196.043 149.655 196.425 148.595 197.213C147.512 197.962 146.761 199.103 146.502 200.395C146.502 200.625 146.502 200.855 146.502 201.085C146.198 201.431 145.989 201.849 145.895 202.299C145.716 203.045 145.738 203.825 145.958 204.56C146.444 205.879 147.429 206.954 148.7 207.553C150.008 208.043 151.443 208.074 152.771 207.641C154.098 207.207 155.239 206.335 156.005 205.167Z" fill="white"/>
<path d="M174.802 186.517C174.935 188.317 174.573 190.119 173.755 191.729C173.022 192.846 171.929 193.681 170.657 194.094C170.4 194.2 170.134 194.284 169.862 194.345C168.265 194.678 166.624 194.742 165.006 194.534C164.116 194.418 163.249 194.171 162.431 193.801C161.595 193.386 160.902 192.73 160.443 191.917C160.284 191.593 160.24 191.224 160.316 190.872C160.391 190.519 160.584 190.201 160.861 189.971C160.404 189.457 160.081 188.839 159.919 188.17C159.728 187.413 159.705 186.623 159.854 185.856C160.002 185.089 160.317 184.364 160.778 183.733C161.013 183.389 161.28 183.066 161.573 182.77C161.253 182.261 161.073 181.676 161.05 181.075C161.018 180.81 161.018 180.543 161.05 180.279C160.515 179.285 160.387 178.121 160.694 177.035C161.196 175.695 162.151 174.574 163.394 173.867C164.637 173.159 166.089 172.91 167.497 173.162C168.9 173.34 170.211 173.955 171.244 174.921C171.573 175.218 171.855 175.564 172.081 175.946C172.624 176.797 172.955 177.766 173.044 178.772C173.097 179.48 173.011 180.19 172.792 180.865C174.148 182.43 174.865 184.448 174.802 186.517Z" fill="white"/>
<path d="M306.19 218.689C305.384 219.653 304.392 220.446 303.274 221.022C302.156 221.597 300.934 221.942 299.681 222.038C297.212 222.632 294.621 222.464 292.25 221.556L291.831 221.326C289.8 219.99 288.315 217.97 287.645 215.633C287.235 214.453 287.009 213.218 286.975 211.97C286.261 212.579 285.456 213.073 284.589 213.435C282.553 214.129 280.34 214.09 278.329 213.326C276.319 212.562 274.639 211.12 273.579 209.249C272.769 207.698 272.427 205.945 272.595 204.204C270.502 203.753 268.621 202.61 267.258 200.96C266.096 199.625 265.399 197.951 265.269 196.187C265.172 195.319 265.285 194.44 265.598 193.624C265.912 192.808 266.416 192.079 267.069 191.499C267.546 190.813 268.206 190.276 268.974 189.95C270.603 189.175 272.436 188.941 274.207 189.28C275.762 189.614 277.201 190.356 278.374 191.43C279.548 192.505 280.414 193.872 280.884 195.392C281 195.725 281.084 196.069 281.135 196.417C281.678 196.354 282.226 196.354 282.768 196.417C282.834 196.324 282.911 196.24 282.998 196.166C282.77 195.419 282.643 194.645 282.621 193.864C282.748 191.117 283.951 188.53 285.97 186.663C287.593 184.991 289.691 183.859 291.979 183.421C294.267 182.983 296.634 183.26 298.76 184.214C300.854 185.277 302.459 187.106 303.239 189.322C304.126 191.867 304.363 194.594 303.93 197.255C303.666 198.434 303.156 199.545 302.435 200.515C301.714 201.485 300.797 202.293 299.744 202.885C301.763 203.463 303.597 204.56 305.06 206.067C306.717 207.694 307.741 209.857 307.948 212.17C308.155 214.483 307.532 216.794 306.19 218.689Z" fill="white"/>
<path d="M300.853 199.452C300.858 200.67 300.509 201.863 299.848 202.885C299.436 203.524 298.919 204.09 298.32 204.56C299.143 206.058 299.637 207.714 299.769 209.418C299.902 211.121 299.669 212.834 299.086 214.441C298.504 216.047 297.585 217.511 296.392 218.735C295.199 219.958 293.758 220.913 292.167 221.535L291.748 221.305C289.717 219.969 288.232 217.949 287.562 215.612C287.152 214.432 286.926 213.197 286.892 211.949C286.177 212.558 285.372 213.052 284.506 213.414C283.118 213.932 281.621 214.089 280.157 213.869C278.692 213.649 277.307 213.06 276.133 212.158C276.015 211.558 275.959 210.948 275.965 210.337C275.971 207.16 277.237 204.114 279.486 201.869C281.734 199.625 284.782 198.364 287.959 198.364C288.221 196.747 289.083 195.287 290.374 194.278C291.664 193.268 293.288 192.782 294.921 192.917C296.554 193.051 298.076 193.797 299.183 195.005C300.291 196.212 300.902 197.793 300.895 199.431L300.853 199.452Z" fill="#FEDDAD"/>
<path d="M174.802 186.517C174.935 188.317 174.573 190.119 173.755 191.729C173.021 192.846 171.929 193.681 170.657 194.094C170.345 194.136 170.028 194.136 169.715 194.094C168.273 194.082 166.878 193.573 165.766 192.653C164.654 191.734 163.893 190.459 163.611 189.044C163.328 187.629 163.542 186.16 164.215 184.884C164.888 183.608 165.981 182.603 167.308 182.037C167.308 182.037 167.308 181.87 167.308 181.786C167.326 180.389 167.808 179.037 168.68 177.945C169.552 176.854 170.764 176.084 172.123 175.758C172.666 176.609 172.996 177.578 173.085 178.584C173.138 179.291 173.053 180.002 172.834 180.677C174.22 182.296 174.925 184.389 174.802 186.517Z" fill="#FEDDAD"/>
<path d="M154.707 203.806C154.707 204.46 154.513 205.1 154.15 205.644C153.786 206.187 153.27 206.611 152.666 206.862C152.061 207.112 151.396 207.178 150.755 207.05C150.113 206.922 149.524 206.607 149.061 206.145C148.599 205.682 148.284 205.093 148.156 204.451C148.029 203.81 148.094 203.145 148.345 202.541C148.595 201.936 149.019 201.42 149.563 201.056C150.106 200.693 150.746 200.499 151.4 200.499C152.277 200.499 153.118 200.847 153.739 201.468C154.359 202.088 154.707 202.929 154.707 203.806Z" fill="#FEDDAD"/>
<path d="M180.956 227.585C181.384 228.612 181.584 229.718 181.542 230.83C181.354 235.016 177.795 237.109 174.07 237.842C173.219 238.006 172.359 238.118 171.495 238.177C170.226 237.891 168.991 237.47 167.811 236.921L167.664 236.795C166.307 235.537 165.44 233.839 165.215 232.002C164.496 230.991 164.009 229.833 163.792 228.611C161.909 229.426 159.879 229.846 157.827 229.846C156.66 229.881 155.498 229.673 154.417 229.233C153.335 228.793 152.358 228.132 151.547 227.292C150.994 226.664 150.536 225.959 150.187 225.199C152.054 223.626 154.422 222.772 156.864 222.792C157.324 222.792 157.785 222.792 158.245 222.792C158.245 222.394 158.245 221.996 158.245 221.578C158.251 219.055 158.821 216.566 159.912 214.292C161.003 212.018 162.589 210.016 164.553 208.433C166.517 206.851 168.81 205.727 171.264 205.143C173.718 204.56 176.271 204.533 178.737 205.063C178.737 205.063 178.737 205.063 178.737 205.188L178.612 205.377C179.05 205.437 179.484 205.528 179.91 205.649C182.37 206.351 184.544 207.819 186.113 209.841C187.683 211.862 188.567 214.331 188.638 216.889C188.636 219.251 187.893 221.553 186.516 223.471C185.138 225.39 183.194 226.828 180.956 227.585Z" fill="#FEDDAD"/>
<path d="M308.367 259.317C306.692 262.504 304.782 265.561 302.653 268.465C302.513 268.684 302.36 268.893 302.193 269.092C300.851 270.892 299.397 272.605 297.839 274.221C295.833 276.258 293.558 278.011 291.078 279.433C291.016 279.448 290.951 279.448 290.889 279.433C289.155 280.656 287.138 281.419 285.029 281.652C285.04 281.733 285.029 281.817 284.997 281.893C284.965 281.969 284.913 282.035 284.847 282.085C284.781 282.134 284.702 282.164 284.62 282.173C284.538 282.181 284.455 282.168 284.38 282.133C277.514 279.077 270.732 275.853 263.595 273.321C256.72 270.891 249.684 268.947 242.537 267.502C235.115 266.102 227.626 265.089 220.098 264.467C213.233 264.042 206.454 262.705 199.941 260.49C199.814 260.542 199.671 260.542 199.544 260.49C195.124 259.851 190.743 258.97 186.419 257.852C182.359 256.931 178.298 255.905 174.342 254.65C167.125 252.515 160.226 249.424 153.829 245.461C147.929 241.958 142.796 237.302 138.737 231.771C138.673 231.698 138.623 231.612 138.59 231.52C138.316 231.109 138.078 230.675 137.879 230.222C137.356 229.759 136.973 229.159 136.773 228.489C136.573 227.82 136.565 227.108 136.748 226.434C138.569 222.247 145.121 225.931 147.779 226.957C152.196 228.715 156.634 230.453 161.092 231.729H161.385C165.255 232.877 169.26 233.51 173.295 233.613C162.369 229.134 151.84 223.147 144.326 213.875C142.161 211.132 140.189 208.244 138.423 205.23C137.711 204.058 136.769 202.76 135.995 201.399C135.281 200.2 134.818 198.869 134.634 197.485C134.514 196.719 134.656 195.935 135.035 195.26C135.415 194.584 136.011 194.055 136.727 193.759C136.968 193.514 137.262 193.328 137.586 193.215C137.904 193.108 138.242 193.067 138.576 193.096C138.911 193.125 139.237 193.222 139.532 193.382C139.75 193.487 139.949 193.629 140.118 193.801C140.167 193.775 140.221 193.762 140.275 193.762C140.33 193.762 140.384 193.775 140.432 193.801C142.171 195.151 143.783 196.658 145.247 198.301C146.837 199.767 148.47 201.162 150.145 202.488C153.757 205.442 157.664 208.016 161.804 210.17C163.596 211.2 165.448 212.122 167.351 212.933C172.493 215.224 178.252 215.739 183.719 214.398C182.17 213.728 180.621 213.016 179.093 212.305C166.89 206.653 155.147 199.348 146.377 188.945C142.395 184.417 139.217 179.242 136.979 173.644V173.518C136.246 171.425 135.806 168.432 138.235 167.385C139.302 166.946 141.332 167.867 141.479 167.93C143.651 169.327 145.709 170.895 147.633 172.618C149.935 174.439 152.196 176.239 154.603 177.977C158.789 181.054 163.122 184.047 167.56 186.831L168.104 187.166L168.544 187.438L168.983 187.815H169.13C173.33 190.372 177.701 192.638 182.212 194.597C177.105 191.017 170.553 183.628 166.199 179.149C165.781 179.149 148.973 157.673 149.266 149.321C149.255 149.154 149.255 148.986 149.266 148.819C149.58 146.412 151.694 143.105 154.373 143.963C154.49 143.944 154.61 143.953 154.722 143.99C154.835 144.026 154.938 144.089 155.022 144.172C160.129 149.258 165.278 154.387 170.407 159.452L170.888 159.955L172.039 161.064C172.311 161.378 172.625 161.65 172.897 161.943L173.944 162.99L175.179 164.204C181.459 170.358 187.55 176.763 195.441 180.761C203.671 184.791 212.358 187.813 221.312 189.761C228.777 191.587 236.358 192.895 244.002 193.676C241.909 186.684 239.377 179.735 236.781 172.89C235.42 169.332 234.039 165.794 232.595 162.299L232.092 161.106C230.86 158.596 229.986 155.925 229.497 153.173C229.036 149.3 230.669 144.57 234.751 143.377C239.753 141.932 243.123 146.977 245.091 150.724C247.332 154.587 250.157 158.082 253.464 161.085C254.468 162.11 255.557 163.178 256.52 164.183C260.099 168.046 262.981 172.501 265.039 177.349C269.665 187.543 272.888 198.155 282.203 205.251C287.005 208.714 292.315 211.411 297.943 213.247C303.302 215.089 308.995 215.989 314.27 218.061H314.752C314.815 218.057 314.879 218.068 314.937 218.093C314.995 218.119 315.047 218.158 315.087 218.207C315.117 218.288 315.117 218.378 315.087 218.459C315.096 218.507 315.096 218.557 315.087 218.605V218.752V218.898V219.066H315.191C315.222 219.108 315.238 219.16 315.238 219.212C315.238 219.265 315.222 219.316 315.191 219.359C315.163 219.404 315.122 219.44 315.074 219.462C315.026 219.485 314.972 219.492 314.919 219.484L314.731 219.359C321.45 232.922 314.835 247.575 308.367 259.317Z" fill="#F8ACA9"/>
<path d="M302.653 268.464C302.514 268.683 302.36 268.893 302.193 269.092C300.851 270.892 299.397 272.605 297.839 274.221C295.833 276.258 293.558 278.011 291.078 279.433C291.016 279.448 290.951 279.448 290.89 279.433C285.28 277.025 276.237 273.362 265.206 269.909C246.745 264.069 199.125 255.905 199.125 255.905C199.125 255.905 230.355 256.282 256.101 259.087C271.832 261.036 287.394 264.171 302.653 268.464Z" fill="#FE757C"/>
<path d="M236.236 208.621C236.236 211.844 230.271 214.461 222.882 214.461C215.493 214.461 209.527 211.844 209.527 208.621C209.527 205.397 215.514 202.76 222.882 202.76C230.25 202.76 236.236 205.376 236.236 208.621Z" fill="#FFD0CE"/>
<path d="M246.117 222.352C246.117 224.445 244.023 226.057 241.177 226.057C238.33 226.057 236.237 224.403 236.237 222.352C236.237 220.301 238.456 218.647 241.177 218.647C243.898 218.647 246.117 220.322 246.117 222.352Z" fill="#FFD0CE"/>
<path d="M155.043 144.151L170.91 159.933C165.718 154.889 155.608 145.616 152.908 147.186C151.759 147.844 150.546 148.384 149.287 148.798C149.601 146.39 151.715 143.083 154.394 143.941C154.511 143.923 154.631 143.932 154.744 143.969C154.857 144.005 154.959 144.067 155.043 144.151Z" fill="#FFD0CE"/>
<path d="M154.561 177.977C158.747 181.054 163.08 184.047 167.518 186.831C161.971 183.628 143.865 172.786 140.641 173.162C139.406 173.288 138.129 173.497 136.978 173.686V173.56C136.246 171.467 135.806 168.474 138.234 167.427C139.302 166.987 141.332 167.908 141.479 167.971C143.651 169.369 145.709 170.936 147.632 172.66C149.893 174.439 152.237 176.239 154.561 177.977Z" fill="#FFD0CE"/>
<path d="M167.35 212.932C156.947 209.96 147.27 204.872 138.925 197.987C137.313 196.564 136.455 198.803 136.015 201.546C135.301 200.346 134.838 199.015 134.655 197.631C134.535 196.865 134.676 196.082 135.056 195.406C135.436 194.73 136.032 194.201 136.748 193.905C136.989 193.661 137.282 193.474 137.606 193.361C137.925 193.254 138.262 193.214 138.597 193.242C138.932 193.271 139.257 193.369 139.553 193.529C139.771 193.633 139.969 193.775 140.139 193.947C140.187 193.922 140.241 193.908 140.296 193.908C140.351 193.908 140.405 193.922 140.453 193.947C142.192 195.297 143.803 196.804 145.267 198.448C146.858 199.913 148.491 201.308 150.165 202.634C153.778 205.588 157.685 208.162 161.824 210.316C163.613 211.295 165.459 212.169 167.35 212.932Z" fill="#FFD0CE"/>
<path d="M161.091 231.771C158.998 231.415 146.942 229.343 142.609 229.783C141.099 229.872 139.671 230.504 138.59 231.562C138.316 231.151 138.078 230.716 137.878 230.264C137.355 229.801 136.972 229.2 136.773 228.531C136.573 227.862 136.564 227.15 136.748 226.475C138.569 222.289 145.121 225.973 147.779 226.999C152.237 228.736 156.633 230.473 161.091 231.771Z" fill="#FFD0CE"/>
<path d="M254.385 168.976C254.385 168.976 248.105 158.866 246.012 155.203C243.919 151.54 240.298 147.123 235.148 147.605C229.999 148.086 231.946 160.603 232.05 161.085C230.818 158.575 229.945 155.904 229.455 153.152C228.994 149.279 230.627 144.549 234.709 143.356C239.711 141.911 243.081 146.956 245.049 150.703C247.291 154.566 250.115 158.061 253.422 161.064C254.071 165.501 254.385 168.976 254.385 168.976Z" fill="#FFD0CE"/>
<path d="M286.2 178.186C286.043 179.114 285.739 180.012 285.3 180.844C284.721 181.936 283.852 182.846 282.788 183.474C281.724 184.102 280.507 184.423 279.272 184.403C278.726 184.389 278.184 184.305 277.66 184.152C276.857 183.913 276.11 183.516 275.463 182.985C274.816 182.453 274.281 181.798 273.891 181.057C273.501 180.315 273.263 179.504 273.191 178.669C273.12 177.835 273.216 176.994 273.474 176.197C273.749 175.504 274.204 174.897 274.793 174.439C275.045 173.622 275.503 172.883 276.122 172.293C276.741 171.703 277.501 171.282 278.33 171.069C279.587 170.782 280.901 170.869 282.11 171.319C283.319 171.769 284.369 172.563 285.133 173.602C285.604 174.258 285.941 175.001 286.124 175.787C286.307 176.574 286.333 177.389 286.2 178.186Z" fill="white"/>
<path d="M286.2 178.186C286.043 179.115 285.739 180.012 285.3 180.845C284.721 181.936 283.852 182.846 282.788 183.474C281.724 184.102 280.507 184.424 279.272 184.403C278.546 183.47 278.2 182.297 278.303 181.119C278.405 179.941 278.949 178.845 279.825 178.052C280.701 177.258 281.845 176.824 283.027 176.837C284.209 176.851 285.343 177.31 286.2 178.124V178.186Z" fill="#FEDDAD"/>
<path d="M231.359 131.906C231.08 132.805 230.623 133.639 230.015 134.358C229.408 135.077 228.662 135.667 227.822 136.092C226.084 136.928 224.2 137.419 222.275 137.537C221.18 137.744 220.05 137.642 219.01 137.244C218.211 136.887 217.539 136.295 217.084 135.548C216.995 135.442 216.924 135.322 216.875 135.192C216.547 134.606 216.32 133.969 216.205 133.308C216.079 132.708 216.079 132.088 216.205 131.487C216.205 131.173 216.33 130.859 216.393 130.545C216.442 130.292 216.556 130.056 216.726 129.861C216.895 129.666 217.112 129.52 217.356 129.436C217.03 128.027 217.2 126.548 217.837 125.25C218.216 124.514 218.74 123.862 219.376 123.334C220.013 122.805 220.75 122.41 221.542 122.173C223.385 121.807 225.297 122.167 226.88 123.177C228.082 123.809 229.128 124.7 229.943 125.786C230.757 126.872 231.32 128.126 231.59 129.457C231.693 130.28 231.614 131.116 231.359 131.906Z" fill="white"/>
<path d="M231.36 131.906C231.08 132.805 230.623 133.639 230.016 134.358C229.408 135.077 228.662 135.667 227.822 136.093C226.084 136.929 224.2 137.419 222.275 137.537C221.181 137.744 220.05 137.643 219.01 137.244C218.211 136.887 217.539 136.296 217.084 135.549C216.995 135.442 216.924 135.322 216.875 135.193C217.238 134.611 217.744 134.132 218.345 133.802C218.946 133.472 219.622 133.302 220.308 133.309C220.937 133.31 221.556 133.468 222.108 133.769C222.173 132.281 222.81 130.875 223.886 129.846C224.963 128.816 226.395 128.242 227.885 128.243C229.201 128.233 230.48 128.676 231.506 129.499C231.631 130.303 231.581 131.124 231.36 131.906Z" fill="#FEDDAD"/>
<path d="M194.896 132.074C194.809 132.602 194.602 133.104 194.289 133.539C194.03 133.941 193.678 134.275 193.263 134.511C192.847 134.748 192.381 134.881 191.903 134.899C191.118 134.886 190.369 134.571 189.81 134.02C189.454 133.69 189.225 133.246 189.161 132.764C189.152 132.716 189.152 132.666 189.161 132.618C189.146 132.127 189.318 131.648 189.642 131.278C189.506 130.814 189.506 130.32 189.642 129.855C189.731 129.567 189.877 129.3 190.071 129.07C190.265 128.84 190.504 128.651 190.773 128.515C191.128 128.355 191.513 128.271 191.903 128.271C192.293 128.271 192.678 128.355 193.033 128.515C193.629 128.812 194.124 129.278 194.456 129.855C194.848 130.524 195.003 131.306 194.896 132.074Z" fill="white"/>
<path d="M194.289 133.539C194.03 133.941 193.678 134.274 193.263 134.511C192.847 134.748 192.381 134.881 191.903 134.899C191.118 134.886 190.369 134.571 189.81 134.02C189.455 133.689 189.225 133.245 189.161 132.764C189.807 132.43 190.527 132.264 191.254 132.283C192.386 132.314 193.466 132.761 194.289 133.539Z" fill="#FEDDAD"/>
<path d="M185.979 145.637C185.896 146.436 185.677 147.215 185.331 147.94C184.65 149.315 183.517 150.414 182.123 151.054C180.728 151.694 179.156 151.836 177.67 151.456C177.008 151.258 176.38 150.962 175.807 150.577C174.879 149.98 174.15 149.12 173.713 148.107C173.469 147.417 173.376 146.681 173.441 145.951C173.463 145.632 173.519 145.316 173.609 145.009C173.589 144.836 173.589 144.66 173.609 144.486C173.551 143.653 173.698 142.819 174.038 142.056C174.377 141.294 174.898 140.626 175.555 140.111C176.692 139.147 178.128 138.609 179.618 138.59C181.108 138.571 182.558 139.072 183.719 140.007C184.523 140.692 185.149 141.563 185.543 142.544C185.936 143.524 186.086 144.586 185.979 145.637Z" fill="white"/>
<path d="M185.979 145.637C185.896 146.436 185.677 147.215 185.331 147.94C184.65 149.315 183.517 150.414 182.123 151.054C180.728 151.694 179.156 151.836 177.67 151.456C177.008 151.258 176.38 150.962 175.807 150.577C176.653 149.206 177.936 148.159 179.449 147.605C179.861 146.852 180.466 146.223 181.202 145.782C181.937 145.34 182.777 145.103 183.635 145.093C184.449 145.084 185.253 145.27 185.979 145.637Z" fill="#FEDDAD"/>
<path d="M167.015 266.978L166.89 267.481C166.689 268.446 166.365 269.382 165.927 270.265C165.355 271.07 164.541 271.672 163.603 271.981C162.246 272.443 160.774 272.443 159.417 271.981C158.369 271.641 157.401 271.093 156.57 270.369C156.096 271.189 155.358 271.823 154.477 272.169C153.939 272.345 153.369 272.404 152.806 272.342C152.243 272.281 151.7 272.101 151.212 271.814C150.626 271.512 150.133 271.056 149.789 270.495C149.463 269.901 149.308 269.229 149.341 268.553C149.375 267.877 149.595 267.223 149.977 266.664C150.017 266.437 150.095 266.218 150.207 266.015C150.478 265.609 150.826 265.26 151.233 264.99C151.976 264.49 152.878 264.281 153.766 264.404C153.674 263.093 153.896 261.78 154.414 260.573C154.739 259.768 155.274 259.064 155.962 258.534C156.65 258.004 157.467 257.667 158.329 257.559C160.186 257.162 162.119 257.307 163.896 257.978C164.718 258.32 165.447 258.851 166.025 259.527C166.603 260.204 167.014 261.006 167.225 261.871C167.606 263.562 167.534 265.324 167.015 266.978Z" fill="white"/>
<path d="M167.015 266.978L166.89 267.48C166.689 268.446 166.366 269.381 165.927 270.264C165.356 271.07 164.541 271.671 163.603 271.981C162.246 272.443 160.774 272.443 159.417 271.981C158.369 271.641 157.401 271.093 156.57 270.369C156.096 271.189 155.358 271.823 154.477 272.169C153.939 272.344 153.369 272.403 152.806 272.342C152.243 272.281 151.7 272.101 151.212 271.813C151.474 270.855 152.045 270.01 152.835 269.408C153.626 268.807 154.593 268.482 155.587 268.485C155.907 268.452 156.229 268.452 156.55 268.485C157.061 267.378 157.879 266.441 158.907 265.785C159.934 265.128 161.128 264.78 162.348 264.78C163.237 264.795 164.113 264.999 164.918 265.378C165.722 265.757 166.437 266.302 167.015 266.978Z" fill="#FEDDAD"/>
<path d="M182.087 275.162V275.393C182.087 275.393 182.087 275.581 182.087 275.665C182.108 275.887 182.108 276.112 182.087 276.335C182.032 276.578 181.955 276.817 181.856 277.046C181.78 277.238 181.681 277.421 181.563 277.59C180.991 278.409 180.124 278.974 179.144 279.165C178.163 279.357 177.147 279.16 176.309 278.616C175.884 278.47 175.517 278.191 175.263 277.821C175.129 277.612 175.023 277.387 174.949 277.151C174.877 276.942 174.835 276.723 174.823 276.502C174.834 276.348 174.875 276.197 174.944 276.059C175.013 275.921 175.108 275.798 175.225 275.697C175.342 275.596 175.477 275.519 175.624 275.47C175.77 275.421 175.925 275.402 176.079 275.414C175.93 274.988 175.883 274.534 175.941 274.087C175.999 273.639 176.161 273.212 176.414 272.839C176.65 272.501 176.963 272.224 177.327 272.032C177.691 271.839 178.095 271.735 178.507 271.73C179.33 271.724 180.13 272.005 180.768 272.525C181.359 272.995 181.772 273.652 181.94 274.388C182.025 274.638 182.074 274.899 182.087 275.162Z" fill="white"/>
<path d="M182.044 275.728C182.024 275.916 182.044 275.832 182.044 275.728V275.728Z" fill="white"/>
<path d="M181.417 277.591C180.845 278.41 179.977 278.974 178.997 279.166C178.017 279.357 177.001 279.16 176.163 278.617C175.792 278.445 175.479 278.169 175.263 277.821C175.129 277.613 175.023 277.388 174.949 277.151C174.877 276.942 174.835 276.724 174.823 276.503C175.299 276.093 175.859 275.792 176.463 275.621C177.067 275.45 177.701 275.413 178.321 275.513C178.941 275.612 179.532 275.846 180.052 276.198C180.573 276.55 181.01 277.011 181.333 277.549L181.417 277.591Z" fill="#FEDDAD"/>
<path d="M246.158 273.174C245.07 277.36 240.13 278.177 236.467 277.36L235.441 277.067C233.967 276.79 232.633 276.015 231.661 274.872C230.69 273.729 230.14 272.287 230.103 270.788C230.25 270.285 230.376 270.285 230.585 269.95C230.561 269.588 230.561 269.224 230.585 268.862C230.632 268.307 230.744 267.759 230.92 267.229C229.311 267.21 227.716 266.942 226.189 266.434C225.411 267.754 224.29 268.839 222.945 269.574C220.729 270.911 218.16 271.546 215.577 271.395C213.128 271.06 211.181 268.653 209.883 266.727C209.208 265.78 208.665 264.745 208.272 263.65C208.112 262.634 208.191 261.595 208.502 260.615C208.753 259.631 209.13 258.836 209.507 258.919C209.964 257.94 210.615 257.065 211.421 256.345C212.227 255.625 213.171 255.077 214.195 254.733C216.379 253.829 218.776 253.568 221.103 253.98C221.622 252.669 222.406 251.479 223.405 250.484C224.98 248.896 227.003 247.828 229.203 247.425C231.403 247.021 233.674 247.301 235.709 248.227C237.745 249.152 239.449 250.679 240.591 252.602C241.733 254.525 242.259 256.752 242.097 258.982C242.06 260.392 241.679 261.772 240.988 263.001C241.709 263.135 242.411 263.353 243.081 263.65C243.879 263.982 244.593 264.486 245.172 265.126C245.751 265.767 246.181 266.528 246.43 267.355C246.84 269.286 246.746 271.29 246.158 273.174Z" fill="white"/>
<path d="M236.236 273.006C236.244 274.379 235.973 275.739 235.441 277.004C233.967 276.727 232.633 275.952 231.661 274.809C230.69 273.666 230.14 272.224 230.103 270.725C230.25 270.223 230.376 270.223 230.585 269.888C230.561 269.525 230.561 269.162 230.585 268.799C230.632 268.244 230.744 267.696 230.92 267.167C229.311 267.147 227.716 266.879 226.189 266.371C225.411 267.691 224.29 268.776 222.945 269.511C220.729 270.848 218.16 271.483 215.577 271.332C213.128 270.997 211.181 268.59 209.883 266.664C209.208 265.717 208.665 264.682 208.272 263.587C208.112 262.571 208.191 261.532 208.502 260.552C209.481 259.903 210.585 259.467 211.744 259.273C212.902 259.079 214.088 259.13 215.225 259.425C216.362 259.719 217.425 260.249 218.344 260.98C219.263 261.712 220.017 262.629 220.559 263.671C222.037 262.864 223.689 262.426 225.373 262.394C225.373 261.006 225.924 259.675 226.906 258.694C227.887 257.712 229.218 257.161 230.606 257.161C231.994 257.161 233.325 257.712 234.306 258.694C235.287 259.675 235.839 261.006 235.839 262.394C235.841 263.145 235.678 263.888 235.359 264.568C235.041 265.249 234.575 265.85 233.997 266.329C235.485 268.234 236.275 270.59 236.236 273.006Z" fill="#FEDDAD"/>
<path d="M300.538 249.584C300.162 252.534 298.663 255.226 296.352 257.098C295.112 258.105 293.607 258.731 292.019 258.898L291.37 259.003H290.763C289.109 259.004 287.505 258.434 286.221 257.391C285.867 258.005 285.398 258.545 284.84 258.982C284.555 259.158 284.253 259.305 283.939 259.422C284.211 259.773 284.416 260.17 284.547 260.594C284.713 261.21 284.742 261.855 284.634 262.484C284.525 263.113 284.281 263.711 283.919 264.236C283.572 264.724 283.13 265.137 282.621 265.45C282.448 265.557 282.266 265.648 282.077 265.722C281.541 265.917 280.969 265.988 280.402 265.931C280.137 265.953 279.871 265.953 279.607 265.931C279.345 265.854 279.092 265.749 278.853 265.617C278.509 265.423 278.192 265.184 277.911 264.906C277.621 264.643 277.38 264.331 277.199 263.985C277.076 263.771 277.001 263.533 276.979 263.287C276.958 263.041 276.99 262.794 277.074 262.561L277.241 262.164C277.253 262.094 277.253 262.024 277.241 261.954C277.085 261.708 276.966 261.44 276.886 261.159C276.834 260.816 276.853 260.466 276.943 260.131C277.033 259.796 277.192 259.483 277.409 259.212C276.404 258.794 275.482 258.199 274.688 257.454C273.996 256.818 273.45 256.04 273.089 255.172C272.728 254.305 272.559 253.369 272.595 252.431C272.618 251.898 272.71 251.37 272.867 250.861C272.857 250.742 272.857 250.623 272.867 250.505C272.937 249.571 273.261 248.674 273.803 247.911C274.345 247.147 275.085 246.546 275.944 246.172C277.145 245.621 278.469 245.391 279.786 245.504C281.104 245.618 282.369 246.072 283.458 246.821C283.998 245.331 284.949 244.025 286.201 243.054C287.453 242.083 288.956 241.488 290.533 241.337C292.372 241.035 294.26 241.316 295.93 242.142C297.601 242.968 298.971 244.297 299.848 245.942C300.38 247.078 300.618 248.331 300.538 249.584Z" fill="white"/>
<path d="M300.539 249.584C300.163 252.534 298.663 255.226 296.353 257.098C295.113 258.105 293.608 258.731 292.02 258.898L291.371 259.003H290.764C289.11 259.004 287.506 258.434 286.222 257.391C285.867 258.005 285.398 258.545 284.84 258.982C284.555 259.158 284.254 259.305 283.94 259.422C284.211 259.773 284.417 260.17 284.547 260.594C284.713 261.21 284.743 261.855 284.635 262.484C284.526 263.113 284.282 263.711 283.919 264.236C283.572 264.724 283.131 265.137 282.621 265.45C281.478 264.654 280.62 263.513 280.171 262.194C279.723 260.875 279.708 259.447 280.129 258.119C280.55 256.79 281.384 255.632 282.511 254.812C283.637 253.992 284.996 253.553 286.389 253.561H286.661C287.127 251.758 288.18 250.161 289.655 249.024C291.13 247.887 292.941 247.273 294.804 247.281C296.942 247.276 298.998 248.102 300.539 249.584Z" fill="#FEDDAD"/>
<path d="M267.864 263.985C267.886 264.18 267.886 264.376 267.864 264.571C267.691 265.518 267.197 266.377 266.465 267.002C265.733 267.627 264.808 267.981 263.846 268.004C263.052 267.992 262.279 267.745 261.627 267.292C261.394 267.148 261.183 266.972 260.999 266.769C260.607 266.351 260.313 265.85 260.141 265.304C260.055 265.032 259.999 264.751 259.973 264.467C259.963 264.169 260.028 263.874 260.162 263.608C260.206 263.529 260.255 263.452 260.308 263.378C260.406 263.109 260.563 262.866 260.769 262.666C260.78 262.618 260.78 262.568 260.769 262.52C260.745 262.067 260.814 261.614 260.972 261.189C261.131 260.764 261.375 260.377 261.69 260.05C262.311 259.513 263.1 259.209 263.921 259.189C264.742 259.17 265.544 259.438 266.19 259.945C266.934 260.461 267.503 261.191 267.823 262.038C268.013 262.672 268.027 263.344 267.864 263.985Z" fill="white"/>
<path d="M267.864 263.985C267.886 264.18 267.886 264.376 267.864 264.571C267.691 265.518 267.197 266.377 266.465 267.002C265.733 267.627 264.808 267.981 263.845 268.004C263.051 267.992 262.279 267.745 261.626 267.292C261.758 266.625 262.038 265.995 262.445 265.45C262.851 264.904 263.375 264.457 263.977 264.139C264.579 263.822 265.244 263.644 265.924 263.617C266.604 263.591 267.281 263.716 267.906 263.985H267.864Z" fill="#FEDDAD"/>
<path d="M157.735 76.4433L160.469 82.3052L176.442 74.8568L173.709 68.9949L157.735 76.4433Z" fill="#D284EB"/>
<path d="M166.764 89.2052L158.894 92.8891L152.74 79.6812L148.616 70.848L156.487 67.1641L160.882 76.6043L166.764 89.2052Z" fill="white"/>
<path d="M156.424 67.1641L160.82 76.6043C159.459 74.7204 158.099 73.2761 157.178 73.4017C154.771 73.7157 157.178 84.663 157.178 84.663L152.678 79.6812L148.491 70.848L156.424 67.1641Z" fill="#FEDDAD"/>
<path d="M168.836 59.2101C170.615 65.9501 182.337 82.6327 183.028 88.682C183.719 94.7312 182.421 97.7663 183.321 98.7082C183.492 98.8831 183.699 99.0187 183.928 99.1059C184.612 99.2981 185.337 99.2981 186.021 99.1059C186.021 99.1059 188.114 89.4774 186.293 85.4166C184.472 81.3559 179.888 70.4086 178.758 66.5781C177.933 63.62 177.332 60.6044 176.958 57.5565C176.055 56.2391 174.8 55.2019 173.336 54.5633C172.912 54.4241 172.464 54.3673 172.018 54.3958C169.464 54.6889 167.057 52.4701 168.836 59.2101Z" fill="white"/>
<path d="M168.837 59.21C170.616 65.95 182.338 82.6326 183.028 88.6819C183.719 94.7311 182.421 97.7662 183.321 98.7082C183.493 98.883 183.7 99.0187 183.929 99.1059C184.598 94.9195 185.247 88.0539 183.929 84.4537C181.835 79.3463 174.698 64.0243 174.321 60.2775C174.153 58.6867 173.839 56.5098 173.505 54.5213C173.08 54.3822 172.632 54.3253 172.186 54.3539C169.465 54.6888 167.058 52.47 168.837 59.21Z" fill="#FEDDAD"/>
<path d="M163.269 96.1755L146.607 100.592L140.683 87.8865L139.93 86.2957L134.76 75.181L148.868 65.2803L156.068 80.7069L161.217 91.738L163.269 96.1755Z" fill="white"/>
<path d="M161.218 91.738C157.743 88.6819 150.627 82.7373 147.843 82.9466C145.021 83.566 142.339 84.7015 139.93 86.2957L134.781 75.181L148.868 65.2803L156.069 80.7069L161.218 91.738Z" fill="#FEDDAD"/>
<path d="M149.517 117.275C149.101 124.332 147.538 131.274 144.891 137.83C144.744 138.206 144.577 138.541 144.43 138.918C137.418 154.931 42.3881 178.688 42.3881 178.688C41.1642 177.965 40.0853 177.021 39.2064 175.904C34.4131 170.106 27.8614 157.694 24.0728 150.137C22.168 146.37 20.954 143.858 20.954 143.858C20.954 143.858 20.7237 143.376 20.347 142.518C19.9702 141.66 19.1329 139.86 18.2538 137.871C17.0398 135.108 15.5745 131.592 14.0675 127.908C10.4672 118.844 6.95067 108.588 7.78794 104.883C7.78794 104.883 87.1191 47.4046 103.906 52.3235C120.694 57.2425 137.271 70.8272 143.635 86.505C144.602 88.3603 145.448 90.276 146.167 92.2403C148.968 100.272 150.107 108.789 149.517 117.275Z" fill="#F1C5FF"/>
<path d="M107.695 105.26C107.695 105.26 46.302 130.692 24.0725 150.138C22.1677 146.37 20.9537 143.858 20.9537 143.858C20.9537 143.858 20.7235 143.377 20.3467 142.518C31.3358 134.941 60.41 115.433 75.9204 110.116C95.3241 103.334 107.695 105.26 107.695 105.26Z" fill="#D284EB"/>
<path d="M146.167 92.2404C124.43 85.015 100.737 86.516 80.0856 96.4267C54.9676 108.274 32.3404 125.689 18.2743 137.746C17.0603 134.983 15.595 131.466 14.088 127.782C10.4877 118.719 6.97118 108.462 7.80845 104.758C7.80845 104.758 87.1396 47.2791 103.927 52.198C120.714 57.117 137.271 70.8273 143.634 86.5051C144.601 88.3604 145.447 90.2761 146.167 92.2404Z" fill="#D284EB"/>
<path d="M91.7972 139.413C111.609 130.174 122.756 112.144 116.693 99.1421C110.63 86.1399 89.6534 83.089 69.8411 92.3276C50.0288 101.566 38.8828 119.596 44.9458 132.598C51.0088 145.6 71.9849 148.651 91.7972 139.413Z" fill="white"/>
<path d="M80.0866 96.427C87.8237 92.7663 96.041 90.2222 104.493 88.8707C95.1156 85.5844 82.2635 86.5473 69.851 92.3453C57.4385 98.1434 48.103 107.709 44.7539 117.191C55.9222 109.282 67.7423 102.335 80.0866 96.427Z" fill="#FEEED6"/>
<path d="M75.9205 109.99C67.4222 112.9 54.8841 120.058 43.3926 127.112C43.5937 128.99 44.1029 130.822 44.8997 132.534C45.2915 133.369 45.7463 134.174 46.2602 134.941C66.1813 123.933 86.6902 114.025 107.695 105.26C107.695 105.26 95.3242 103.334 75.9205 109.99Z" fill="#FEEED6"/>
<path d="M90.0541 135.676C107.404 127.585 117.335 112.16 112.234 101.221C107.133 90.2833 88.9335 87.9748 71.5833 96.0653C54.2331 104.156 44.3028 119.581 49.4034 130.52C54.5039 141.458 72.7039 143.766 90.0541 135.676Z" fill="#A62484"/>
<path d="M80.0857 96.4266C84.5078 94.3563 89.0848 92.6346 93.7751 91.2774C86.1032 91.0879 78.4969 92.7312 71.5875 96.0708C63.7223 99.5606 56.9721 105.152 52.0791 112.23C61.0337 106.314 70.3922 101.033 80.0857 96.4266Z" fill="#7D1B63"/>
<path d="M75.921 109.99C68.5111 112.46 58.1709 118.216 48.0818 124.328C48.0135 127.285 48.9019 130.185 50.6145 132.597C76.5698 118.154 107.695 105.26 107.695 105.26C107.695 105.26 95.3246 103.334 75.921 109.99Z" fill="#7D1B63"/>
<path d="M131.531 139.41C136.879 137.281 140.175 132.943 138.892 129.72C137.609 126.498 132.233 125.613 126.885 127.742C121.536 129.872 118.24 134.21 119.523 137.432C120.806 140.654 126.182 141.54 131.531 139.41Z" fill="white"/>
<path d="M113.702 142.414C114.183 143.628 112.948 145.282 110.897 146.077C108.846 146.872 106.836 146.558 106.355 145.344C105.874 144.13 107.108 142.456 109.139 141.66C111.169 140.865 113.221 141.179 113.702 142.414Z" fill="white"/>
</svg>
