<svg width="308" height="260" viewBox="0 0 308 260" fill="none" xmlns="http://www.w3.org/2000/svg">
<path d="M161.834 257.218C232.791 257.218 290.313 199.637 290.313 128.609C290.313 57.5801 232.791 0 161.834 0C90.8773 0 33.3555 57.5801 33.3555 128.609C33.3555 199.637 90.8773 257.218 161.834 257.218Z" fill="white"/>
<path d="M282.859 128.609C282.859 160.739 270.108 191.554 247.412 214.273C224.715 236.993 193.932 249.757 161.834 249.757C129.736 249.757 98.9527 236.993 76.2561 214.273C53.5594 191.554 40.8086 160.739 40.8086 128.609C40.8086 127.929 40.8086 127.248 40.8086 126.548C41.3486 94.7759 54.3375 64.4883 76.9759 42.2126C99.6142 19.9368 130.09 7.45634 161.834 7.46094C166.851 7.45958 171.863 7.76242 176.844 8.3678C206.116 12.039 233.041 26.2829 252.562 48.4235C272.084 70.5642 282.857 99.0781 282.859 128.609Z" fill="#1B348C"/>
<path d="M277.424 164.698C270.68 186.318 258.017 205.614 240.873 220.396C223.73 235.178 202.79 244.855 180.431 248.329C158.072 251.804 135.187 248.936 114.374 240.052C93.5599 231.168 75.6499 216.622 62.6753 198.066L153.805 161.854L241.042 76.6914L277.424 164.698Z" fill="#071B6B"/>
<path d="M176.844 8.3678L149.584 90.0261L40.8296 126.568C41.3642 94.7964 54.3479 64.5067 76.9824 42.2271C99.6169 19.9475 130.09 7.46184 161.834 7.46094C166.851 7.45958 171.864 7.76242 176.844 8.3678Z" fill="#071B6B"/>
<path d="M217.138 82.0293C217.138 82.0293 214.791 97.3016 221.874 103.052C228.956 108.802 233.26 94.2925 230.871 89.6139C228.483 84.9354 217.138 82.0293 217.138 82.0293Z" fill="#73195B"/>
<path d="M283.745 146.457C280.78 159.999 260.726 171.19 251.049 172.138C245.964 172.618 240.843 172.556 235.771 171.953C229.244 171.169 223.109 169.521 220 166.841C214.317 161.977 208.243 131.597 208.428 130.979C208.614 130.361 211.702 130.093 214.605 128.32C215.567 127.757 216.447 127.063 217.22 126.259C220.638 122.694 223.15 113.893 221.338 104.825C220.846 102.201 220.902 99.5037 221.505 96.9032C222.107 94.3028 223.242 91.8558 224.838 89.7171C224.838 89.7171 247.013 78.5257 259.985 85.595C272.956 92.6644 286.71 132.916 283.745 146.457Z" fill="#F8ACA9"/>
<path d="M271.885 192.316L258.996 195.531L234.577 201.59C234.577 201.24 236.348 195.819 238.057 189.904C239.972 183.247 241.928 175.951 241.783 174.467C241.714 173.722 241.444 173.009 241.001 172.406C240.47 171.72 239.757 171.198 238.942 170.902C238.942 170.902 258.029 159.545 266.985 154.413C269.682 152.847 271.453 151.837 271.556 151.837C271.659 151.837 271.556 156.722 271.556 162.946C271.556 164.512 271.556 166.182 271.556 167.892C271.556 172.241 271.679 176.837 271.721 180.877C271.762 184.917 271.721 188.688 271.721 190.708C271.885 191.677 271.885 192.316 271.885 192.316Z" fill="#F8ACA9"/>
<path d="M253.767 154.578C253.767 154.578 253.19 155.464 252.181 156.866C249.883 155.898 247.868 154.361 246.327 152.4C244.785 150.439 243.767 148.117 243.369 145.654C243.369 145.654 239.601 143.201 231.015 137.08C225.676 133.487 219.834 130.709 213.679 128.836C214.049 128.65 214.441 128.444 214.811 128.217C219.919 128.632 224.881 130.128 229.368 132.607C236.615 137.203 246.601 144.087 246.601 144.087C246.601 144.087 246.643 152.517 253.767 154.578Z" fill="white"/>
<path d="M252.181 156.907C251.687 157.608 251.09 158.411 250.349 159.318C247.054 163.44 241.701 169.273 235.751 171.932C229.244 171.149 223.088 169.5 219.979 166.82C219.439 166.33 218.968 165.769 218.579 165.151C218.291 164.698 218.003 164.182 217.714 163.646C217.426 163.111 217.405 163.049 217.241 162.719C215.283 158.338 213.692 153.802 212.485 149.157C212.073 147.694 211.682 146.21 211.332 144.747C210.088 140.216 209.098 135.62 208.367 130.979C208.49 130.546 210.858 130.196 213.452 128.918C219.596 130.763 225.437 133.499 230.789 137.038C239.436 143.222 243.142 145.633 243.142 145.633C243.142 145.633 244.419 154.083 252.181 156.907Z" fill="#4AB0F2"/>
<path d="M287.039 158.103L286.875 158.412C286.939 158.314 286.994 158.21 287.039 158.103Z" fill="#3E5096"/>
<path d="M307.547 106.308C305.961 121.849 300.34 140.563 293.999 146.828L287.04 158.102C285.818 159.395 284.69 160.772 283.663 162.224C279.092 168.057 277.836 167.789 274.336 168.82C270.836 169.85 271.927 167.666 270.63 163.461C269.333 159.257 268.571 160.102 267.665 158.535C267.087 156.974 266.821 155.314 266.882 153.651C266.882 153.651 269.23 153.815 268.365 152.393C267.5 150.971 264.515 148.622 264.041 147.055C263.534 144.786 262.605 142.633 261.303 140.707C260.5 139.463 259.987 138.054 259.8 136.585C259.532 135.245 259.429 134.112 259.429 134.112L263.547 94.2514L264.288 92.9942L225.271 78.1547L220.721 76.3822C221.359 75.5578 230.892 64.1396 255.538 61.9549C262.187 61.1398 268.927 61.5096 275.448 63.0473C281.673 64.641 287.117 68.4231 290.787 73.7028C294.58 74.3556 298.105 76.0919 300.936 78.7026C303.767 81.3134 305.784 84.6874 306.744 88.4187C308.082 94.2854 308.354 100.345 307.547 106.308Z" fill="#A62484"/>
<path d="M275.592 62.9238C268.9 64.0161 259.696 65.665 251.028 67.6848C241.701 69.8695 233.074 72.5076 228.75 75.4137C227.521 76.2331 226.339 77.1208 225.209 78.0724C217.447 84.6471 218.661 89.2639 218.661 89.2639C217.497 87.5187 216.927 85.4442 217.035 83.3487C217.331 80.641 218.649 78.1488 220.72 76.3824C221.359 75.558 230.892 64.1398 255.537 61.9551C262.226 61.0822 269.017 61.4102 275.592 62.9238Z" fill="white"/>
<path d="M307.547 106.309C305.961 121.849 300.34 140.563 293.999 146.829L287.04 158.102C285.818 159.395 284.69 160.773 283.663 162.225C279.092 168.057 277.836 167.789 274.336 168.82C270.836 169.85 271.927 167.666 270.63 163.461C269.333 159.257 268.571 160.102 267.665 158.535C267.087 156.974 266.821 155.314 266.882 153.651C266.882 153.651 269.23 153.816 268.365 152.393C267.5 150.971 264.515 148.622 264.041 147.055C263.534 144.786 262.605 142.633 261.303 140.707C266.369 138.446 271.197 135.684 275.715 132.463C281.892 127.723 283.478 122.282 289.778 115.315C296.078 108.349 298.508 114.45 298.508 114.45V123.869L307.547 106.309Z" fill="#73195B"/>
<path d="M252.922 155.444L252.716 154.805L252.346 154.269C253.005 153.754 261.59 144.994 263.773 140.068L264.988 140.604C262.682 145.777 253.519 155.238 252.922 155.444Z" fill="white"/>
<path d="M256.876 133.39C256.876 133.39 262.312 125.909 268.55 128.547C274.789 131.185 270.836 137.389 268.406 139.347C265.977 141.305 257.391 144.273 257.391 144.273L256.876 133.39Z" fill="#F8ACA9"/>
<path d="M268.076 114.058C267.273 119.994 263.32 129.701 259.841 136.503C259.202 137.698 258.605 138.832 258.029 139.821C254.158 146.375 252.264 144.067 252.264 144.067C253.911 141.387 260.211 119.932 254.796 110.307C252.778 106.339 249.884 102.881 246.335 100.196C242.786 97.5115 238.674 95.6689 234.31 94.8079C224.159 92.9117 216.088 92.5201 208.593 84.2966C206.879 82.5584 205.565 80.4661 204.744 78.1662C203.922 75.8663 203.613 73.4144 203.837 70.9823C204.232 68.9861 205.017 67.0879 206.148 65.397C207.278 63.7062 208.732 62.2561 210.426 61.1305C213.835 58.8768 217.704 57.4123 221.75 56.8435C241.557 53.4222 267.356 64.9434 270.053 86.5637C271.185 96.1063 269.271 104.68 268.076 114.058Z" fill="#A62484"/>
<path d="M221.689 56.8433C217.664 57.4209 213.817 58.8851 210.426 61.1303C208.735 62.2712 207.288 63.7368 206.167 65.4422C205.047 67.1475 204.276 69.0585 203.899 71.0645C203.477 74.8039 204.428 78.5693 206.576 81.6582C206.68 78.0528 207.911 74.571 210.097 71.7034C214.585 65.9119 221.956 63.047 229.204 61.9341C238.215 60.6161 247.412 61.558 255.97 64.6753C245.946 57.8136 233.694 55.0146 221.689 56.8433Z" fill="white"/>
<path d="M246.293 144.974L244.852 143.737C245.407 143.078 257.473 127.867 264.762 127.867L266.491 127.991C259.841 127.991 246.416 144.809 246.293 144.974Z" fill="white"/>
<path d="M259.717 166.182C259.717 166.182 253.416 180.609 248.887 184.442C245.584 186.819 241.93 188.662 238.057 189.904C239.971 183.247 241.927 175.951 241.783 174.488C241.726 173.74 241.455 173.024 241.001 172.427L259.717 166.182Z" fill="#FE898F"/>
<path d="M287.039 201.59L286.628 254.353L211.435 260L217.467 226.714L219.259 216.883L234.577 201.693C238.839 197.448 253.849 192.542 263.073 190.708C264.628 190.375 266.203 190.141 267.788 190.007C269.193 189.944 270.596 190.175 271.906 190.688C278.906 193.12 287.039 201.59 287.039 201.59Z" fill="#F9FFFF"/>
<path d="M287.039 201.59L286.628 254.353L211.435 260L217.467 226.714C225.865 222.945 234.051 218.721 241.989 214.06C245.243 211.71 252.531 203.404 258.996 195.634C260.417 193.944 261.776 192.275 263.114 190.708C264.67 190.375 266.244 190.141 267.829 190.007C269.234 189.944 270.637 190.175 271.947 190.688C278.906 193.12 287.039 201.59 287.039 201.59Z" fill="#CDDCF4"/>
<path d="M230.294 87.3881C230.294 87.3881 230.294 82.0294 237.048 80.6073C247.569 78.402 259.696 75.4135 259.696 75.4135C259.696 75.4135 248.063 74.6509 241.021 76.6913C233.98 78.7317 226.321 79.8859 230.294 87.3881Z" fill="white"/>
<path d="M231.53 116.778C231.53 119.045 230.809 120.9 229.903 120.9C228.997 120.9 228.256 119.066 228.256 116.778C228.256 114.491 228.997 112.656 229.903 112.656C230.809 112.656 231.53 114.511 231.53 116.778Z" fill="#73195B"/>
<path d="M232.724 105.937C232.565 105.937 232.408 105.895 232.271 105.813C231.688 105.397 230.99 105.173 230.274 105.173C229.558 105.173 228.86 105.397 228.277 105.813C228.105 105.977 227.876 106.069 227.639 106.069C227.401 106.069 227.173 105.977 227 105.813C226.832 105.644 226.737 105.414 226.737 105.175C226.737 104.935 226.832 104.706 227 104.536C227.883 103.858 228.96 103.482 230.072 103.464C231.184 103.445 232.273 103.785 233.177 104.433C233.349 104.533 233.483 104.687 233.558 104.871C233.634 105.055 233.647 105.259 233.596 105.451C233.544 105.643 233.431 105.813 233.273 105.934C233.116 106.056 232.923 106.122 232.724 106.123V105.937Z" fill="#73195B"/>
<path d="M228.277 144.479C228.277 144.479 217.035 148.23 214.791 148.601L212.526 149.075C212.114 147.612 211.723 146.128 211.373 144.664C214.976 144.582 219.444 144.273 220.721 144.273C223.241 144.175 225.766 144.244 228.277 144.479Z" fill="#CBE3F2"/>
<path d="M234.578 155.959C234.578 155.959 231.427 161.792 228.277 163.234C225.133 164.262 221.877 164.913 218.58 165.172C218.291 164.718 218.003 164.203 217.715 163.667C217.427 163.131 217.406 163.07 217.241 162.74C220.488 162.428 223.688 161.737 226.774 160.679C229.08 159.504 234.578 155.959 234.578 155.959Z" fill="#CBE3F2"/>
<path d="M116.929 95.0141C116.888 101.085 114.807 106.966 111.019 111.709C110.178 112.655 109.248 113.518 108.24 114.285C107.951 114.512 107.354 114.408 107.396 113.955L108.775 103.382C109.146 100.435 109.537 97.508 109.908 94.5813C110.278 91.6546 110.649 88.9341 110.978 86.0898C110.978 85.7601 110.978 85.4097 111.122 85.0799C111.431 82.5861 111.575 79.9685 112.049 77.4747C112.049 77.0625 112.214 76.6709 112.337 76.2381C112.461 75.8053 112.172 75.9495 112.09 75.8259C112.008 75.7022 112.255 75.4137 112.461 75.5579C112.517 75.496 112.585 75.4465 112.661 75.4127C112.737 75.3788 112.82 75.3613 112.903 75.3613C112.987 75.3613 113.069 75.3788 113.145 75.4127C113.222 75.4465 113.29 75.496 113.346 75.5579C113.392 75.6588 113.434 75.762 113.469 75.8671C113.469 76.0732 113.469 76.2793 113.469 76.4854C113.636 76.6524 113.781 76.8393 113.902 77.0419C115.373 79.2011 116.305 81.6819 116.62 84.2761C116.68 84.624 116.721 84.9749 116.743 85.3272C117.107 88.5433 117.169 91.7865 116.929 95.0141Z" fill="#73195B"/>
<path d="M118.946 134.442C118.833 135.194 118.668 135.938 118.452 136.668C118.246 137.409 118.019 138.131 117.814 138.729C117.031 141.284 116.146 143.757 115.157 146.21C114.828 147.035 114.478 147.859 114.128 148.642C113.449 150.167 112.79 151.734 112.069 153.259C110.664 156.347 108.757 159.182 106.428 161.647C105.221 162.872 103.832 163.901 102.31 164.698C101.898 164.924 101.486 165.089 101.054 165.275C98.1612 166.503 95.0717 167.202 91.9325 167.336C89.807 167.47 87.6752 167.47 85.5497 167.336V167.521C85.3512 170.506 85.3168 173.499 85.4468 176.487C85.5668 178.569 85.863 180.638 86.3321 182.67C86.756 185.245 87.8898 187.651 89.6059 189.616C91.3354 191.491 93.1061 193.367 94.8562 195.242C94.9797 195.366 94.8562 195.51 94.8562 195.654C94.863 195.81 94.8182 195.963 94.7287 196.089C94.6393 196.216 94.5103 196.31 94.362 196.355C91.6701 197.095 88.9112 197.564 86.1262 197.757C83.2025 198.128 80.2582 198.334 77.3139 198.478C71.9768 198.712 66.6297 198.554 61.3158 198.004C60.8629 198.004 60.4305 198.004 59.9981 197.88C54.4335 197.284 48.9254 196.243 43.5265 194.768C41.1692 194.205 38.8569 193.468 36.6084 192.563L45.2766 184.319L50.4652 179.31C50.8168 179.071 51.1293 178.779 51.3917 178.445C53.7183 175.786 54.2948 171.458 54.8919 168.14C55.4944 164.886 55.866 161.594 56.0037 158.288C56.0224 157.2 55.9673 156.112 55.839 155.031C54.9773 150.782 53.6659 146.637 51.927 142.665C50.3596 138.489 49.4496 134.095 49.2298 129.639C49.0275 121.715 50.8551 113.871 54.5384 106.854C58.2218 99.837 63.6384 93.8807 70.2723 89.5522C76.9952 85.0273 84.6663 82.1081 92.6943 81.0195C98.7476 80.2157 108.054 80.0508 110.978 86.0896C111.281 86.6915 111.509 87.3283 111.657 87.9858C111.721 88.023 111.776 88.0736 111.819 88.134C111.862 88.1945 111.891 88.2634 111.904 88.3362C112.243 90.3798 112.415 92.4477 112.419 94.5193C112.419 100.249 111.431 106.04 111.019 111.729C110.998 112.072 110.998 112.416 111.019 112.759C110.54 116.538 110.913 120.377 112.11 123.992C112.755 125.245 113.749 126.283 114.972 126.981C115.786 127.447 116.551 127.992 117.258 128.609C117.356 128.681 117.446 128.764 117.525 128.856C117.764 129.075 117.971 129.324 118.143 129.598C118.253 129.744 118.343 129.903 118.411 130.072C118.471 130.154 118.519 130.245 118.555 130.34C118.722 130.74 118.853 131.154 118.946 131.577C119.094 132.526 119.094 133.492 118.946 134.442Z" fill="#F8ACA9"/>
<path d="M111.802 129.495C111.802 131.123 108.446 132.422 104.287 132.422C100.128 132.422 96.7925 131.123 96.7925 129.495C96.7925 127.867 100.149 126.568 104.287 126.568C108.426 126.568 111.802 127.887 111.802 129.495Z" fill="#FE898F"/>
<path d="M98.1303 109.235C98.0329 109.246 97.9344 109.235 97.8417 109.203C97.7491 109.171 97.6649 109.119 97.595 109.05C97.5309 108.986 97.48 108.911 97.4452 108.828C97.4105 108.745 97.3926 108.655 97.3926 108.565C97.3926 108.475 97.4105 108.386 97.4452 108.303C97.48 108.22 97.5309 108.144 97.595 108.081C101.61 103.959 108.405 105.917 108.693 106.02C108.865 106.073 109.011 106.19 109.099 106.347C109.187 106.505 109.211 106.69 109.166 106.865C109.143 106.952 109.102 107.033 109.046 107.104C108.991 107.175 108.922 107.235 108.843 107.279C108.765 107.323 108.678 107.351 108.589 107.361C108.499 107.372 108.409 107.364 108.322 107.339C108.322 107.339 102.022 105.587 98.5627 109.091C98.435 109.179 98.2852 109.229 98.1303 109.235Z" fill="#73195B"/>
<path d="M101.301 118.16H100.436C100.316 118.16 100.201 118.112 100.116 118.027C100.031 117.942 99.9834 117.826 99.9834 117.706C99.9834 117.586 100.031 117.471 100.116 117.385C100.201 117.3 100.316 117.253 100.436 117.253H101.095C101.914 116.174 103.121 115.458 104.46 115.258C105.799 115.058 107.162 115.389 108.26 116.181C108.305 116.221 108.34 116.271 108.364 116.326C108.389 116.381 108.401 116.44 108.401 116.5C108.401 116.56 108.389 116.62 108.364 116.675C108.34 116.73 108.305 116.779 108.26 116.82C108.222 116.864 108.174 116.899 108.121 116.923C108.068 116.947 108.01 116.959 107.952 116.959C107.893 116.959 107.835 116.947 107.782 116.923C107.729 116.899 107.681 116.864 107.643 116.82C104.513 114.429 101.692 117.768 101.569 117.912C101.545 117.97 101.508 118.023 101.462 118.065C101.416 118.108 101.361 118.14 101.301 118.16Z" fill="#73195B"/>
<path d="M117.772 138.79C117.525 139.635 117.258 140.46 116.969 141.305C116.681 142.15 116.29 143.366 115.919 144.232C115.343 145.736 114.746 147.241 114.087 148.704C112.999 151.332 111.755 153.893 110.36 156.371C109.49 157.935 108.462 159.406 107.292 160.761C105.887 162.393 104.19 163.749 102.289 164.76C99.0816 166.364 95.5757 167.284 91.9943 167.459C90.8413 166.553 89.7294 165.543 88.6794 164.636C84.9938 161.462 81.02 157.134 80.1347 152.27C79.9924 151.592 79.9233 150.901 79.9288 150.209C79.9252 150.168 79.9308 150.127 79.9454 150.089C79.9599 150.051 79.983 150.017 80.0128 149.989C80.0426 149.961 80.0783 149.94 80.1173 149.928C80.1562 149.916 80.1974 149.914 80.2376 149.92C80.2595 149.865 80.296 149.816 80.3431 149.78C80.3902 149.744 80.4463 149.721 80.5053 149.714C82.3814 149.266 84.0636 148.226 85.3027 146.746C86.0692 146.104 86.6965 145.313 87.1462 144.42C87.5958 143.526 87.8583 142.551 87.9175 141.552C87.6499 141.408 87.5263 141.078 87.794 140.872C92.6285 137.114 97.8297 133.855 103.319 131.144C105.981 129.8 108.75 128.676 111.596 127.784C112.604 127.496 113.778 127.166 114.931 126.939C116.461 127.688 117.731 128.88 118.575 130.361C119.831 133.02 118.596 136.214 117.772 138.79Z" fill="#4AB0F2"/>
<path d="M117.011 141.305C116.682 142.294 116.331 143.366 115.961 144.231L99.4893 142.315L117.011 141.305Z" fill="#CBE3F2"/>
<path d="M110.402 156.371C109.518 157.937 108.477 159.408 107.293 160.761L94.8154 151.198C95.9273 151.775 104.328 154.578 110.402 156.371Z" fill="#CBE3F2"/>
<path d="M114.911 126.96C113.738 127.187 112.585 127.517 111.576 127.805C108.709 128.651 105.919 129.741 103.237 131.062C98.0002 133.649 93.0283 136.741 88.3918 140.295C88.1859 140.048 87.9595 139.821 87.8153 139.615L85.4475 136.647C83.9651 134.771 82.4826 132.855 80.9796 131C79.4766 129.145 78.2206 127.414 76.697 125.723C76.1492 124.978 75.4411 124.365 74.6251 123.93C73.809 123.494 72.9058 123.248 71.982 123.209C71.8421 123.221 71.7104 123.28 71.6085 123.376C71.5066 123.473 71.4407 123.601 71.4215 123.741C71.4023 123.88 71.431 124.021 71.503 124.142C71.5749 124.263 71.6858 124.355 71.8173 124.404C72.7028 124.586 73.543 124.943 74.288 125.456C75.0071 126.007 75.657 126.644 76.2234 127.352C77.6647 129.042 78.9824 130.794 80.3413 132.504L84.5828 137.636L86.8888 140.357C87.1947 140.794 87.5247 141.214 87.8771 141.614C87.711 143.563 86.7868 145.369 85.3034 146.643C84.0923 148.052 82.4965 149.076 80.7119 149.59C79.8678 148.477 78.8177 147.529 77.8706 146.457C76.9235 145.386 75.544 143.922 74.4733 142.583C72.4144 139.945 70.5201 137.1 68.5847 134.339C68.5579 134.302 68.5198 134.275 68.4763 134.263C68.4328 134.25 68.3864 134.252 68.3442 134.269C68.302 134.285 68.2663 134.315 68.2428 134.354C68.2193 134.392 68.2092 134.438 68.2141 134.483C69.1977 137.737 70.9168 140.72 73.2379 143.201C74.3292 144.52 75.5028 145.777 76.697 147.014C77.6968 148.148 78.7771 149.209 79.9295 150.188C79.9125 150.88 79.9747 151.571 80.1148 152.249C80.8786 152.119 81.6347 151.947 82.3797 151.734C84.3139 151.056 86.0286 149.867 87.3418 148.292C88.609 146.853 89.5814 145.18 90.2037 143.366C90.3478 142.871 90.4714 142.377 90.5743 141.903C91.0685 141.532 91.5832 141.181 92.0568 140.893C93.7039 139.842 95.3099 138.708 96.9983 137.698C100.49 135.576 104.171 133.782 107.993 132.339C111.293 131.013 114.755 130.133 118.288 129.722C117.361 128.581 116.212 127.641 114.911 126.96Z" fill="white"/>
<path d="M38.0708 80.8751C37.3339 82.2692 36.7008 83.7158 36.1766 85.2032C34.5369 90.3009 33.7575 95.6366 33.8706 100.991C33.7059 124.033 40.2739 150.456 26.0877 171.066C21.9684 177.896 16.5631 183.86 10.172 188.626C10.0814 188.707 9.96415 188.752 9.8426 188.752C9.72105 188.752 9.60376 188.707 9.51316 188.626C9.4574 188.544 9.42758 188.447 9.42758 188.348C9.42758 188.249 9.4574 188.152 9.51316 188.07C14.1664 177.249 12.6222 164.883 10.7074 153.527C8.96397 143.075 6.34676 132.789 2.88334 122.776C0.946403 117.855 -0.0320313 112.608 0.000799623 107.318C0.108429 102.803 0.800519 98.3205 2.05975 93.9833C4.42755 85.8628 9.55434 78.4018 17.8519 75.1041C24.2347 72.5691 34.8795 72.6927 38.0091 79.9888C38.0181 80.0572 38.0181 80.1265 38.0091 80.1949C38.0934 80.2853 38.1453 80.4012 38.1564 80.5244C38.1676 80.6476 38.1375 80.7709 38.0708 80.8751Z" fill="#A62484"/>
<path d="M33.8706 100.991C33.7059 124.033 40.2739 150.456 26.0878 171.066C21.9685 177.896 16.5631 183.86 10.172 188.626C10.0815 188.707 9.96417 188.752 9.84262 188.752C9.72107 188.752 9.60378 188.707 9.51318 188.626C12.7663 185.493 14.8253 180.773 16.4107 176.507C19.0456 169.997 20.898 163.195 21.9287 156.247C22.1346 154.763 22.2581 153.259 22.3405 151.775C20.8442 154.5 19.1078 157.087 17.1519 159.504C16.9254 159.833 16.3283 159.504 16.4724 159.112C18.2344 154.747 19.4046 150.165 19.9521 145.488C20.6071 141.152 20.8415 136.762 20.6521 132.38C20.3845 128.423 19.8079 124.487 19.3962 120.529L18.9432 117.479C17.3372 107.339 16.8842 95.4259 24.6259 87.3878C27.6937 84.1726 32.2852 82.194 36.2178 85.1413C34.5573 90.2563 33.7639 95.6135 33.8706 100.991Z" fill="#73195B"/>
<path d="M35.2705 84.1729C32.6145 84.1729 30.8644 86.2339 29.4643 88.1094C28.0063 90.2543 26.9784 92.6622 26.4376 95.1994C25.8268 97.9039 25.5365 100.671 25.5729 103.444C25.5729 105.711 25.4287 109.441 27.9818 110.534C28.4966 110.76 29.3202 110.534 29.4231 109.977C29.5082 109.039 29.4456 108.093 29.2378 107.174C29.06 106.063 28.9842 104.939 29.0113 103.815C28.9905 101.458 29.135 99.1024 29.4437 96.7658C29.7565 94.6395 30.4321 92.5829 31.4409 90.6857C31.9644 89.7221 32.6078 88.8287 33.3557 88.027C34.0474 87.2035 34.8764 86.5062 35.8059 85.966C36.753 85.5537 36.2176 84.1935 35.2705 84.1729Z" fill="white"/>
<path d="M70.664 124.178C68.1369 125.687 66.3031 128.129 65.5578 130.979C65.1437 132.694 64.9227 134.45 64.899 136.214C64.899 136.709 64.899 137.183 64.899 137.636C63.2655 136.547 62.0993 134.884 61.6304 132.977C61.1616 131.069 61.4242 129.054 62.3665 127.331C62.9912 126.154 63.8877 125.144 64.9813 124.384C66.1976 123.777 67.5799 123.588 68.9139 123.848C69.5052 123.91 70.0905 124.021 70.664 124.178Z" fill="#0092A8"/>
<path d="M114.375 83.3074C114.396 83.6987 114.396 84.0909 114.375 84.4822C114.153 87.2678 113.677 90.0272 112.955 92.7264C112.81 93.3035 112.646 93.8806 112.481 94.437C111.574 97.5219 110.353 100.505 108.837 103.341C108.384 104.186 107.931 105.031 107.416 105.855C105.03 109.74 102.128 113.283 98.789 116.387C97.2268 117.876 95.5618 119.254 93.8064 120.509C92.0522 121.942 90.0489 123.039 87.8972 123.745C87.6501 123.745 87.4854 123.539 87.6501 123.374C89.2058 122.104 90.8503 120.947 92.571 119.911C96.4054 116.669 99.7485 112.885 102.495 108.679C103.278 107.442 103.998 106.206 104.657 104.928C102.54 107.674 100.145 110.195 97.5125 112.451C93.7554 115.702 89.5452 118.389 85.0146 120.427C82.7101 121.485 80.3286 122.367 77.8906 123.065C77.8906 124.363 77.8906 125.621 77.8906 126.919C77.8906 127.743 77.8906 128.568 78.0348 129.392C78.4482 134.115 79.5225 138.757 81.2262 143.181C81.432 143.675 80.7526 143.923 80.4026 143.655C79.3334 142.786 78.3539 141.813 77.4789 140.749C75.9121 138.886 74.6285 136.803 73.6698 134.565C72.3367 131.433 71.5163 128.107 71.2402 124.714C71.23 124.521 71.23 124.329 71.2402 124.137H71.0961C71.0288 124.156 70.9575 124.156 70.8902 124.137H70.7873C70.2004 123.989 69.6004 123.899 68.996 123.869C67.6553 123.605 66.265 123.793 65.0428 124.405C63.9653 125.177 63.078 126.185 62.4485 127.352C61.5506 129.069 61.3167 131.056 61.7916 132.935C62.2665 134.813 63.4167 136.451 65.0222 137.533C65.0147 138.259 64.8158 138.97 64.4457 139.594C63.8188 140.264 63.4724 141.15 63.478 142.068C63.5709 142.703 63.5709 143.349 63.478 143.984C63.1985 145.002 62.6755 145.936 61.9543 146.705C61.0896 147.715 60.0601 148.581 59.2159 149.57C58.5479 150.357 57.9998 151.239 57.5894 152.187C57.2872 152.922 57.0462 153.68 56.8687 154.454C56.8446 154.554 56.7858 154.642 56.7028 154.703C56.6198 154.763 56.5181 154.792 56.4158 154.784C56.358 154.841 56.2804 154.873 56.1996 154.873C56.1187 154.873 56.0411 154.841 55.9834 154.784C53.9244 153.074 51.8655 151.26 49.9095 149.446C48.9418 148.539 47.8505 147.674 46.9652 146.705C42.3493 142.793 38.3814 138.174 35.2085 133.02C34.1363 131.186 33.1804 129.286 32.3466 127.331C30.0686 122.059 28.7173 116.432 28.3522 110.699C28.3522 109.854 28.3522 108.967 28.3522 108.122C28.304 104.898 28.6008 101.679 29.2376 98.5179C29.6124 96.7678 30.0868 95.0406 30.6583 93.3447C31.0503 92.1607 31.5039 90.9981 32.0172 89.8615C32.2437 89.3463 32.4701 88.8516 32.7378 88.3364C33.3564 87.0232 34.0437 85.7436 34.7968 84.5028C34.8299 84.4231 34.8713 84.3472 34.9203 84.2761C35.8495 82.8056 36.8599 81.3882 37.947 80.0304C41.0345 76.1662 44.7686 72.8677 48.9829 70.2817L49.3947 70.0343C54.6007 67.1307 60.2277 65.0585 66.0723 63.8924C69.9986 62.9543 73.9803 62.2659 77.9936 61.8314C81.4795 61.1291 85.0702 61.1291 88.556 61.8314C92.4744 62.522 96.2967 63.6775 99.942 65.2733C103.895 66.9634 109.146 69.5603 111.884 73.3732C111.884 73.5175 112.131 73.6618 112.213 73.806C112.235 73.7934 112.26 73.7867 112.285 73.7867C112.311 73.7867 112.336 73.7934 112.358 73.806C112.767 74.363 113.112 74.9645 113.387 75.5991C113.433 75.7 113.475 75.8032 113.511 75.9083C113.681 76.2854 113.812 76.6791 113.902 77.0831C114.476 79.105 114.637 81.2219 114.375 83.3074Z" fill="#A62484"/>
<path d="M64.2402 139.697C63.6132 140.367 63.2669 141.252 63.2725 142.17C63.3654 142.806 63.3654 143.451 63.2725 144.087C62.993 145.104 62.47 146.038 61.7488 146.808C60.8841 147.818 59.8546 148.683 59.0104 149.672C58.3424 150.46 57.7943 151.342 57.3838 152.29C54.7139 150.83 52.1843 149.125 49.8275 147.199C40.7681 139.821 30.7616 118.18 28.3526 108.039C28.3102 104.843 28.607 101.651 29.238 98.5175C29.6128 96.7674 30.0871 95.0402 30.6586 93.3443C31.0507 92.1603 31.5043 90.9977 32.0175 89.8611C32.244 89.3458 32.4705 88.8512 32.7382 88.3359C33.1988 89.2986 33.4112 90.3615 33.3559 91.4275C33.3559 94.8076 33.8706 100.991 33.8706 100.991L38.1532 110.801L40.8299 98.5381C40.8299 98.5381 42.6417 108.163 43.3624 110.801C44.083 113.439 49.2098 123.662 56.4779 126.568C58.3199 127.306 60.3051 127.616 62.2842 127.475C61.3863 129.192 61.1524 131.18 61.6273 133.058C62.1021 134.937 63.2524 136.574 64.8578 137.657C64.8343 138.379 64.6213 139.083 64.2402 139.697Z" fill="#73195B"/>
<path d="M107.478 80.6282C107.478 80.6282 80.0937 70.6321 61.3984 78.732C68.5259 74.8257 76.5823 72.938 84.7013 73.2721C92.8203 73.6062 100.695 76.1494 107.478 80.6282Z" fill="white"/>
<path d="M114.376 83.3074C114.396 83.6987 114.396 84.0909 114.376 84.4822C114.027 82.0337 113.261 79.6634 112.111 77.4747C110.841 75.0824 109.052 73.0056 106.875 71.3969C104.698 69.7883 102.188 68.6888 99.5305 68.1794C87.012 65.3146 63.54 66.3039 49.0449 70.2404L49.4567 69.9931C54.646 67.1098 60.2515 65.0517 66.0725 63.8924C69.9988 62.9543 73.9806 62.2659 77.9938 61.8314C81.4797 61.1291 85.0704 61.1291 88.5562 61.8314C92.4747 62.522 96.2969 63.6775 99.9422 65.2733C103.895 66.9634 109.146 69.5603 111.884 73.3732C111.884 73.5175 112.131 73.6618 112.214 73.806C112.236 73.7934 112.26 73.7867 112.286 73.7867C112.311 73.7867 112.336 73.7934 112.358 73.806C112.767 74.363 113.113 74.9645 113.387 75.5991C113.434 75.7 113.475 75.8032 113.511 75.9083C113.681 76.2854 113.812 76.6791 113.902 77.0831C114.476 79.105 114.637 81.2219 114.376 83.3074Z" fill="white"/>
<path d="M77.3965 140.975C77.3016 140.997 77.2031 140.997 77.1082 140.975C73.87 140.914 70.6637 140.322 67.6165 139.223C66.6189 138.816 65.6887 138.26 64.8575 137.575C63.224 136.485 62.0578 134.823 61.5889 132.915C61.1201 131.007 61.3827 128.993 62.325 127.269C62.9497 126.093 63.8462 125.082 64.9398 124.322C66.1561 123.715 67.5384 123.527 68.8724 123.786C69.4758 123.826 70.0749 123.916 70.6637 124.054C70.8142 124.036 70.9662 124.036 71.1167 124.054C71.3808 130.215 73.5781 136.136 77.3965 140.975Z" fill="#F8ACA9"/>
<path d="M85.4269 176.59C83.9322 175.809 82.4881 174.935 81.1031 173.972C79.1882 172.756 77.294 171.499 75.4821 170.118C71.9271 167.584 68.9974 164.271 66.9169 160.431C66.8759 160.361 66.8588 160.28 66.8682 160.2C66.8776 160.12 66.913 160.044 66.969 159.986C67.0249 159.928 67.0984 159.889 67.1782 159.877C67.258 159.864 67.3398 159.878 67.411 159.916C68.0287 160.246 68.6258 160.575 69.2023 160.926C74.4805 163.473 79.9293 165.649 85.5092 167.439C85.5209 167.493 85.5209 167.549 85.5092 167.604C85.3075 170.595 85.28 173.595 85.4269 176.59Z" fill="#FE898F"/>
<path d="M121.643 228.899C120.933 233.102 119.542 237.161 117.525 240.915C114.643 246.578 111.281 251.984 107.478 257.073L38.1733 232.011L34.2407 194.913L36.5879 192.645L45.2561 184.401L50.4653 179.31L51.3918 178.445C51.3918 178.445 55.1391 198.375 94.8151 195.387C95.0416 195.551 96.8741 196.912 99.4066 198.993C106.654 204.888 119.996 216.615 121.458 224.736C121.731 226.106 121.794 227.51 121.643 228.899Z" fill="#F9FFFF"/>
<path d="M121.643 228.899C120.933 233.102 119.542 237.161 117.525 240.915C114.643 246.578 111.281 251.984 107.478 257.074L38.1733 232.011L34.2407 194.913L36.5879 192.646L45.2561 184.401C49.2299 188.008 55.3244 193.408 61.3571 198.19C67.0193 202.703 72.599 206.661 76.2228 208.021C87.0812 212.581 97.5132 218.099 107.395 224.509C110.634 226.222 114.101 227.464 117.69 228.198C118.967 228.281 120.305 228.611 121.643 228.899Z" fill="#FFCFF2"/>
<path d="M119.153 185.143C118.905 185.148 118.665 185.057 118.484 184.887C118.303 184.718 118.196 184.484 118.185 184.236C118.182 184.12 118.202 184.004 118.244 183.895C118.286 183.787 118.349 183.687 118.429 183.603C118.51 183.519 118.606 183.451 118.712 183.404C118.819 183.357 118.933 183.332 119.05 183.329H119.153C119.393 183.329 119.623 183.425 119.793 183.595C119.963 183.765 120.058 183.995 120.058 184.236C120.058 184.476 119.963 184.707 119.793 184.877C119.623 185.047 119.393 185.143 119.153 185.143Z" fill="#F9FFFF"/>
<path d="M202.293 185.143H202.19C201.95 185.143 201.719 185.047 201.549 184.877C201.379 184.707 201.284 184.476 201.284 184.236C201.309 184.014 201.416 183.809 201.583 183.66C201.75 183.512 201.966 183.431 202.19 183.432H202.375C202.615 183.432 202.846 183.528 203.016 183.698C203.186 183.868 203.281 184.099 203.281 184.339C203.255 184.576 203.137 184.794 202.952 184.944C202.767 185.095 202.53 185.166 202.293 185.143ZM193.048 185.143C192.798 185.149 192.556 185.058 192.372 184.888C192.187 184.719 192.076 184.486 192.06 184.236C192.048 184.123 192.061 184.008 192.095 183.9C192.13 183.792 192.187 183.692 192.263 183.607C192.338 183.521 192.431 183.453 192.534 183.405C192.637 183.357 192.749 183.331 192.863 183.329H193.048C193.288 183.329 193.519 183.425 193.689 183.595C193.859 183.765 193.954 183.995 193.954 184.236C193.957 184.356 193.935 184.475 193.891 184.586C193.846 184.698 193.78 184.799 193.695 184.883C193.61 184.968 193.509 185.035 193.398 185.08C193.287 185.124 193.168 185.146 193.048 185.143ZM183.824 185.143C183.572 185.149 183.327 185.058 183.14 184.89C182.952 184.721 182.836 184.487 182.815 184.236C182.826 184.019 182.919 183.815 183.076 183.665C183.234 183.515 183.442 183.432 183.659 183.432H183.845C184.085 183.432 184.315 183.528 184.485 183.698C184.655 183.868 184.75 184.099 184.75 184.339C184.725 184.565 184.615 184.773 184.444 184.922C184.272 185.071 184.051 185.149 183.824 185.143ZM174.579 185.143C174.327 185.149 174.082 185.058 173.895 184.89C173.707 184.721 173.591 184.487 173.57 184.236C173.562 184.122 173.577 184.007 173.614 183.898C173.652 183.79 173.711 183.69 173.788 183.606C173.865 183.521 173.958 183.452 174.062 183.405C174.167 183.357 174.279 183.332 174.394 183.329H174.579C174.819 183.329 175.05 183.425 175.22 183.595C175.39 183.765 175.485 183.995 175.485 184.236C175.485 184.355 175.462 184.473 175.416 184.583C175.371 184.693 175.304 184.793 175.22 184.877C175.136 184.961 175.036 185.028 174.926 185.074C174.816 185.119 174.698 185.143 174.579 185.143ZM165.335 185.143C165.085 185.149 164.842 185.058 164.658 184.888C164.474 184.719 164.362 184.486 164.346 184.236C164.351 184.028 164.435 183.829 164.58 183.68C164.725 183.531 164.921 183.443 165.129 183.432H165.314C165.554 183.432 165.785 183.528 165.955 183.698C166.124 183.868 166.22 184.099 166.22 184.339C166.199 184.56 166.097 184.764 165.933 184.913C165.769 185.062 165.556 185.144 165.335 185.143ZM156.09 185.143C155.84 185.149 155.598 185.058 155.413 184.888C155.229 184.719 155.117 184.486 155.102 184.236C155.093 184.122 155.108 184.007 155.145 183.898C155.183 183.79 155.242 183.69 155.319 183.606C155.396 183.521 155.489 183.452 155.594 183.405C155.698 183.357 155.811 183.332 155.925 183.329H156.09C156.332 183.329 156.565 183.424 156.738 183.593C156.911 183.763 157.011 183.994 157.016 184.236C157.016 184.357 156.992 184.476 156.945 184.588C156.899 184.699 156.83 184.8 156.744 184.885C156.657 184.969 156.555 185.035 156.443 185.08C156.331 185.124 156.211 185.146 156.09 185.143ZM146.866 185.143C146.614 185.149 146.369 185.058 146.181 184.89C145.994 184.721 145.878 184.487 145.857 184.236C145.865 184.036 145.944 183.845 146.08 183.698C146.216 183.551 146.399 183.456 146.598 183.432H146.783C147.024 183.432 147.254 183.528 147.424 183.698C147.594 183.868 147.689 184.099 147.689 184.339C147.666 184.548 147.572 184.742 147.421 184.889C147.271 185.035 147.075 185.125 146.866 185.143ZM137.621 185.143C137.371 185.149 137.129 185.058 136.945 184.888C136.76 184.719 136.649 184.486 136.633 184.236C136.621 184.123 136.633 184.008 136.668 183.9C136.703 183.792 136.76 183.692 136.836 183.607C136.911 183.521 137.004 183.453 137.107 183.405C137.21 183.357 137.322 183.331 137.436 183.329H137.621C137.861 183.329 138.092 183.425 138.262 183.595C138.432 183.765 138.527 183.995 138.527 184.236C138.527 184.355 138.504 184.473 138.458 184.583C138.412 184.693 138.346 184.793 138.262 184.877C138.177 184.961 138.078 185.028 137.968 185.074C137.858 185.119 137.74 185.143 137.621 185.143ZM128.376 185.143C128.126 185.149 127.884 185.058 127.7 184.888C127.516 184.719 127.404 184.486 127.388 184.236C127.38 184.122 127.395 184.007 127.432 183.898C127.469 183.79 127.528 183.69 127.605 183.606C127.682 183.521 127.776 183.452 127.88 183.405C127.984 183.357 128.097 183.332 128.212 183.329H128.376C128.617 183.329 128.847 183.425 129.017 183.595C129.187 183.765 129.282 183.995 129.282 184.236C129.285 184.356 129.264 184.475 129.219 184.586C129.175 184.698 129.108 184.799 129.023 184.883C128.939 184.968 128.838 185.035 128.726 185.08C128.615 185.124 128.496 185.146 128.376 185.143Z" fill="#F9FFFF"/>
<path d="M211.435 185.143C211.313 185.146 211.192 185.124 211.079 185.08C210.965 185.036 210.862 184.97 210.774 184.886C210.686 184.802 210.615 184.701 210.566 184.589C210.517 184.478 210.49 184.358 210.488 184.236C210.482 184.119 210.5 184.002 210.541 183.892C210.582 183.782 210.645 183.682 210.726 183.597C210.807 183.512 210.904 183.445 211.012 183.399C211.12 183.353 211.235 183.329 211.353 183.329C211.593 183.329 211.823 183.425 211.993 183.595C212.163 183.765 212.258 183.995 212.258 184.236C212.264 184.464 212.182 184.686 212.029 184.855C211.875 185.024 211.662 185.127 211.435 185.143Z" fill="#F9FFFF"/>
<path d="M122.694 184.236C122.698 184.959 122.488 185.666 122.09 186.269C121.692 186.871 121.124 187.342 120.459 187.621C119.793 187.901 119.06 187.976 118.351 187.837C117.643 187.699 116.992 187.353 116.48 186.844C115.968 186.334 115.619 185.684 115.477 184.976C115.335 184.268 115.405 183.533 115.681 182.866C115.956 182.198 116.423 181.627 117.023 181.225C117.622 180.823 118.328 180.609 119.05 180.609C120.013 180.609 120.936 180.99 121.619 181.67C122.302 182.35 122.688 183.272 122.694 184.236Z" fill="#F9FFFF"/>
<path d="M215.079 184.236C215.083 184.959 214.873 185.666 214.475 186.269C214.077 186.871 213.509 187.342 212.844 187.621C212.178 187.901 211.445 187.976 210.737 187.837C210.028 187.699 209.377 187.353 208.865 186.844C208.354 186.334 208.004 185.684 207.862 184.976C207.72 184.268 207.791 183.533 208.066 182.866C208.341 182.198 208.808 181.627 209.408 181.225C210.008 180.823 210.713 180.609 211.435 180.609C212.398 180.609 213.322 180.99 214.005 181.67C214.687 182.35 215.074 183.272 215.079 184.236Z" fill="#F9FFFF"/>
<path d="M148.822 157.892V163.485H147.783V158.763H146.601V157.892H148.822ZM150.562 162.214C150.749 162.214 150.903 162.276 151.026 162.398C151.148 162.521 151.21 162.681 151.21 162.878C151.21 162.963 151.196 163.053 151.17 163.149C151.148 163.24 151.1 163.378 151.026 163.565L150.618 164.691H149.971L150.291 163.469C150.174 163.421 150.08 163.346 150.011 163.245C149.947 163.139 149.915 163.016 149.915 162.878C149.915 162.681 149.977 162.521 150.099 162.398C150.222 162.276 150.376 162.214 150.562 162.214ZM153.632 160.057C154.42 160.057 155.003 160.212 155.382 160.521C155.76 160.824 155.949 161.24 155.949 161.767C155.949 162.103 155.866 162.406 155.701 162.678C155.536 162.95 155.288 163.165 154.958 163.325C154.628 163.485 154.22 163.565 153.736 163.565C153.336 163.565 152.95 163.509 152.577 163.397C152.204 163.28 151.89 163.12 151.634 162.918L152.074 162.111C152.281 162.281 152.529 162.417 152.817 162.518C153.11 162.614 153.411 162.662 153.72 162.662C154.087 162.662 154.375 162.587 154.583 162.438C154.796 162.284 154.902 162.073 154.902 161.807C154.902 161.519 154.788 161.304 154.559 161.16C154.335 161.011 153.949 160.936 153.4 160.936H152.05L152.337 157.892H155.621V158.763H153.216L153.096 160.057H153.632ZM164.445 159.17C164.983 159.17 165.409 159.327 165.723 159.642C166.038 159.951 166.195 160.417 166.195 161.04V163.485H165.196V161.168C165.196 160.795 165.114 160.515 164.948 160.329C164.783 160.137 164.546 160.041 164.237 160.041C163.902 160.041 163.633 160.153 163.43 160.377C163.228 160.595 163.127 160.909 163.127 161.32V163.485H162.128V161.168C162.128 160.795 162.045 160.515 161.88 160.329C161.715 160.137 161.478 160.041 161.169 160.041C160.828 160.041 160.557 160.15 160.354 160.369C160.157 160.587 160.059 160.904 160.059 161.32V163.485H159.06V159.218H160.011V159.762C160.17 159.57 160.37 159.423 160.61 159.322C160.85 159.221 161.116 159.17 161.409 159.17C161.728 159.17 162.011 159.232 162.256 159.354C162.506 159.471 162.703 159.647 162.847 159.881C163.023 159.658 163.249 159.485 163.526 159.362C163.803 159.234 164.109 159.17 164.445 159.17Z" fill="#F9FFFF"/>
</svg>
