<svg width="64" height="64" viewBox="0 0 64 64" fill="none" xmlns="http://www.w3.org/2000/svg">
<circle cx="32" cy="32" r="32" fill="#494961"/>
<path d="M33.0166 28.196C31.8286 28.196 31.1086 28.52 30.7846 28.844L38.1286 20.24H31.9366L25.9966 27.512C24.3766 29.456 22.8646 32.012 22.8646 35.9C22.8646 41.228 26.8246 44.432 31.7206 44.432C36.5806 44.432 40.5406 40.94 40.5406 36.116C40.5406 31.22 36.7606 28.196 33.0166 28.196ZM31.7206 40.112C29.5966 40.112 27.8686 38.384 27.8686 36.26C27.8686 34.136 29.5966 32.444 31.7206 32.444C33.8086 32.444 35.5366 34.136 35.5366 36.26C35.5366 38.384 33.8086 40.112 31.7206 40.112Z" fill="white"/>
</svg>
