<svg width="64" height="64" viewBox="0 0 64 64" fill="none" xmlns="http://www.w3.org/2000/svg">
<circle cx="32" cy="32" r="32" fill="#494961"/>
<path d="M23.556 24.956L27.84 27.008C27.876 26.972 28.668 24.056 31.62 24.056C33.6 24.056 34.68 25.28 34.68 26.864C34.68 28.592 33.384 29.636 31.728 29.636H31.116V33.452H31.584C33.492 33.452 35.112 34.424 35.112 36.476C35.112 38.42 33.78 39.86 31.584 39.86C28.56 39.86 27.588 36.224 27.588 36.224L22.728 38.636C22.728 38.636 24.348 44.432 31.584 44.432C36.66 44.432 40.368 41.156 40.368 36.656C40.368 33.488 38.172 31.472 36.444 31.184C37.956 30.788 39.432 28.88 39.432 26.468C39.432 22.472 36.192 19.808 31.692 19.808C25.176 19.808 23.592 24.848 23.556 24.956Z" fill="white"/>
</svg>
