<svg width="64" height="64" viewBox="0 0 64 64" fill="none" xmlns="http://www.w3.org/2000/svg">
<circle cx="32" cy="32" r="32" fill="#494961"/>
<path d="M27.6073 37.34L23.0353 39.356C23.8993 41.66 26.3473 44.432 31.4953 44.432C36.5713 44.432 40.2073 41.048 40.2073 35.756C40.1713 30.536 36.6073 28.304 33.1153 28.304C31.0633 28.304 29.6593 29.168 29.4793 29.456L30.2353 24.884H39.0913V20.24H25.7713L23.6833 32.912L28.0753 34.532C28.2553 34.172 29.2633 32.516 31.5313 32.516C33.5833 32.516 34.8433 33.848 34.8433 36.08C34.8793 38.42 33.5473 40.004 31.2793 40.004C29.0833 40.004 28.0393 38.672 27.6073 37.34Z" fill="white"/>
</svg>
