<svg width="168" height="206" viewBox="0 0 168 206" fill="none" xmlns="http://www.w3.org/2000/svg">
<path d="M53.6841 205.829C63.6253 205.829 71.6843 197.77 71.6843 187.828C71.6843 177.887 63.6253 169.828 53.6841 169.828C43.7428 169.828 35.6838 177.887 35.6838 187.828C35.6838 197.77 43.7428 205.829 53.6841 205.829Z" fill="#A5AFED"/>
<path d="M51.756 0.00135556C23.6239 0.200071 0.58976 23.0612 0.190139 51.1912C0.186437 51.4509 0.184733 53.277 0.184956 55.6655C0.185141 59.1675 1.57635 62.526 4.05257 65.0024C6.5288 67.4788 9.88725 68.8702 13.3893 68.8706H13.3893C15.1253 68.8703 16.8442 68.5278 18.4478 67.8629C20.0514 67.1979 21.5083 66.2235 22.7352 64.9953C23.962 63.7671 24.9349 62.3092 25.5981 60.7048C26.2613 59.1005 26.6019 57.3812 26.6004 55.6452C26.599 54.0205 26.5982 52.8959 26.5982 52.8269C26.5973 48.4795 27.7281 44.2067 29.8794 40.4288C32.0308 36.651 35.1285 33.4982 38.8678 31.2807C42.6072 29.0631 46.8594 27.8572 51.2061 27.7815C55.5529 27.7058 59.8446 28.7629 63.6589 30.8489C67.4732 32.9349 70.6787 35.9779 72.9603 39.6785C75.2418 43.3792 76.5208 47.61 76.6712 51.9549C76.8217 56.2997 75.8386 60.6089 73.8185 64.4585C71.7985 68.3081 68.8111 71.5656 65.1502 73.9105L65.1548 73.916C65.1548 73.916 46.3608 86.0152 40.631 102.613L40.6359 102.614C39.6284 106.014 39.1179 109.542 39.1202 113.089C39.1202 114.546 39.2059 127.302 39.3716 137.654C39.4296 141.226 40.8895 144.632 43.4363 147.138C45.9832 149.643 49.4128 151.047 52.9853 151.046H52.9854C54.7805 151.046 56.5578 150.691 58.2152 150.001C59.8726 149.312 61.3773 148.301 62.6426 147.028C63.908 145.755 64.9091 144.244 65.5884 142.582C66.2677 140.92 66.6116 139.141 66.6006 137.346C66.543 127.865 66.5119 116.825 66.5119 116.024C66.5119 105.832 76.3437 95.6774 84.4197 89.0554C93.7195 81.43 100.412 71.0384 103.1 59.3162C103.694 56.9028 104.022 54.4314 104.078 51.9465C104.078 45.0932 102.722 38.3076 100.088 31.9808C97.4534 25.6539 93.5935 19.9108 88.73 15.0823C83.8665 10.2539 78.0957 6.43549 71.75 3.84719C65.4042 1.2589 58.6091 -0.0481522 51.756 0.00135556V0.00135556Z" fill="#A5AFED"/>
<path d="M130.794 80.2169C137.278 80.2169 142.533 74.961 142.533 68.4776C142.533 61.9941 137.278 56.7383 130.794 56.7383C124.311 56.7383 119.055 61.9941 119.055 68.4776C119.055 74.961 124.311 80.2169 130.794 80.2169Z" fill="#2F2E41"/>
<path d="M109.101 201.184H104.304L102.021 182.68H109.102L109.101 201.184Z" fill="#A0616A"/>
<path d="M100.877 199.812H110.129V205.638H95.0518C95.0518 204.873 95.2024 204.115 95.4952 203.409C95.7879 202.702 96.217 202.06 96.758 201.519C97.2989 200.978 97.9411 200.549 98.6479 200.256C99.3546 199.963 100.112 199.812 100.877 199.812Z" fill="#2F2E41"/>
<path d="M146.276 201.184H141.479L139.196 182.68H146.277L146.276 201.184Z" fill="#A0616A"/>
<path d="M138.052 199.812H147.304V205.638H132.226C132.226 204.873 132.377 204.115 132.67 203.409C132.962 202.702 133.392 202.06 133.932 201.519C134.473 200.978 135.116 200.549 135.822 200.256C136.529 199.963 137.287 199.812 138.052 199.812V199.812Z" fill="#2F2E41"/>
<path d="M129.01 80.2864C134.318 80.2864 138.621 75.9834 138.621 70.6754C138.621 65.3674 134.318 61.0645 129.01 61.0645C123.702 61.0645 119.399 65.3674 119.399 70.6754C119.399 75.9834 123.702 80.2864 129.01 80.2864Z" fill="#A0616A"/>
<path d="M134.739 111.29L139.039 101.41C140.083 99.0918 140.383 96.5069 139.896 94.0116C139.409 91.5164 138.159 89.2339 136.32 87.479C135.942 87.1055 135.54 86.7565 135.118 86.4342C132.996 84.7742 130.381 83.8695 127.687 83.8633C125.876 83.8703 124.087 84.2681 122.444 85.0294C122.303 85.092 122.166 85.1585 122.025 85.225C121.755 85.3542 121.489 85.495 121.231 85.6398C119.546 86.6071 118.112 87.9567 117.045 89.5799C115.978 91.2031 115.307 93.0543 115.087 94.9843L113.189 110.887C112.712 112.135 95.6819 157.214 101.638 191.63C101.701 191.998 101.88 192.335 102.149 192.594C102.418 192.852 102.763 193.018 103.132 193.066L109.17 193.888C109.611 193.948 110.059 193.839 110.422 193.583C110.786 193.327 111.039 192.942 111.131 192.507L121.262 144.215C121.325 143.915 121.487 143.645 121.722 143.448C121.957 143.25 122.251 143.138 122.557 143.127C122.864 143.117 123.165 143.21 123.412 143.39C123.66 143.571 123.84 143.83 123.923 144.125L138.237 194.909C138.339 195.278 138.559 195.604 138.864 195.836C139.168 196.067 139.541 196.193 139.923 196.193C140.038 196.192 140.152 196.182 140.264 196.162L147.64 194.741C148.069 194.661 148.452 194.423 148.715 194.075C148.978 193.727 149.101 193.293 149.061 192.859C147.977 180.771 142.217 120.224 134.739 111.29Z" fill="#2F2E41"/>
<path d="M91.6594 78.6734C91.5927 79.2448 91.652 79.8238 91.8333 80.3698C92.0146 80.9157 92.3134 81.4153 92.7087 81.8332C93.1039 82.2512 93.586 82.5774 94.121 82.789C94.656 83.0005 95.2308 83.0921 95.805 83.0574L101.177 95.9676L105.241 89.9437L99.5164 78.6074C99.3942 77.6466 98.9238 76.7641 98.1944 76.1269C97.4649 75.4898 96.5271 75.1424 95.5586 75.1505C94.5901 75.1587 93.6582 75.5218 92.9396 76.171C92.2209 76.8203 91.7654 77.7107 91.6593 78.6734L91.6594 78.6734Z" fill="#A0616A"/>
<path d="M128.477 124.291C129.048 124.223 129.598 124.03 130.086 123.726C130.575 123.423 130.991 123.016 131.306 122.534C131.62 122.052 131.825 121.508 131.906 120.938C131.987 120.369 131.942 119.788 131.775 119.238L143.078 111.005L136.273 108.457L126.582 116.665C125.677 117.008 124.928 117.671 124.478 118.529C124.029 119.387 123.909 120.38 124.143 121.32C124.376 122.26 124.947 123.081 125.746 123.629C126.544 124.177 127.516 124.412 128.477 124.291V124.291Z" fill="#A0616A"/>
<path d="M110.051 104.575C109.618 104.574 109.185 104.532 108.76 104.447C107.732 104.252 106.768 103.806 105.953 103.15C105.137 102.494 104.496 101.647 104.085 100.685L96.5586 91.5071C96.3995 91.313 96.2836 91.0873 96.2189 90.8448C96.1541 90.6024 96.1419 90.3489 96.1831 90.1014C96.2243 89.8539 96.3179 89.618 96.4576 89.4095C96.5973 89.2011 96.78 89.025 96.9934 88.8929L102.348 85.5782C102.546 85.4558 102.766 85.3738 102.995 85.3368C103.225 85.2999 103.46 85.3088 103.686 85.363C103.912 85.4172 104.125 85.5157 104.313 85.6527C104.501 85.7897 104.66 85.9626 104.78 86.1613L110.085 94.9009L120.244 87.393C121.053 86.9689 121.987 86.8499 122.877 87.0579C123.766 87.2658 124.551 87.7868 125.088 88.5256C125.625 89.2644 125.878 90.1717 125.801 91.0818C125.724 91.9919 125.323 92.8439 124.67 93.4824L114.53 102.732C113.339 103.913 111.729 104.575 110.051 104.575Z" fill="#2F2E41"/>
<path d="M137.501 118.377C137.488 118.377 137.474 118.377 137.46 118.376C137.213 118.37 136.97 118.313 136.747 118.207C136.524 118.101 136.325 117.949 136.165 117.762L131.404 112.208C131.242 112.019 131.121 111.797 131.051 111.558C130.981 111.319 130.962 111.068 130.996 110.821C131.03 110.574 131.116 110.338 131.249 110.127C131.381 109.915 131.557 109.735 131.764 109.597L140.679 103.654L132.603 93.9443C132.133 93.1611 131.96 92.235 132.117 91.3352C132.274 90.4354 132.749 89.6221 133.456 89.0437C134.162 88.4653 135.054 88.1605 135.967 88.185C136.88 88.2095 137.753 88.5616 138.428 89.1771L148.243 98.7692C149.016 99.4749 149.606 100.358 149.962 101.341C150.318 102.325 150.431 103.381 150.289 104.417C150.148 105.454 149.757 106.441 149.15 107.293C148.543 108.146 147.739 108.838 146.805 109.311L138.783 117.824C138.618 117.998 138.42 118.137 138.199 118.232C137.979 118.327 137.741 118.377 137.501 118.377Z" fill="#2F2E41"/>
<path d="M126.566 97.9124C126.49 97.9124 126.414 97.9076 126.338 97.8979C126.006 97.8576 125.693 97.7231 125.436 97.5102C125.179 97.2973 124.988 97.0151 124.886 96.6971L121.308 85.7289C121.219 85.4516 121.233 85.1512 121.347 84.8833C121.462 84.6154 121.67 84.398 121.932 84.2714L122.048 84.2166C122.153 84.1665 122.258 84.117 122.364 84.0697C124.032 83.296 125.848 82.8924 127.687 82.8867C130.074 82.8911 132.408 83.5924 134.403 84.9046C134.67 85.0825 134.857 85.3584 134.923 85.6727C134.989 85.987 134.928 86.3146 134.755 86.5851L128.044 97.0987C127.887 97.3483 127.669 97.5539 127.41 97.6963C127.152 97.8386 126.861 97.913 126.566 97.9124V97.9124Z" fill="#E6E6E6"/>
<path d="M140.049 63.2374C142.171 63.2374 143.891 61.5176 143.891 59.3961C143.891 57.2745 142.171 55.5547 140.049 55.5547C137.928 55.5547 136.208 57.2745 136.208 59.3961C136.208 61.5176 137.928 63.2374 140.049 63.2374Z" fill="#2F2E41"/>
<path d="M126.881 55.1738C124.183 55.1738 121.595 56.2457 119.687 58.1537C117.779 60.0617 116.707 62.6495 116.707 65.3479V69.6523H122.001L124.533 65.3479L125.293 69.6523H141.36L137.055 65.3479C137.055 62.6495 135.983 60.0617 134.075 58.1537C132.167 56.2457 129.579 55.1738 126.881 55.1738V55.1738Z" fill="#2F2E41"/>
<path d="M142.024 56.7631C142.449 55.4348 143.328 54.2988 144.508 53.5548C145.687 52.8108 147.091 52.5064 148.473 52.6952C150.921 53.1045 152.856 55.0722 154.01 57.27C155.163 59.4678 155.695 61.9276 156.471 64.2854C157.246 66.6432 158.346 69.0139 160.303 70.5401C162.26 72.0664 165.264 72.4804 167.186 70.9103C166.966 72.5466 166.238 74.0725 165.104 75.2721C163.969 76.4716 162.486 77.2842 160.865 77.5949C159.243 77.9056 157.565 77.6987 156.068 77.0034C154.571 76.3081 153.33 75.1596 152.521 73.7204C151.506 71.9158 151.245 69.8007 150.944 67.7526C150.643 65.7044 150.252 63.5852 149.041 61.9062C147.83 60.2272 145.563 59.1307 143.64 59.8954L142.024 56.7631Z" fill="#2F2E41"/>
<path d="M17.1176 62.6243C13.6155 62.6239 10.257 61.2325 7.78079 58.7562C5.30455 56.2798 3.91333 52.9212 3.91312 49.4192C3.91293 47.0307 3.91465 45.2046 3.91828 44.9449C4.02954 36.7639 6.08988 28.7274 9.92837 21.502C3.62183 30.1354 0.154195 40.5153 0.00517331 51.2058C0.00154195 51.4655 -0.000177313 53.2917 1.44288e-05 55.6802C0.000221946 59.1822 1.39145 62.5407 3.86769 65.0171C6.34394 67.4935 9.70241 68.8849 13.2044 68.8853V68.8853C16.0822 68.8842 18.8809 67.9439 21.1754 66.2071C23.4699 64.4703 25.1349 62.0321 25.9173 59.2628C23.4994 61.4309 20.3651 62.6283 17.1176 62.6243V62.6243Z" fill="#3F3D56"/>
<path d="M52.651 27.8269C56.6995 28.0202 60.6407 29.1933 64.1361 31.2453C67.6314 33.2974 70.5765 36.1671 72.7185 39.608C74.8605 43.049 76.1354 46.9584 76.4336 51.0006C76.7319 55.0428 76.0447 59.097 74.431 62.8151C76.7651 60.0738 78.4807 56.8615 79.4608 53.3971C80.4409 49.9327 80.6625 46.2977 80.1104 42.7399C79.5583 39.1821 78.2456 35.7851 76.2617 32.7807C74.2778 29.7762 71.6694 27.2348 68.6143 25.3298C65.5592 23.4248 62.1292 22.2009 58.5582 21.7417C54.9873 21.2824 51.3593 21.5986 47.9215 22.6685C44.4838 23.7385 41.3172 25.5371 38.6377 27.9418C35.9581 30.3465 33.8285 33.3008 32.3942 36.6031C34.8732 33.6868 37.989 31.3788 41.5011 29.8572C45.0132 28.3356 48.8279 27.6409 52.651 27.8269V27.8269Z" fill="#3F3D56"/>
<path d="M56.7134 144.799C53.1409 144.8 49.7113 143.396 47.1644 140.891C44.6176 138.386 43.1577 134.98 43.0997 131.408C42.9341 121.055 42.8483 108.3 42.8483 106.842C42.846 103.296 43.3565 99.7679 44.364 96.3676L44.3593 96.3665C44.9542 94.6598 45.6728 92.9987 46.5092 91.3965C43.9415 94.8182 41.8981 98.6034 40.4462 102.627L40.4509 102.629C39.4434 106.029 38.9329 109.557 38.9352 113.103C38.9352 114.561 39.021 127.316 39.1866 137.669C39.2446 141.241 40.7045 144.647 43.2513 147.152C45.7982 149.657 49.2278 151.061 52.8003 151.06V151.06C55.7459 151.06 58.612 150.104 60.9686 148.337C63.3251 146.57 65.0452 144.086 65.8708 141.259C63.3676 143.541 60.1009 144.804 56.7134 144.799V144.799Z" fill="#3F3D56"/>
<path d="M49.7182 201.439C47.1612 200.325 44.898 198.633 43.1072 196.495C41.3164 194.356 40.047 191.831 39.3992 189.118C38.7515 186.406 38.743 183.58 39.3746 180.863C40.0062 178.146 41.2604 175.614 43.0385 173.465C40.977 174.97 39.2592 176.896 37.9992 179.116C36.7391 181.336 35.9656 183.798 35.73 186.34C35.4943 188.881 35.8019 191.444 36.6323 193.858C37.4628 196.271 38.7971 198.481 40.5467 200.339C42.2963 202.198 44.4211 203.663 46.7802 204.637C49.1394 205.612 51.6788 206.073 54.2299 205.992C56.7811 205.91 59.2856 205.286 61.5774 204.162C63.8691 203.038 65.8956 201.44 67.5223 199.473C64.985 201.327 62.0062 202.485 58.8824 202.83C55.7587 203.175 52.5991 202.695 49.7182 201.439V201.439Z" fill="#3F3D56"/>
</svg>
