<svg width="692" height="764" viewBox="0 0 692 764" fill="none" xmlns="http://www.w3.org/2000/svg">
<path d="M47.6406 638.504C47.6406 638.504 68.1877 635.217 80.5159 649.737C80.5159 649.737 71.4752 656.86 52.024 646.997L47.6406 638.504Z" fill="#A5AFED"/>
<path d="M45.4887 638.182C45.4887 638.182 32.3777 654.316 38.8354 672.28C38.8354 672.28 49.5198 668.004 50.6842 646.224L45.4887 638.182Z" fill="#A5AFED"/>
<path d="M33.708 611.656C33.708 611.656 41.9268 596.579 74.8021 617.684C74.8021 617.684 70.4187 627.82 55.8988 626.998C41.3789 626.176 37.5435 619.601 33.708 611.656Z" fill="#A5AFED"/>
<path d="M31.585 610.57C31.585 610.57 14.531 608.613 12.8774 647.653C12.8774 647.653 23.6891 649.893 31.3698 637.546C39.0504 625.198 35.8999 618.27 31.585 610.57Z" fill="#A5AFED"/>
<path d="M568.469 610.639C568.469 610.639 546.288 637.712 563.9 678.64L386.804 755.446L369.808 759.008L361.981 724.763L367.216 681.546V657.926L568.469 610.639Z" fill="#D5D6DB"/>
<path d="M9.22754 593.144L254.344 548.459L579.134 600.199L377.401 672.828L9.22754 593.144Z" fill="#A5AFED"/>
<path d="M9.22754 593.144L254.344 548.459L579.134 600.199L377.401 672.828L9.22754 593.144Z" fill="#A5AFED"/>
<path d="M9.22759 593.135C9.22759 593.135 -13.697 636.567 12.7206 676.683L376.207 755.446C376.207 755.446 353.645 720.849 377.372 672.828L9.22759 593.135Z" fill="#A5AFED"/>
<path opacity="0.1" d="M9.22759 593.135C9.22759 593.135 -13.697 636.567 12.7206 676.683L376.207 755.446C376.207 755.446 353.645 720.849 377.372 672.828L9.22759 593.135Z" fill="black"/>
<path opacity="0.1" d="M20.0586 608.193C20.0586 608.193 6.95741 639.972 20.0586 660.539V608.193Z" fill="black"/>
<path d="M376.207 755.446L579.134 668.855C579.134 668.855 590.484 671.301 583.145 679.618C575.807 687.935 380.121 763.763 380.121 763.763L12.7207 676.683L376.207 755.446Z" fill="#A5AFED"/>
<path opacity="0.1" d="M376.207 755.446L579.134 668.855C579.134 668.855 590.484 671.301 583.145 679.618C575.807 687.935 380.121 763.763 380.121 763.763L12.7207 676.683L376.207 755.446Z" fill="black"/>
<path opacity="0.1" d="M359.575 681.575C359.575 681.575 340.006 705.057 359.575 740.281V681.575Z" fill="black"/>
<path opacity="0.1" d="M454.313 681.178L366.539 710.461L366.848 711.39L454.622 682.106L454.313 681.178Z" fill="black"/>
<path opacity="0.1" d="M471.894 678.264L366.511 718.337L366.859 719.251L472.241 679.178L471.894 678.264Z" fill="black"/>
<path opacity="0.1" d="M488.039 678.123L367.099 727.626L367.47 728.531L488.41 679.029L488.039 678.123Z" fill="black"/>
<path opacity="0.1" d="M505.597 673.884L368.511 735.81L368.914 736.701L505.999 674.776L505.597 673.884Z" fill="black"/>
<path opacity="0.1" d="M520.347 673.904L369.596 739.797L369.988 740.694L520.739 674.801L520.347 673.904Z" fill="black"/>
<path opacity="0.1" d="M552.61 668.425L371.869 746.49L372.257 747.388L552.998 669.324L552.61 668.425Z" fill="black"/>
<path opacity="0.3" d="M100.29 597.919L272.494 561.717L377.401 581.775L236.292 627.272L100.29 597.919Z" fill="white"/>
<path d="M579.134 600.199C579.134 600.199 588.038 603.79 582.813 609.337C577.588 614.885 377.372 672.828 377.372 672.828L579.134 600.199Z" fill="#A5AFED"/>
<path d="M665.617 516.533C665.617 516.533 643.446 543.597 661.058 584.534L483.962 661.341L466.967 664.922L459.139 630.677L464.452 587.469V563.821L665.617 516.533Z" fill="#D5D6DB"/>
<path d="M106.386 499.029L351.492 454.354L676.292 506.094L474.559 578.723L106.386 499.029Z" fill="#3A3768"/>
<path d="M106.347 499.029C106.347 499.029 83.4123 542.462 109.83 582.577L473.317 661.341C473.317 661.341 450.764 626.714 474.52 578.712L106.347 499.029Z" fill="#3A3768"/>
<path opacity="0.1" d="M106.347 499.029C106.347 499.029 83.4123 542.462 109.83 582.577L473.317 661.341C473.317 661.341 450.764 626.714 474.52 578.712L359.574 553.831L106.347 499.029Z" fill="black"/>
<path opacity="0.1" d="M117.207 514.087C117.207 514.087 104.116 545.857 117.207 566.433V514.087Z" fill="black"/>
<path d="M473.356 661.341L676.292 574.75C676.292 574.75 687.632 577.196 680.294 585.512C672.956 593.829 477.27 669.657 477.27 669.657L109.869 582.577L473.356 661.341Z" fill="#3A3768"/>
<path opacity="0.1" d="M473.356 661.341L676.292 574.75C676.292 574.75 687.632 577.196 680.294 585.512C672.956 593.829 477.27 669.657 477.27 669.657L109.869 582.577L473.356 661.341Z" fill="black"/>
<path opacity="0.1" d="M456.722 587.469C456.722 587.469 437.153 610.952 456.722 646.175V587.469Z" fill="black"/>
<path opacity="0.1" d="M551.469 587.083L463.695 616.366L464.004 617.295L551.779 588.011L551.469 587.083Z" fill="black"/>
<path opacity="0.1" d="M569.062 584.164L463.679 624.237L464.027 625.152L569.409 585.079L569.062 584.164Z" fill="black"/>
<path opacity="0.1" d="M585.193 584.01L464.252 633.513L464.623 634.418L585.563 584.916L585.193 584.01Z" fill="black"/>
<path opacity="0.1" d="M602.762 579.773L465.676 641.698L466.079 642.59L603.165 580.665L602.762 579.773Z" fill="black"/>
<path opacity="0.1" d="M617.498 579.781L466.747 645.674L467.139 646.57L617.89 580.677L617.498 579.781Z" fill="black"/>
<path opacity="0.1" d="M649.77 574.302L469.028 652.366L469.416 653.264L650.158 575.2L649.77 574.302Z" fill="black"/>
<path opacity="0.45" d="M197.448 503.814L369.651 467.612L474.559 487.67L333.45 533.167L197.448 503.814Z" fill="white"/>
<path d="M676.292 506.094C676.292 506.094 685.186 509.684 679.971 515.222C674.756 520.76 474.559 578.713 474.559 578.713L676.292 506.094Z" fill="#3A3768"/>
<path d="M674.814 408.877C674.814 408.877 652.633 457.475 670.245 498.403L493.149 553.684L476.193 557.275L468.366 523.03L473.6 479.813V456.164L674.814 408.877Z" fill="#D5D6DB"/>
<path d="M115.612 391.382L360.729 346.698L685.528 398.437L483.786 471.066L115.612 391.382Z" fill="#A5AFED"/>
<path d="M115.612 391.373C115.612 391.373 92.6485 434.805 119.066 474.921L482.553 553.684C482.553 553.684 459.99 519.058 483.747 471.066L115.612 391.373Z" fill="#A5AFED"/>
<path opacity="0.1" d="M115.612 391.373C115.612 391.373 92.6485 434.805 119.066 474.921L482.553 553.684C482.553 553.684 459.99 519.058 483.747 471.066L115.612 391.373Z" fill="black"/>
<path opacity="0.1" d="M126.443 406.431C126.443 406.431 113.342 438.21 126.443 458.777V406.431Z" fill="black"/>
<path d="M482.592 553.684L685.519 488.619C685.519 488.619 696.868 491.065 689.53 499.381C682.192 507.698 486.506 562.001 486.506 562.001L119.105 474.921L482.592 553.684Z" fill="#A5AFED"/>
<path opacity="0.1" d="M482.592 553.684L685.519 488.619C685.519 488.619 696.868 491.065 689.53 499.381C682.192 507.698 486.506 562.001 486.506 562.001L119.105 474.921L482.592 553.684Z" fill="black"/>
<path opacity="0.1" d="M465.959 479.813C465.959 479.813 446.39 503.295 465.959 538.519V479.813Z" fill="black"/>
<path opacity="0.1" d="M560.708 479.424L472.934 508.708L473.243 509.636L561.017 480.352L560.708 479.424Z" fill="black"/>
<path opacity="0.1" d="M578.294 476.51L472.912 516.584L473.259 517.498L578.642 477.425L578.294 476.51Z" fill="black"/>
<path opacity="0.1" d="M594.416 476.361L473.476 525.864L473.847 526.769L594.787 477.267L594.416 476.361Z" fill="black"/>
<path opacity="0.1" d="M611.999 472.115L474.913 534.041L475.316 534.933L612.402 473.007L611.999 472.115Z" fill="black"/>
<path opacity="0.1" d="M626.74 472.133L475.989 538.026L476.381 538.922L627.132 473.029L626.74 472.133Z" fill="black"/>
<path opacity="0.1" d="M659.008 466.66L478.266 544.724L478.654 545.622L659.396 467.558L659.008 466.66Z" fill="black"/>
<path opacity="0.3" d="M206.675 396.157L378.878 359.955L483.786 380.013L342.677 425.51L206.675 396.157Z" fill="white"/>
<path d="M685.518 398.437C685.518 398.437 694.422 402.028 689.197 407.575C683.972 413.123 483.786 471.066 483.786 471.066L685.518 398.437Z" fill="#A5AFED"/>
<path d="M536.513 311.865C536.513 311.865 551.483 351.002 559.995 347.089C568.507 343.175 566.198 326.542 567.822 321.982C569.447 317.423 571.247 282.845 571.247 282.845C571.247 282.845 572.069 258.384 573.693 253.433C575.2 248.884 576.423 225.939 576.628 222.329C576.628 222.016 576.628 221.85 576.628 221.85L575.014 193.475L565.875 191.195L544.683 199.023L541.747 215.783L540.603 222.329L540.113 225.118L536.513 311.865Z" fill="#BE6F72"/>
<path opacity="0.1" d="M541.444 305.31C541.444 305.31 555.729 317.002 560.035 318.03C564.34 319.057 566.981 328.176 566.981 328.176" fill="black"/>
<path d="M419.444 313.578C419.444 313.578 404.474 352.715 395.961 348.801C387.449 344.887 389.758 328.254 388.134 323.695C386.51 319.135 384.709 284.557 384.709 284.557C384.709 284.557 383.888 260.097 382.263 255.146C380.757 250.596 379.534 227.652 379.328 224.041C379.328 223.728 379.328 223.562 379.328 223.562L380.952 195.188L390.091 192.908L411.284 200.735L414.219 217.496L415.364 224.041L415.853 226.83L419.444 313.578Z" fill="#BE6F72"/>
<path d="M516.925 104.135H483.512V156.217H516.925V104.135Z" fill="#3E373A"/>
<path opacity="0.1" d="M516.925 104.135H483.512V156.217H516.925V104.135Z" fill="black"/>
<path d="M413.574 352.558C413.574 352.558 402.155 365.112 406.392 367.391C410.628 369.671 438.034 412.399 438.034 412.399C438.034 412.399 528.05 423.485 545.026 406.851C562.001 390.218 561.659 360.503 561.659 360.503C561.659 360.503 548.02 363.438 546.532 361.844C545.045 360.249 536.875 352.558 536.875 352.558C536.875 352.558 421.401 345.553 413.574 352.558Z" fill="#4B4B5B"/>
<path opacity="0.02" d="M413.574 352.558C413.574 352.558 402.155 365.112 406.392 367.391C410.628 369.671 438.034 412.399 438.034 412.399C438.034 412.399 528.05 423.485 545.026 406.851C562.001 390.218 561.659 360.503 561.659 360.503C561.659 360.503 548.02 363.438 546.532 361.844C545.045 360.249 536.875 352.558 536.875 352.558C536.875 352.558 421.401 345.553 413.574 352.558Z" fill="black"/>
<path d="M575.621 193.886L546.268 217.369L537.394 218.014L534.136 218.249L479.412 222.261L422.663 218.112L414.219 217.496L403.457 216.713L380.953 195.188C380.953 195.188 396.882 178.124 410.834 166.608C416.333 162.058 421.528 158.379 425.315 156.931L425.96 156.706C428.342 155.777 430.468 154.295 432.164 152.381C443.181 141.022 453.366 112.99 453.366 112.99C453.366 112.99 501.965 87.8832 496.094 120.817C490.224 153.751 517.943 145.611 517.943 145.611L527.081 149.779L530.692 151.432L539.899 155.649L560.671 165.179C576.971 172.684 575.621 193.886 575.621 193.886Z" fill="#BE6F72"/>
<path opacity="0.1" d="M477.132 139.808C501.271 139.808 520.839 120.24 520.839 96.102C520.839 71.9636 501.271 52.3955 477.132 52.3955C452.994 52.3955 433.426 71.9636 433.426 96.102C433.426 120.24 452.994 139.808 477.132 139.808Z" fill="black"/>
<path opacity="0.1" d="M575.689 225.02H379.328C379.328 224.707 379.328 224.54 379.328 224.54L380.952 196.166C380.952 196.166 396.881 179.102 410.834 167.586L534.116 162.694L539.849 156.647L560.621 166.177C576.932 173.672 575.621 194.874 575.621 194.874C575.621 194.874 577.852 219.443 575.689 225.02Z" fill="black"/>
<path d="M575.689 224.041H379.328C379.328 223.728 379.328 223.562 379.328 223.562L380.952 195.187C380.952 195.187 396.881 178.124 410.834 166.608L534.116 161.715L539.849 155.669L560.621 165.199C576.932 172.693 575.621 193.896 575.621 193.896C575.621 193.896 577.852 218.464 575.689 224.041Z" fill="#E7C7CA"/>
<path opacity="0.1" d="M445.656 144.476C445.656 144.476 476.633 183.945 517.894 143.663C559.154 103.381 522.463 233.513 522.463 233.513L433.426 244.08L445.656 144.476Z" fill="black"/>
<path d="M445.656 146.432C445.656 146.432 476.633 185.902 517.894 145.62C559.154 105.338 522.463 235.469 522.463 235.469L433.426 246.036L445.656 146.432Z" fill="#E7C7CA"/>
<path opacity="0.1" d="M530.643 153.36L533.92 203.348L537.433 219.981L540.114 232.701C540.114 232.701 546.963 330.544 545.006 335.436C543.049 340.328 545.984 344.242 546.395 346.844C546.806 349.447 545.984 355.983 546.307 358.918C546.63 361.853 546.307 363.155 538.813 362.108C531.318 361.061 520.868 359.241 520.868 359.241C520.868 359.241 494.451 361.198 485.322 357.94C476.193 354.681 458.904 354.672 458.904 354.672C458.904 354.672 432.809 355.327 424.336 354.349C415.863 353.37 411.284 364.789 405.746 361.521C400.208 358.253 412.262 326.63 416.176 317.491C420.09 308.353 410.961 285.203 410.961 285.203L422.702 220.069L425.315 205.304V158.888L425.96 158.663C428.342 157.734 430.469 156.252 432.164 154.338L435.099 201.048L527.071 204.316V151.745" fill="black"/>
<path d="M530.643 151.403L533.92 201.391L537.433 218.024L540.114 230.744C540.114 230.744 546.963 328.587 545.006 333.479C543.049 338.371 545.984 342.285 546.395 344.887C546.806 347.49 545.984 354.026 546.307 356.961C546.63 359.897 546.307 361.198 538.813 360.151C531.318 359.104 520.868 357.284 520.868 357.284C520.868 357.284 494.451 359.241 485.322 355.983C476.193 352.725 458.904 352.715 458.904 352.715C458.904 352.715 432.809 353.37 424.336 352.392C415.863 351.414 411.284 362.832 405.746 359.564C400.208 356.296 412.262 324.673 416.176 315.535C420.09 306.396 410.961 283.246 410.961 283.246L422.702 218.112L425.315 203.348V156.931L425.96 156.706C428.342 155.777 430.469 154.295 432.164 152.381L435.099 199.092L527.071 202.359V149.788" fill="#E7C7CA"/>
<path opacity="0.1" d="M541.22 47.0827C540.662 45.0378 539.889 42.9146 538.284 41.5448C536.752 40.4445 534.982 39.7205 533.118 39.4314C528.655 38.2578 524.118 37.3883 519.538 36.8287C518.883 34.6562 517.893 32.5994 516.602 30.7331C507.014 17.1917 492.827 4.42315 476.135 1.53678C467.397 0.0202098 457.27 1.38023 451.674 8.26837C448.602 12.0549 447.281 17.0742 444.179 20.7923C438.201 28.0131 427.409 28.9035 419.875 34.4903C415.853 37.4256 412.938 41.6818 410.091 45.8107C407.008 50.2822 403.838 54.9395 402.86 60.2817C400.903 70.9564 407.958 81.1321 409.259 91.9046C412.194 116.003 386.364 137.382 391.246 161.158C394.093 175.022 406.901 184.787 420.149 189.738C424.816 191.489 430.148 193.231 432.33 197.712C433.309 199.669 433.475 201.929 434.395 203.905C437.487 210.5 447.652 210.754 453.112 205.95C458.572 201.146 460.294 193.378 460.94 186.127C463.562 154.465 450.881 123.185 452.359 91.4447C452.799 81.8463 455.499 70.9564 464.1 66.6122C475.675 60.7416 489.598 70.5259 502.337 68.6571C508.365 83.3251 509.645 99.5136 505.996 114.947C503.971 123.39 500.468 131.58 500.214 140.288C499.832 153.546 506.984 165.659 513.168 177.38C514.495 179.572 515.382 182.001 515.781 184.533C515.878 187.101 515.4 189.658 514.381 192.018C510.888 201.42 504.861 210.148 504.176 220.157C503.976 221.326 504.239 222.526 504.91 223.503C505.6 224.156 506.489 224.556 507.435 224.638C518.002 226.449 527.14 217.085 532.296 207.682C538.045 197.297 541.395 185.756 542.1 173.907C543.167 153.986 536.024 134.388 536.465 114.448C536.973 91.7774 547.218 68.9506 541.22 47.0827Z" fill="black"/>
<path d="M542.198 46.1042C541.641 44.0593 540.868 41.9361 539.263 40.5663C537.731 39.466 535.961 38.742 534.097 38.4529C529.634 37.2793 525.097 36.4098 520.516 35.8502C519.862 33.6776 518.871 31.6209 517.581 29.7546C507.992 16.2131 493.805 3.44463 477.113 0.558261C468.376 -0.958306 458.249 0.401709 452.652 7.28986C449.58 11.0764 448.259 16.0957 445.158 19.8138C439.179 27.0346 428.387 27.9249 420.853 33.5118C416.832 36.4471 413.916 40.7032 411.069 44.8322C407.987 49.3036 404.817 53.961 403.838 59.3032C401.882 69.9779 408.936 80.1535 410.237 90.9261C413.173 115.025 387.342 136.403 392.224 160.179C395.072 174.044 407.879 183.808 421.127 188.759C425.794 190.511 431.127 192.252 433.309 196.733C434.287 198.69 434.454 200.951 435.373 202.927C438.465 209.522 448.631 209.776 454.091 204.972C459.55 200.168 461.272 192.399 461.918 185.149C464.54 153.487 451.86 122.206 453.337 90.4662C453.778 80.8678 456.478 69.9779 465.078 65.6336C476.653 59.7631 490.576 69.5474 503.315 67.6786C509.344 82.3466 510.624 98.5351 506.975 113.968C504.949 122.412 501.447 130.601 501.192 139.309C500.811 152.567 507.963 164.68 514.147 176.402C515.473 178.594 516.361 181.023 516.759 183.554C516.856 186.122 516.378 188.679 515.36 191.039C511.867 200.442 505.84 209.169 505.155 219.179C504.954 220.347 505.217 221.548 505.889 222.525C506.578 223.177 507.468 223.577 508.413 223.66C518.98 225.47 528.119 216.106 533.275 206.704C539.024 196.318 542.374 184.778 543.079 172.928C544.145 153.007 537.003 133.409 537.443 113.469C537.952 90.7989 548.196 67.9721 542.198 46.1042Z" fill="#3E373A"/>
<path d="M520.584 479.324L559.399 480.566L553.832 451.781L524.097 454.608L520.584 479.324Z" fill="#C3C7D9"/>
<path d="M640.853 411.098C638.241 414.356 628.133 420.227 627.155 422.183C626.177 424.14 614.113 430.011 607.909 430.989C601.706 431.968 582.147 436.214 578.556 438.494C575.983 440.138 555.328 445.343 541.758 448.229C538.082 449.099 534.362 449.768 530.613 450.235C524.743 450.558 460.499 428.71 460.499 428.71L472.886 415.99L473.571 415.755C477.074 414.571 493.257 409.102 502.239 406.499C512.356 403.564 524.097 391.5 524.097 391.5C524.097 391.5 541.376 385.629 543.666 384.974C545.955 384.318 537.795 362.147 537.795 362.147C537.795 362.147 575.298 356.942 589.975 352.529C604.651 348.116 638.573 349.75 644.767 367.039C650.96 384.328 643.505 407.84 640.853 411.098Z" fill="#4B4B5B"/>
<path d="M469.951 466.213C469.951 466.213 462.456 474.04 454.951 473.394C447.447 472.749 421.205 475.351 421.205 475.351C416.45 477.248 411.997 479.829 407.987 483.012C401.852 487.846 398.594 483.991 397.987 483.169L397.879 483.012C394.611 493.296 387.117 485.458 387.117 485.458C387.117 485.458 390.375 454.149 389.377 450.235C388.379 446.321 395.825 439.599 395.825 439.599L404.631 437.359L426.939 431.645L458.904 442.73L469.951 466.213Z" fill="#E7C7CA"/>
<path opacity="0.1" d="M404.591 437.359L397.987 483.169L397.879 483.012C394.611 493.295 387.117 485.458 387.117 485.458C387.117 485.458 390.375 454.149 389.377 450.235C388.379 446.321 395.825 439.599 395.825 439.599L404.591 437.359Z" fill="black"/>
<path opacity="0.1" d="M450.754 307.052C450.754 307.052 468.033 312.922 483.042 307.052H450.754Z" fill="black"/>
<path opacity="0.1" d="M509.743 318.147C509.743 318.147 516.915 321.728 522.463 318.147H509.743Z" fill="black"/>
<path opacity="0.1" d="M509.743 326.64C509.743 326.64 521.807 328.254 524.097 324.996L509.743 326.64Z" fill="black"/>
<path opacity="0.1" d="M505.83 344.887C505.83 344.887 528.491 341.952 534.117 338.038L505.83 344.887Z" fill="black"/>
<path opacity="0.1" d="M436.684 338.038C436.684 338.038 449.404 345.21 458.865 344.887L436.684 338.038Z" fill="black"/>
<path opacity="0.1" d="M541.748 448.229C538.072 449.099 534.352 449.768 530.604 450.235C524.733 450.558 460.489 428.709 460.489 428.709L472.876 415.99L473.561 415.755C475.518 417.134 477.123 418.318 478.267 419.219C483.658 423.465 488.864 417.917 490.821 417.917C492.777 417.917 509.734 431.938 509.734 431.938C509.734 431.938 525.389 435.529 528.001 438.787C530.613 442.045 539.742 441.4 541.366 443.679C541.855 444.384 541.914 446.116 541.748 448.229Z" fill="black"/>
<path d="M421.205 363.478C421.205 363.478 405.374 364.387 396.246 360.542C387.117 356.697 356.786 347.823 347.98 354.055C339.174 360.288 317.971 365.796 327.756 390.59C337.54 415.383 342.109 416.029 342.109 416.029C345.136 418.299 347.779 421.041 349.937 424.15C352.872 428.719 380.268 439.149 387.117 439.149C393.966 439.149 406.03 439.149 422.986 450.89C439.942 462.632 455.274 463.943 455.274 463.943C455.274 463.943 476.8 472.749 483.502 474.705C490.204 476.662 520.829 485.136 528.011 482.533C535.193 479.93 539.752 463.61 539.752 463.61C539.752 463.61 543.01 448.934 541.376 446.654C539.742 444.374 530.614 445.02 528.011 441.762C525.408 438.504 509.744 434.913 509.744 434.913C509.744 434.913 492.827 420.882 490.87 420.882C488.913 420.882 483.708 426.42 478.316 422.183C467.577 414.229 456.294 407.036 444.551 400.658C432.164 394.132 421.205 363.478 421.205 363.478Z" fill="#4B4B5B"/>
<path opacity="0.1" d="M389.377 372.939C392.196 372.363 395.109 372.446 397.891 373.181C400.672 373.915 403.247 375.283 405.413 377.175C413.241 383.702 439.58 396.803 439.58 396.803" fill="black"/>
<path opacity="0.1" d="M585.082 372.528C585.082 372.528 550.182 377.811 543.666 384.983L585.082 372.528Z" fill="black"/>
<path d="M625.199 480.566H623.662C618.144 480.371 599.446 479.784 595.846 480.566C591.609 481.545 535.506 480.566 535.506 480.566L546.474 478.287C546.474 478.287 542.404 464.021 544.987 462.837C544.987 462.837 530.31 453.17 541.376 446.644C552.442 440.118 564.37 442.867 564.37 442.867L592.147 433.455L597.48 431.645C597.48 431.645 628.789 433.279 637.263 454.804C645.736 476.33 625.199 480.566 625.199 480.566Z" fill="#E7C7CA"/>
<path opacity="0.1" d="M625.198 480.566H623.662C632.771 473.052 653.377 450.176 592.147 433.504L597.479 431.694C597.479 431.694 628.789 433.328 637.262 454.853C645.736 476.379 625.198 480.566 625.198 480.566Z" fill="black"/>
<path d="M567.637 455.205C568.583 455.205 569.349 454.439 569.349 453.493C569.349 452.547 568.583 451.781 567.637 451.781C566.691 451.781 565.925 452.547 565.925 453.493C565.925 454.439 566.691 455.205 567.637 455.205Z" fill="#4B4B5B"/>
<path d="M557.686 458.033C558.632 458.033 559.399 457.266 559.399 456.321C559.399 455.375 558.632 454.609 557.686 454.609C556.741 454.609 555.974 455.375 555.974 456.321C555.974 457.266 556.741 458.033 557.686 458.033Z" fill="#4B4B5B"/>
<g opacity="0.1">
<path opacity="0.1" d="M509.205 94.4876C509.584 83.7257 507.67 73.0061 503.589 63.0408C490.869 64.939 476.936 55.1253 465.352 60.9959C456.781 65.3402 454.09 76.2301 453.611 85.8285C453.493 88.3626 453.474 90.8967 453.523 93.4309C453.523 92.5307 453.523 91.6208 453.611 90.7206C454.061 81.1222 456.751 70.2323 465.352 65.8881C476.936 60.0175 490.85 69.8018 503.589 67.933C507.045 76.374 508.948 85.37 509.205 94.4876Z" fill="black"/>
<path opacity="0.1" d="M410.638 92.6971C410.806 90.5651 410.763 88.4218 410.511 86.2982C409.474 77.688 404.768 69.4594 403.916 61.0645C402.82 71.1912 409.268 80.9168 410.511 91.1903C410.638 91.7187 410.638 92.1883 410.638 92.6971Z" fill="black"/>
<path opacity="0.1" d="M462.192 180.501C461.585 187.761 459.873 195.52 454.364 200.334C448.856 205.148 438.71 204.884 435.647 198.289C434.669 196.332 434.522 194.053 433.573 192.096C431.401 187.615 426.058 185.873 421.391 184.122C408.134 179.161 395.346 169.445 392.498 155.542C392.244 154.282 392.071 153.008 391.98 151.726C391.739 154.638 391.914 157.57 392.498 160.434C395.346 174.298 408.153 184.053 421.391 189.014C426.058 190.765 431.401 192.507 433.573 196.988C434.551 198.945 434.718 201.205 435.647 203.181C438.729 209.776 448.895 210.03 454.364 205.226C459.834 200.422 461.536 192.654 462.192 185.394C462.49 181.572 462.591 177.738 462.495 173.907C462.495 176.128 462.368 178.32 462.192 180.501Z" fill="black"/>
<path opacity="0.1" d="M537.766 108.831C537.766 110.25 537.766 111.659 537.766 113.068C538.314 94.869 544.986 76.5723 544.331 58.7551C543.822 75.2319 538.137 92.0805 537.766 108.831Z" fill="black"/>
<path opacity="0.1" d="M516.769 182.449C517.009 181.288 517.085 180.099 516.994 178.916C516.6 176.384 515.712 173.954 514.381 171.764C508.726 161.001 502.278 149.984 501.515 138.038C501.515 138.546 501.447 139.016 501.437 139.564C501.045 152.812 508.198 164.935 514.381 176.656C515.432 178.472 516.235 180.42 516.769 182.449Z" fill="black"/>
<path opacity="0.1" d="M543.391 168.29C542.661 180.144 539.288 191.685 533.519 202.066C528.353 211.468 519.224 220.832 508.647 219.022C507.7 218.94 506.809 218.536 506.123 217.877C505.924 217.653 505.768 217.394 505.663 217.114C505.546 217.877 505.448 218.65 505.389 219.433C505.187 220.598 505.45 221.796 506.123 222.769C506.809 223.428 507.7 223.832 508.647 223.914C519.224 225.724 528.353 216.361 533.519 206.958C539.288 196.577 542.661 185.036 543.391 173.183C543.509 170.893 543.519 168.613 543.45 166.333C543.431 166.989 543.431 167.635 543.391 168.29Z" fill="black"/>
</g>
<path opacity="0.1" d="M544.987 462.837C544.987 462.837 569.751 473.228 586.081 450.235" stroke="black" stroke-miterlimit="10"/>
<path opacity="0.1" d="M549.859 480.997C549.859 480.997 570.083 467.847 595.845 480.566" stroke="black" stroke-miterlimit="10"/>
<path opacity="0.1" d="M414.483 478.013C414.483 478.013 422.976 458.855 445.656 473.463" stroke="black" stroke-miterlimit="10"/>
<path opacity="0.1" d="M386.95 194.698L404.268 179.043C404.268 179.043 471.418 174.64 474.197 197.467C474.197 197.467 498.002 170.404 548.068 176.431L569.251 193.299L510.702 218.993L453.806 238.728L411.9 219.971L386.95 194.698Z" fill="black"/>
<path d="M386.95 195.677L404.268 180.022C404.268 180.022 471.418 175.619 474.197 198.446C474.197 198.446 498.002 171.382 548.068 177.41L569.251 194.278L510.702 219.971L453.806 239.706L411.9 220.95L386.95 195.677Z" fill="#D5D6DB"/>
<path opacity="0.1" d="M379.289 197.634L386.95 289.283L468.16 293.363L464.637 202.105L464.569 200.569L379.289 197.634Z" fill="black"/>
<path d="M379.289 195.677L386.95 287.326L468.16 291.406L464.637 200.148L464.569 198.612L379.289 195.677Z" fill="#A5AFED"/>
<path opacity="0.1" d="M572.969 195.677L489.196 208.24V300.3L571.062 288.471L572.969 195.677Z" fill="black"/>
<path d="M572.969 193.72L489.196 206.283V298.343L571.062 286.514L572.969 193.72Z" fill="#A5AFED"/>
<path opacity="0.3" d="M553.215 216.185L507.963 221.214L508.951 236.634L553.186 231.8L553.215 216.185Z" fill="white"/>
<path d="M391.354 336.404L395.962 348.801C395.962 348.801 402.811 354.672 410.306 351.736C417.801 348.801 424.337 347.343 427.595 344.486C430.853 341.629 435.422 327.276 435.422 327.276C435.422 327.276 439.991 311.621 444.551 307.707C449.11 303.793 461.184 249.872 444.551 255.146C427.918 260.42 415.198 309.341 415.198 309.341C415.198 309.341 412.263 312.922 408.026 313.255C403.79 313.587 395.306 312.599 393.672 316.19C392.039 319.781 386.461 329.232 391.354 336.404Z" fill="#BE6F72"/>
<path opacity="0.1" d="M489.197 208.23C484.908 209.196 480.452 209.146 476.186 208.082C471.92 207.019 467.962 204.972 464.628 202.105L468.161 293.353C468.161 293.353 476.477 302.355 489.197 300.3V208.23Z" fill="black"/>
<path d="M489.197 206.273C484.908 207.24 480.452 207.189 476.186 206.126C471.92 205.062 467.962 203.015 464.628 200.148L468.161 291.397C468.161 291.397 476.477 300.398 489.197 298.343V206.273Z" fill="#A5AFED"/>
<path opacity="0.1" d="M489.197 206.273C484.908 207.24 480.452 207.189 476.186 206.126C471.92 205.062 467.962 203.015 464.628 200.148L468.161 291.397C468.161 291.397 476.477 300.398 489.197 298.343V206.273Z" fill="black"/>
<path opacity="0.1" d="M491.153 195.99C491.153 195.99 525.232 185.57 534.116 187.037L491.153 195.99Z" fill="black"/>
<path opacity="0.1" d="M453.034 191.44C453.034 191.44 420.002 183.613 414.483 185.834L453.034 191.44Z" fill="black"/>
<path opacity="0.1" d="M512.64 197.291C512.64 197.291 535.427 188.935 543.666 192.908L512.64 197.291Z" fill="black"/>
<path opacity="0.1" d="M501.163 406.9C504.694 404.248 508.453 401.914 512.395 399.924C518.266 397.096 529.028 389.758 529.028 389.758" fill="black"/>
<path opacity="0.1" d="M414.483 307.052C414.483 307.052 400.188 318.744 395.893 319.771C391.598 320.798 388.946 329.917 388.946 329.917" fill="black"/>
<path d="M564.565 334.663L560.006 347.089C560.006 347.089 553.157 352.96 545.652 350.024C538.147 347.089 531.631 345.631 528.363 342.774C525.095 339.917 520.536 325.563 520.536 325.563C520.536 325.563 515.976 309.909 511.407 305.995C506.838 302.081 494.774 248.16 511.407 253.434C528.04 258.707 540.76 307.629 540.76 307.629C540.76 307.629 543.695 311.21 547.932 311.543C552.168 311.875 560.651 310.887 562.285 314.478C563.919 318.069 569.457 327.52 564.565 334.663Z" fill="#BE6F72"/>
<path opacity="0.1" d="M556.571 311.807C556.571 311.807 565.915 317.814 565.876 324.996L556.571 311.807Z" fill="black"/>
<path d="M477.289 137.666C501.427 137.666 520.995 118.098 520.995 93.9592C520.995 69.8207 501.427 50.2527 477.289 50.2527C453.151 50.2527 433.583 69.8207 433.583 93.9592C433.583 118.098 453.151 137.666 477.289 137.666Z" fill="#BE6F72"/>
<path d="M449.844 82.2278C455.147 81.3962 459.795 78.3141 464.863 76.5431C476.203 72.5609 488.746 75.2907 500.223 78.8816C504.626 80.2612 509.098 81.8169 513.716 81.8169C518.334 81.8169 523.236 79.9285 525.594 75.9463C527.766 72.287 527.345 67.5318 525.516 63.6866C523.686 59.8413 520.624 56.7495 517.532 53.8338C507.356 44.2256 494.734 35.2436 480.772 36.222C475.156 36.6232 469.784 38.629 464.618 40.85C458.113 43.6532 451.781 46.842 445.656 50.3995C440.95 53.1293 432.232 56.7788 429.522 61.7688C423.358 73.011 440.255 83.7346 449.844 82.2278Z" fill="#3E373A"/>
<path opacity="0.1" d="M525.594 71.8368C523.236 75.819 518.334 77.7074 513.716 77.7074C509.098 77.7074 504.626 76.2104 500.214 74.8308C488.737 71.24 476.203 68.5004 464.853 72.4924C459.795 74.2633 455.137 77.3845 449.834 78.1673C442.105 79.3805 429.659 72.6489 428.309 64.0876C426.792 73.9796 441.224 82.4528 449.834 81.1025C455.137 80.2709 459.795 77.1888 464.853 75.4276C476.203 71.4357 488.737 74.1753 500.214 77.7661C504.626 79.1457 509.088 80.7014 513.716 80.6427C518.344 80.584 523.236 78.7641 525.594 74.7721C526.816 72.6004 527.297 70.0894 526.964 67.6198C526.811 69.1066 526.344 70.5441 525.594 71.8368Z" fill="black"/>
</svg>
