<svg width="174" height="248" viewBox="0 0 174 248" fill="none" xmlns="http://www.w3.org/2000/svg">
<g opacity="0.5">
<path d="M112.879 1.10742H61.9402V52.0459H112.879V1.10742Z" fill="#494961"/>
<path d="M97.0803 35.657C97.4473 35.657 97.7447 35.3595 97.7447 34.9925C97.7447 34.6256 97.4473 34.3281 97.0803 34.3281C96.7134 34.3281 96.4159 34.6256 96.4159 34.9925C96.4159 35.3595 96.7134 35.657 97.0803 35.657Z" fill="#6C63FF"/>
<path d="M94.5888 33.3327C94.9557 33.3327 95.2532 33.0353 95.2532 32.6683C95.2532 32.3014 94.9557 32.0039 94.5888 32.0039C94.2218 32.0039 93.9243 32.3014 93.9243 32.6683C93.9243 33.0353 94.2218 33.3327 94.5888 33.3327Z" fill="#6C63FF"/>
<path d="M94.2565 34.9935C94.012 34.9935 93.7724 35.0614 93.5642 35.1896C93.3809 34.9139 93.1654 34.661 92.9223 34.4362C92.9251 34.4008 92.9277 34.3652 92.9277 34.3291C92.9279 34.0683 92.8513 33.8133 92.7075 33.5958C92.5637 33.3783 92.3591 33.208 92.1192 33.106C91.8792 33.004 91.6146 32.9749 91.3582 33.0224C91.1018 33.0698 90.8651 33.1917 90.6775 33.3728C90.3217 33.3223 89.9607 33.3192 89.604 33.3635C89.6043 33.353 89.6056 33.3429 89.6056 33.3324C89.6059 33.11 89.5503 32.8911 89.444 32.6957C89.3377 32.5003 89.1841 32.3348 88.9972 32.2142C88.8103 32.0936 88.5961 32.0219 88.3743 32.0055C88.1525 31.9892 87.9301 32.0288 87.7276 32.1208C87.525 32.2127 87.3488 32.354 87.2151 32.5317C87.0813 32.7094 86.9943 32.9178 86.962 33.1379C86.9297 33.358 86.9532 33.5826 87.0303 33.7913C87.1074 33.9999 87.2356 34.1859 87.4032 34.3321C87.1807 34.5226 86.9789 34.7361 86.8011 34.9689C86.6371 34.8324 86.4426 34.7374 86.2341 34.692C86.0257 34.6465 85.8093 34.652 85.6033 34.7078C85.3974 34.7637 85.208 34.8683 85.051 35.0129C84.8941 35.1575 84.7742 35.3377 84.7017 35.5384C84.6291 35.739 84.606 35.9542 84.6341 36.1657C84.6623 36.3772 84.741 36.5788 84.8636 36.7535C84.9862 36.9282 85.149 37.0707 85.3384 37.1692C85.5277 37.2676 85.7379 37.3189 85.9513 37.3189L85.9555 37.3187C85.9533 37.374 85.9513 37.4293 85.9513 37.485C85.9514 37.8194 85.9917 38.1525 86.0715 38.4772C85.6766 38.6258 85.3259 38.8723 85.0524 39.1936C84.7788 39.5148 84.5913 39.9004 84.5076 40.3139C84.4239 40.7275 84.4466 41.1555 84.5736 41.5579C84.7007 41.9603 84.9279 42.3238 85.2339 42.6143C85.5399 42.9049 85.9147 43.1129 86.3231 43.2188C86.7316 43.3248 87.1602 43.3253 87.5689 43.2202C87.9776 43.1151 88.3528 42.9079 88.6594 42.6181C88.9661 42.3282 89.1941 41.9652 89.322 41.5631C90.2463 41.7407 91.2036 41.5987 92.0365 41.1604C92.1216 41.3606 92.2545 41.5369 92.4235 41.6738C92.5926 41.8107 92.7927 41.904 93.0063 41.9455C93.2198 41.9869 93.4403 41.9754 93.6484 41.9117C93.8564 41.8481 94.0456 41.7344 94.1995 41.5806C94.3533 41.4268 94.467 41.2375 94.5306 41.0295C94.5942 40.8215 94.6058 40.601 94.5643 40.3874C94.5228 40.1739 94.4296 39.9738 94.2927 39.8047C94.1558 39.6356 93.9795 39.5027 93.7793 39.4176C94.067 38.8715 94.2287 38.2678 94.2523 37.6509L94.2565 37.6511C94.6089 37.6511 94.9469 37.5111 95.1961 37.2619C95.4453 37.0127 95.5853 36.6747 95.5853 36.3223C95.5853 35.9699 95.4453 35.6319 95.1961 35.3827C94.9469 35.1335 94.6089 34.9935 94.2565 34.9935V34.9935Z" fill="#6C63FF"/>
<path d="M102.293 23.0495C102.66 23.0495 102.957 22.7521 102.957 22.3851C102.957 22.0182 102.66 21.7207 102.293 21.7207C101.926 21.7207 101.629 22.0182 101.629 22.3851C101.629 22.7521 101.926 23.0495 102.293 23.0495Z" fill="#6C63FF"/>
<path d="M103.856 20.0202C104.223 20.0202 104.52 19.7228 104.52 19.3558C104.52 18.9889 104.223 18.6914 103.856 18.6914C103.489 18.6914 103.192 18.9889 103.192 19.3558C103.192 19.7228 103.489 20.0202 103.856 20.0202Z" fill="#6C63FF"/>
<path d="M101.528 19.6662C101.461 19.4309 101.331 19.2186 101.151 19.053C101.367 18.8017 101.552 18.5258 101.702 18.2308C101.737 18.2239 101.772 18.2168 101.807 18.207C102.058 18.1365 102.283 17.9937 102.453 17.7963C102.623 17.5989 102.732 17.3558 102.765 17.0972C102.798 16.8386 102.754 16.5759 102.639 16.342C102.524 16.1081 102.343 15.9133 102.117 15.7818C102.07 15.4256 101.975 15.0773 101.835 14.746C101.845 14.7434 101.856 14.742 101.866 14.7391C102.08 14.6791 102.276 14.5663 102.435 14.411C102.594 14.2557 102.712 14.0629 102.777 13.8504C102.843 13.6378 102.854 13.4122 102.809 13.1942C102.765 12.9763 102.666 12.773 102.523 12.603C102.38 12.4329 102.196 12.3016 101.988 12.221C101.781 12.1404 101.557 12.1132 101.336 12.1418C101.116 12.1704 100.906 12.2539 100.726 12.3846C100.546 12.5153 100.402 12.6892 100.306 12.8901C100.063 12.7277 99.8026 12.5913 99.5303 12.4833C99.6172 12.2884 99.656 12.0754 99.6432 11.8624C99.6304 11.6494 99.5665 11.4426 99.4569 11.2596C99.3473 11.0765 99.1952 10.9225 99.0135 10.8106C98.8318 10.6987 98.6259 10.6322 98.413 10.6168C98.2002 10.6013 97.9868 10.6374 97.7908 10.7218C97.5949 10.8063 97.4222 10.9367 97.2873 11.102C97.1524 11.2674 97.0593 11.4628 97.0159 11.6717C96.9725 11.8806 96.98 12.0969 97.0379 12.3023L97.0392 12.3063C96.9854 12.3192 96.9317 12.3322 96.878 12.3473C96.5562 12.438 96.2465 12.5671 95.9556 12.7319C95.7055 12.3921 95.3731 12.1214 94.9897 11.9451C94.6063 11.7689 94.1845 11.693 93.7637 11.7245C93.3429 11.756 92.937 11.8939 92.5841 12.1253C92.2313 12.3566 91.9429 12.6738 91.7463 13.0471C91.5496 13.4205 91.4509 13.8376 91.4596 14.2595C91.4683 14.6814 91.5841 15.0941 91.796 15.459C92.008 15.8238 92.3091 16.1289 92.6713 16.3455C93.0334 16.5621 93.4446 16.6831 93.8663 16.6972C93.9459 17.6351 94.3421 18.518 94.9898 19.201C94.8201 19.3371 94.6864 19.5128 94.6005 19.7127C94.5146 19.9125 94.479 20.1304 94.497 20.3472C94.5149 20.564 94.5859 20.7731 94.7035 20.9561C94.8211 21.1391 94.9819 21.2905 95.1716 21.3968C95.3614 21.5032 95.5744 21.5614 95.7919 21.5662C96.0094 21.571 96.2247 21.5224 96.4191 21.4246C96.6134 21.3268 96.7807 21.1827 96.9063 21.0051C97.032 20.8276 97.1121 20.6218 97.1397 20.406C97.7434 20.535 98.3683 20.5269 98.9685 20.3825L98.9694 20.3866C99.0166 20.5546 99.0965 20.7118 99.2044 20.849C99.3124 20.9862 99.4463 21.1008 99.5986 21.1862C99.7509 21.2716 99.9185 21.3262 100.092 21.3468C100.265 21.3675 100.441 21.3537 100.609 21.3064C100.777 21.2591 100.934 21.1791 101.071 21.071C101.208 20.963 101.323 20.8289 101.408 20.6766C101.493 20.5243 101.548 20.3566 101.568 20.1833C101.589 20.0099 101.575 19.8342 101.528 19.6661V19.6662Z" fill="#6C63FF"/>
<path d="M76.5592 14.0202C76.9261 14.0202 77.2236 13.7228 77.2236 13.3558C77.2236 12.9889 76.9261 12.6914 76.5592 12.6914C76.1923 12.6914 75.8948 12.9889 75.8948 13.3558C75.8948 13.7228 76.1923 14.0202 76.5592 14.0202Z" fill="#6C63FF"/>
<path d="M73.162 14.2917C73.5289 14.2917 73.8264 13.9943 73.8264 13.6273C73.8264 13.2604 73.5289 12.9629 73.162 12.9629C72.795 12.9629 72.4976 13.2604 72.4976 13.6273C72.4976 13.9943 72.795 14.2917 73.162 14.2917Z" fill="#6C63FF"/>
<path d="M74.6554 15.4401C74.4906 15.6207 74.3791 15.8435 74.3335 16.0837C74.0062 16.0332 73.6742 16.0218 73.3442 16.0498C73.32 16.0238 73.2955 15.9979 73.2687 15.9735C73.0763 15.7976 72.8364 15.6822 72.5788 15.6418C72.3212 15.6013 72.0574 15.6376 71.8204 15.746C71.5833 15.8545 71.3834 16.0303 71.2455 16.2517C71.1077 16.473 71.0381 16.73 71.0454 16.9906C70.7682 17.2194 70.5225 17.4838 70.3147 17.7771C70.3072 17.7699 70.3006 17.7621 70.2929 17.755C70.1288 17.6048 69.9296 17.4983 69.7137 17.445C69.4977 17.3918 69.2719 17.3936 69.0568 17.4504C68.8417 17.5071 68.6443 17.6169 68.4827 17.7697C68.3211 17.9225 68.2004 18.1135 68.1318 18.325C68.0631 18.5366 68.0486 18.762 68.0897 18.9806C68.1308 19.1992 68.226 19.404 68.3668 19.5762C68.5076 19.7484 68.6893 19.8825 68.8954 19.9663C69.1014 20.05 69.3252 20.0807 69.5462 20.0555C69.5369 20.3483 69.5585 20.6412 69.6105 20.9295C69.3992 20.9586 69.1979 21.0382 69.0238 21.1615C68.8496 21.2849 68.7078 21.4483 68.6102 21.6381C68.5126 21.8278 68.4621 22.0383 68.4631 22.2517C68.464 22.4651 68.5163 22.6751 68.6156 22.864C68.7149 23.0528 68.8582 23.215 69.0334 23.3368C69.2086 23.4586 69.4106 23.5364 69.6222 23.5637C69.8339 23.5909 70.0489 23.5668 70.2493 23.4933C70.4496 23.4198 70.6293 23.2992 70.7731 23.1416L70.7758 23.1383C70.8152 23.1772 70.8546 23.216 70.8958 23.2536C71.1428 23.479 71.416 23.6738 71.7096 23.8337C71.5531 24.2256 71.4987 24.6508 71.5515 25.0694C71.6043 25.4881 71.7627 25.8864 72.0116 26.2271C72.2606 26.5678 72.592 26.8396 72.9749 27.0171C73.3577 27.1946 73.7793 27.2719 74.2002 27.2418C74.6211 27.2117 75.0274 27.0751 75.381 26.8449C75.7347 26.6147 76.024 26.2984 76.222 25.9258C76.4199 25.5531 76.5199 25.1363 76.5126 24.7144C76.5053 24.2925 76.3909 23.8794 76.1802 23.5138C76.9346 22.951 77.4751 22.1483 77.713 21.2376C77.9182 21.3098 78.138 21.3305 78.3531 21.2979C78.5682 21.2653 78.772 21.1804 78.9466 21.0507C79.1212 20.9209 79.2613 20.7503 79.3546 20.5538C79.4479 20.3572 79.4915 20.1408 79.4816 19.9235C79.4717 19.7062 79.4086 19.4946 79.2979 19.3073C79.1871 19.1201 79.0321 18.9629 78.8464 18.8496C78.6608 18.7362 78.4501 18.6702 78.2329 18.6573C78.0158 18.6444 77.7987 18.6849 77.6009 18.7755C77.3916 18.1947 77.0548 17.6683 76.6151 17.235L76.6181 17.232C76.736 17.1032 76.8274 16.9524 76.8871 16.7882C76.9467 16.624 76.9733 16.4497 76.9655 16.2752C76.9577 16.1007 76.9155 15.9295 76.8415 15.7713C76.7674 15.6131 76.6629 15.4711 76.534 15.3533C76.405 15.2356 76.254 15.1444 76.0897 15.085C75.9255 15.0256 75.7511 14.9992 75.5767 15.0073C75.4022 15.0153 75.231 15.0577 75.0729 15.132C74.9148 15.2063 74.7729 15.311 74.6554 15.4401V15.4401Z" fill="#6C63FF"/>
<path d="M93.6845 0H78.9197V2.21472H93.6845V0Z" fill="#E6E6E6"/>
</g>
<g opacity="0.5">
<path d="M51.6048 1.10742H0.666336V52.0459H51.6048V1.10742Z" fill="#494961"/>
<path d="M39.4239 24.3612C40.2393 24.3612 40.9004 23.7001 40.9004 22.8847C40.9004 22.0692 40.2393 21.4082 39.4239 21.4082C38.6085 21.4082 37.9474 22.0692 37.9474 22.8847C37.9474 23.7001 38.6085 24.3612 39.4239 24.3612Z" fill="#6C63FF"/>
<path d="M33.8871 19.1951C34.7025 19.1951 35.3636 18.5341 35.3636 17.7187C35.3636 16.9032 34.7025 16.2422 33.8871 16.2422C33.0717 16.2422 32.4106 16.9032 32.4106 17.7187C32.4106 18.5341 33.0717 19.1951 33.8871 19.1951Z" fill="#6C63FF"/>
<path d="M33.1489 22.8861C32.6056 22.8862 32.073 23.0371 31.6104 23.3221C31.203 22.7094 30.7241 22.1473 30.1839 21.6478C30.1902 21.569 30.1959 21.4901 30.1959 21.4097C30.1963 20.8303 30.0262 20.2636 29.7067 19.7802C29.3872 19.2969 28.9324 18.9184 28.3992 18.6918C27.866 18.4651 27.2778 18.4005 26.7081 18.506C26.1384 18.6114 25.6123 18.8822 25.1955 19.2847C24.4048 19.1725 23.6026 19.1655 22.81 19.2639C22.8106 19.2407 22.8135 19.2182 22.8135 19.1949C22.8141 18.7007 22.6907 18.2142 22.4545 17.78C22.2183 17.3458 21.8768 16.9779 21.4615 16.7099C21.0462 16.4419 20.5702 16.2825 20.0773 16.2462C19.5844 16.21 19.0902 16.298 18.6401 16.5023C18.19 16.7066 17.7984 17.0206 17.5012 17.4155C17.204 17.8104 17.0106 18.2736 16.9389 18.7626C16.8671 19.2517 16.9193 19.7509 17.0906 20.2145C17.2619 20.6782 17.5468 21.0914 17.9192 21.4163C17.4249 21.8398 16.9765 22.3141 16.5814 22.8314C16.2169 22.5281 15.7847 22.317 15.3214 22.2161C14.8581 22.1151 14.3773 22.1272 13.9197 22.2513C13.462 22.3755 13.041 22.608 12.6922 22.9293C12.3434 23.2505 12.0772 23.651 11.9159 24.097C11.7547 24.5429 11.7032 25.0211 11.7658 25.4911C11.8285 25.9611 12.0034 26.4092 12.2758 26.7973C12.5482 27.1854 12.91 27.5023 13.3308 27.721C13.7515 27.9397 14.2187 28.0538 14.6929 28.0538L14.7022 28.0533C14.6974 28.1761 14.6929 28.299 14.6929 28.4229C14.693 29.1659 14.7827 29.9062 14.96 30.6277C14.0824 30.9579 13.3031 31.5057 12.6952 32.2197C12.0873 32.9336 11.6708 33.7903 11.4847 34.7093C11.2986 35.6284 11.3491 36.5796 11.6314 37.4738C11.9137 38.368 12.4185 39.1758 13.0985 39.8214C13.7786 40.467 14.6115 40.9292 15.5191 41.1647C16.4268 41.4002 17.3793 41.4013 18.2875 41.1677C19.1956 40.9342 20.0295 40.4738 20.711 39.8297C21.3924 39.1855 21.899 38.3788 22.1832 37.4853C24.2373 37.88 26.3645 37.5645 28.2155 36.5904C28.4045 37.0354 28.6999 37.4272 29.0756 37.7313C29.4514 38.0355 29.8961 38.2428 30.3706 38.335C30.8452 38.4272 31.3351 38.4014 31.7974 38.2601C32.2597 38.1187 32.6803 37.866 33.0221 37.5242C33.364 37.1823 33.6166 36.7618 33.758 36.2995C33.8994 35.8372 33.9251 35.3472 33.8329 34.8727C33.7407 34.3981 33.5334 33.9534 33.2293 33.5777C32.9251 33.2019 32.5333 32.9066 32.0883 32.7176C32.7278 31.504 33.087 30.1624 33.1395 28.7916L33.1489 28.7921C33.932 28.7921 34.6831 28.4809 35.2369 27.9272C35.7907 27.3734 36.1018 26.6223 36.1018 25.8391C36.1018 25.0559 35.7907 24.3048 35.2369 23.751C34.6831 23.1973 33.932 22.8861 33.1489 22.8861V22.8861Z" fill="#6C63FF"/>
<path d="M32.4106 0H17.6458V2.21472H32.4106V0Z" fill="#E6E6E6"/>
</g>
<path opacity="0.1" d="M138.045 93.2852H127.548V103.783H138.045V93.2852Z" fill="#6C63FF"/>
<path opacity="0.1" d="M138.045 119.182H127.548V129.679H138.045V119.182Z" fill="#6C63FF"/>
<path opacity="0.1" d="M138.045 145.07H127.548V155.568H138.045V145.07Z" fill="#6C63FF"/>
<path opacity="0.1" d="M138.045 170.963H127.548V181.461H138.045V170.963Z" fill="#6C63FF"/>
<path d="M85.047 102.126C85.047 102.126 83.5927 101.923 83.5927 99.8038C83.5927 97.6851 82.5518 93.7281 82.5518 93.7281C82.5518 93.7097 81.6511 86.8367 80.4072 85.7441C79.1633 84.6515 77.565 78.2362 77.565 78.2362C77.565 78.2362 77.2918 74.7554 76.7345 74.0061C76.1771 73.2567 75.4241 71.4222 74.313 68.8052C73.202 66.1881 68.5695 64.3757 68.5695 64.3757C68.5695 64.3757 60.1942 59.5181 57.8208 57.9346C57.605 57.8045 57.4034 57.6523 57.2191 57.4806C56.8057 56.938 55.0044 56.9269 55.0044 56.9269C54.8161 55.7383 54.6353 54.3726 54.5762 53.136C54.5762 53.0031 54.5762 52.8703 54.5577 52.7374C57.2043 51.173 59.1977 48.7064 60.1721 45.7906C60.2164 45.6503 60.2533 45.5026 60.2939 45.3624C60.4524 45.3101 60.5984 45.2254 60.7223 45.1135C60.8463 45.0016 60.9455 44.8651 61.0137 44.7127C61.2277 44.2366 61.2314 43.6792 61.4972 43.2362C61.8073 42.7121 62.3978 42.4316 62.8629 42.0366C64.0367 41.04 64.3394 39.3605 64.284 37.8323C64.2471 36.5958 64.0478 35.3482 64.1253 34.119L64.1475 33.8089C64.1696 33.6244 64.1955 33.4398 64.2287 33.2626C64.4096 32.3472 64.8045 31.4835 65.026 30.5754C65.2475 29.6674 65.2696 28.6449 64.7528 27.8624C63.9961 26.7145 62.42 26.4856 61.0358 26.3675C59.467 26.2346 58.0644 26.4081 57.0604 25.1051C56.5905 24.4241 56.0619 23.7855 55.4805 23.1967C55.2738 23.0048 53.2658 21.7793 53.2658 21.6981C51.306 20.7904 49.0846 20.62 47.0093 21.2183C45.9683 21.5209 44.9865 22.0156 43.9308 22.2629C41.6533 22.8018 39.0326 22.2186 37.0984 23.5216C36.0206 24.2598 35.3746 25.4336 34.7692 26.5779C34.2771 27.5204 33.7775 28.4616 33.2706 29.4016C32.4549 30.9483 31.6243 32.5207 31.2811 34.2334C31.2089 34.6061 31.1645 34.9836 31.1482 35.3629V35.3814C31.1482 35.518 31.1482 35.6545 31.1482 35.7911V35.9646C31.1482 36.0938 31.1482 36.2193 31.1703 36.3337C31.1925 36.4481 31.1888 36.485 31.1999 36.5626C31.2109 36.6401 31.2294 36.8136 31.2515 36.9317C31.2737 37.0498 31.318 37.2565 31.3623 37.4189C31.3807 37.4891 31.4066 37.5555 31.4287 37.6219C31.4656 37.7474 31.5099 37.8692 31.5579 37.9911C31.5837 38.0538 31.6096 38.1203 31.6391 38.183C31.6945 38.3122 31.7609 38.4377 31.8274 38.5521C31.8569 38.6038 31.879 38.6518 31.9086 38.6998C32.0116 38.8714 32.125 39.0366 32.2482 39.1944C33.0381 40.1799 34.2008 40.8074 35.0609 41.7302C35.0609 41.7671 35.0609 41.8041 35.0609 41.8373C35.0609 41.9406 35.0609 42.0403 35.0609 42.1436C35.1065 44.2017 35.6543 46.2174 36.6565 48.0155C37.6588 49.8135 39.0852 51.3395 40.8117 52.4605C40.8117 52.6008 40.8302 52.7448 40.8376 52.885C40.9095 53.9807 40.896 55.0803 40.797 56.1739C40.6467 55.9969 40.4585 55.8559 40.2464 55.7613C40.0343 55.6667 39.8036 55.621 39.5715 55.6276C39.4129 55.6198 39.254 55.6335 39.099 55.6682L39.0658 55.6424V55.6756C38.2537 55.8749 37.2534 56.7202 36.2974 59.1232C36.2974 59.1232 33.3887 62.4009 31.174 62.2644C28.9593 62.1278 23.3524 65.675 23.3524 65.675C23.3524 65.675 17.882 69.226 16.7082 72.8433C16.0521 74.8946 15.2655 76.9018 14.3532 78.8526L7.59096 92.7869L6.34334 103.842C6.34334 103.842 7.03359 108.759 6.89702 109.508C6.76044 110.257 9.73555 117.016 9.73555 117.016C9.73555 117.016 19.5652 134.287 23.5812 135.173L23.8691 134.97C24.041 135.06 24.2232 135.128 24.4117 135.173L25.2386 134.59C25.2882 135.24 25.2672 135.893 25.1758 136.539C24.6222 138.244 25.3825 149.373 26.3496 151.554C27.3167 153.736 26.9734 182.339 26.9734 182.339L26.8369 184.864C26.8369 184.864 26.8369 184.945 26.8701 185.085L26.8369 185.683L26.9365 185.735C27.04 186.536 27.0063 187.348 26.8369 188.138C26.4899 189.245 26.3496 192.375 26.3496 192.375C26.3496 192.375 23.5849 210.049 24.8953 213.6C26.2057 217.151 27.3204 221.041 27.3204 221.041C27.3204 221.041 28.7046 225.471 27.3869 226.227C26.0691 226.984 22.3225 228.254 23.094 230.099C23.7953 231.805 26.4567 236.374 26.8516 237.043L26.8184 237.393L26.2758 243.273C26.3637 244.05 26.5742 244.807 26.8996 245.518C27.4939 246.798 28.6492 248.127 30.8455 247.983C31.2146 247.957 31.6428 247.913 32.0562 247.858C36.0759 247.319 41.0258 245.525 41.0258 245.525C40.7688 245.362 40.5332 245.167 40.3245 244.945V244.945C40.1269 244.754 39.9704 244.524 39.8644 244.271C39.7584 244.017 39.7052 243.744 39.7081 243.469C39.7671 242.398 37.7628 237.297 37.2645 236.042C37.187 235.861 37.1464 235.758 37.1464 235.758C37.1464 235.758 41.7161 230.982 40.9557 226.748C40.9557 226.748 35.8988 223.795 37.5635 222.174C39.2282 220.554 42.2033 215.899 42.2033 215.899C42.2033 215.899 42.3399 198.495 42.2033 195.897C42.0609 194.093 42.1464 192.279 42.458 190.497C42.5134 190.227 42.5798 189.965 42.65 189.707C44.9522 190.05 47.2764 190.227 49.6042 190.234C50.4531 190.234 51.3169 190.234 52.188 190.183C52.188 190.429 52.1991 190.695 52.2212 190.98C52.4132 195.291 52.7712 202.851 53.0628 205.66C53.4762 209.687 55.7611 220.539 55.7611 220.539C55.7611 220.539 51.4018 223.337 56.5215 230.232C56.5215 230.232 56.5215 232.731 56.1819 233.093C55.8193 234.275 55.5272 235.478 55.3071 236.696C55.093 237.995 55.0044 239.309 55.3514 239.992C56.1819 241.623 61.165 241.49 61.165 241.49L61.2868 241.468C62.2276 241.371 63.1783 241.462 64.0837 241.735C64.9892 242.008 65.8314 242.458 66.5615 243.059C68.4551 244.58 75.6419 243.912 79.5324 243.428C81.0568 243.236 82.0756 243.059 82.0756 243.059C82.125 242.887 82.1425 242.706 82.1273 242.528C82.0867 241.572 81.3374 239.475 76.2583 237.604C76.2583 237.604 71.4819 234.392 71.5483 231.594H71.4487H70.895C71.2973 231.572 71.5557 231.594 71.5557 231.594C71.5557 231.594 69.6843 224.766 70.4484 224.212C71.2124 223.658 68.9239 216.091 68.9239 216.091C68.9239 216.091 67.6135 203.394 67.5434 202.504C67.5463 201.741 67.662 200.982 67.8867 200.252L67.5434 193.291C67.5434 193.291 67.4769 190.976 67.5434 190.223C67.5322 189.57 67.4792 188.918 67.3847 188.271C67.3514 188.012 67.3182 187.743 67.2813 187.477C69.0715 187.023 70.2343 186.602 70.2343 186.602L70.0275 162.37C71.5483 159.417 71.8289 152.939 71.8215 148.343C71.8215 145.39 71.6886 143.205 71.6886 143.205L73.7667 139.813C73.7667 139.813 74.2466 135.752 73.4862 134.863C73.1503 134.46 73.3016 134.043 73.5785 133.7C73.7223 133.586 73.874 133.482 74.0325 133.39C74.0325 133.39 74.0104 133.357 73.9845 133.309C74.1296 133.188 74.2839 133.078 74.4459 132.98C74.4459 132.98 73.7077 131.836 74.3684 131.352C74.9885 131.773 75.5422 132.091 75.963 132.349C75.9335 132.619 75.9039 132.774 75.9039 132.774L76.0811 132.404C76.4871 132.633 76.7345 132.774 76.7345 132.774C76.7345 132.774 79.9901 126.288 79.92 125.332C79.8498 124.376 82.1347 120.349 82.1347 120.349C82.1347 120.349 82.4115 118.234 83.6591 117.348C84.9068 116.462 84.6262 110.043 84.6262 110.043C84.6262 110.043 84.9732 106.699 85.8037 105.333C86.6343 103.967 85.047 102.126 85.047 102.126ZM22.7544 99.2797L22.8171 100.826C22.448 100.232 22.1823 99.8038 22.1823 99.8038L22.7544 99.2797Z" fill="url(#paint0_linear_1147_321)"/>
<path d="M76.9117 129.969L76.1144 133.365C76.1144 133.365 69.7286 130.105 68.5769 125.964C67.4253 121.822 70.5037 120.25 70.5037 120.25L76.454 122.771L76.9117 129.969Z" fill="white"/>
<path opacity="0.1" d="M76.9117 129.969L76.1144 133.365C76.1144 133.365 69.7286 130.105 68.5769 125.964C67.4253 121.822 70.5037 120.25 70.5037 120.25L76.454 122.771L76.9117 129.969Z" fill="black"/>
<path d="M41.0739 245.545C41.0739 245.545 35.168 247.715 31.1076 247.988C28.952 248.132 27.8188 246.811 27.2356 245.537C26.917 244.829 26.7115 244.076 26.6265 243.304L27.1544 237.454L27.4349 234.338L36.0612 232.098L37.283 235.833L37.3974 236.117C37.8884 237.365 39.8558 242.44 39.7967 243.5C39.7943 243.771 39.8467 244.04 39.9507 244.291C40.0547 244.541 40.2083 244.768 40.4021 244.958C40.6002 245.181 40.8259 245.378 41.0739 245.545V245.545Z" fill="white"/>
<path d="M81.4149 242.57C81.4297 242.748 81.4121 242.927 81.3632 243.098C81.3632 243.098 68.7319 245.206 66.1481 243.098C65.4196 242.483 64.5704 242.026 63.6551 241.758C62.7397 241.489 61.7784 241.415 60.8328 241.541C60.8328 241.541 55.9456 241.673 55.1299 240.064C54.7903 239.389 54.8789 238.078 55.0893 236.786C55.3039 235.576 55.5899 234.379 55.9456 233.202L56.1413 233.047L57.304 232.113L70.9171 231.711H71.0205C70.954 234.494 75.6418 237.687 75.6418 237.687C80.6213 239.533 81.3558 241.618 81.4149 242.57Z" fill="white"/>
<path opacity="0.1" d="M81.4149 242.571C81.4278 242.749 81.4091 242.928 81.3595 243.099C81.3595 243.099 68.732 245.207 66.1481 243.099C65.4201 242.484 64.5715 242.027 63.6568 241.759C62.7421 241.491 61.7815 241.417 60.8365 241.541C60.8365 241.541 55.9456 241.674 55.1336 240.065C54.794 239.386 54.8789 238.079 55.0893 236.787C56.9718 236.975 59.9432 237.444 61.1096 238.563C62.874 240.264 65.8639 241.962 67.6984 242.095C69.1343 242.187 77.7237 242.46 81.4149 242.571Z" fill="black"/>
<path opacity="0.1" d="M41.0739 245.545C41.0739 245.545 35.168 247.715 31.1077 247.989C28.952 248.133 27.8188 246.811 27.2393 245.534C28.7416 246.04 30.8272 246.571 31.9234 246.084C33.2227 245.508 37.8294 245.135 40.4132 244.977C40.6098 245.192 40.8317 245.383 41.0739 245.545V245.545Z" fill="black"/>
<path d="M49.8368 70.6374C44.9645 68.7438 38.6968 62.4873 40.2619 59.5638C40.6095 58.8261 40.816 58.0299 40.8709 57.2162C40.9716 56.1117 40.9864 55.001 40.9152 53.8942C40.8055 52.0814 40.5873 50.2769 40.2619 48.4902C40.2619 48.4902 55.4733 48.8335 54.5874 51.0741C54.329 51.7311 54.2884 52.8717 54.3586 54.1488C54.4287 55.426 54.6132 56.8693 54.8052 58.091C55.071 59.7668 55.3367 61.044 55.3367 61.044C55.3367 61.044 54.4065 62.347 53.8602 62.4171C53.3139 62.4873 56.828 73.3357 49.8368 70.6374Z" fill="#CF6F80"/>
<path opacity="0.1" d="M37.3863 236.117L37.2719 236.243C32.7244 230.743 27.2245 237.598 27.2245 237.598L27.1433 237.454L27.4238 234.338L36.0501 232.098L37.2719 235.833L37.3863 236.117Z" fill="black"/>
<path opacity="0.1" d="M71.0243 232.098C71.0243 232.098 67.7022 232.028 65.9304 233.593C64.1587 235.158 55.5951 233.932 55.9642 233.593C56.0736 233.424 56.1395 233.232 56.1562 233.032L57.3189 232.098L70.932 231.695C70.9837 231.943 71.0243 232.098 71.0243 232.098Z" fill="black"/>
<path d="M43.045 188.907C42.7976 189.519 42.6097 190.153 42.484 190.801C42.1761 192.575 42.0906 194.38 42.2293 196.175C42.3658 198.759 42.2293 216.075 42.2293 216.075C42.2293 216.075 39.3095 220.692 37.6817 222.32C36.0539 223.948 41.0038 226.871 41.0038 226.871C41.742 231.079 37.2683 235.833 37.2683 235.833C32.7207 230.334 27.2209 237.192 27.2209 237.192C27.2209 237.192 24.231 232.024 23.4854 230.179C22.7397 228.333 26.4051 227.056 27.6933 226.307C28.9816 225.557 27.6306 221.139 27.6306 221.139C27.6306 221.139 26.5417 217.267 25.2498 213.734C23.9578 210.202 26.6746 192.617 26.6746 192.617C26.6746 192.617 26.8148 189.494 27.1507 188.405C27.3202 187.62 27.3539 186.811 27.2504 186.013C27.2282 185.744 27.2024 185.519 27.1839 185.367C27.1655 185.216 27.1507 185.146 27.1507 185.146L27.2024 185.057L29.048 181.617C29.048 181.617 43.9309 186.741 43.045 188.907Z" fill="#6C63FF"/>
<path d="M71.0243 231.693C71.0243 231.693 67.7022 231.623 65.9304 233.17C64.1587 234.716 55.5951 233.509 55.9642 233.17C56.3333 232.83 56.3038 230.316 56.3038 230.316C51.2801 223.458 55.5656 220.675 55.5656 220.675C55.5656 220.675 53.3213 209.878 52.9153 205.873C52.6311 203.075 52.2804 195.556 52.0921 191.264C52.0109 189.418 51.963 188.148 51.963 188.148L56.0676 187.321L56.5954 187.214L66.4952 185.229C66.4952 185.229 66.7683 187.074 66.9529 188.584C67.0449 189.228 67.0967 189.878 67.1079 190.529C67.0415 191.267 67.1079 193.578 67.1079 193.578L67.4438 200.506C67.2244 201.233 67.1112 201.988 67.1079 202.747C67.1744 203.629 68.4626 216.26 68.4626 216.26C68.4626 216.26 70.7032 223.798 69.9391 224.34C69.175 224.883 71.0243 231.693 71.0243 231.693Z" fill="#6C63FF"/>
<path opacity="0.1" d="M54.5873 51.0741C54.3289 51.7311 54.2883 52.8717 54.3585 54.1488C52.321 55.3758 49.9787 56.0031 47.6007 55.9587C45.2227 55.9143 42.9054 55.2 40.9151 53.8978C40.8056 52.0839 40.5874 50.2781 40.2618 48.4902C40.2618 48.4902 55.4732 48.8261 54.5873 51.0741Z" fill="black"/>
<path d="M60.4674 42.9175C60.4703 44.2476 60.261 45.5697 59.8473 46.8339C58.9225 49.6664 57.0261 52.0807 54.4934 53.6503C51.9607 55.2198 48.9546 55.8435 46.0065 55.411C43.0584 54.9786 40.3581 53.5179 38.3829 51.287C36.4076 49.0562 35.2846 46.1989 35.2122 43.2202C35.2122 43.1168 35.2122 43.0209 35.2122 42.9175C35.1836 41.2408 35.489 39.5752 36.1109 38.0178C36.7327 36.4604 37.6584 35.0425 38.834 33.8466C40.0096 32.6507 41.4115 31.7009 42.958 31.0526C44.5046 30.4042 46.1647 30.0703 47.8417 30.0703C49.5186 30.0703 51.1787 30.4042 52.7253 31.0526C54.2718 31.7009 55.6737 32.6507 56.8493 33.8466C58.0249 35.0425 58.9506 36.4604 59.5724 38.0178C60.1943 39.5752 60.4997 41.2408 60.4711 42.9175H60.4674Z" fill="#CF6F80"/>
<path opacity="0.1" d="M49.8368 70.6399C44.9645 68.7464 38.6968 62.4898 40.2619 59.5663C40.6095 58.8286 40.816 58.0324 40.8709 57.2188L47.5409 62.7002L51.6677 66.085L54.8052 58.0972C55.071 59.773 55.3367 61.0502 55.3367 61.0502C55.3367 61.0502 54.4065 62.3532 53.8602 62.4233C53.3139 62.4935 56.828 73.3382 49.8368 70.6399Z" fill="black"/>
<path d="M67.0857 94.8643L61.5157 188.436L54.2514 188.912L35.4411 134.655L38.5269 70.2403L39.1766 56.6309L47.5408 63.5002L51.6713 66.885L54.9011 58.6647L60.9066 63.8988L67.0857 94.8643Z" fill="#6C63FF"/>
<path opacity="0.1" d="M43.0448 188.909C42.7974 189.521 42.6095 190.155 42.4838 190.803C37.1979 189.986 32.0643 188.383 27.2539 186.045L27.1543 185.993L27.1875 185.399L27.2059 185.089L29.0515 181.648C29.0515 181.648 43.9307 186.742 43.0448 188.909Z" fill="black"/>
<path opacity="0.1" d="M56.1524 190.817C54.8012 191.047 53.4383 191.202 52.07 191.282C51.9888 189.436 51.9408 188.167 51.9408 188.167L56.0454 187.34L56.1524 190.817Z" fill="black"/>
<path opacity="0.1" d="M66.9307 188.601C64.3062 189.284 60.2533 190.052 56.6249 189.572L56.5732 187.232L66.473 185.246C66.473 185.246 66.7461 187.073 66.9307 188.601Z" fill="black"/>
<path opacity="0.1" d="M56.5583 190.001C41.4244 192.584 27.564 185.176 27.564 185.176L27.6969 182.666C27.6969 182.666 28.0401 154.211 27.0878 152.029C26.1355 149.848 25.3936 138.785 25.9325 137.087C26.4714 135.389 23.9651 109.928 23.9651 109.928L23.559 99.5922L8.69827 93.5719L15.3424 79.7225C16.2398 77.7807 17.0117 75.7834 17.6531 73.7427C18.8085 70.1475 24.1718 66.615 24.1718 66.615C24.1718 66.615 29.6716 63.0863 31.8458 63.2191C34.0199 63.352 36.8695 60.0964 36.8695 60.0964C38.9735 54.7331 40.8781 57.1619 40.8781 57.1619C40.8781 57.4166 40.8781 57.1619 40.7748 57.9555C40.0365 63.843 52.7121 82.4466 52.893 82.7751L54.1 112.179L55.3218 149.39L56.5583 190.001Z" fill="black"/>
<path d="M56.1523 190.001C41.0184 192.585 27.1543 185.177 27.1543 185.177L27.2909 182.667C27.2909 182.667 27.6342 154.211 26.6781 152.03C25.7221 149.848 24.9839 138.786 25.5265 137.088C26.0691 135.39 23.5591 109.928 23.5591 109.928L23.1494 99.5928L8.28122 93.5504L14.9254 79.701C15.8208 77.7584 16.5926 75.7612 17.2361 73.7213C18.3877 70.126 23.7547 66.5936 23.7547 66.5936C23.7547 66.5936 29.2546 63.0648 31.425 63.1977C33.5954 63.3305 36.4487 60.0749 36.4487 60.0749C38.5564 54.7116 40.8782 57.1404 40.8782 57.1404C40.8782 57.3951 40.6567 57.5095 40.7748 57.934C42.3989 63.6443 52.3061 82.4251 52.487 82.7536L53.7088 112.158L54.9306 149.369L56.1523 190.001Z" fill="white"/>
<path opacity="0.1" d="M52.0736 83.592C50.4458 82.9128 41.8232 73.0684 41.8232 73.0684V70.8279C41.5094 70.0896 39.6454 70.5399 38.132 71.0567L38.7816 57.4473L39.5199 58.06C41.1366 63.7666 51.8854 83.2635 52.0736 83.592Z" fill="black"/>
<path d="M52.4834 82.7756C50.8519 82.0964 42.2292 72.252 42.2292 72.252V70.0114C41.9155 69.2732 40.0514 69.7235 38.538 70.2403L39.1914 56.6309L39.9296 57.2436C41.55 62.9502 52.3025 82.4508 52.4834 82.7756Z" fill="white"/>
<path opacity="0.1" d="M27.5641 131.872C27.7671 131.872 38.0877 130.787 38.0877 130.787C38.0877 130.787 44.3369 143.075 43.9272 146.065C43.5175 149.055 42.7755 151.701 40.2618 151.233C37.7481 150.764 26.7336 151.602 26.7336 151.602L27.5641 131.872Z" fill="black"/>
<path d="M27.1543 131.056C27.3573 131.056 37.6779 129.971 37.6779 129.971C37.6779 129.971 43.9234 142.262 43.5173 145.249C43.1113 148.235 42.362 150.885 39.852 150.416C37.342 149.947 26.3237 150.785 26.3237 150.785L27.1543 131.056Z" fill="white"/>
<path d="M34.9317 125.287C34.9317 125.287 44.4033 130.377 44.6063 131.931C44.8094 133.485 39.7856 131.252 38.7004 130.983C37.9862 130.811 37.259 130.697 36.5263 130.643L29.2879 130.839L34.9317 125.287Z" fill="#CF6F80"/>
<path opacity="0.1" d="M49.4308 84.2257C49.9812 84.2257 50.4274 83.7795 50.4274 83.229C50.4274 82.6786 49.9812 82.2324 49.4308 82.2324C48.8803 82.2324 48.4341 82.6786 48.4341 83.229C48.4341 83.7795 48.8803 84.2257 49.4308 84.2257Z" fill="black"/>
<path d="M49.4308 83.8194C49.9812 83.8194 50.4274 83.3732 50.4274 82.8228C50.4274 82.2724 49.9812 81.8262 49.4308 81.8262C48.8803 81.8262 48.4341 82.2724 48.4341 82.8228C48.4341 83.3732 48.8803 83.8194 49.4308 83.8194Z" fill="#3F3D56"/>
<path opacity="0.1" d="M51.2652 127.368C51.8156 127.368 52.2618 126.922 52.2618 126.372C52.2618 125.821 51.8156 125.375 51.2652 125.375C50.7148 125.375 50.2686 125.821 50.2686 126.372C50.2686 126.922 50.7148 127.368 51.2652 127.368Z" fill="black"/>
<path d="M51.2652 126.96C51.8156 126.96 52.2618 126.514 52.2618 125.963C52.2618 125.413 51.8156 124.967 51.2652 124.967C50.7148 124.967 50.2686 125.413 50.2686 125.963C50.2686 126.514 50.7148 126.96 51.2652 126.96Z" fill="#3F3D56"/>
<path opacity="0.1" d="M50.4237 105.798C50.9741 105.798 51.4203 105.352 51.4203 104.801C51.4203 104.251 50.9741 103.805 50.4237 103.805C49.8733 103.805 49.4271 104.251 49.4271 104.801C49.4271 105.352 49.8733 105.798 50.4237 105.798Z" fill="black"/>
<path d="M50.4237 105.392C50.9741 105.392 51.4203 104.945 51.4203 104.395C51.4203 103.845 50.9741 103.398 50.4237 103.398C49.8733 103.398 49.4271 103.845 49.4271 104.395C49.4271 104.945 49.8733 105.392 50.4237 105.392Z" fill="#3F3D56"/>
<path d="M73.3977 130.435C73.3977 130.435 74.0769 131.454 73.3977 131.93C72.7185 132.406 73.4642 133.558 73.4642 133.558C73.4642 133.558 71.7699 134.551 72.5155 135.444C73.2611 136.337 72.7887 140.372 72.7887 140.372L70.7511 143.745C70.7511 143.745 70.8729 145.919 70.8803 148.858C70.8803 153.442 70.6109 159.887 69.1196 162.825L69.3263 186.932C69.3263 186.932 62.1912 189.538 56.2189 188.745L55.333 150.061C55.333 150.061 56.6249 128.124 57.1011 123.916C57.3797 121.732 57.4933 119.529 57.4407 117.327C57.4407 117.327 57.2377 110.742 56.5548 107.686C56.5548 107.686 55.8166 94.4457 55.7427 90.7803C55.7095 89.027 55.8018 83.911 55.9051 79.046C56.0196 73.727 56.1488 68.7106 56.1488 68.7106L54.8015 58.0505C54.8015 58.0505 56.1488 57.9139 56.5548 58.4565C56.7367 58.6264 56.9344 58.7784 57.1454 58.9105V58.9105C59.4708 60.483 67.6874 65.3184 67.6874 65.3184C67.6874 65.3184 72.235 67.1271 73.3239 69.7183C74.4128 72.3096 75.1695 74.1478 75.6973 74.886C76.2252 75.6243 76.5131 79.094 76.5131 79.094C76.5131 79.094 78.0781 85.4798 79.2999 86.5613C80.5217 87.6428 81.415 94.5232 81.415 94.5232L70.6182 103.013C70.6182 103.013 69.6696 117.135 69.4666 117.682C69.2636 118.228 73.3977 130.435 73.3977 130.435Z" fill="white"/>
<path d="M73.8073 130.435C73.8073 130.435 74.4828 131.454 73.8073 131.93C73.1318 132.406 73.8701 133.558 73.8701 133.558C73.8701 133.558 72.1869 134.562 72.9251 135.455C73.6634 136.348 73.1983 140.383 73.1983 140.383L71.1607 143.757C71.1607 143.757 71.2825 145.931 71.2936 148.869C71.2936 153.454 71.0242 159.898 69.5329 162.837L69.7359 186.944C69.7359 186.944 62.5898 189.55 56.6248 188.756L55.7426 150.072C55.7426 150.072 57.0345 128.136 57.5107 123.928C57.7897 121.743 57.902 119.54 57.8466 117.339C57.8466 117.339 57.6436 110.754 56.9644 107.697C56.9644 107.697 56.2262 94.4571 56.1486 90.7918C56.1154 89.0384 56.2114 83.9224 56.3111 79.0574C56.4255 73.7384 56.5547 68.7221 56.5547 68.7221L54.7755 57.918C54.7755 57.918 56.5547 57.918 56.9644 58.468C57.1446 58.6399 57.3425 58.7921 57.555 58.922C59.8804 60.4944 68.1007 65.3299 68.1007 65.3299C68.1007 65.3299 72.6446 67.1386 73.7335 69.7298C74.8224 72.321 75.5791 74.1592 76.1106 74.8975C76.6422 75.6357 76.9227 79.1054 76.9227 79.1054C76.9227 79.1054 78.4878 85.4912 79.7095 86.5727C80.9313 87.6542 81.8135 94.5199 81.8135 94.5199L71.0168 103.01C71.0168 103.01 70.0681 117.132 69.8614 117.678C69.6547 118.225 73.8073 130.435 73.8073 130.435Z" fill="white"/>
<path opacity="0.1" d="M60.8772 71.8561L61.8517 74.6984L56.7209 79.866C56.8353 74.5507 56.9645 69.5307 56.9645 69.5307L55.1854 58.7266C55.1854 58.7266 56.9645 58.7266 57.3742 59.2765C57.5539 59.448 57.752 59.599 57.9648 59.7269L62.3278 72.3139L60.8772 71.8561Z" fill="black"/>
<path d="M60.4673 71.0417L61.4455 73.8839L56.3147 79.0516C56.4292 73.7326 56.5584 68.7162 56.5584 68.7162L54.7755 57.9121C54.7755 57.9121 56.5584 57.9121 56.9644 58.4621C57.1455 58.633 57.3433 58.7851 57.555 58.9161L61.9217 71.4994L60.4673 71.0417Z" fill="white"/>
<path opacity="0.1" d="M60.4674 42.9175C60.4703 44.2476 60.261 45.5697 59.8473 46.8339C59.7775 46.8448 59.7063 46.8415 59.6378 46.8244C59.5694 46.8073 59.505 46.7766 59.4486 46.7342C59.3526 43.4121 57.7175 40.2931 55.7057 37.6391C55.141 36.8378 54.4562 36.1282 53.6756 35.5351C52.8864 34.9424 51.9047 34.6647 50.922 34.7563C49.8146 34.9076 48.8364 35.6606 47.718 35.7566C46.2415 35.8784 44.9201 34.8559 43.4547 34.8043C42.8589 34.8099 42.2713 34.9426 41.7309 35.1934C41.1905 35.4441 40.7098 35.8073 40.3208 36.2586C39.551 37.1693 38.979 38.2302 38.6413 39.374C38.061 41.1082 37.7449 42.92 37.7038 44.7483C37.6853 45.7819 37.5857 47.0775 36.626 47.454C36.6982 46.6939 36.6118 45.9271 36.3723 45.2021C36.1327 44.4771 35.7453 43.8098 35.2344 43.2423L35.2122 43.2202C35.2122 43.1168 35.2122 43.0209 35.2122 42.9175C35.1836 41.2408 35.489 39.5752 36.1109 38.0178C36.7327 36.4604 37.6584 35.0425 38.834 33.8466C40.0096 32.6507 41.4115 31.7009 42.958 31.0526C44.5046 30.4042 46.1647 30.0703 47.8417 30.0703C49.5186 30.0703 51.1787 30.4042 52.7253 31.0526C54.2718 31.7009 55.6737 32.6507 56.8493 33.8466C58.0249 35.0425 58.9506 36.4604 59.5724 38.0178C60.1943 39.5752 60.4997 41.2408 60.4711 42.9175H60.4674Z" fill="black"/>
<path d="M53.0703 22.8643C51.1522 21.962 48.9706 21.7914 46.9355 22.3844C45.913 22.6871 44.9496 23.178 43.9124 23.4253C41.6977 23.9606 39.1139 23.381 37.2129 24.6766C36.1572 25.4149 35.5223 26.5813 34.9317 27.7145L33.4553 30.5272C32.6506 32.0664 31.8385 33.6315 31.5026 35.3257C31.1667 37.02 31.3697 38.9173 32.4439 40.2793C33.2264 41.2723 34.3818 41.8961 35.2307 42.8299C35.7393 43.398 36.1251 44.0649 36.364 44.789C36.6028 45.5131 36.6895 46.2788 36.6186 47.0379C37.582 46.6688 37.6743 45.3695 37.6964 44.336C37.7376 42.5076 38.0536 40.6959 38.634 38.9616C38.9709 37.8175 39.5429 36.7564 40.3135 35.8462C40.7027 35.3953 41.1835 35.0324 41.7238 34.7816C42.2642 34.5309 42.8517 34.398 43.4473 34.3919C44.9238 34.4436 46.2489 35.4623 47.7107 35.3405C48.818 35.2482 49.7999 34.4915 50.9146 34.3439C51.8975 34.2509 52.8797 34.5287 53.6682 35.1227C54.4486 35.7149 55.1323 36.4247 55.6947 37.2267C57.7101 39.8807 59.3453 42.9924 59.4413 46.3218C59.8584 46.6282 60.4601 46.2295 60.6668 45.7571C60.8735 45.2846 60.8808 44.7309 61.1429 44.2806C61.4456 43.7601 62.0251 43.4833 62.4791 43.092C63.6308 42.0991 63.9187 40.427 63.8744 38.9099C63.8301 37.3928 63.5348 35.8536 63.8227 34.3623C63.9962 33.4469 64.3875 32.5906 64.6016 31.6862C64.8157 30.7819 64.8415 29.7668 64.3358 28.988C63.5976 27.8437 62.0436 27.6185 60.6889 27.5115C59.1497 27.3786 57.7729 27.5484 56.791 26.2528C56.3301 25.5767 55.8114 24.9419 55.2407 24.3555C55.0451 24.1636 53.0703 22.9455 53.0703 22.8643Z" fill="#512E4E"/>
<path opacity="0.1" d="M12.9506 100.704L9.09334 93.5723L7.87155 104.576C7.87155 104.576 8.55073 109.463 8.41416 110.212C8.27758 110.961 11.1973 117.679 11.1973 117.679C11.1973 117.679 20.8424 134.858 24.7809 135.744L38.0877 126.236L34.5589 121.755C34.5589 121.755 33.3371 121.278 33.0307 121.755C33.0307 121.755 26.4789 110.482 25.7997 109.666C25.1205 108.85 25.2534 107.222 25.2534 107.222C25.2534 107.222 24.2346 106.137 24.5742 105.118C24.9138 104.1 22.6068 100.567 22.6068 100.567L24.7108 98.5997L12.9506 100.704Z" fill="black"/>
<path d="M9.29638 92.7598L8.2776 93.5718L7.05582 104.575C7.05582 104.575 7.735 109.462 7.59842 110.212C7.46185 110.961 10.3853 117.679 10.3853 117.679C10.3853 117.679 20.0267 134.858 23.9652 135.744L37.2756 126.235L33.7432 121.754C33.7432 121.754 32.5214 121.278 32.215 121.754C32.215 121.754 25.6631 110.481 24.984 109.665C24.3048 108.85 24.4414 107.222 24.4414 107.222C24.4414 107.222 23.4226 106.137 23.7622 105.118C24.1018 104.099 21.7911 100.567 21.7911 100.567L23.8951 98.5992L9.29638 92.7598Z" fill="white"/>
<path opacity="0.1" d="M72.5154 135.865C73.2536 136.762 72.7885 140.789 72.7885 140.789L70.751 144.163C70.751 144.163 70.8728 146.341 70.8802 149.275L67.4547 150.346C67.1452 150.442 66.817 150.464 66.4975 150.408C66.1781 150.352 65.8766 150.22 65.6183 150.024C65.3601 149.828 65.1524 149.573 65.0128 149.28C64.8731 148.987 64.8055 148.665 64.8155 148.341L65.4061 129.291L73.3976 132.347C72.7184 132.82 73.464 133.979 73.464 133.979C73.464 133.979 71.7698 134.968 72.5154 135.865Z" fill="black"/>
<path d="M72.9252 135.455C73.6635 136.352 73.1984 140.383 73.1984 140.383L71.1608 143.757C71.1608 143.757 71.2826 145.931 71.2937 148.869L67.8055 149.958C67.5024 150.052 67.1811 150.072 66.8684 150.017C66.5557 149.962 66.2607 149.833 66.008 149.641C65.7552 149.449 65.552 149.199 65.4152 148.913C65.2784 148.626 65.2121 148.311 65.2217 147.994L65.816 128.885L73.8111 131.941C73.1282 132.414 73.8739 133.569 73.8739 133.569C73.8739 133.569 72.187 134.562 72.9252 135.455Z" fill="white"/>
<path d="M75.5717 126.377C75.5717 126.377 75.0291 129.843 73.6708 130.046C72.3124 130.249 71.7033 135.652 70.3487 135.461C68.994 135.269 69.891 130.437 69.939 129.499C69.9869 128.562 68.4625 124.679 69.6031 123.796C70.7436 122.914 74.3536 123.796 74.3536 123.796L75.5717 126.377Z" fill="#CF6F80"/>
<path opacity="0.1" d="M78.462 99.6853L81.0237 94.5176C81.0237 94.5176 82.0425 98.4561 82.0425 100.56C82.0425 102.664 83.4672 102.871 83.4672 102.871C83.4672 102.871 85.0286 104.716 84.2055 106.06C83.3824 107.404 83.0501 110.748 83.0501 110.748C83.0501 110.748 83.3196 117.13 82.0978 118.012C80.876 118.894 80.6213 121.002 80.6213 121.002C80.6213 121.002 78.3771 125.007 78.4472 125.959C78.5174 126.912 75.3245 133.36 75.3245 133.36C75.3245 133.36 76.8858 125.346 67.787 121.884C67.787 121.884 67.7169 119.164 68.3961 118.418C69.0753 117.672 70.1347 117.333 69.4702 113.564C68.8058 109.795 69.2783 105.292 69.2783 104.388C69.2783 103.483 71.3158 97.8433 71.3158 97.8433L78.462 99.6853Z" fill="black"/>
<path d="M79.5694 93.7793L81.8062 94.5175C81.8062 94.5175 82.8287 98.456 82.8287 100.56C82.8287 102.664 84.2535 102.871 84.2535 102.871C84.2535 102.871 85.8149 104.716 84.9917 106.06C84.1686 107.403 83.8401 110.748 83.8401 110.748C83.8401 110.748 84.1095 117.13 82.8877 118.012C81.666 118.894 81.3928 121.002 81.3928 121.002C81.3928 121.002 79.1523 125.007 79.2224 125.959C79.2925 126.911 76.0959 133.36 76.0959 133.36C76.0959 133.36 77.661 125.346 68.5585 121.884C68.5585 121.884 68.4921 119.164 69.1713 118.418C69.8504 117.672 70.9098 117.333 70.2454 113.564C69.581 109.795 70.0535 105.292 70.0535 104.388C70.0535 103.483 72.091 97.8433 72.091 97.8433L79.5694 93.7793Z" fill="white"/>
<path opacity="0.1" d="M30.1627 227.721C30.1627 227.721 33.7284 225.481 36.0686 227.108C38.4089 228.736 30.1627 227.721 30.1627 227.721Z" fill="black"/>
<path opacity="0.1" d="M57.8689 220.791C57.8689 220.791 61.0249 220.385 63.6751 223.239C66.3254 226.092 57.8689 220.791 57.8689 220.791Z" fill="black"/>
<g opacity="0.1">
<path opacity="0.1" d="M62.4865 42.2835C62.0324 42.6747 61.4492 42.9553 61.1466 43.4757C60.8882 43.9224 60.8808 44.4724 60.6741 44.9522C60.4674 45.4321 59.8657 45.8233 59.4486 45.5207C59.3526 42.1986 57.7137 39.0795 55.702 36.4219C55.1396 35.6198 54.456 34.91 53.6756 34.3179C52.8855 33.7239 51.9023 33.4462 50.9183 33.539C49.8109 33.6904 48.8364 34.4434 47.718 34.5357C46.2415 34.6612 44.9164 33.6387 43.451 33.587C42.8554 33.593 42.2681 33.7261 41.7282 33.9776C41.1884 34.229 40.7085 34.593 40.3208 35.0451C39.5503 35.9539 38.9782 37.0138 38.6413 38.1567C38.0613 39.8911 37.7452 41.7028 37.7038 43.5311C37.6816 44.561 37.5856 45.8455 36.6333 46.2294C36.6555 46.5021 36.6555 46.7761 36.6333 47.0488C37.593 46.6797 37.689 45.3804 37.7112 44.3469C37.7523 42.5185 38.0683 40.7068 38.6487 38.9725C38.9856 37.8284 39.5576 36.7673 40.3282 35.8571C40.7167 35.4063 41.1968 35.0434 41.7365 34.7926C42.2763 34.5419 42.8632 34.409 43.4583 34.4028C44.9348 34.4545 46.2637 35.4732 47.7254 35.3514C48.8327 35.2591 49.8146 34.5024 50.9256 34.3548C51.9097 34.2619 52.8929 34.5397 53.683 35.1336C54.4633 35.7258 55.147 36.4356 55.7094 37.2376C57.7211 39.8916 59.36 43.0033 59.456 46.3327C59.8731 46.6391 60.4748 46.2404 60.6815 45.768C60.8882 45.2955 60.8955 44.7418 61.1539 44.2915C61.4566 43.771 62.0398 43.4942 62.4938 43.1029C63.6455 42.11 63.9334 40.4379 63.8891 38.9208C63.8891 38.8728 63.8891 38.8248 63.8891 38.7805C63.819 40.0946 63.4683 41.4345 62.4865 42.2835Z" fill="black"/>
<path opacity="0.1" d="M35.2381 42.0212C34.3891 41.0873 33.23 40.4635 32.4512 39.4743C31.7954 38.5985 31.4208 37.5444 31.3771 36.4512C31.2609 37.8173 31.6424 39.1793 32.4512 40.2863C33.23 41.2793 34.3891 41.9031 35.2381 42.8369C36.0532 43.7504 36.5426 44.9083 36.6296 46.1295C36.6861 45.3863 36.592 44.6393 36.3529 43.9334C36.1138 43.2274 35.7346 42.5771 35.2381 42.0212V42.0212Z" fill="black"/>
<path opacity="0.1" d="M64.6089 30.8773C64.3911 31.7817 64.0035 32.6417 63.8264 33.5535C63.7214 34.1627 63.6831 34.7815 63.7119 35.3991C63.7243 35.0473 63.7625 34.6969 63.8264 34.3508C64.0035 33.4353 64.3911 32.579 64.6089 31.6746C64.7358 31.1758 64.777 30.6591 64.7307 30.1465C64.7078 30.3927 64.6671 30.637 64.6089 30.8773V30.8773Z" fill="black"/>
</g>
<path d="M160.071 237.955L159.631 243.185L161.104 242.89L160.883 237.217L160.071 237.955Z" fill="#1D2366"/>
<path d="M126.47 213.121C124.694 218.178 125.196 225.003 125.595 228.318C125.742 229.543 125.879 230.289 125.879 230.289C125.879 230.289 123.225 236.335 123.004 236.564C122.782 236.793 115.193 241.425 115.193 241.425L109.889 244.522C109.889 244.522 104.507 242.163 107.087 241.351C107.614 241.14 108.089 240.816 108.479 240.403C111.063 237.948 114.307 231.846 114.307 231.846C114.307 231.846 114.529 228.75 115.341 227.277C116.153 225.804 115.857 210.327 115.857 210.327L115.92 185.097V181.809L126.016 181.882C126.079 182.999 126.225 184.109 126.451 185.204C126.814 187.095 127.283 188.963 127.857 190.8C129.637 196.555 128.898 206.193 126.47 213.121Z" fill="#FFB0B1"/>
<path opacity="0.1" d="M125.879 230.29C125.879 230.29 123.225 236.336 123.004 236.565C122.782 236.794 115.193 241.426 115.193 241.426L109.889 244.523C109.889 244.523 104.507 242.164 107.087 241.352C107.614 241.141 108.089 240.817 108.479 240.404L108.708 242.017L110.476 241.943L125.61 228.326C125.742 229.544 125.879 230.29 125.879 230.29Z" fill="black"/>
<path d="M125.694 228.668L110.476 242.377L108.708 242.451L108.338 239.867C108.338 239.867 105.245 243.846 98.3723 243.625C98.3723 243.625 94.2455 246.352 100.362 246.5C106.478 246.648 114.289 246.279 114.289 246.279C114.289 246.279 119.744 237.789 124.31 238.896V245.308H125.713V238.837C126.365 238.398 126.922 237.832 127.349 237.172C127.777 236.512 128.066 235.773 128.201 234.998C128.322 234.2 128.236 233.385 127.951 232.63C127.666 231.875 127.192 231.206 126.573 230.687C126.297 230.428 126.076 230.115 125.925 229.768C125.774 229.421 125.696 229.047 125.694 228.668V228.668Z" fill="#1D2366"/>
<path d="M161.473 221.005C160.491 224.512 161.026 226.486 161.698 227.546V227.568C162.56 228.876 163.159 230.339 163.463 231.876L163.522 232.208L156.597 242.303L152.839 243.78C152.839 243.78 146.797 241.716 147.901 241.126C148.177 240.982 148.609 240.214 149.104 239.155C150.58 235.962 152.618 230.071 152.618 230.071V230.023C152.832 227.59 153.172 225.165 153.548 222.751C154.224 218.406 152.983 207.742 152.983 207.742C152.983 207.742 152.54 194.775 151.581 191.826C151.147 190.327 150.859 188.789 150.721 187.234C150.521 185.389 150.477 183.868 150.477 183.868C150.477 183.868 154.456 178.331 161.75 184.311C162.333 184.788 162.846 185.344 163.274 185.964C168.313 193.133 164.256 208.924 164.256 208.924C164.256 208.924 163.241 214.667 161.473 221.005Z" fill="#FFB0B1"/>
<path opacity="0.1" d="M163.533 232.208L156.608 242.303L152.851 243.78C152.851 243.78 146.808 241.716 147.912 241.126C148.189 240.982 148.62 240.214 149.115 239.154C151.673 239.132 152.998 241.568 152.998 241.568L156.239 241.052C156.239 241.052 160.513 232.651 161.473 232.137C162.433 231.624 161.621 228.302 161.621 228.302V227.457C161.647 227.487 161.669 227.52 161.698 227.549V227.571C162.56 228.879 163.159 230.342 163.463 231.879L163.533 232.208Z" fill="black"/>
<path d="M153.22 241.787C153.22 241.787 151.374 238.398 147.838 239.65C147.838 239.65 145.849 243.71 143.859 244.367C141.869 245.024 142.534 247.239 147.03 246.431C151.526 245.622 158.303 244.954 158.303 244.954L158.598 240.824L163.168 235.003C163.168 235.003 165.892 232.533 161.839 227.672V228.517C161.839 228.517 162.651 231.839 161.691 232.352C160.731 232.865 156.472 241.27 156.472 241.27L153.22 241.787Z" fill="#1D2366"/>
<path opacity="0.1" d="M126.027 181.877C126.091 182.993 126.236 184.103 126.462 185.199C122.306 184.59 118.449 184.892 115.92 185.092V181.803L126.027 181.877Z" fill="black"/>
<path opacity="0.1" d="M163.684 186.883C163.684 186.883 157.778 187.171 150.735 187.23C150.536 185.385 150.492 183.864 150.492 183.864C150.492 183.864 154.471 178.327 161.765 184.307C162.348 184.784 162.861 185.34 163.289 185.961C163.404 186.275 163.535 186.583 163.684 186.883V186.883Z" fill="black"/>
<path d="M163.684 186.22C163.684 186.22 137.816 187.471 129.932 185.26C122.048 183.049 114.233 184.965 113.056 184.451C111.878 183.938 112.834 175.903 113.868 173.913C114.901 171.924 120.571 151.803 120.571 151.803L126.027 123.358L131.774 121.775L132.18 121.661L142.194 118.9L149.532 116.873C149.532 116.873 164.123 173.839 162.872 178.04C162.418 179.648 162.344 181.341 162.658 182.982C162.849 184.104 163.195 185.193 163.684 186.22V186.22Z" fill="#1D2366"/>
<path d="M107.01 103.906C107.01 103.906 101.842 109.443 105.755 112.529C109.667 115.615 112.24 112.824 112.24 112.824L107.01 103.906Z" fill="#C7DAF5"/>
<path opacity="0.1" d="M107.01 103.906C107.01 103.906 101.842 109.443 105.755 112.529C109.667 115.615 112.24 112.824 112.24 112.824L107.01 103.906Z" fill="black"/>
<path d="M148.761 67.5026C148.761 67.5026 148.155 68.0784 147.244 68.9274C145.944 70.1418 144.021 71.9172 142.316 73.4048C139.954 75.4608 138.005 76.9705 138.702 75.6823C139.4 74.394 139.267 72.1498 138.92 70.0495C138.894 69.9092 138.872 69.769 138.846 69.6324C138.559 68.0899 138.178 66.5663 137.706 65.0701C137.706 65.0701 141.522 60.1386 143.634 58.1934C144.42 57.4551 144.97 57.1525 145.003 57.6655C145.04 58.3558 145.557 59.8802 146.199 61.497C146.217 61.5487 146.236 61.5967 146.258 61.6483C146.686 62.7557 147.17 63.8926 147.594 64.8744C148.244 66.3805 148.761 67.5026 148.761 67.5026Z" fill="#FFB0B1"/>
<path opacity="0.1" d="M146.258 61.6479C145.899 63.5771 145.029 65.3745 143.738 66.8523C142.447 68.3302 140.783 69.4342 138.92 70.0491C138.627 68.3641 138.221 66.7006 137.706 65.0696C137.706 65.0696 144.892 55.7863 145.003 57.6651C145.029 58.3775 145.59 59.9573 146.258 61.6479Z" fill="black"/>
<path opacity="0.1" d="M138.204 72.5311L139.134 71.2207C139.134 71.2207 139.751 74.9783 142.017 73.321C144.283 71.6636 144.394 85.7935 144.394 85.7935L141.962 122.163L124.384 121.111L124.882 103.537L126.872 94.6783L131.792 81.7997L134.719 77.5437L138.204 72.5311Z" fill="black"/>
<path d="M144.394 86.019L142.179 118.904L141.947 122.388L132.147 121.801L131.778 121.779L124.395 121.336L124.894 103.759L126.883 94.9001L131.804 82.0215L134.731 77.7655L138.215 72.7344L139.145 71.4277C139.145 71.4277 139.762 75.1854 142.028 73.528L142.076 73.4948C144.291 72.0921 144.394 86.019 144.394 86.019Z" fill="#1D2366"/>
<path d="M127.13 91.8223C127.13 91.8223 126.248 93.6679 124.476 93.3689C122.704 93.0699 122.708 100.013 122.708 100.013C122.708 100.013 121.531 101.12 120.719 100.161C119.907 99.201 117.766 102.446 117.766 102.446L104.352 103.036C104.352 103.036 110.32 105.764 109.15 114.017C109.15 114.017 129.415 112.762 130.079 110.847C130.744 108.931 127.13 91.8223 127.13 91.8223Z" fill="white"/>
<path opacity="0.03" d="M127.13 91.8223C127.13 91.8223 126.248 93.6679 124.476 93.3689C122.704 93.0699 122.708 100.013 122.708 100.013C122.708 100.013 121.531 101.12 120.719 100.161C119.907 99.201 117.766 102.446 117.766 102.446L104.352 103.036C104.352 103.036 110.32 105.764 109.15 114.017C109.15 114.017 129.415 112.762 130.079 110.847C130.744 108.931 127.13 91.8223 127.13 91.8223Z" fill="black"/>
<path d="M88.1477 107.373L91.6838 110.392L120.793 116.509L117.183 112.825L88.1477 107.373Z" fill="white"/>
<path d="M138.259 73.6935C137.776 74.4317 136.392 78.2115 135.236 81.5114C134.273 84.2614 133.468 86.6791 133.468 86.6791C133.468 86.6791 131.589 98.9117 130.63 101.123C129.67 103.334 130.19 111.956 130.19 111.956L126.614 133.251C126.614 133.251 124.993 144.232 122.491 150.791C120.021 157.247 117.271 160.274 117.186 160.37C118.294 158.871 124.329 129.364 124.329 129.364L126.322 92.1494C126.322 92.1494 126.614 88.6133 126.909 85.5902C127.204 82.5671 133.184 78.4403 133.184 78.4403L138.95 70.2422C139.529 71.0173 139.142 72.3683 138.259 73.6935Z" fill="white"/>
<path d="M123.225 121.521C123.225 121.521 114.735 121.151 110.623 116.213C106.511 111.274 120.128 114.242 120.128 114.242L123.668 115.054L123.225 121.521Z" fill="#FFB0B1"/>
<path opacity="0.1" d="M162.872 178.044C162.418 179.653 162.344 181.345 162.658 182.987C153.397 183.644 143.49 181.141 143.49 181.141C141.644 182.839 136.783 185.342 136.783 185.342L134.132 152.49C132.438 148.06 131.774 124.854 131.774 124.854C131.774 124.854 131.925 123.639 132.143 121.82C132.143 121.775 132.143 121.727 132.161 121.683C132.822 116.6 134.132 107.059 134.775 105.77C135.661 103.999 132.051 99.285 132.051 99.285L133.693 85.2769L133.892 83.5863C137.355 82.0397 140.009 77.1009 140.009 77.1009L142.046 73.5315C144.261 72.1104 144.375 86.0373 144.375 86.0373L142.161 118.922L149.499 116.896C149.499 116.896 164.123 173.843 162.872 178.044Z" fill="black"/>
<path d="M172.377 180.315C162.282 185.328 143.933 180.684 143.933 180.684C142.087 182.382 137.226 184.885 137.226 184.885L134.572 152.033C132.881 147.604 132.217 124.397 132.217 124.397C132.217 124.397 134.35 107.082 135.236 105.313C135.495 104.797 135.369 104.029 135.063 103.202C133.556 99.2667 133.002 95.0308 133.446 90.8403L134.155 84.82L134.35 83.1331C137.816 81.5828 140.47 76.644 140.47 76.644L142.316 73.4105L145.712 67.4529L147.321 64.6328L147.594 64.8801L149.68 66.77C149.68 66.77 150.566 67.5083 151.895 68.6156C154.785 71.0518 159.779 75.341 162.355 77.9654C164.622 80.2761 165.338 89.2642 165.545 96.0301C165.681 100.485 165.6 103.977 165.6 103.977C163.315 107.739 169.291 137.936 169.291 137.936C170.683 143.772 172.377 180.315 172.377 180.315Z" fill="white"/>
<path opacity="0.03" d="M152.998 76.5695C152.998 76.5695 146.07 89.7581 146.874 94.7708C147.679 99.7834 149.968 105.457 148.864 106.782C148.485 107.284 147.995 107.691 147.432 107.973C146.869 108.254 146.249 108.401 145.619 108.402C144.512 108.476 141.559 110.54 141.559 110.761C141.559 110.982 138.831 110.982 136.391 112.016C133.952 113.05 130.349 113.636 130.349 113.636C130.349 113.636 123.336 113.415 122.682 114.079C122.029 114.744 121.357 118.719 122.756 121.89C124.155 125.061 125.709 127.427 126.883 127.859C128.057 128.291 135.506 125.795 141.548 125.205C147.591 124.614 154.15 119.827 154.15 119.827C154.15 119.827 161.373 117.243 162.64 112.898C163.906 108.554 161.093 84.6753 161.093 84.6753C161.093 84.6753 158.967 73.5464 152.998 76.5695Z" fill="black"/>
<path opacity="0.03" d="M152.112 75.463C152.112 75.463 145.184 88.6553 145.996 93.6643C146.808 98.6732 149.089 104.35 147.982 105.679C147.604 106.182 147.114 106.59 146.552 106.871C145.99 107.152 145.37 107.299 144.741 107.3C143.634 107.373 140.681 109.437 140.681 109.658C140.681 109.88 137.953 109.88 135.513 110.91C133.073 111.939 129.47 112.53 129.47 112.53C129.47 112.53 122.457 112.308 121.807 112.973C121.158 113.637 120.479 117.616 121.881 120.783C123.284 123.951 124.834 126.32 126.008 126.752C127.182 127.184 134.631 124.689 140.673 124.102C146.716 123.515 153.275 118.72 153.275 118.72C153.275 118.72 160.495 116.136 161.746 111.795C162.998 107.455 160.2 83.5688 160.2 83.5688C160.2 83.5688 158.081 72.4436 152.112 75.463Z" fill="black"/>
<path d="M152.781 75.9042C152.781 75.9042 145.852 89.0965 146.664 94.1055C147.476 99.1144 149.757 104.791 148.654 106.117C148.276 106.62 147.786 107.029 147.223 107.311C146.66 107.593 146.039 107.74 145.409 107.741C144.302 107.815 141.349 109.878 141.349 110.096C141.349 110.314 138.625 110.317 136.181 111.351C133.738 112.384 130.139 112.971 130.139 112.971C130.139 112.971 123.126 112.75 122.472 113.414C121.819 114.079 121.147 118.058 122.546 121.225C123.945 124.392 125.499 126.761 126.673 127.193C127.847 127.625 135.295 125.13 141.338 124.539C147.38 123.949 153.94 119.161 153.94 119.161C153.94 119.161 161.163 116.577 162.429 112.233C163.695 107.888 160.901 84.01 160.901 84.01C160.901 84.01 158.746 72.8995 152.781 75.9042Z" fill="white"/>
<path opacity="0.1" d="M152.629 111.288C152.629 111.288 147.092 110.181 149.019 112.027C150.946 113.872 150.935 115.489 153.294 115.415C155.652 115.341 152.629 111.288 152.629 111.288Z" fill="black"/>
<path opacity="0.1" d="M161.986 150.998C161.986 150.998 159.484 152.692 164.271 156.598C169.059 160.503 161.986 150.998 161.986 150.998Z" fill="black"/>
<path opacity="0.1" d="M157.21 164.926C157.21 165.147 156.324 173.046 159.639 175.021C162.953 176.996 157.21 164.926 157.21 164.926Z" fill="black"/>
<path d="M104.581 103.018C101.909 103.11 96.1355 103.926 99.1291 109.51C101.776 114.453 106.224 111.149 108.726 108.643C108.116 106.306 106.632 104.293 104.581 103.018V103.018Z" fill="#FFB0B1"/>
<path d="M108.759 108.599L108.87 108.484L108.759 108.599Z" fill="#FFB0B1"/>
<path opacity="0.1" d="M151.894 68.8398C149.06 70.7777 146.683 72.4129 146.217 72.7525C144.948 73.6937 142.526 79.2194 140.965 82.0395C139.721 84.3096 135.679 84.8928 134.155 85.0368L134.35 83.3499C137.816 81.7996 140.47 76.8608 140.47 76.8608L147.321 64.8496L149.68 66.9942C149.68 66.9942 150.566 67.7324 151.894 68.8398Z" fill="black"/>
<path d="M151.894 68.6191C149.06 70.557 146.683 72.1922 146.217 72.5355C144.948 73.473 142.526 78.9987 140.965 81.8188C139.721 84.0889 135.679 84.6721 134.155 84.8161L134.35 83.1292C137.816 81.5789 140.47 76.6401 140.47 76.6401L147.321 64.6289L149.68 66.7661C149.68 66.7661 150.566 67.497 151.894 68.6191Z" fill="#DCE7FF"/>
<path d="M146.439 59.2118C146.44 61.4276 145.768 63.5916 144.512 65.4167C143.028 67.5747 140.82 69.1293 138.288 69.7985C135.756 70.4676 133.068 70.2069 130.712 69.0637C128.356 67.9205 126.487 65.9706 125.446 63.5676C124.404 61.1647 124.259 58.4681 125.035 55.967C125.812 53.4659 127.459 51.326 129.679 49.9357C131.898 48.5454 134.542 47.9968 137.132 48.3893C139.721 48.7819 142.084 50.0896 143.792 52.0753C145.499 54.0609 146.438 56.5929 146.439 59.2118V59.2118Z" fill="#FFB0B1"/>
<path opacity="0.1" d="M165.545 96.0316C164.046 95.1095 162.825 93.7981 162.012 92.237C161.396 91.0189 160.986 89.6126 159.934 88.7488C158.985 87.9737 157.719 87.7854 156.538 87.4385C152.655 86.2905 149.399 82.7469 149.278 78.7014C149.219 76.7967 149.813 74.8958 149.543 73.0096C149.39 71.942 148.966 70.9317 148.31 70.0751C147.985 69.6654 147.628 69.2816 147.244 68.9271C146.727 68.4399 146.184 67.9674 145.712 67.4506C145.414 67.1306 145.154 66.7777 144.937 66.3986C144.761 66.0884 144.619 65.7606 144.512 65.4205C143.774 63.1614 144.446 60.4816 143.634 58.1968L143.589 58.0713C143.283 57.2592 142.659 56.4472 141.792 56.3844C140.924 56.3217 140.182 57.0414 139.356 57.3626C137.624 58.0344 135.757 56.8901 134.313 55.7237C132.87 54.5573 131.242 53.2247 129.408 53.4831C128.193 53.6566 127.234 54.4834 126.115 54.9116C125.863 55.0094 125.602 55.0847 125.336 55.1368C126.283 52.7763 128.022 50.8191 130.255 49.6015C132.488 48.3839 135.075 47.9819 137.572 48.4645C140.069 48.9471 142.319 50.2843 143.938 52.2462C145.556 54.2081 146.44 56.6724 146.439 59.2156C146.44 59.9835 146.36 60.7495 146.199 61.5004C146.218 61.5521 146.236 61.6001 146.258 61.6518C146.686 62.7591 147.17 63.896 147.594 64.8779L149.68 66.7678C149.68 66.7678 150.566 67.506 151.895 68.6134C154.785 71.0495 159.779 75.3387 162.355 77.9631C164.622 80.2812 165.331 89.2656 165.545 96.0316Z" fill="black"/>
<path d="M125.986 48.1694C126.514 47.0952 126.776 45.8919 127.407 44.8731C128.334 43.3966 129.95 42.4517 131.611 41.8796C135.949 40.3846 145.114 38.2142 147.853 41.8796C148.392 42.6178 148.838 43.4372 149.584 43.9466C150.152 44.3342 150.839 44.5003 151.463 44.7919C153.209 45.6114 154.323 47.3979 154.918 49.2214C155.512 51.0448 155.689 53.0011 156.125 54.8799C156.682 57.2903 157.66 59.5751 158.635 61.8452C159.783 64.525 161.001 67.3045 163.215 69.1981C166.238 71.7819 166.907 75.4399 169.712 78.2748C173.034 81.6411 172.927 87.1964 171.214 91.6073C170.989 92.1869 170.734 92.7922 170.823 93.4087C170.912 94.0251 171.369 94.5861 171.801 95.0771L173.617 97.1257C169.321 98.1629 164.459 95.9187 162.459 91.9802C161.842 90.7621 161.433 89.3594 160.377 88.492C159.432 87.7168 158.162 87.5323 156.985 87.1853C153.101 86.0337 149.846 82.4864 149.724 78.4409C149.665 76.5399 150.259 74.6389 149.99 72.7564C149.84 71.6817 149.414 70.6643 148.753 69.8035C147.738 68.4783 146.206 67.5887 145.38 66.1123C143.981 63.6428 145.044 60.4352 144.036 57.7849C143.726 56.9729 143.106 56.1608 142.238 56.0981C141.371 56.0353 140.629 56.7551 139.798 57.0762C138.071 57.748 136.203 56.6074 134.76 55.4373C133.317 54.2672 131.689 52.9384 129.851 53.2005C128.636 53.3703 127.68 54.1971 126.562 54.629C125.735 54.9464 124.059 55.2306 123.336 54.533C121.808 53.1266 125.347 49.4834 125.986 48.1694Z" fill="#591D4B"/>
<path opacity="0.1" d="M163.485 90.7615C162.865 89.5434 162.459 88.1407 161.403 87.277C160.458 86.5018 159.189 86.3136 158.007 85.9666C154.128 84.8186 150.872 81.2714 150.747 77.2258C150.688 75.3249 151.282 73.4202 151.016 71.5377C150.862 70.4699 150.436 69.4596 149.78 68.6032C148.761 67.2781 147.229 66.3885 146.406 64.912C145.007 62.4463 146.07 59.2386 145.059 56.5847C144.752 55.7763 144.128 54.9642 143.265 54.8978C142.401 54.8313 141.652 55.5585 140.825 55.8796C139.097 56.5514 137.226 55.4072 135.786 54.2408C134.347 53.0743 132.712 51.7418 130.877 52.0002C129.663 52.1737 128.703 53.0005 127.588 53.4287C126.761 53.7461 125.082 54.034 124.358 53.3364C122.838 51.8599 126.378 48.2241 127.012 46.9174C127.54 45.8396 127.802 44.6399 128.437 43.6212C128.47 43.5658 128.507 43.5104 128.544 43.4551C128.069 43.8485 127.659 44.3144 127.33 44.8356C126.699 45.8544 126.437 47.0503 125.909 48.1318C125.27 49.4385 121.73 53.0854 123.255 54.5508C123.993 55.2521 125.654 54.9642 126.481 54.6468C127.588 54.2149 128.555 53.3881 129.77 53.2183C131.615 52.9562 133.239 54.2887 134.679 55.4552C136.119 56.6216 138.001 57.7658 139.721 57.094C140.548 56.7729 141.271 56.0494 142.157 56.1159C143.043 56.1823 143.634 56.9907 143.955 57.8028C144.963 60.453 143.9 63.6607 145.299 66.1301C146.125 67.5807 147.657 68.4888 148.672 69.8213C149.333 70.6821 149.759 71.6996 149.909 72.7742C150.178 74.6568 149.584 76.5577 149.643 78.4587C149.765 82.519 153.021 86.0515 156.904 87.2031C158.074 87.5501 159.351 87.7347 160.296 88.5098C161.355 89.3773 161.772 90.7799 162.378 91.998C164.378 95.9365 169.24 98.1807 173.536 97.1435L172.68 96.1764C168.955 96.2318 165.187 94.1131 163.485 90.7615Z" fill="black"/>
<path opacity="0.1" d="M138.038 73.9159C137.554 74.6542 136.17 78.4339 135.015 81.7339C133.933 81.3131 132.951 78.6296 132.951 78.6296L138.717 70.4277C139.308 71.2398 138.92 72.5871 138.038 73.9159Z" fill="black"/>
<path d="M138.259 73.6935C137.776 74.4317 136.391 78.2115 135.236 81.5114C134.155 81.0943 133.173 78.4071 133.173 78.4071L138.938 70.209C139.529 71.0174 139.141 72.3683 138.259 73.6935Z" fill="#DCE7FF"/>
<path d="M104.736 111.402L101.539 101.322C101.501 101.204 101.487 101.079 101.498 100.956C101.508 100.832 101.543 100.712 101.6 100.602C101.656 100.492 101.735 100.394 101.829 100.314C101.924 100.234 102.034 100.174 102.152 100.137V100.137C102.39 100.062 102.648 100.085 102.869 100.2C103.09 100.315 103.257 100.512 103.333 100.749L106.53 110.819L106.212 112.927L104.736 111.402Z" fill="#BE8B87"/>
<path opacity="0.1" d="M101.842 100.437C102.081 100.361 102.339 100.383 102.561 100.498C102.783 100.613 102.951 100.811 103.027 101.049L106.224 111.119L105.984 112.699L106.216 112.942L106.534 110.835L103.319 100.765C103.242 100.528 103.075 100.33 102.854 100.216C102.633 100.101 102.375 100.078 102.137 100.152V100.152C101.937 100.217 101.764 100.347 101.646 100.521C101.709 100.488 101.775 100.459 101.842 100.437V100.437Z" fill="white"/>
<path d="M104.736 111.402L106.53 110.834L106.268 112.561L106.212 112.942L105.688 112.395L104.736 111.402Z" fill="#EFC8C4"/>
<path d="M105.688 112.396C105.719 112.357 105.758 112.324 105.803 112.3C105.828 112.284 105.859 112.275 105.889 112.275C105.92 112.275 105.95 112.284 105.976 112.3C106.001 112.331 106.022 112.364 106.039 112.4C106.063 112.441 106.096 112.476 106.136 112.502C106.176 112.528 106.221 112.545 106.268 112.551L106.212 112.921L105.688 112.396Z" fill="#727A9C"/>
<path d="M101.521 104.902C101.521 104.902 107.932 104.865 106.423 107.593C104.913 110.321 102.554 110.65 102.554 110.65L101.521 104.902Z" fill="#FFB0B1"/>
<defs>
<linearGradient id="paint0_linear_1147_321" x1="46.1898" y1="248.002" x2="46.1898" y2="20.8676" gradientUnits="userSpaceOnUse">
<stop stop-color="#808080" stop-opacity="0.25"/>
<stop offset="0.54" stop-color="#808080" stop-opacity="0.12"/>
<stop offset="1" stop-color="#808080" stop-opacity="0.1"/>
</linearGradient>
</defs>
</svg>
