<svg width="1917" height="124" viewBox="0 0 1917 124" fill="none" xmlns="http://www.w3.org/2000/svg">
<path d="M0 70.8571L26.6667 73.7911C53.3333 76.9464 106.667 82.4821 160 76.7804C213.333 70.8571 266.667 53.1429 320 53.1429C373.333 53.1429 426.667 70.8571 480 64.9339C533.333 59.2321 586.667 29.3393 640 29.5054C693.333 29.3393 746.667 59.2321 800 76.7804C853.333 94.6607 906.667 100.196 960 76.7804C1013.33 53.1429 1066.67 0 1120 0C1173.33 0 1226.67 53.1429 1280 62C1333.33 70.8571 1386.67 35.4286 1440 32.4946C1493.33 29.3393 1546.67 59.2321 1600 67.9232C1653.33 76.9464 1706.67 64.7679 1760 67.9232C1813.33 70.8571 1893.33 87.5873 1920 96.4445V106.286V124H1893.33C1866.67 124 1813.33 124 1760 124C1706.67 124 1653.33 124 1600 124C1546.67 124 1493.33 124 1440 124C1386.67 124 1333.33 124 1280 124C1226.67 124 1173.33 124 1120 124C1066.67 124 1013.33 124 960 124C906.667 124 853.333 124 800 124C746.667 124 693.333 124 640 124C586.667 124 533.333 124 480 124C426.667 124 373.333 124 320 124C266.667 124 213.333 124 160 124C106.667 124 53.3333 124 26.6667 124H0V70.8571Z" fill="#A5AFED"/>
</svg>
