<svg width="1920" height="180" viewBox="0 0 1920 180" fill="none" xmlns="http://www.w3.org/2000/svg">
<path d="M0 33.8075L18.8 53.511C37.6 73.4257 74.6667 112.516 113.333 129.578C150.533 146.323 188 141.041 225.333 126.778C263.467 112.516 301.333 90.3295 338.667 70.4147C376.533 50.7113 414.667 33.8075 452 36.6072C489.467 39.6182 526.667 61.8044 565.333 78.8666C602.4 95.6119 640 107.233 677.333 101.423C715.333 95.6119 753.333 73.4257 790.667 61.9628C828.267 50.7113 865.333 50.7113 904 56.3635C941.2 61.8044 978.667 73.4257 1016 78.8666C1054.13 84.5188 1092 84.5188 1129.33 81.7191C1167.07 78.7081 1205.33 73.4257 1242.67 61.9628C1280 50.7113 1317.33 33.8075 1354.67 42.2594C1392.93 50.7113 1430.67 84.5188 1468 104.222C1505.87 124.137 1544 129.419 1581.33 115.527C1618.8 101.423 1656 67.615 1694.67 53.511C1731.73 39.6182 1769.33 44.9006 1806.67 56.3635C1844.67 67.615 1882.67 84.5188 1901.33 92.9707L1920 101.423V0H1901.2C1882.4 0 1845.33 0 1806.67 0C1769.47 0 1732 0 1694.67 0C1656.53 0 1618.67 0 1581.33 0C1543.47 0 1505.33 0 1468 0C1430.53 0 1393.33 0 1354.67 0C1317.6 0 1280 0 1242.67 0C1204.67 0 1166.67 0 1129.33 0C1091.73 0 1054.67 0 1016 0C978.8 0 941.333 0 904 0C865.867 0 828 0 790.667 0C752.933 0 714.667 0 677.333 0C640 0 602.667 0 565.333 0C527.067 0 489.333 0 452 0C414.133 0 376 0 338.667 0C301.2 0 264 0 225.333 0C188.267 0 150.667 0 113.333 0C75.3333 0 37.3333 0 18.6667 0H0V33.8075Z" fill="#A5AFED"/>
</svg>
