<svg width="153" height="207" viewBox="0 0 153 207" fill="none" xmlns="http://www.w3.org/2000/svg">
<path d="M38.3504 86.7027C59.0652 86.7027 75.858 69.91 75.858 49.1951C75.858 28.4802 59.0652 11.6875 38.3504 11.6875C17.6355 11.6875 0.842773 28.4802 0.842773 49.1951C0.842773 69.91 17.6355 86.7027 38.3504 86.7027Z" fill="#494961"/>
<path d="M38.3504 85.0751C57.2486 85.0751 72.5686 69.7551 72.5686 50.8569C72.5686 31.9587 57.2486 16.6387 38.3504 16.6387C19.4522 16.6387 4.13214 31.9587 4.13214 50.8569C4.13214 69.7551 19.4522 85.0751 38.3504 85.0751Z" fill="#A5AFED"/>
<path d="M35.3631 64.2679C35.2892 64.2679 35.2145 64.2661 35.1397 64.2625C34.4834 64.2306 33.8418 64.0573 33.2588 63.7542C32.6758 63.4512 32.1652 63.0257 31.7621 62.5069L26.369 55.5738C25.6274 54.6185 25.2951 53.408 25.4449 52.208C25.5948 51.008 26.2147 49.9164 27.1684 49.1729L27.3616 49.0224C28.3171 48.2809 29.5277 47.9485 30.728 48.0982C31.9282 48.2479 33.0201 48.8674 33.7642 49.821C34.0063 50.1325 34.3128 50.388 34.6629 50.5699C35.0129 50.7519 35.3981 50.856 35.7922 50.875C36.1867 50.8981 36.5813 50.8338 36.9481 50.6867C37.3148 50.5396 37.6445 50.3133 37.9137 50.024L48.8637 38.4649C49.6964 37.5881 50.8429 37.0774 52.0517 37.0446C53.2604 37.0119 54.4329 37.4599 55.3118 38.2904L55.4898 38.4587C56.3671 39.2913 56.8783 40.4379 56.9112 41.6469C56.9441 42.8559 56.496 44.0286 55.6652 44.9077L38.6731 62.8435C38.2473 63.2936 37.7341 63.6521 37.165 63.897C36.5958 64.1419 35.9827 64.2681 35.3631 64.2679Z" fill="white"/>
<path opacity="0.2" d="M38.3504 80.335C29.6933 80.3338 21.3585 77.0509 15.026 71.148C8.69356 65.2451 4.83422 57.1611 4.22593 48.5254C4.17047 49.322 4.13214 50.1234 4.13214 50.9341C4.13214 60.0093 7.73728 68.7129 14.1544 75.13C20.5716 81.5472 29.2751 85.1523 38.3504 85.1523C47.4256 85.1523 56.1291 81.5472 62.5463 75.13C68.9635 68.7129 72.5686 60.0093 72.5686 50.9341C72.5686 50.1234 72.5302 49.322 72.4748 48.5254C71.8665 57.1611 68.0072 65.2451 61.6747 71.148C55.3422 77.0509 47.0074 80.3338 38.3504 80.335Z" fill="#494961"/>
<path d="M86.5924 78.4703L113.728 79.5777L117.051 61.3024L93.7913 54.1035L86.5924 78.4703Z" fill="#FFB8B8"/>
<path d="M96.8484 38.8866L97.111 30.2528L83.9596 26.9556L60.2816 20.0478C59.9683 19.0972 59.3737 18.2641 58.5765 17.6588C57.7794 17.0534 56.8173 16.7043 55.8174 16.6577C54.8176 16.6111 53.8271 16.8691 52.9771 17.3976C52.1271 17.9261 51.4576 18.7002 51.0571 19.6175C50.6566 20.5349 50.544 21.5521 50.7342 22.5348C50.9244 23.5175 51.4085 24.4193 52.1224 25.1209C52.8363 25.8225 53.7464 26.2908 54.7322 26.4639C55.7181 26.637 56.7333 26.5067 57.6435 26.0903L80.6626 35.5526L96.8484 38.8866Z" fill="#FFB8B8"/>
<path d="M88.374 38.8255L95.7722 28.2734L95.9568 28.298C96.0729 28.3133 107.675 29.8655 115.281 32.1305C116.136 32.357 116.931 32.7673 117.611 33.3326C118.291 33.898 118.84 34.6049 119.218 35.4041C119.762 36.5208 119.967 37.772 119.81 39.0039C119.652 40.2359 119.139 41.3951 118.331 42.3391C117.51 43.3596 116.412 44.1219 115.169 44.535C113.926 44.9481 112.59 44.9944 111.321 44.6685L88.374 38.8255Z" fill="#A5AFED"/>
<path d="M93.0602 198.803L85.5345 198.802L81.9543 169.775L93.0611 169.776L93.0602 198.803Z" fill="#FFB8B8"/>
<path d="M151.656 195.545L144.215 196.67L136.336 168.504L146.091 166.844L151.656 195.545Z" fill="#FFB8B8"/>
<path d="M114.836 74.0377L88.8074 69.6074L87.8817 71.5156C82.9002 81.7959 79.9589 92.9445 79.2204 104.344C78.592 113.968 78.2222 124.132 78.2101 134.787C78.1913 151.295 79.0337 166.612 80.3653 180.55L94.6504 180.461C94.2379 165.663 94.7997 150.853 96.3323 136.129C97.4256 125.629 98.9458 115.821 100.704 106.771C103.965 120.057 108.567 132.977 114.44 145.333C119.432 155.89 129.701 168.093 134.693 178.65C139.808 178.036 144.923 177.422 150.039 176.808C146.007 166.148 138.816 150.58 134.785 139.919C129.021 124.677 126.417 114.341 120.653 99.0984C120.982 96.233 121.046 93.3435 120.845 90.4663C120.576 85.6707 119.579 79.9161 116.663 76.0796L114.836 74.0377Z" fill="#2F2E41"/>
<path d="M118.857 66.0935C120.156 68.5232 117.069 73.5567 114.836 74.039L89.0964 65.7189L102.057 28.1641L108.577 29.3492L119.005 31.1062L122.705 34.4685C123.636 35.3161 124.301 36.4159 124.62 37.6345C124.938 38.853 124.896 40.1378 124.498 41.3328L118.857 66.0935Z" fill="#A5AFED"/>
<path d="M101.138 51.5784L93.8564 46.9316L84.2898 56.5394L66.2314 73.3399C65.2544 73.1223 64.2343 73.2064 63.3062 73.5811C62.378 73.9558 61.5855 74.6035 61.0334 75.4384C60.4814 76.2733 60.1958 77.2562 60.2145 78.2569C60.2332 79.2577 60.5552 80.2292 61.138 81.0429C61.7209 81.8567 62.537 82.4743 63.4785 82.8141C64.42 83.154 65.4425 83.1999 66.4106 82.946C67.3788 82.6921 68.2471 82.1502 68.9007 81.3921C69.5542 80.6339 69.9621 79.6952 70.0706 78.7002L89.9858 63.7737L101.138 51.5784Z" fill="#FFB8B8"/>
<path d="M96.7463 58.8274L91.4713 47.0694L91.5868 46.9234C91.6594 46.8317 98.934 37.6607 104.774 32.2875C105.407 31.6693 106.166 31.1964 107 30.9019C107.834 30.6073 108.722 30.4982 109.602 30.5821C110.84 30.6875 112.019 31.1517 112.997 31.9179C113.974 32.684 114.707 33.7187 115.105 34.8951C115.561 36.1232 115.653 37.4566 115.371 38.7358C115.09 40.0151 114.445 41.1862 113.516 42.109L96.7463 58.8274Z" fill="#A5AFED"/>
<path d="M113.154 25.6545C119.476 25.6545 124.601 20.5293 124.601 14.2071C124.601 7.88492 119.476 2.75977 113.154 2.75977C106.832 2.75977 101.706 7.88492 101.706 14.2071C101.706 20.5293 106.832 25.6545 113.154 25.6545Z" fill="#FFB8B8"/>
<path d="M122.399 30.7943L122.355 30.7833L105.72 26.6226C105.143 26.4784 104.608 26.2011 104.159 25.813C103.709 25.425 103.356 24.9368 103.129 24.3878C102.901 23.8388 102.806 23.2442 102.85 22.6516C102.894 22.059 103.076 21.4851 103.382 20.9757L103.932 20.0614C104.468 19.1687 104.773 18.1558 104.817 17.1151C104.862 16.0745 104.645 15.0392 104.187 14.1038C103.399 12.5762 102.044 11.4184 100.411 10.879L100.356 10.8525L100.007 10.6351C99.6636 10.473 99.3579 10.241 99.1094 9.95385C98.8609 9.66673 98.6752 9.33086 98.5641 8.96777C98.4487 8.59153 98.4136 8.19526 98.461 7.80461C98.5085 7.41395 98.6374 7.0376 98.8394 6.69988C100.308 4.24343 102.506 2.30586 105.127 1.15683C108.438 -0.268818 112.168 -0.380863 115.56 0.843432C115.786 0.635861 116.059 0.487644 116.357 0.412083C116.654 0.336521 116.966 0.335977 117.263 0.410511C125.878 2.49696 126.587 8.27958 124.885 17.5621L126.9 25.6869C127.042 26.2606 127.058 26.8584 126.946 27.4388C126.834 28.0192 126.597 28.5682 126.251 29.0477C125.906 29.5273 125.46 29.9258 124.945 30.2156C124.43 30.5054 123.858 30.6796 123.268 30.7259L122.399 30.7943ZM115.468 0.934845L115.467 0.935932L115.468 0.934845ZM115.675 0.884013L115.677 0.884556L115.675 0.884013Z" fill="#2F2E41"/>
<path d="M94.894 206.327H90.5991L89.8324 202.272L87.869 206.327H76.4776C75.9316 206.327 75.3998 206.153 74.96 205.829C74.5202 205.506 74.1953 205.05 74.0328 204.529C73.8703 204.007 73.8787 203.448 74.0568 202.932C74.2348 202.415 74.5732 201.97 75.0225 201.659L84.1193 195.377V191.277L93.6876 191.848L94.894 206.327Z" fill="#2F2E41"/>
<path d="M152.854 206.327H148.559L147.793 202.272L145.829 206.327H134.438C133.892 206.327 133.36 206.153 132.92 205.829C132.48 205.506 132.156 205.05 131.993 204.529C131.831 204.007 131.839 203.448 132.017 202.932C132.195 202.415 132.533 201.97 132.983 201.659L142.08 195.377V191.277L151.648 191.848L152.854 206.327Z" fill="#2F2E41"/>
</svg>
