<svg width="121" height="206" viewBox="0 0 121 206" fill="none" xmlns="http://www.w3.org/2000/svg">
<path d="M58.2088 198.94C76.6285 198.94 91.5606 184.008 91.5606 165.588C91.5606 147.168 76.6285 132.236 58.2088 132.236C39.7891 132.236 24.8569 147.168 24.8569 165.588C24.8569 184.008 39.7891 198.94 58.2088 198.94Z" fill="#494961"/>
<path d="M58.2088 197.325C75.143 197.325 88.871 183.718 88.871 166.932C88.871 150.147 75.143 136.539 58.2088 136.539C41.2746 136.539 27.5466 150.147 27.5466 166.932C27.5466 183.718 41.2746 197.325 58.2088 197.325Z" fill="#A5AFED"/>
<path d="M54.0371 176.785C53.9715 176.785 53.9051 176.784 53.8387 176.78C53.2559 176.752 52.6862 176.598 52.1686 176.328C51.6509 176.059 51.1976 175.681 50.8396 175.219L46.0509 169.055C45.3925 168.205 45.0974 167.129 45.2305 166.062C45.3635 164.995 45.9139 164.025 46.7608 163.363L46.9323 163.23C47.7807 162.57 48.8557 162.275 49.9214 162.408C50.9871 162.541 51.9566 163.092 52.6174 163.94C52.8323 164.217 53.1045 164.444 53.4153 164.606C53.7261 164.767 54.0682 164.86 54.4181 164.877C54.7683 164.897 55.1188 164.84 55.4444 164.709C55.77 164.579 56.0628 164.377 56.3018 164.12L66.0246 153.842C66.764 153.063 67.782 152.609 68.8553 152.58C69.9286 152.551 70.9696 152.949 71.75 153.687L71.9081 153.837C72.6871 154.577 73.141 155.597 73.1702 156.672C73.1994 157.747 72.8015 158.789 72.0639 159.571L56.9761 175.519C56.598 175.919 56.1423 176.238 55.637 176.455C55.1316 176.673 54.5872 176.785 54.0371 176.785V176.785Z" fill="white"/>
<path opacity="0.2" d="M58.2088 193.08C50.4514 193.079 42.9828 190.186 37.3084 184.984C31.634 179.782 28.1757 172.659 27.6307 165.049C27.581 165.751 27.5466 166.457 27.5466 167.171C27.5466 175.169 30.7771 182.838 36.5274 188.493C42.2777 194.148 50.0767 197.325 58.2088 197.325C66.3409 197.325 74.1399 194.148 79.8902 188.493C85.6405 182.838 88.871 175.169 88.871 167.171C88.871 166.457 88.8366 165.751 88.7869 165.049C88.2418 172.659 84.7836 179.782 79.1092 184.984C73.4348 190.186 65.9662 193.079 58.2088 193.08V193.08Z" fill="#7080EC"/>
<path d="M42.9454 188.86L36.662 192.581L19.3172 170.116L28.5914 164.623L42.9454 188.86Z" fill="#FFB6B6"/>
<path d="M48.1556 194L27.895 206L27.7432 205.743C26.5046 203.652 26.1474 201.154 26.7503 198.799C27.3532 196.445 28.8668 194.426 30.9581 193.187L30.9586 193.186L43.3331 185.857L48.1556 194Z" fill="#2F2E41"/>
<path d="M73.2894 188.86L79.5728 192.581L96.9176 170.116L87.6439 164.623L73.2894 188.86Z" fill="#FFB6B6"/>
<path d="M72.9018 185.857L85.2763 193.186L85.2768 193.187C87.3681 194.426 88.8817 196.445 89.4846 198.799C90.0875 201.154 89.7304 203.652 88.4917 205.743L88.34 206L68.0794 194L72.9018 185.857Z" fill="#2F2E41"/>
<path d="M77.6077 103.143C77.6077 103.143 57.1069 117.582 37.1517 104.552L36.8395 113.635C36.8395 113.635 -5.90494 131.764 1.11186 145.926C8.12866 160.088 22.8733 174.783 22.8733 174.783L30.9156 168.16L21.9272 145.453L46.3766 135.095L67.6913 135.202L97.4129 147.232L83.2206 168.52L95.727 172.418C95.727 172.418 125.531 144.979 119.144 137.174C114.025 130.917 83.3823 116.889 83.3823 116.889L77.6077 103.143Z" fill="#2F2E41"/>
<path d="M84.742 50.1692L66.9977 44.2871L62.6117 38.0625H49.8386L46.0543 44.3856L29.6006 50.1692C28.7035 50.4256 27.9327 51.0043 27.4362 51.7943C26.9398 52.5842 26.7526 53.5297 26.9106 54.4492L34.2271 114.701L46.054 113.755C46.054 113.755 61.9881 126.188 71.6001 111.862L72.1134 104.638L82.0078 114.228L87.432 54.4492C87.59 53.5297 87.4028 52.5842 86.9064 51.7943C86.4099 51.0043 85.6391 50.4256 84.742 50.1692Z" fill="#A5AFED"/>
<path d="M71.1187 9.31125C65.8724 0.446574 55.4929 0.0334391 55.4929 0.0334391C55.4929 0.0334391 45.3787 -1.25995 38.8906 12.2411C32.843 24.8251 24.4967 32.7176 37.5469 35.6634L39.9041 28.3267L41.3639 36.2097C43.222 36.3433 45.086 36.3752 46.9476 36.3051C60.9232 35.8539 74.2329 36.4371 73.8044 31.4221C73.2347 24.7553 76.1667 17.8408 71.1187 9.31125Z" fill="#2F2E41"/>
<path d="M56.6983 35.6591C64.2752 35.6591 70.4174 29.5168 70.4174 21.9399C70.4174 14.363 64.2752 8.2207 56.6983 8.2207C49.1214 8.2207 42.9791 14.363 42.9791 21.9399C42.9791 29.5168 49.1214 35.6591 56.6983 35.6591Z" fill="#FFB8B8"/>
<path d="M69.2721 7.98458L59.0177 2.61328L44.8571 4.81072L41.9274 17.7508L49.2203 17.4702L51.2578 12.7163V17.3922L54.6233 17.2625L56.5762 9.69381L57.7972 17.7508L69.7608 17.5066L69.2721 7.98458Z" fill="#2F2E41"/>
<path opacity="0.2" d="M35.2593 63.168L45.9035 104.794C45.9035 104.794 40.9362 68.3718 35.2593 63.168Z" fill="#494961"/>
<path opacity="0.2" d="M67.0199 105.267L77.6641 63.6406C71.9872 68.8445 67.0199 105.267 67.0199 105.267Z" fill="#494961"/>
<path d="M69.4987 141.633C70.0722 141.33 70.5723 140.905 70.9638 140.388C71.3553 139.871 71.6287 139.274 71.7647 138.64C71.9007 138.006 71.8961 137.35 71.751 136.718C71.606 136.086 71.3242 135.493 70.9254 134.982L80.5886 108.553L73.1918 104.787L64.4212 134.374C63.6065 135.101 63.0868 136.102 62.9605 137.186C62.8342 138.271 63.1102 139.364 63.736 140.259C64.3619 141.153 65.2942 141.787 66.3563 142.041C67.4184 142.294 68.5365 142.149 69.4987 141.633V141.633Z" fill="#FFB6B6"/>
<path d="M78.8356 60.5664L68.0545 107.449C67.9505 107.934 68.0406 108.439 68.3055 108.858C68.5705 109.277 68.989 109.575 69.4713 109.688L79.8542 111.184C80.1097 111.244 80.3749 111.251 80.633 111.203C80.891 111.155 81.1363 111.054 81.3532 110.906C81.5701 110.758 81.7538 110.567 81.8928 110.344C82.0318 110.121 82.1229 109.872 82.1604 109.612L85.3193 60.7713L78.8356 60.5664Z" fill="#A5AFED"/>
<path d="M44.844 142.578C44.2705 142.275 43.7704 141.85 43.3789 141.333C42.9874 140.816 42.714 140.22 42.578 139.585C42.442 138.951 42.4466 138.295 42.5917 137.663C42.7367 137.031 43.0185 136.438 43.4173 135.927L33.7541 109.498L41.1509 105.732L49.9215 135.32C50.7362 136.046 51.2559 137.047 51.3822 138.132C51.5084 139.216 51.2325 140.309 50.6067 141.204C49.9808 142.099 49.0485 142.733 47.9864 142.986C46.9243 143.239 45.8062 143.094 44.844 142.578V142.578Z" fill="#FFB6B6"/>
<path d="M35.507 61.5117L46.2882 108.394C46.3922 108.879 46.302 109.385 46.0371 109.803C45.7722 110.222 45.3536 110.52 44.8713 110.634L34.4885 112.129C34.233 112.19 33.9678 112.196 33.7097 112.148C33.4516 112.1 33.2064 111.999 32.9895 111.851C32.7726 111.703 32.5888 111.512 32.4499 111.289C32.3109 111.067 32.2198 110.817 32.1823 110.558L28.0772 61.7166L35.507 61.5117Z" fill="#A5AFED"/>
</svg>
