<svg width="32" height="32" viewBox="0 0 32 32" fill="none" xmlns="http://www.w3.org/2000/svg">
<path d="M15.9865 2.66699C8.6265 2.66699 2.6665 8.64033 2.6665 16.0003C2.6665 23.3603 8.6265 29.3337 15.9865 29.3337C23.3598 29.3337 29.3332 23.3603 29.3332 16.0003C29.3332 8.64033 23.3598 2.66699 15.9865 2.66699ZM21.3332 21.3337C21.2098 21.4573 21.0633 21.5553 20.902 21.6222C20.7407 21.6891 20.5678 21.7236 20.3932 21.7236C20.2185 21.7236 20.0456 21.6891 19.8843 21.6222C19.723 21.5553 19.5765 21.4573 19.4532 21.3337L15.0665 16.947C14.9405 16.8235 14.8403 16.6762 14.7716 16.5137C14.703 16.3512 14.6672 16.1767 14.6665 16.0003V10.667C14.6665 9.93366 15.2665 9.33366 15.9998 9.33366C16.7332 9.33366 17.3332 9.93366 17.3332 10.667V15.4537L21.3332 19.4537C21.8532 19.9737 21.8532 20.8137 21.3332 21.3337Z" fill="#494961"/>
</svg>
