<svg width="32" height="32" viewBox="0 0 32 32" fill="none" xmlns="http://www.w3.org/2000/svg">
<path d="M15.989 5C9.917 5 5 9.928 5 16C5 22.072 9.917 27 15.989 27C22.072 27 27 22.072 27 16C27 9.928 22.072 5 15.989 5ZM20.4 20.4C20.2982 20.502 20.1774 20.5829 20.0443 20.6381C19.9112 20.6933 19.7686 20.7217 19.6245 20.7217C19.4804 20.7217 19.3378 20.6933 19.2047 20.6381C19.0716 20.5829 18.9508 20.502 18.849 20.4L15.23 16.781C15.1261 16.6791 15.0434 16.5576 14.9867 16.4236C14.9301 16.2895 14.9006 16.1455 14.9 16V11.6C14.9 10.995 15.395 10.5 16 10.5C16.605 10.5 17.1 10.995 17.1 11.6V15.549L20.4 18.849C20.829 19.278 20.829 19.971 20.4 20.4Z" fill="#494961"/>
</svg>
