<svg width="205" height="207" viewBox="0 0 205 207" fill="none" xmlns="http://www.w3.org/2000/svg">
<path d="M140.095 25.0759C139.677 21.2059 135.488 17.8678 136.745 14.1863C137.427 12.1801 139.563 10.9529 140.284 8.95927C140.761 7.64414 140.548 6.19918 140.552 4.80029C140.556 3.40139 140.883 1.83915 142.047 1.06431C144.56 -0.611009 147.793 2.83596 150.725 2.13232C151.434 1.88989 152.124 1.59594 152.79 1.25279C156.212 -0.108408 160.082 2.37107 162.004 5.50392C163.927 8.63677 164.647 12.3727 166.297 15.6647C166.861 16.936 167.733 18.0461 168.836 18.8939C169.975 19.6813 171.533 19.9787 172.764 19.3504L177.56 30.0306C178.816 32.7823 180.257 35.7644 183.005 36.9748C184.236 37.5151 185.61 37.6366 186.883 38.0764C188.267 38.5645 189.498 39.4075 190.454 40.5211C191.409 41.6347 192.055 42.9797 192.328 44.4216C192.491 45.3598 192.495 46.3315 192.826 47.2236C193.894 50.1052 197.567 50.7502 200.244 52.2496C201.792 53.1226 203.09 54.3788 204.013 55.8976C204.432 56.6222 204.792 57.5729 204.344 58.2849C203.536 59.5917 201.077 58.821 200.298 60.1487C199.904 60.8188 200.181 61.6565 200.298 62.4272C200.679 65.5307 197.107 68.3746 194.166 67.3107C193.81 69.3085 193.329 71.499 191.712 72.7094C189.974 74.0078 187.398 73.6644 185.643 72.3911C183.888 71.1179 182.824 69.1033 182.062 67.072C181.137 64.6009 180.445 61.8115 178.339 60.2241C177.577 59.6545 176.663 59.2859 175.918 58.7121C174.243 57.4305 173.405 55.3154 172.806 53.2673C172.031 50.7125 171.415 48.0864 170.293 45.6739C169.171 43.2615 167.395 41.0165 164.961 39.915C162.679 38.8889 160.048 38.9559 157.69 38.1224C153.632 36.69 150.629 33.2766 146.591 31.6683C145.301 31.1257 144.078 30.4341 142.948 29.6076C140.916 28.2715 140.363 27.4967 140.095 25.0759Z" fill="#3F3D56"/>
<g opacity="0.1">
<path opacity="0.1" d="M140.472 8.13442C140.559 7.97062 140.634 7.80131 140.698 7.62763C141.172 6.3125 140.962 4.86754 140.967 3.46864C140.966 3.0021 141.01 2.53656 141.096 2.07812C140.71 2.90568 140.522 3.81211 140.548 4.72514C140.543 5.85179 140.677 7.0329 140.472 8.13442Z" fill="black"/>
<path opacity="0.1" d="M192.106 71.3904C190.368 72.6846 187.792 72.3454 186.037 71.0679C184.282 69.7905 183.214 67.7843 182.473 65.7446C181.547 63.2735 180.86 60.4841 178.749 58.8967C177.991 58.3271 177.074 57.9544 176.333 57.3848C174.657 56.1031 173.82 53.988 173.216 51.9609C172.442 49.406 171.83 46.78 170.703 44.3675C169.577 41.955 167.809 39.7101 165.372 38.6086C163.093 37.5824 160.463 37.6495 158.105 36.816C154.042 35.3836 151.039 31.9701 147.006 30.3618C145.715 29.8177 144.491 29.1262 143.358 28.3012C141.373 26.9316 140.845 26.1568 140.552 23.7401C140.133 20.113 136.447 16.9509 137.021 13.5332C136.928 13.7181 136.845 13.9083 136.774 14.1028C135.517 17.7885 139.706 21.1266 140.125 24.9924C140.397 27.4091 140.962 28.1839 142.931 29.5535C144.063 30.3785 145.288 31.07 146.579 31.6141C150.612 33.2224 153.615 36.6401 157.678 38.0683C160.036 38.906 162.666 38.8348 164.945 39.8609C167.382 40.9624 169.133 43.2115 170.276 45.6198C171.42 48.0281 172.031 50.6458 172.789 53.2132C173.405 55.2403 174.213 57.3554 175.905 58.6371C176.663 59.2067 177.581 59.5794 178.322 60.149C180.416 61.7364 181.12 64.5258 182.045 66.9969C182.808 69.0282 183.876 71.0386 185.631 72.3119C187.385 73.5851 189.961 73.9286 191.699 72.6344C192.809 71.7967 193.375 70.5193 193.747 69.1497C193.416 70.0331 192.848 70.8083 192.106 71.3904V71.3904Z" fill="black"/>
<path opacity="0.1" d="M200.713 58.8279C200.552 59.1283 200.483 59.4687 200.512 59.8079C201.458 58.8739 203.594 59.4226 204.34 58.2206C204.513 57.9235 204.581 57.5767 204.532 57.2363C203.561 58.1578 201.425 57.6091 200.713 58.8279Z" fill="black"/>
<path opacity="0.1" d="M194.56 65.9901C194.48 66.409 194.401 66.8571 194.3 67.2927C196.864 68.0927 199.825 66.0362 200.244 63.4395C199.226 65.4373 196.713 66.7733 194.56 65.9901Z" fill="black"/>
</g>
<path d="M145.507 27.0909C145.507 27.0909 146.901 29.9054 142.784 29.9641C138.667 30.0227 145.435 48.2418 145.435 48.2418L152.279 56.9535L160.794 52.3464L161.284 39.6391L161.912 31.9619C161.912 31.9619 153.954 29.3777 155.42 25.9601C156.886 22.5424 145.507 27.0909 145.507 27.0909Z" fill="#FBBEBE"/>
<path d="M170.222 101.372C170.222 101.372 175.248 106.319 181.111 99.7554L176.609 94.9766H170.913L170.222 101.372Z" fill="#575A89"/>
<path opacity="0.1" d="M170.766 94.9766L170.075 101.372C170.075 101.372 175.101 106.319 180.965 99.7554" fill="black"/>
<path d="M179.222 95.8516C179.222 95.8516 181.245 101.158 182.711 102.762C184.177 104.366 186.481 115.465 183.411 114.209C180.341 112.952 174.477 103.6 174.125 101.996C173.774 100.392 173.639 95.8516 173.639 95.8516H179.222Z" fill="#FBBEBE"/>
<path d="M135.317 123.077L162.398 124.124L159.257 112.673L145.616 112.396L135.317 123.077Z" fill="#575A89"/>
<path opacity="0.1" d="M139.082 123.077L166.168 124.124L163.026 112.673L149.381 112.396L139.082 123.077Z" fill="black"/>
<path d="M144.179 141.975C143.538 143.169 143.785 147.299 144.074 150.352C144.258 152.295 144.46 153.79 144.46 153.79C144.46 153.79 134.336 156.932 132.803 154.209C132.414 153.518 132.221 152.308 132.154 150.888C131.945 146.7 132.803 140.664 132.803 140.664C132.803 140.664 132.385 131.383 132.175 130.474C132.091 130.11 131.962 128.954 131.836 127.702C131.652 125.842 131.476 123.773 131.476 123.773L145.297 116.443C145.297 116.443 145.297 117.817 145.272 119.932C145.197 126.575 144.975 140.509 144.179 141.975Z" fill="#FBBEBE"/>
<path opacity="0.1" d="M144.46 153.794C144.46 153.794 134.336 156.936 132.804 154.213C132.414 153.522 132.221 152.312 132.154 150.892C134.249 150.574 140.623 149.694 144.074 150.356C144.259 152.299 144.46 153.794 144.46 153.794Z" fill="black"/>
<path d="M144.807 206.564H144.648C143.429 206.61 136.502 206.564 136.502 206.564C136.4 206.458 136.305 206.346 136.217 206.229C135.605 205.462 135.2 204.551 135.043 203.583C134.885 202.614 134.979 201.622 135.316 200.7C136.573 197.278 136.711 190.996 136.711 190.996C136.711 190.996 137.201 189.392 136.782 188.483C136.364 187.574 136.64 186.179 136.64 186.179C136.576 185.628 136.435 185.088 136.221 184.575C135.874 183.738 136.292 182.201 136.292 182.201C136.244 180.711 136.009 179.234 135.593 177.803C134.965 175.989 130.358 154.42 131.476 151.835C131.476 151.835 141.247 150.16 144.95 151.417L144.46 168.17C144.46 168.17 142.713 173.196 144.179 174.523C145.645 175.851 144.25 179.968 144.25 179.968C144.25 179.968 144.041 180.735 145.297 183.319C146.554 185.903 145.297 187.088 145.297 187.088V192.043C145.297 192.043 144.321 195.394 145.435 198.116C146.549 200.838 145.297 206.476 144.807 206.564Z" fill="#3F3D56"/>
<path d="M163.985 141.977C163.345 143.17 163.592 147.3 163.881 150.353C164.065 152.297 164.266 153.792 164.266 153.792C164.266 153.792 154.143 156.933 152.61 154.211C152.221 153.52 152.028 152.309 151.961 150.889C151.751 146.701 152.61 140.666 152.61 140.666C152.61 140.666 152.191 131.384 151.982 130.475C151.869 129.985 151.672 125.311 151.517 121.119C151.387 117.542 151.282 114.309 151.282 114.309L165.104 116.445C165.104 116.445 165.104 122.522 164.932 128.767C164.781 134.823 164.501 141.03 163.985 141.977Z" fill="#FBBEBE"/>
<path opacity="0.1" d="M164.266 153.794C164.266 153.794 154.143 156.936 152.61 154.213C152.221 153.522 152.028 152.312 151.961 150.892C154.055 150.574 160.43 149.694 163.881 150.356C164.065 152.299 164.266 153.794 164.266 153.794Z" fill="black"/>
<path d="M164.614 206.563H164.455C163.236 206.609 156.308 206.563 156.308 206.563C156.207 206.457 156.112 206.345 156.023 206.228C155.411 205.461 155.007 204.55 154.849 203.582C154.691 202.613 154.786 201.621 155.123 200.699C156.379 197.261 156.505 190.978 156.505 190.978C156.505 190.978 156.995 189.374 156.576 188.465C156.157 187.557 156.434 186.162 156.434 186.162C156.37 185.61 156.229 185.07 156.015 184.558C155.667 183.72 156.086 182.183 156.086 182.183C156.038 180.694 155.803 179.216 155.387 177.785C154.759 175.972 150.151 154.402 151.27 151.818C151.27 151.818 161.041 150.142 164.743 151.399L164.253 168.152C164.253 168.152 162.507 173.178 163.973 174.506C165.439 175.833 164.044 179.951 164.044 179.951C164.044 179.951 163.835 180.717 165.091 183.301C166.348 185.885 165.091 187.071 165.091 187.071V192.025C165.091 192.025 164.115 195.376 165.229 198.099C166.343 200.821 165.104 206.475 164.614 206.563Z" fill="#3F3D56"/>
<path opacity="0.1" d="M150.951 30.3823C156.387 30.3823 160.794 25.9757 160.794 20.5398C160.794 15.1039 156.387 10.6973 150.951 10.6973C145.516 10.6973 141.109 15.1039 141.109 20.5398C141.109 25.9757 145.516 30.3823 150.951 30.3823Z" fill="black"/>
<path d="M150.951 29.9643C156.387 29.9643 160.794 25.5577 160.794 20.1218C160.794 14.6859 156.387 10.2793 150.951 10.2793C145.516 10.2793 141.109 14.6859 141.109 20.1218C141.109 25.5577 145.516 29.9643 150.951 29.9643Z" fill="#FBBEBE"/>
<path opacity="0.1" d="M131.476 123.773L145.297 116.443C145.297 116.443 145.297 117.817 145.272 119.932C143.253 121.138 140.208 122.952 137.281 124.665C135.689 125.599 134.135 126.504 132.803 127.262C132.494 127.43 132.17 127.57 131.836 127.681C131.652 125.842 131.476 123.773 131.476 123.773Z" fill="black"/>
<path opacity="0.1" d="M165.104 116.429C165.104 116.429 165.104 122.506 164.932 128.751H164.882C163.849 128.788 162.815 128.756 161.787 128.655C159.982 128.462 158.537 127.985 158.017 127.038C156.966 125.195 154.022 122.85 151.534 121.103C151.404 117.526 151.299 114.293 151.299 114.293L165.104 116.429Z" fill="black"/>
<path d="M162.532 63.1973C162.182 65.9236 162.114 68.6788 162.331 71.4189C168.681 76.6543 167.495 87.6821 167.495 87.6821C167.495 87.6821 172.383 110.023 171.336 112.045C170.289 114.068 173.707 126.495 173.707 126.495C170.794 127.047 167.844 127.386 164.882 127.509C163.849 127.545 162.815 127.513 161.787 127.412C159.981 127.22 158.537 126.742 158.017 125.796C156.065 122.378 147.618 117.281 147.618 117.281C147.618 117.281 142.265 120.489 137.281 123.408C135.689 124.342 134.135 125.247 132.804 126.005C131.723 126.578 130.528 126.906 129.306 126.964C123.38 127.404 115.485 123.693 116.741 122.378C118.279 120.77 125.889 92.5699 125.889 92.5699C125.889 92.5699 129.725 75.1172 133.076 72.6754C133.663 72.2317 134.102 71.6196 134.332 70.9205C135.48 67.7332 133.562 62.6235 133.562 62.6235C133.562 62.6235 122.743 49.2921 123.229 48.5215C123.715 47.7508 123.719 43.6379 123.719 43.6379C123.719 43.6379 125.047 37.1461 125.813 34.0048C126.58 30.8636 132.096 30.093 133.7 30.3736C135.304 30.6542 138.931 31.6301 140.464 30.3736C141.997 29.1171 144.585 30.8636 144.585 30.8636L150.943 32.6143L156.66 29.2637C156.66 29.2637 162.39 29.5569 162.88 30.3233C163.37 31.0898 170.909 32.5599 170.909 32.5599C174.745 35.1399 174.607 47.4283 174.607 47.4283C174.607 47.4283 165.393 55.4531 163.508 59.5744C163.02 60.7322 162.692 61.951 162.532 63.1973V63.1973Z" fill="#575A89"/>
<path d="M172.521 45.7285L174.615 47.4038L176.781 66.8795L178.942 86.4263C178.942 86.4263 179.78 88.3822 180.479 88.1728C181.178 87.9634 181.107 99.7576 181.107 99.7576C181.107 99.7576 173.091 94.828 170.218 101.374L167.981 85.5886C167.981 85.5886 165.116 69.4636 165.187 68.2071C165.259 66.9506 163.722 53.3387 163.722 53.3387L172.521 45.7285Z" fill="#575A89"/>
<path d="M124.775 46.6367L123.237 48.5215C123.237 48.5215 123.38 56.6174 122.19 58.5734C121.001 60.5293 125.474 71.976 127.149 71.2765C128.825 70.5771 132.594 52.7098 132.594 52.5003C132.594 52.2909 124.775 46.6367 124.775 46.6367Z" fill="#575A89"/>
<path d="M124.636 58.1543C124.636 58.1543 119.749 63.1091 120.096 65.4838C120.444 67.8586 125.122 75.318 131.824 71.3098C131.824 71.3098 138.039 59.6202 124.636 58.1543Z" fill="#575A89"/>
<path opacity="0.1" d="M144.648 206.579C143.429 206.625 136.502 206.579 136.502 206.579C136.4 206.473 136.305 206.361 136.217 206.244C137.989 205.641 141.817 204.736 144.648 206.579Z" fill="black"/>
<path opacity="0.1" d="M164.463 206.579C163.244 206.625 156.317 206.579 156.317 206.579C156.215 206.473 156.12 206.361 156.032 206.244C157.795 205.641 161.623 204.736 164.463 206.579Z" fill="black"/>
<path opacity="0.1" d="M137.775 83.8047C136.707 94.0493 137.059 114.379 137.281 123.409C135.689 124.343 134.135 125.248 132.804 126.006C131.723 126.579 130.529 126.907 129.306 126.965C128.862 124.234 135.011 96.1853 137.775 83.8047Z" fill="black"/>
<path opacity="0.1" d="M139.082 77.9902C139.053 78.1368 138.546 80.365 137.775 83.8036C138.077 80.8676 138.495 78.7609 139.082 77.9902Z" fill="black"/>
<path opacity="0.1" d="M156.086 76.8867C156.086 76.8867 162.021 114.163 144.447 118.77C144.443 118.753 156.606 116.906 156.086 76.8867Z" fill="black"/>
<path opacity="0.1" d="M164.882 127.509C163.849 127.546 162.815 127.514 161.787 127.413L157.045 76.4453C160.069 78.4222 163.688 114.592 164.882 127.509Z" fill="black"/>
<path opacity="0.1" d="M143.622 14.3301C143.937 14.3051 144.253 14.3378 144.556 14.4265C145 14.648 145.401 14.9489 145.737 15.3144C146.283 15.7708 146.936 16.0813 147.635 16.2168C148.334 16.3523 149.055 16.3084 149.733 16.0892C150.21 15.8757 150.717 15.7346 151.236 15.6704C152.036 15.6704 152.727 16.2567 153.142 16.9269C153.557 17.597 153.77 18.3928 154.126 19.109C154.482 19.8252 155.052 20.5037 155.835 20.6796C156.211 20.6942 156.58 20.7794 156.924 20.9309C157.135 21.1022 157.297 21.3261 157.393 21.5801C158.046 22.9915 158.566 24.6585 159.96 25.3496C160.474 25.5873 161.033 25.7089 161.598 25.7056C162.173 25.7478 162.749 25.644 163.273 25.404C163.789 25.1161 164.215 24.6914 164.505 24.1768C165.376 22.7361 165.476 20.9518 165.271 19.2807C165.016 17.1726 164.265 15.1547 163.081 13.3919C161.833 11.6091 160.135 10.1893 158.159 9.27756C156.184 8.36585 154.001 7.9949 151.835 8.20263C151.079 8.28767 150.33 8.42765 149.594 8.62146C146.931 9.33347 144.317 10.6654 142.7 12.8977C142.31 13.455 141.88 13.984 141.415 14.4809C142.148 14.4097 142.885 14.3469 143.622 14.3301Z" fill="black"/>
<path d="M143.622 13.9141C143.937 13.8891 144.253 13.9218 144.556 14.0104C145 14.232 145.401 14.5329 145.737 14.8984C146.283 15.3548 146.936 15.6653 147.635 15.8008C148.334 15.9363 149.055 15.8924 149.733 15.6732C150.21 15.4597 150.717 15.3186 151.236 15.2544C152.036 15.2544 152.727 15.8407 153.142 16.5109C153.557 17.181 153.77 17.9768 154.126 18.693C154.482 19.4092 155.052 20.0877 155.835 20.2636C156.211 20.2782 156.58 20.3634 156.924 20.5149C157.135 20.6862 157.297 20.9101 157.393 21.1641C158.046 22.5755 158.566 24.2425 159.96 24.9335C160.474 25.1713 161.033 25.2929 161.598 25.2895C162.173 25.3317 162.749 25.228 163.273 24.988C163.789 24.7 164.215 24.2754 164.505 23.7608C165.376 22.32 165.476 20.5358 165.271 18.8647C165.016 16.7565 164.265 14.7387 163.081 12.9759C161.833 11.1931 160.135 9.77325 158.159 8.86154C156.184 7.94983 154.001 7.57889 151.835 7.78662C151.079 7.87165 150.33 8.01163 149.594 8.20545C146.931 8.91746 144.317 10.2493 142.7 12.4817C142.31 13.039 141.88 13.568 141.415 14.0649C142.148 13.9937 142.885 13.9309 143.622 13.9141Z" fill="#3F3D56"/>
<path opacity="0.1" d="M132.942 37.3516C132.942 37.3516 133.432 41.2634 131.756 42.2393C130.081 43.2152 132.942 37.3516 132.942 37.3516Z" fill="black"/>
<path opacity="0.1" d="M168.471 67.6514C168.471 67.6514 172.45 61.7878 173.011 63.4631C173.572 65.1385 168.471 67.6514 168.471 67.6514Z" fill="black"/>
<path opacity="0.1" d="M168.752 69.5997C168.752 69.5997 172.676 64.7831 173.053 66.6679C173.43 68.5526 168.752 69.5997 168.752 69.5997Z" fill="black"/>
<path opacity="0.1" d="M157.226 63.8712C155.802 63.8913 154.413 63.4342 153.28 62.5728H152.937C151.762 63.6464 150.218 64.2268 148.627 64.1937C147.8 64.2129 146.977 64.0639 146.209 63.7558C145.441 63.4476 144.743 62.9868 144.158 62.4011H143.702C142.496 63.3832 140.981 63.9064 139.426 63.8781C137.871 63.8497 136.377 63.2715 135.208 62.2461L133.57 62.2168C133.57 62.2168 135.488 67.3265 134.341 70.5138L162.331 71.0122C162.114 68.2721 162.182 65.5169 162.532 62.7906V62.7529L160.995 62.7236C159.889 63.4904 158.571 63.8918 157.226 63.8712Z" fill="black"/>
<path opacity="0.1" d="M157.226 64.7032C155.802 64.7233 154.413 64.2662 153.28 63.4048H152.937C151.762 64.4784 150.218 65.0588 148.627 65.0257C147.8 65.0449 146.977 64.8959 146.209 64.5878C145.441 64.2797 144.743 63.8188 144.158 63.2331H143.702C142.496 64.2152 140.981 64.7385 139.426 64.7101C137.871 64.6817 136.377 64.1036 135.208 63.0781L133.57 63.0488C133.57 63.0488 135.488 68.1586 134.341 71.3459L162.331 71.8443C162.114 69.1041 162.182 66.3489 162.532 63.6226V63.5849L160.995 63.5556C159.889 64.3225 158.571 64.7238 157.226 64.7032Z" fill="black"/>
<path d="M157.226 64.2833C155.802 64.3034 154.413 63.8463 153.28 62.9849H152.937C151.762 64.0585 150.218 64.6389 148.627 64.6058C147.8 64.625 146.977 64.476 146.209 64.1679C145.441 63.8597 144.743 63.3989 144.158 62.8132H143.702C142.496 63.7953 140.981 64.3185 139.426 64.2902C137.871 64.2618 136.377 63.6836 135.208 62.6582L133.57 62.6289C133.57 62.6289 135.488 67.7386 134.341 70.9259L162.331 71.4243C162.114 68.6842 162.182 65.929 162.532 63.2027V63.165L160.995 63.1357C159.889 63.9026 158.571 64.3039 157.226 64.2833V64.2833Z" fill="#3F3D56"/>
<path opacity="0.1" d="M155.982 36.3594C155.982 36.3594 161.875 36.7363 161.912 37.574C161.95 38.4117 155.982 36.3594 155.982 36.3594Z" fill="black"/>
<path opacity="0.1" d="M141.666 32.7852C141.666 32.7852 135.773 33.1621 135.735 33.9998C135.698 34.8374 141.666 32.7852 141.666 32.7852Z" fill="black"/>
<path opacity="0.1" d="M164.186 49.9119C164.128 49.87 164.069 49.8365 164.011 49.7988C165.518 51.1558 165.267 54.1211 163.416 56.5671C161.565 59.0131 158.754 60.0309 157.045 58.9335C157.1 58.9796 157.146 59.0298 157.205 59.0759C158.88 60.3575 161.812 59.3523 163.747 56.8226C165.682 54.2929 165.87 51.1977 164.186 49.9119Z" fill="black"/>
<path opacity="0.1" d="M131.815 56.2557C130.324 53.5669 130.517 50.5974 132.205 49.4707C132.142 49.5 132.075 49.5251 132.012 49.5587C130.161 50.589 129.918 53.6758 131.451 56.4568C132.984 59.2378 135.748 60.6451 137.599 59.6315C137.66 59.5964 137.719 59.5572 137.775 59.5142C135.928 60.3519 133.306 58.9446 131.815 56.2557Z" fill="black"/>
<path opacity="0.1" d="M133.809 33.5777L133.268 34.4154L131.891 33.6824L132.615 32.5684C133.094 32.7949 133.506 33.1429 133.809 33.5777V33.5777Z" fill="black"/>
<path d="M125.055 64.5753C125.055 64.5753 126.282 58.8039 124.636 56.9694C122.99 55.1349 123.518 45.5186 126.031 45.728C128.544 45.9374 132.313 53.5434 131.685 55.1517C131.057 56.76 128.682 64.9942 128.682 64.9942L125.055 64.5753Z" fill="#FBBEBE"/>
<path opacity="0.1" d="M164.463 22.9374C164.173 23.452 163.747 23.8767 163.232 24.1646C162.707 24.4047 162.131 24.5084 161.556 24.4662C160.991 24.4695 160.432 24.3479 159.919 24.1102C158.524 23.4149 158.005 21.748 157.351 20.3407C157.269 20.0868 157.121 19.8588 156.924 19.6789C156.585 19.5247 156.22 19.4352 155.848 19.4151C155.064 19.2392 154.499 18.5565 154.139 17.8445C153.779 17.1325 153.565 16.3451 153.154 15.6624C152.744 14.9797 152.049 14.3807 151.249 14.4059C150.728 14.4749 150.221 14.6232 149.745 14.8456C149.068 15.0631 148.346 15.1057 147.647 14.9695C146.949 14.8333 146.296 14.5227 145.75 14.0666C145.413 13.7011 145.013 13.4002 144.568 13.1787C144.266 13.09 143.949 13.0574 143.634 13.0824C143.153 13.0824 142.675 13.1284 142.194 13.1661C141.955 13.479 141.699 13.7782 141.427 14.0624C142.16 13.9996 142.897 13.9368 143.634 13.92C143.949 13.895 144.266 13.9277 144.568 14.0164C145.013 14.2379 145.413 14.5388 145.75 14.9043C146.296 15.3604 146.949 15.671 147.647 15.8072C148.346 15.9434 149.068 15.9008 149.745 15.6833C150.221 15.4609 150.728 15.3126 151.249 15.2435C152.049 15.2435 152.74 15.8299 153.154 16.5C153.569 17.1702 153.783 17.9659 154.139 18.6821C154.495 19.3983 155.064 20.0768 155.848 20.2527C156.22 20.2729 156.585 20.3624 156.924 20.5166C157.135 20.6879 157.297 20.9118 157.393 21.1658C158.046 22.5772 158.566 24.2442 159.96 24.9353C160.474 25.173 161.033 25.2946 161.598 25.2913C162.173 25.3335 162.749 25.2297 163.273 24.9897C163.789 24.7018 164.215 24.2771 164.505 23.7625C165.155 22.5786 165.446 21.2309 165.342 19.8842C165.311 20.9597 165.008 22.0098 164.463 22.9374V22.9374Z" fill="black"/>
<path d="M126.911 69.1527C128.992 69.1527 130.68 68.0088 130.68 66.5978C130.68 65.1868 128.992 64.043 126.911 64.043C124.829 64.043 123.141 65.1868 123.141 66.5978C123.141 68.0088 124.829 69.1527 126.911 69.1527Z" fill="#575A89"/>
<path d="M82.5 167C128.063 167 165 130.063 165 84.5C165 38.9365 128.063 2 82.5 2C36.9365 2 0 38.9365 0 84.5C0 130.063 36.9365 167 82.5 167Z" fill="#6C63FF"/>
<path d="M125.513 125.748C125.513 138.57 105.169 126.843 83.3583 126.843C61.5476 126.843 39.4872 138.085 39.4872 125.264C39.4872 117.952 46.5182 107.784 56.6051 100.399C64.2048 94.8337 73.5371 90.8477 82.9119 90.8477C92.5523 90.8477 101.996 95.1628 109.529 101.087C119.037 108.556 125.513 118.592 125.513 125.748Z" fill="#444053"/>
<path d="M110 100.719C98.2601 99.0517 77.0271 97.0185 56.4103 100.057C64.1059 94.6908 73.556 90.8477 83.0491 90.8477C92.8086 90.8477 102.372 95.0081 110 100.719Z" fill="#F6F8FB"/>
<path opacity="0.05" d="M39.4872 25.9746C39.4872 25.9746 13.8945 41.9229 14.1038 66.8696C14.3131 91.8162 39.4872 25.9746 39.4872 25.9746Z" fill="black"/>
<path d="M53.2375 73.4275C54.8153 73.3394 62.2423 72.784 66.9597 70.1112C67.7174 69.6684 68.5732 69.4181 69.4515 69.3823C70.9514 69.3395 72.6771 69.9617 71.5723 73.4435C69.7821 79.139 59.3876 85.5473 52.9364 85.1922C46.7325 84.8504 39.3728 82.3672 34.5128 73.6358C34.0472 72.7958 33.8179 71.8467 33.8489 70.8882C33.9054 69.1259 34.5505 66.9177 37.8809 69.3796C42.3806 72.7039 50.9177 73.3341 52.63 73.4275C52.8323 73.4383 53.0351 73.4383 53.2375 73.4275V73.4275Z" fill="#444053"/>
<path d="M112.468 73.4275C114.046 73.3394 121.473 72.784 126.19 70.1112C126.948 69.6684 127.804 69.4181 128.682 69.3823C130.182 69.3395 131.908 69.9617 130.803 73.4435C129.013 79.139 118.618 85.5473 112.167 85.1922C105.963 84.8504 98.6035 82.3672 93.7436 73.6358C93.278 72.7958 93.0486 71.8467 93.0797 70.8882C93.1361 69.1259 93.7813 66.9177 97.1117 69.3796C101.611 72.7039 110.148 73.3341 111.861 73.4275C112.063 73.4383 112.266 73.4383 112.468 73.4275V73.4275Z" fill="#444053"/>
</svg>
