<svg width="180" height="190" viewBox="0 0 180 190" fill="none" xmlns="http://www.w3.org/2000/svg">
<path d="M157.818 81.5562C155.862 81.2334 150.787 76.7468 150.787 76.7468C150.787 76.7468 157.043 74.1405 158.997 74.4632C159.937 74.6179 160.777 75.1397 161.333 75.9139C161.888 76.6882 162.114 77.6513 161.959 78.5916C161.804 79.5319 161.282 80.3722 160.508 80.9277C159.734 81.4832 158.771 81.7084 157.831 81.5537L157.818 81.5562Z" fill="#6C63FF"/>
<path d="M142.718 73.5176C142.982 75.4736 147.305 80.6985 147.305 80.6985C147.305 80.6985 150.095 74.5249 149.831 72.5616C149.778 72.0859 149.631 71.6255 149.398 71.2074C149.165 70.7894 148.851 70.4221 148.474 70.1273C148.097 69.8324 147.665 69.616 147.203 69.4906C146.741 69.3652 146.259 69.3335 145.785 69.3972C145.311 69.461 144.854 69.6189 144.441 69.8618C144.029 70.1047 143.669 70.4276 143.384 70.8115C143.098 71.1954 142.892 71.6326 142.778 72.0973C142.663 72.5621 142.643 73.0449 142.718 73.5176V73.5176Z" fill="#6C63FF"/>
<path opacity="0.25" d="M157.818 81.5562C155.862 81.2334 150.787 76.7468 150.787 76.7468C150.787 76.7468 157.043 74.1405 158.997 74.4632C159.937 74.6179 160.777 75.1397 161.333 75.9139C161.888 76.6882 162.114 77.6513 161.959 78.5916C161.804 79.5319 161.282 80.3722 160.508 80.9277C159.734 81.4832 158.771 81.7084 157.831 81.5537L157.818 81.5562Z" fill="black"/>
<path opacity="0.25" d="M142.718 73.5176C142.982 75.4736 147.305 80.6985 147.305 80.6985C147.305 80.6985 150.095 74.5249 149.831 72.5616C149.778 72.0859 149.631 71.6255 149.398 71.2074C149.165 70.7894 148.851 70.4221 148.474 70.1273C148.097 69.8324 147.665 69.616 147.203 69.4906C146.741 69.3652 146.259 69.3335 145.785 69.3972C145.311 69.461 144.854 69.6189 144.441 69.8618C144.029 70.1047 143.669 70.4276 143.384 70.8115C143.098 71.1954 142.892 71.6326 142.778 72.0973C142.663 72.5621 142.643 73.0449 142.718 73.5176V73.5176Z" fill="black"/>
<path d="M154.549 75.5089C152.63 75.9979 146.166 73.9759 146.166 73.9759C146.166 73.9759 150.828 69.059 152.748 68.5602C153.669 68.3213 154.648 68.4582 155.468 68.9408C156.289 69.4234 156.884 70.2121 157.123 71.1336C157.362 72.0551 157.225 73.0337 156.742 73.8542C156.26 74.6747 155.471 75.27 154.549 75.5089V75.5089Z" fill="#6C63FF"/>
<path d="M145.029 59.3876C146.337 60.8766 152.826 62.8277 152.826 62.8277C152.826 62.8277 151.73 56.1406 150.422 54.6516C150.114 54.2899 149.736 53.9931 149.312 53.7786C148.887 53.564 148.424 53.436 147.95 53.4018C147.476 53.3677 146.999 53.4282 146.548 53.5797C146.098 53.7313 145.681 53.9709 145.324 54.2847C144.967 54.5985 144.675 54.9802 144.467 55.4076C144.258 55.835 144.137 56.2996 144.109 56.7744C144.082 57.2491 144.149 57.7247 144.307 58.1733C144.464 58.6219 144.71 59.0346 145.029 59.3876V59.3876Z" fill="#6C63FF"/>
<path d="M137.476 74.2829C138.513 75.97 144.579 78.9896 144.579 78.9896C144.579 78.9896 144.63 72.2145 143.601 70.525C143.088 69.7449 142.292 69.1951 141.381 68.9921C140.47 68.7892 139.516 68.9491 138.721 69.4379C137.926 69.9267 137.352 70.706 137.122 71.6105C136.892 72.515 137.023 73.4736 137.488 74.2829H137.476Z" fill="#6C63FF"/>
<path d="M130.356 21.5076C130.762 20.0186 131.251 18.5222 131.593 17.0137C131.183 18.5222 130.691 20.0235 130.356 21.5076Z" fill="url(#paint0_linear_1147_320)"/>
<path d="M75.1141 71.7616L73.6471 72.4096C73.6471 72.4096 64.0847 109.559 64.0847 112.561C64.0847 115.564 84.361 132.27 84.361 132.27L87.5248 110.916C87.5248 110.916 82.982 61.945 75.1141 71.7616Z" fill="#E8F5FF"/>
<path d="M119.591 59.946L111.119 55.5255C110.644 53.5026 109.802 51.584 108.635 49.8653C107.395 48.0756 105.747 46.3176 103.694 45.4007C98.5028 43.0731 125.65 30.8555 125.65 30.8555C126.077 32.3232 126.581 33.7676 127.158 35.1831C128.557 38.6354 130.877 43.1 133.867 44.3714C138.95 46.5352 119.591 59.946 119.591 59.946Z" fill="#FFC1C7"/>
<path opacity="0.1" d="M127.158 35.1831C125.998 39.2626 123.586 42.8746 120.262 45.509C116.939 48.1435 112.871 49.6673 108.635 49.8653C107.395 48.0756 105.747 46.3176 103.694 45.4007C98.5028 43.0731 125.65 30.8555 125.65 30.8555C126.077 32.3232 126.581 33.7676 127.158 35.1831V35.1831Z" fill="black"/>
<path d="M127.921 29.0138C127.922 33.0147 126.736 36.926 124.514 40.2531C122.292 43.5802 119.133 46.1736 115.437 47.7052C111.741 49.2369 107.674 49.638 103.749 48.8579C99.8254 48.0777 96.2207 46.1514 93.3915 43.3225C90.5622 40.4936 88.6355 36.8892 87.8549 32.9651C87.0743 29.0411 87.4749 24.9737 89.0061 21.2774C90.5373 17.5811 93.1303 14.4219 96.4571 12.1993C99.7839 9.97678 103.695 8.79075 107.696 8.79123C110.355 8.77893 112.991 9.29359 115.45 10.3055C117.909 11.3174 120.143 12.8064 122.024 14.6867C123.904 16.567 125.394 18.8012 126.406 21.2602C127.418 23.7193 127.933 26.3546 127.921 29.0138V29.0138Z" fill="#FFC1C7"/>
<path d="M130.84 57.3491L125.324 70.2196L120.459 78.7624H104.884L100.341 67.0827L102.183 54.9702H114.077L121.757 54.5374L124.351 53.6719L126.024 54.6205L130.84 57.3491Z" fill="#575A89"/>
<path opacity="0.1" d="M128.941 40.1928C128.941 40.1928 132.381 40.9263 129.3 43.4519C126.219 45.9776 115.591 54.0094 115.591 54.0094C115.591 54.0094 119.324 57.3346 118.552 61.2295L130.921 54.3346L133.121 43.3028C133.121 43.3028 133.368 39.9874 128.941 40.1928Z" fill="black"/>
<path opacity="0.1" d="M118.024 54.0098L110.156 55.3081C110.156 55.3081 111.779 61.3105 110.967 63.0147C110.943 63.0676 110.922 63.1224 110.906 63.1785L107.696 71.8558L110.102 78.67L118.429 67.313L115.591 63.0147C115.591 63.0147 118.591 59.0391 120.376 57.6601C122.161 56.2812 118.024 54.0098 118.024 54.0098Z" fill="black"/>
<path d="M118.024 53.6738L110.156 54.9697C110.156 54.9697 111.779 60.9721 110.967 62.6763C110.943 62.7293 110.922 62.784 110.906 62.8401L107.696 71.5174L110.102 78.3316L118.429 66.9673L115.591 62.669C115.591 62.669 118.591 58.6934 120.376 57.3144C122.161 55.9354 118.024 53.6738 118.024 53.6738Z" fill="#DCE6F2"/>
<path d="M129.271 39.5443C129.271 39.5443 132.711 40.2778 129.628 42.8035C126.544 45.3292 115.591 54.0089 115.591 54.0089C115.591 54.0089 119.647 56.6862 118.877 60.5786L131.246 53.6862L133.447 42.6544C133.447 42.6544 133.691 39.3389 129.271 39.5443Z" fill="#575A89"/>
<path opacity="0.1" d="M109.175 50.6309C109.175 50.6309 109.926 52.0343 113.239 54.5649C113.239 54.5649 107.723 57.4989 109.833 61.6236L101.395 59.4231L100.097 55.3668L109.175 50.6309Z" fill="black"/>
<path d="M108.85 50.3066C108.85 50.3066 109.601 51.7101 112.914 54.2406C112.914 54.2406 107.398 57.16 109.508 61.2969L101.072 59.0964L99.7742 55.0426L108.85 50.3066Z" fill="#575A89"/>
<path opacity="0.1" d="M130.84 57.3497L125.324 70.2202L120.469 78.763H104.884L100.341 67.0832L102.18 54.9707H105.488C105.434 57.7971 106.466 61.1174 106.4 62.3522C106.288 64.3815 109.427 75.3302 109.427 75.3302C109.427 75.3302 115.997 64.7042 118.591 63.758C120.222 63.1639 123.677 58.2201 126.021 54.6211L130.84 57.3497Z" fill="black"/>
<path d="M152.569 125.078L152.009 125.782C152.009 125.782 156.065 146.142 154.943 150.765C154.752 151.599 154.643 152.449 154.618 153.303V153.34C154.42 158.044 155.84 164.149 155.84 164.149C155.84 164.149 156.975 182.144 156.329 189.545H80.3829C79.9379 178.601 79.4587 164.423 79.8939 162.851C80.6274 160.257 82.0944 150.846 82.0944 150.846L82.2558 146.386C82.2558 146.386 82.2558 142.076 82.3878 137.274C82.4441 135.115 82.5272 132.848 82.647 130.838C82.801 128.31 83.0162 126.181 83.312 125.134C83.4943 124.341 83.5991 123.532 83.625 122.719C83.625 122.643 83.625 122.565 83.6397 122.486C83.6397 122.242 83.6641 121.978 83.6739 121.706C83.6739 121.631 83.6739 121.555 83.6739 121.462C83.7204 119.887 83.7032 118.019 83.6519 116.083C83.6519 115.978 83.6519 115.87 83.6519 115.763C83.6103 114.31 83.5492 112.829 83.4807 111.42C83.268 107.019 82.9917 103.298 82.9917 103.298L73.6641 72.3934L76.1775 66.2026L83.1531 61.9288L96.0505 54.1415C102.341 48.9703 106.483 49.5913 108.063 50.1586C108.216 50.2109 108.366 50.2721 108.513 50.342C108.561 50.3664 108.601 50.386 108.637 50.408C108.688 50.4318 108.736 50.4596 108.782 50.4911V50.4911C108.349 50.6992 107.973 51.0087 107.686 51.3933C107.363 51.831 107.132 52.3302 107.009 52.8603C106.926 53.1889 106.868 53.5231 106.835 53.8603C106.804 54.2148 106.791 54.5816 106.791 54.9508C106.809 55.7604 106.878 56.5681 106.999 57.3689C106.999 57.3835 106.999 57.4031 106.999 57.4227C107.08 57.9948 107.18 58.5547 107.278 59.0804C107.277 59.0893 107.277 59.0983 107.278 59.1073C107.39 59.721 107.503 60.2882 107.579 60.7772C107.593 60.8652 107.606 60.9459 107.618 61.0217C107.672 61.3448 107.697 61.6721 107.694 61.9997C107.721 62.7907 107.828 63.577 108.011 64.3469C108.075 64.6696 108.148 65.0144 108.229 65.3738C108.339 65.8628 108.459 66.3958 108.588 66.9386C108.659 67.2369 108.735 67.5449 108.813 67.8506C108.843 67.9728 108.874 68.0951 108.904 68.2197L108.953 68.4129C109.473 70.4838 110.038 72.5449 110.385 73.7919C110.591 74.5254 110.72 74.9777 110.72 74.9777C110.72 74.9777 114.403 69.0242 117.341 65.6354C117.385 65.5865 117.425 65.54 117.466 65.496C117.757 65.1611 118.043 64.8554 118.317 64.5865C118.916 63.9899 119.454 63.5645 119.887 63.408C119.979 63.3742 120.068 63.3324 120.153 63.2833C121.356 62.6012 123.297 60.1244 125.114 57.5302C125.293 57.2857 125.466 57.0192 125.642 56.7674C126.046 56.1855 126.437 55.6011 126.806 55.0412C127.09 54.6134 127.361 54.1977 127.618 53.8016C128.84 51.8994 129.701 50.4813 129.701 50.4813L131.398 50.4055L131.694 50.3909H131.892L139.596 50.0339C139.596 50.0339 139.928 50.0901 140.476 50.2001C140.505 50.2001 140.535 50.2001 140.566 50.2197C143.3 50.7625 150.894 52.4813 151.359 54.8652C151.926 57.7845 164.175 61.6794 164.175 61.6794C164.337 63.6354 167.337 64.9239 167.337 64.9239C167.337 64.9239 171.88 76.9288 170.664 81.633C169.464 86.2785 173.789 97.77 173.904 98.0927L173.075 99.1391L152.569 125.078Z" fill="#E8F5FF"/>
<path opacity="0.1" d="M128.938 39.3388C128.938 39.3388 136.437 37.2117 138.141 41.5906C139.845 45.9696 143.657 63.6543 143.657 63.6543C143.657 63.6543 133.76 65.5198 131.165 63.6543C129.644 62.5471 127.76 62.0547 125.892 62.2753L120.295 66.087L118.642 65.598C118.642 65.598 127.596 52.2875 129.542 47.7642C131.488 43.241 132.146 41.219 128.938 39.3388Z" fill="black"/>
<path d="M128.613 38.3603C128.613 38.3603 136.117 36.2331 137.828 40.6121C139.54 44.9911 143.344 62.6758 143.344 62.6758C143.344 62.6758 133.449 64.5413 130.852 62.6758C129.332 61.5685 127.449 61.076 125.581 61.2968L119.98 65.1085L118.327 64.6195C118.327 64.6195 127.28 51.309 129.227 46.7857C131.173 42.2625 131.821 40.2454 128.613 38.3603Z" fill="#E8F5FF"/>
<path opacity="0.1" d="M78.2778 108.912C78.2778 108.912 83.8744 110.291 84.9306 113.455C85.9869 116.619 80.7937 116.699 80.7937 116.699C80.7937 116.699 77.6299 111.103 78.2778 108.912Z" fill="black"/>
<path opacity="0.1" d="M99.1239 132.271C99.1239 132.271 85.4173 160.338 88.5811 163.015C91.7449 165.692 99.1239 132.271 99.1239 132.271Z" fill="black"/>
<path opacity="0.1" d="M118.024 111.588C118.024 111.588 128.975 138.85 126.784 143.06C124.593 147.27 131.488 143.06 131.488 143.06L118.024 111.588Z" fill="black"/>
<path d="M133.273 138.518C133.273 138.518 96.2852 140.302 107.075 151.821C117.865 163.339 140.007 152.31 140.007 152.31L133.273 138.518Z" fill="#FFC1C7"/>
<path opacity="0.1" d="M127.921 29.0136C127.924 31.6664 127.403 34.2938 126.388 36.7446C126.048 36.7838 125.708 36.8082 125.381 36.8229C124.892 35.7495 125.153 34.5099 125.163 33.329C125.173 32.1481 124.738 30.7593 123.601 30.4414C121.334 29.8033 119.769 34.0405 117.535 33.2752C115.823 32.6933 116.271 30.0967 115.285 28.5979C114.505 27.4121 112.943 27.0771 111.728 26.3339C109.143 24.7471 109.222 22.2091 108.021 19.8082C106.764 17.2923 104.109 18.0355 101.804 19.5197C100.053 20.6492 98.542 22.1627 96.6691 23.0625C95.0481 23.8449 93.2265 24.1285 91.4295 24.17C90.3231 24.2129 89.2164 24.096 88.1434 23.8228C89.4055 19.0781 92.3502 14.9543 96.4285 12.2205C100.507 9.48679 105.44 8.3297 110.309 8.96505C115.177 9.60039 119.648 11.9848 122.888 15.6736C126.129 19.3624 127.916 24.1038 127.919 29.0136H127.921Z" fill="black"/>
<path d="M101.811 18.872C100.058 20.0016 98.5493 21.5126 96.6764 22.4172C95.0554 23.1972 93.2338 23.4808 91.4368 23.5224C89.2363 23.5713 86.8671 23.185 85.3634 21.5957C83.982 20.1287 83.6519 17.872 84.2363 15.9478C84.8206 14.0236 86.2216 12.427 87.8671 11.2705C89.5126 10.114 91.4221 9.3145 92.5126 7.65924C93.0896 6.78393 93.3683 5.75214 93.8475 4.8206C95.3805 1.84015 98.828 0.226456 102.161 0.0259668C105.493 -0.174523 108.796 0.818145 111.97 1.89394C115.143 2.96974 118.341 4.15312 121.691 4.37561C123.183 4.46852 124.733 4.37561 126.117 4.94041C127.977 5.69591 129.197 7.50276 130.029 9.34139C130.96 11.4148 131.54 13.6788 131.442 15.9429C131.236 20.7766 128.043 25.5199 129.447 30.1507C129.818 31.3855 130.515 32.652 130.143 33.8867C129.601 35.6887 127.276 36.0994 125.395 36.185C124.906 35.1116 125.168 33.8696 125.178 32.6911C125.187 31.5126 124.752 30.1214 123.618 29.8036C121.349 29.1703 119.784 33.4001 117.554 32.6373C115.855 32.0529 116.295 29.4588 115.307 27.96C114.527 26.7718 112.963 26.4392 111.75 25.696C109.165 24.1092 109.244 21.5713 108.043 19.1703C106.777 16.6421 104.119 17.3854 101.811 18.872Z" fill="#99607E"/>
<path d="M65.9453 111.911L64.0798 112.561C64.0798 112.561 64.8133 123.593 62.3683 126.757C59.9233 129.92 70.3976 137.786 70.3976 137.786C70.3976 137.786 84.7547 137.705 85.1605 136.563C85.5664 135.422 84.427 116.123 84.427 116.123C84.427 116.123 76.7204 113.121 77.3683 108.336C77.3683 108.336 75.0162 119.61 71.5297 119.123C68.0431 118.637 64.0847 115.725 65.9453 111.911Z" fill="#E8F5FF"/>
<path opacity="0.1" d="M72.1677 122.538C74.886 122.538 77.0895 120.522 77.0895 118.036C77.0895 115.55 74.886 113.535 72.1677 113.535C69.4495 113.535 67.246 115.55 67.246 118.036C67.246 120.522 69.4495 122.538 72.1677 122.538Z" fill="black"/>
<path d="M77.5492 112.237C77.5492 112.237 76.5712 82.3884 68.0577 89.0388C59.5443 95.6892 59.4611 103.643 61.0822 105.992C62.7032 108.342 67.9013 120.105 67.9013 120.105C68.7143 120.576 69.6275 120.848 70.5659 120.898C71.5044 120.949 72.4413 120.776 73.3001 120.394C74.1589 120.012 74.915 119.433 75.5065 118.702C76.0981 117.972 76.5082 117.112 76.7032 116.193L77.5492 112.237Z" fill="#FFC1C7"/>
<path opacity="0.1" d="M130.657 36.631C130.617 36.4999 130.541 36.3828 130.437 36.2936C130.016 35.9097 129.112 35.7753 127.747 35.8926L127.804 36.5381C129.623 36.3816 129.982 36.7435 130.029 36.8046V36.8657L130.085 36.9464C130.312 37.2512 130.472 37.6001 130.556 37.9706C130.641 38.3411 130.647 38.7251 130.574 39.098C130.175 41.0907 127.728 42.6775 127.703 42.6946L127.645 42.7288L127.608 42.7851C126.552 44.3523 120.579 48.7753 119.016 49.9195L118.879 49.7631C118.18 50.3694 112.033 55.7509 111.701 57.812C111.486 59.1054 110.028 59.6066 109.5 59.746C108.943 59.323 107.134 57.8829 106.192 56.2692C105.31 54.7509 108.862 51.7875 109.175 50.631L108.686 50.1298C108.635 50.3156 104.072 54.5797 105.341 56.7582C106.359 58.5064 108.217 60.0027 108.867 60.4966C108.659 62.3841 107.366 73.4673 105.378 76.0932C102.909 79.3573 100.833 95.8072 101.063 101.55C101.266 106.653 99.9331 116.291 95.4832 120.431C94.7128 121.179 93.7834 121.743 92.7644 122.082C91.7454 122.421 90.663 122.525 89.5981 122.387H89.5443H89.4905C89.4269 122.387 82.9722 123.047 77.5492 118.475C73.1115 114.741 70.598 108.648 70.0748 100.36H69.9672L69.9232 97.9466C71.1264 97.7588 72.21 97.1119 72.9463 96.142C73.6826 95.172 74.0143 93.9544 73.8717 92.745C73.729 91.5356 73.1232 90.4286 72.1814 89.6565C71.2397 88.8844 70.0353 88.5074 68.8215 88.6047C67.6076 88.702 66.4786 89.266 65.6719 90.1782C64.8651 91.0904 64.4433 92.2797 64.4951 93.4964C64.5469 94.7131 65.0682 95.8623 65.9496 96.7027C66.831 97.543 68.0037 98.009 69.2215 98.0028H69.2753L69.3193 100.401L69.1041 100.416C69.642 108.973 72.2826 115.304 76.9281 119.213C80.459 122.139 84.9692 123.615 89.5467 123.343C89.8715 123.378 90.198 123.396 90.5247 123.397C92.6229 123.407 94.6418 122.595 96.1482 121.135C100.835 116.771 102.261 106.778 102.038 101.502C101.794 95.416 103.972 79.5578 106.158 76.6702C108.3 73.8365 109.598 62.7949 109.826 60.6555C110.601 60.4379 112.354 59.7509 112.652 57.966C112.867 56.6751 116.972 52.6971 119.498 50.4941L119.422 50.4061C120.782 49.4134 125.009 46.2838 127.104 44.2741C127.755 43.6506 128.4 43.0271 129.075 42.433C129.887 41.7141 130.918 40.5723 131.19 39.2227C131.282 38.7772 131.283 38.3175 131.191 37.8718C131.1 37.4261 130.918 37.0038 130.657 36.631V36.631Z" fill="black"/>
<path d="M108.784 60.3426C108.681 60.2717 106.246 58.5284 105.026 56.4306C103.76 54.2521 108.322 49.9905 108.371 49.8047L108.86 50.3059C108.549 51.46 104.997 54.4257 105.879 55.9416C106.992 57.8561 109.334 59.5309 109.359 59.548L108.784 60.3426Z" fill="#353146"/>
<path d="M118.698 50.3929L118.317 49.8672C118.395 49.811 126.075 44.2559 127.285 42.4589L127.324 42.4051L127.381 42.3684C127.405 42.3513 129.852 40.7669 130.251 38.7718C130.325 38.3993 130.319 38.0155 130.235 37.6453C130.15 37.2751 129.989 36.9267 129.762 36.6227L129.706 36.5395V36.4809C129.657 36.4173 129.297 36.0579 127.478 36.2144L127.422 35.5664C128.789 35.4491 129.691 35.5836 130.112 35.9674C130.216 36.0575 130.293 36.1753 130.334 36.3073C130.599 36.679 130.784 37.101 130.879 37.5471C130.974 37.9933 130.977 38.4542 130.887 38.9014C130.615 40.2535 129.586 41.3953 128.772 42.1117C128.099 42.7058 127.451 43.3342 126.804 43.9528C124.346 46.3073 118.967 50.1997 118.698 50.3929Z" fill="#E8F5FF"/>
<path d="M69.6078 97.0936L68.96 97.1055L69.0321 101.044L69.68 101.032L69.6078 97.0936Z" fill="#E8F5FF"/>
<path d="M68.9061 97.6906C71.519 97.6906 73.6372 95.5725 73.6372 92.9596C73.6372 90.3467 71.519 88.2285 68.9061 88.2285C66.2932 88.2285 64.175 90.3467 64.175 92.9596C64.175 95.5725 66.2932 97.6906 68.9061 97.6906Z" fill="#6C63FF"/>
<path d="M68.9062 96.8895C71.0762 96.8895 72.8353 95.1303 72.8353 92.9604C72.8353 90.7904 71.0762 89.0312 68.9062 89.0312C66.7362 89.0312 64.9771 90.7904 64.9771 92.9604C64.9771 95.1303 66.7362 96.8895 68.9062 96.8895Z" fill="#E8F5FF"/>
<path d="M90.2167 123.08C89.89 123.081 89.5635 123.064 89.2387 123.029C84.6615 123.298 80.1523 121.823 76.6201 118.899C71.9746 114.987 69.3389 108.665 68.7961 100.1L69.7741 100.039C70.2973 108.327 72.8108 114.423 77.2509 118.154C82.6739 122.713 89.1262 122.066 89.1898 122.066H89.2436H89.2974C90.3626 122.203 91.4451 122.098 92.4644 121.76C93.4837 121.421 94.4136 120.857 95.1849 120.11C99.6324 115.97 100.965 106.332 100.762 101.229C100.517 95.4811 102.593 79.0312 105.065 75.7696C107.229 72.9114 108.571 60.0287 108.586 59.8991L108.623 59.5324L108.984 59.4688C109.006 59.4688 111.119 59.0678 111.383 57.4884C111.725 55.4297 117.862 50.0483 118.559 49.4395L119.197 50.173C116.662 52.3734 112.557 56.3539 112.351 57.6473C112.053 59.437 110.3 60.1216 109.527 60.3368C109.283 62.4786 107.994 73.5178 105.86 76.3515C103.674 79.239 101.495 95.0973 101.74 101.183C101.95 106.459 100.539 116.454 95.8524 120.816C94.3432 122.28 92.3194 123.093 90.2167 123.08Z" fill="#353146"/>
<g opacity="0.1">
<path opacity="0.1" d="M130.004 23.2341C130.405 21.7524 130.889 20.261 131.227 18.7598C130.823 20.2683 130.337 21.7524 130.004 23.2341Z" fill="black"/>
<path opacity="0.1" d="M125.914 34.8774C125.425 33.8041 125.686 32.562 125.696 31.3835C125.706 30.205 125.271 28.826 124.136 28.496C121.867 27.8627 120.302 32.095 118.073 31.3297C116.361 30.7454 116.813 28.1512 115.826 26.6524C115.046 25.4642 113.483 25.1317 112.271 24.3884C109.684 22.8016 109.762 20.2637 108.564 17.8627C107.305 15.3443 104.652 16.0876 102.344 17.5742C100.591 18.7038 99.0823 20.2172 97.2094 21.1194C95.5884 21.8994 93.7668 22.183 91.9698 22.2246C89.7815 22.2759 87.4001 21.8872 85.8964 20.2979C84.7375 19.0754 84.3194 17.2832 84.559 15.6035C84.5174 15.7184 84.4807 15.8333 84.4441 15.9483C83.8573 17.8725 84.1996 20.1341 85.5712 21.5962C87.0749 23.1854 89.4563 23.5718 91.6446 23.5229C93.4441 23.4813 95.2632 23.1977 96.8866 22.4177C98.7644 21.5131 100.273 20.0021 102.021 18.8725C104.329 17.3859 106.984 16.6426 108.241 19.161C109.439 21.562 109.363 24.0999 111.948 25.6867C113.17 26.4202 114.723 26.7625 115.505 27.9507C116.483 29.4544 116.051 32.0437 117.752 32.628C119.98 33.3909 121.544 29.161 123.813 29.7943C124.948 30.1121 125.386 31.5058 125.373 32.6818C125.361 33.8578 125.107 35.1023 125.591 36.1757C127.471 36.0901 129.796 35.6867 130.342 33.8774C130.417 33.6177 130.451 33.3481 130.444 33.0779C129.65 34.4495 127.606 34.8016 125.914 34.8774Z" fill="black"/>
</g>
<path opacity="0.1" d="M170.102 95.121L172.941 98.1234C172.941 98.1234 175.212 114.669 176.347 116.216C177.481 117.764 180.161 123.921 177.645 128.544C177.645 128.544 176.833 131.06 177.32 132.114C177.806 133.168 173.672 138.441 173.672 138.441C173.672 138.441 168.236 143.307 167.1 144.038C165.963 144.769 159.963 150.608 157.936 150.688C155.909 150.769 155.246 153.285 155.246 153.285L143.809 153.691C143.809 153.691 137.491 153.361 136.117 154.253C136.117 154.253 136.85 144.6 129.791 138.273L138.794 135.028C138.794 135.028 142.202 133.561 143.256 132.028C143.919 131.088 144.859 130.38 145.945 130.001C145.945 130.001 148.459 128.216 148.54 127.243C148.62 126.27 151.613 125.077 151.613 125.077L149.919 110.615L150.811 86.6051C150.811 86.6051 153.65 66.4876 159.652 67.6246C165.655 68.7615 170.102 95.121 170.102 95.121Z" fill="black"/>
<path d="M171.08 95.121L173.919 98.1234C173.919 98.1234 176.19 114.669 177.325 116.216C178.459 117.764 181.139 123.921 178.623 128.544C178.623 128.544 177.814 131.06 178.3 132.114C178.787 133.168 174.65 138.441 174.65 138.441C174.65 138.441 169.214 143.307 168.078 144.038C166.941 144.769 160.941 150.608 158.914 150.688C156.887 150.769 156.224 153.285 156.224 153.285L144.787 153.691C144.787 153.691 138.464 153.361 137.095 154.253C137.095 154.253 137.828 144.6 130.769 138.273L139.772 135.028C139.772 135.028 143.18 133.561 144.234 132.028C144.897 131.088 145.837 130.38 146.923 130.001C146.923 130.001 149.437 128.216 149.518 127.243C149.598 126.27 152.591 125.077 152.591 125.077L150.897 110.615L151.789 86.6051C151.789 86.6051 154.628 66.4876 160.63 67.6246C166.633 68.7615 171.08 95.121 171.08 95.121Z" fill="#E8F5FF"/>
<path opacity="0.1" d="M160.527 119.375C160.527 119.375 168.882 117.175 171.073 119.864C173.263 122.554 160.527 119.375 160.527 119.375Z" fill="black"/>
<path opacity="0.1" d="M158.581 123.064C161.42 125.052 170.18 125.133 170.18 125.133L158.581 123.064Z" fill="black"/>
<path opacity="0.1" d="M162.88 133.002C163.124 133.083 168.902 139.249 171.327 137.383C173.752 135.518 162.88 133.002 162.88 133.002Z" fill="black"/>
<path opacity="0.1" d="M85.0699 81.252C85.0699 81.252 86.7668 92.9341 85.9306 97.6921C85.0944 102.45 88.1458 108.345 88.1458 108.345L85.0699 81.252Z" fill="black"/>
<path d="M47.505 86.001C45.5491 87.534 44.1212 91.1624 43.0869 95.1501C41.2825 102.106 40.6933 110.172 40.6933 110.172C40.6933 110.172 25.1187 106.603 26.2532 104.981C26.9671 103.962 26.0087 96.2797 25.2091 90.71C24.7324 87.4191 24.3069 84.8641 24.3069 84.8641C24.3069 84.8641 52.8596 81.7809 47.505 86.001Z" fill="#FFCCD0"/>
<path opacity="0.1" d="M47.505 85.6757C45.5491 87.2112 44.1212 90.8371 43.0869 94.8249C39.9839 95.7671 36.6837 95.8521 33.5362 95.0708C30.3888 94.2896 27.5114 92.6712 25.2091 90.3872C24.7324 87.0938 24.3069 84.5388 24.3069 84.5388C24.3069 84.5388 52.8596 81.4581 47.505 85.6757Z" fill="black"/>
<path d="M55.8768 76.9376C55.8784 81.1902 54.3755 85.3063 51.6341 88.5574C48.8927 91.8085 45.0896 93.9849 40.8978 94.7015C36.7059 95.4182 32.3958 94.6287 28.73 92.473C25.0643 90.3172 22.2794 86.9342 20.8682 82.9225C19.457 78.9109 19.5104 74.5293 21.0192 70.5533C22.5279 66.5773 25.3945 63.2633 29.1118 61.1976C32.829 59.132 37.1572 58.448 41.3303 59.2667C45.5033 60.0854 49.2522 62.3541 51.9134 65.6711C54.4779 68.8663 55.876 72.8405 55.8768 76.9376V76.9376Z" fill="#FFCCD0"/>
<path opacity="0.1" d="M70.0773 189.544H64.9428L64.51 180.476L64.0577 171.09C64.0577 171.09 65.2239 170.916 67.0821 170.657L67.8327 170.557H67.8939C68.2997 172.461 68.7007 174.417 69.087 176.371C69.73 179.839 70.0647 183.357 70.087 186.884C70.087 187.129 70.087 187.373 70.087 187.603C70.1017 188.256 70.087 188.909 70.0773 189.544Z" fill="black"/>
<path d="M69.0919 189.545H4.70056C4.97929 188.911 5.16511 188.527 5.16511 188.527C5.16511 188.527 10.3167 165.989 12.9353 156.454C12.9361 156.446 12.9361 156.438 12.9353 156.43C13.2625 155.134 13.6575 153.857 14.1187 152.603V152.603C14.1485 152.518 14.187 152.436 14.2336 152.359C15.5294 150.251 17.1529 147.98 14.8815 144.735C12.6101 141.491 13.4145 127.214 13.4145 127.214C13.4145 127.214 16.1725 115.046 19.0918 108.557C19.5348 107.551 20.1636 106.639 20.9451 105.867C21.1992 105.618 21.4704 105.388 21.7568 105.178V105.178C21.9746 105.014 22.2015 104.863 22.4365 104.725L22.483 104.696C23.7094 104.001 25.0712 103.578 26.4757 103.456C27.4734 103.352 28.4804 103.38 29.4708 103.539C34.2043 104.234 37.994 105.395 41.0063 106.718C49.1701 110.305 51.642 115.112 51.6909 115.212L51.7105 115.253C52.0381 116.019 56.8303 127.207 58.5564 132.427C59.0039 133.786 59.2484 134.742 59.1506 135.004C58.6616 136.3 62.8816 152.522 62.8816 152.522C62.8816 152.522 64.8376 160.346 66.7936 169.518C66.8792 169.899 66.9599 170.28 67.0381 170.667C67.3878 172.332 67.735 174.029 68.0699 175.723C68.7189 179.215 69.0536 182.758 69.0699 186.31C69.1058 187.417 69.1131 188.495 69.0919 189.545Z" fill="#A5AFED"/>
<path opacity="0.1" d="M26.0918 97.8776C26.0918 97.8776 21.6493 96.1661 21.7031 98.7627C21.7569 101.359 22.7862 102.601 22.461 102.98C22.1358 103.359 22.6224 105.631 22.6224 105.631C22.6224 105.631 28.6248 105.631 31.3828 106.873C34.1408 108.115 44.307 110.604 45.6053 111.362C46.9036 112.12 51.7178 115.518 51.7178 115.518L52.1506 109.083C52.1506 109.083 47.175 104.973 39.0112 102.865C30.8473 100.758 26.0918 97.8776 26.0918 97.8776Z" fill="black"/>
<path d="M26.0918 97.5515C26.0918 97.5515 21.6493 95.84 21.7031 98.4366C21.7569 101.033 22.7862 102.275 22.461 102.654C22.1358 103.033 22.6224 105.305 22.6224 105.305C22.6224 105.305 28.6248 105.305 31.3828 106.549C34.1408 107.794 44.307 110.28 45.6053 111.036C46.9036 111.791 51.7178 115.192 51.7178 115.192L52.1555 108.776C52.1555 108.776 47.1799 104.666 39.0161 102.559C30.8522 100.451 26.0918 97.5515 26.0918 97.5515Z" fill="#A5AFED"/>
<path opacity="0.1" d="M39.5027 113.039C39.5027 113.039 47.9917 122.23 47.5589 124.775C47.1262 127.32 39.5027 113.039 39.5027 113.039Z" fill="black"/>
<path opacity="0.1" d="M25.7129 146.24C25.7129 146.24 19.4904 151.974 17.6566 152.299C15.8229 152.624 19.0625 153.705 21.1701 152.842C23.2777 151.979 27.7716 149.707 27.7716 149.707L25.7129 146.24Z" fill="black"/>
<path d="M71.6201 189.545H57.109C55.0797 187.785 53.1603 186.154 51.9378 185.174C49.9819 183.604 48.5711 181.293 47.6713 179.435C47.4684 179.012 47.2924 178.616 47.1432 178.257C46.8762 177.638 46.6411 177.005 46.4391 176.362L57.1848 169.98C57.7787 170.485 58.3367 171.031 58.8547 171.614L58.9843 171.763C59.5809 172.467 60.1066 173.267 60.153 173.922C60.2068 174.685 62.3291 177.636 64.4978 180.469C66.6983 183.352 68.9526 186.108 69.1017 186.293C69.1017 186.293 69.4733 186.8 70.0797 187.577C70.5076 188.139 71.0357 188.814 71.6201 189.545Z" fill="#FFCCD0"/>
<path opacity="0.1" d="M51.9134 65.6719C51.3976 66.8357 50.9355 68.0435 50.867 69.3394C50.6738 73.0802 50.9868 81.4445 46.845 83.3223C44.7936 84.2465 42.598 82.2171 40.3486 82.1682C38.73 82.134 37.2459 83.1609 36.2582 84.4445C35.2704 85.7282 34.6567 87.2514 33.9403 88.7037C33.2882 90.0219 32.537 91.2888 31.6934 92.4935C31.4412 92.8621 31.1634 93.2126 30.8621 93.5424C28.3365 92.4767 26.0876 90.8486 24.2866 88.7821C22.4856 86.7156 21.1801 84.2652 20.4695 81.6178C19.759 78.9703 19.6621 76.1956 20.1863 73.505C20.7106 70.8144 21.842 68.279 23.4946 66.092C25.1471 63.905 27.277 62.124 29.7221 60.8848C32.1672 59.6456 34.8628 58.9809 37.6037 58.9413C40.3446 58.9018 43.0583 59.4883 45.5382 60.6564C48.018 61.8245 50.1985 63.5432 51.9134 65.6816V65.6719Z" fill="black"/>
<path d="M50.5418 68.6798C50.3462 72.4206 50.6616 80.7849 46.5173 82.6603C44.466 83.5845 42.2703 81.5576 40.021 81.5087C38.4024 81.472 36.9207 82.5013 35.9305 83.7825C34.9402 85.0637 34.3315 86.5894 33.6126 88.0441C32.9603 89.3623 32.2092 90.6291 31.3657 91.8339C30.862 92.5478 30.3045 93.2642 29.5295 93.6652C28.1798 94.3693 26.5441 93.9732 25.0967 93.5209C23.2189 92.9292 21.3689 92.2626 19.5466 91.5209C19.5884 91.2458 19.6096 90.9679 19.6101 90.6896C19.5563 90.7923 19.4977 90.8877 19.439 90.9904L19.3241 91.1908C19.1163 91.5576 18.9133 91.9243 18.7275 92.3009C18.6566 92.4451 18.5881 92.5943 18.527 92.7434C18.2811 93.2985 18.1267 93.8896 18.0698 94.494C17.9451 96.1248 18.7495 97.6725 19.4634 99.1395C22.2092 104.814 23.906 111.45 21.84 117.404C20.9451 119.993 19.395 122.294 18.2629 124.795C16.2841 129.225 15.7016 134.153 16.593 138.922C17.1578 141.885 18.2898 144.819 18.0111 147.824C17.5221 152.995 13.0624 156.844 8.59544 159.489C6.18223 160.912 3.22867 162.179 0.666321 161.054C2.29958 159.147 2.72012 156.509 3.0722 154.02C4.03553 147.231 5.0013 140.439 5.96952 133.643C6.35583 130.939 6.74132 128.235 7.126 125.531C7.84482 120.45 8.57344 115.313 8.12356 110.201C7.79593 106.433 6.87172 102.433 8.50498 99.0222C9.36806 97.2153 10.906 95.719 11.3852 93.7728C11.7788 92.1908 11.4121 90.5087 11.6712 88.8974C11.8131 88.1644 12.0532 87.4538 12.3852 86.785C12.8079 85.8774 13.3596 85.0357 14.0233 84.2862C13.3681 84.0955 12.7568 83.8339 12.3852 83.2862C13.4365 82.6016 13.5955 81.0588 13.1187 79.8999C12.6419 78.7409 11.6884 77.8583 10.8302 76.9439C9.97197 76.0294 9.14556 74.9634 9.03798 73.7165C8.83016 71.3424 11.2018 69.5037 11.6199 67.1614C12.0429 64.7776 10.3705 62.4597 10.505 60.0465C10.6615 57.1296 13.3412 55.0098 15.9867 53.78C19.9788 51.9319 24.3888 51.1728 28.7691 51.5795C32.3339 51.9169 35.7838 53.0196 39.3388 53.4475C41.4831 53.692 43.6567 53.7164 45.7862 54.0929C47.9158 54.4695 50.0503 55.2641 51.5491 56.8264C55.5002 60.9463 50.7667 64.3375 50.5418 68.6798Z" fill="#FFE0D0"/>
<path opacity="0.1" d="M47.2362 179.437C45.9893 178.897 43.7203 179.22 39.8254 178.034C35.9305 176.848 35.1799 171.489 35.1799 171.489V171.471C35.1335 171.349 34.7716 170.552 32.3217 167.76C29.6151 164.677 23.7643 149.105 23.7643 149.105C23.7643 149.105 18.576 143.532 18.7398 141.479C18.9036 139.425 17.818 133.96 17.9256 127.848C18.0332 121.735 29.6053 117.682 29.6053 117.682C51.8866 113.733 46.6396 139.42 46.0455 141.366C45.4513 143.312 48.5345 148.569 48.5345 148.569C48.0993 150.858 50.3193 154.4 50.3193 154.4C50.3193 154.4 50.8572 157.535 50.9673 158.726C50.9734 158.781 50.9857 158.835 51.0039 158.887C51.3609 160.009 54.2704 161.026 55.4538 161.645C56.6983 162.295 60.7008 167.973 60.7008 167.973C61.5639 172.141 48.4783 179.985 47.2362 179.437Z" fill="black"/>
<path d="M47.8841 178.46C46.6396 177.917 44.3682 178.243 40.4757 177.054C36.5833 175.866 35.8303 170.511 35.8303 170.511V170.494C35.7862 170.37 35.4219 169.575 32.9721 166.783C30.2655 163.7 24.4146 148.125 24.4146 148.125C24.4146 148.125 19.2263 142.555 19.3877 140.502C19.549 138.448 18.4684 132.983 18.5759 126.876C18.6835 120.768 30.2483 116.717 30.2483 116.717C52.5296 112.768 47.2826 138.455 46.6885 140.401C46.0943 142.348 49.1775 147.604 49.1775 147.604C48.7423 149.893 50.9623 153.436 50.9623 153.436C50.9623 153.436 51.5002 156.57 51.6127 157.761C51.6168 157.816 51.6283 157.87 51.6469 157.922C52.0039 159.044 54.9134 160.062 56.0993 160.68C57.3413 161.328 61.3462 167.008 61.3462 167.008C62.2142 171.169 49.1286 179.013 47.8841 178.46Z" fill="#A5AFED"/>
<path opacity="0.1" d="M30.6884 130.127C30.6884 130.127 40.4219 140.396 42.9623 140.396C45.5026 140.396 30.6884 130.127 30.6884 130.127Z" fill="black"/>
<path d="M47.8841 178.46C46.6396 177.917 44.3682 178.242 40.4758 177.054C36.5834 175.866 35.8303 170.511 35.8303 170.511V170.494C38.4098 168.783 44.9428 163.949 47.5174 162.181C49.3291 160.941 50.8084 159.12 51.6739 157.912C52.0309 159.034 54.9404 160.051 56.1262 160.67C57.3683 161.318 61.3732 166.998 61.3732 166.998C62.2143 171.169 49.1287 179.012 47.8841 178.46Z" fill="#A5AFED"/>
<g opacity="0.1">
<path opacity="0.1" d="M12.3998 83.3114C12.4121 83.3309 12.4292 83.348 12.4438 83.3676C12.5172 83.2747 12.593 83.1818 12.6712 83.0938C12.5879 83.1748 12.497 83.2476 12.3998 83.3114V83.3114Z" fill="black"/>
<path opacity="0.1" d="M18.0722 94.5202C18.1749 93.1632 18.9011 91.9676 19.5808 90.7745C19.1358 90.6033 18.6908 90.4297 18.2507 90.2488C18.2926 89.9745 18.3139 89.6974 18.3143 89.4199C17.6272 90.6424 16.8791 91.8454 16.7739 93.2219C16.6493 94.8551 17.4537 96.4004 18.1676 97.8674C20.9158 103.54 22.6101 110.175 20.5441 116.131C19.6468 118.718 18.0991 121.021 16.9671 123.523C14.9889 127.952 14.4073 132.879 15.2996 137.647C15.8595 140.613 16.994 143.545 16.7153 146.55C16.2263 151.721 11.769 155.569 7.2996 158.212C5.47318 159.293 3.3387 160.283 1.29713 160.212C1.10815 160.517 0.897327 160.807 0.666321 161.08C3.23112 162.212 6.18223 160.938 8.59544 159.511C13.0673 156.87 17.5343 153.031 18.0233 147.85C18.3021 144.846 17.1676 141.914 16.6052 138.948C15.7126 134.18 16.2925 129.254 18.2678 124.823C19.3925 122.325 20.9573 120.019 21.8449 117.432C23.9109 111.476 22.2141 104.841 19.4683 99.1681C18.7568 97.6913 17.9475 96.1534 18.0722 94.5202Z" fill="black"/>
<path opacity="0.1" d="M51.5442 56.8545C51.3037 56.6078 51.0455 56.379 50.7716 56.1699C53.7349 60.0135 49.4562 63.28 49.2435 67.4169C49.0528 71.1577 49.3657 79.5245 45.2214 81.3974C43.1725 82.324 40.9745 80.2947 38.7275 80.2458C37.1065 80.2116 35.6249 81.2409 34.6346 82.5221C33.6444 83.8032 33.0356 85.3289 32.3192 86.7813C31.6657 88.0992 30.9138 89.366 30.0698 90.571C29.5808 91.2874 29.0087 92.0013 28.2312 92.4047C26.8864 93.1065 25.2507 92.7128 23.8009 92.258C22.3909 91.8147 20.994 91.3257 19.6101 90.791C19.6073 91.0457 19.586 91.2998 19.5466 91.5514C21.3705 92.2947 23.2214 92.9614 25.0991 93.5514C26.5466 94.0062 28.1823 94.3999 29.5295 93.6981C30.3045 93.2947 30.8669 92.5783 31.3681 91.862C32.2126 90.6587 32.9638 89.3926 33.6151 88.0747C34.3339 86.6223 34.9403 85.0942 35.9329 83.813C36.9256 82.5318 38.4048 81.505 40.0234 81.5392C42.2728 81.5881 44.4708 83.6174 46.5197 82.6908C50.664 80.8179 50.3486 72.4511 50.5418 68.7103C50.7667 64.3607 55.5002 60.9719 51.5442 56.8545Z" fill="black"/>
</g>
<path opacity="0.1" d="M19.3265 91.1923C19.1187 91.559 18.9157 91.9258 18.7299 92.3023C18.659 92.4466 18.5906 92.5957 18.5294 92.7449C17.2483 91.4539 14.1284 88.3854 12.3876 87.4343C12.8109 86.5271 13.3626 85.6855 14.0257 84.9355C14.0257 84.9355 18.1749 87.1287 19.3265 91.1923Z" fill="black"/>
<path d="M19.4414 90.9913C18.4805 86.6416 14.0257 84.2871 14.0257 84.2871C13.362 85.0367 12.8103 85.8783 12.3876 86.7859C14.2238 87.7908 17.6077 91.16 18.7299 92.3018L19.4414 90.9913Z" fill="#A5AFED"/>
<defs>
<linearGradient id="paint0_linear_1147_320" x1="130.975" y1="21.5076" x2="130.975" y2="17.0137" gradientUnits="userSpaceOnUse">
<stop stop-color="#808080" stop-opacity="0.25"/>
<stop offset="0.54" stop-color="#808080" stop-opacity="0.12"/>
<stop offset="1" stop-color="#808080" stop-opacity="0.1"/>
</linearGradient>
</defs>
</svg>
