<svg width="1920" height="59" viewBox="0 0 1920 59" fill="none" xmlns="http://www.w3.org/2000/svg">
<path d="M0 9.17507L35.6 12.477C71.0667 15.6556 142.667 22.4447 213.333 17.4146C284.4 12.5696 356 -4.09456 426.667 0.935557C497.733 5.78051 569.333 32.3198 640 38.8003C711.067 45.2808 782.667 32.3198 853.333 23.9877C924.4 15.6556 996 12.5696 1066.67 12.477C1137.73 12.5696 1209.33 15.6556 1280 23.9877C1351.07 32.3198 1422.67 45.2808 1493.33 40.4358C1564.4 35.4057 1636 12.5696 1706.67 5.87309C1777.73 -0.700002 1849.33 9.17507 1884 14.1126L1920 19.0501V58.5504H1884.4C1848.93 58.5504 1777.33 58.5504 1706.67 58.5504C1635.6 58.5504 1564 58.5504 1493.33 58.5504C1422.27 58.5504 1350.67 58.5504 1280 58.5504C1208.93 58.5504 1137.33 58.5504 1066.67 58.5504C995.6 58.5504 924 58.5504 853.333 58.5504C782.267 58.5504 710.667 58.5504 640 58.5504C568.933 58.5504 497.333 58.5504 426.667 58.5504C355.6 58.5504 284 58.5504 213.333 58.5504C142.267 58.5504 70.6667 58.5504 36 58.5504H0V9.17507Z" fill="#A5AFED"/>
</svg>
